%TF.GenerationSoftware,KiCad,Pcbnew,7.0.10-7.0.10~ubuntu22.04.1*%
%TF.CreationDate,2024-04-30T07:38:53+03:00*%
%TF.ProjectId,imu-mouse,696d752d-6d6f-4757-9365-2e6b69636164,v1*%
%TF.SameCoordinates,Original*%
%TF.FileFunction,Drillmap*%
%TF.FilePolarity,Positive*%
%FSLAX45Y45*%
G04 Gerber Fmt 4.5, Leading zero omitted, Abs format (unit mm)*
G04 Created by KiCad (PCBNEW 7.0.10-7.0.10~ubuntu22.04.1) date 2024-04-30 07:38:53*
%MOMM*%
%LPD*%
G01*
G04 APERTURE LIST*
%ADD10C,0.100000*%
%ADD11C,0.200000*%
G04 APERTURE END LIST*
D10*
X11850000Y-20350000D02*
G75*
G03*
X11950000Y-20250000I0J100000D01*
G01*
X11950000Y-12400000D02*
G75*
G03*
X11800000Y-12250000I-150000J0D01*
G01*
X6950000Y-20200000D02*
X6950000Y-12400000D01*
X6950000Y-20200000D02*
G75*
G03*
X7100000Y-20350000I150000J0D01*
G01*
X7100000Y-12250000D02*
X11800000Y-12250000D01*
X11950000Y-20250000D02*
X11950000Y-12400000D01*
X7100000Y-20350000D02*
X11850000Y-20350000D01*
X7100000Y-12250000D02*
G75*
G03*
X6950000Y-12400000I0J-150000D01*
G01*
D11*
D10*
X11455000Y-18833000D02*
X11545000Y-18923000D01*
X11545000Y-18833000D02*
X11455000Y-18923000D01*
X11455000Y-19513000D02*
X11545000Y-19603000D01*
X11545000Y-19513000D02*
X11455000Y-19603000D01*
D11*
X7205777Y-20666484D02*
X7205777Y-20466484D01*
X7205777Y-20466484D02*
X7253396Y-20466484D01*
X7253396Y-20466484D02*
X7281967Y-20476008D01*
X7281967Y-20476008D02*
X7301015Y-20495055D01*
X7301015Y-20495055D02*
X7310539Y-20514103D01*
X7310539Y-20514103D02*
X7320062Y-20552198D01*
X7320062Y-20552198D02*
X7320062Y-20580770D01*
X7320062Y-20580770D02*
X7310539Y-20618865D01*
X7310539Y-20618865D02*
X7301015Y-20637912D01*
X7301015Y-20637912D02*
X7281967Y-20656960D01*
X7281967Y-20656960D02*
X7253396Y-20666484D01*
X7253396Y-20666484D02*
X7205777Y-20666484D01*
X7405777Y-20666484D02*
X7405777Y-20533150D01*
X7405777Y-20571246D02*
X7415301Y-20552198D01*
X7415301Y-20552198D02*
X7424824Y-20542674D01*
X7424824Y-20542674D02*
X7443872Y-20533150D01*
X7443872Y-20533150D02*
X7462920Y-20533150D01*
X7529586Y-20666484D02*
X7529586Y-20533150D01*
X7529586Y-20466484D02*
X7520062Y-20476008D01*
X7520062Y-20476008D02*
X7529586Y-20485531D01*
X7529586Y-20485531D02*
X7539110Y-20476008D01*
X7539110Y-20476008D02*
X7529586Y-20466484D01*
X7529586Y-20466484D02*
X7529586Y-20485531D01*
X7653396Y-20666484D02*
X7634348Y-20656960D01*
X7634348Y-20656960D02*
X7624824Y-20637912D01*
X7624824Y-20637912D02*
X7624824Y-20466484D01*
X7758158Y-20666484D02*
X7739110Y-20656960D01*
X7739110Y-20656960D02*
X7729586Y-20637912D01*
X7729586Y-20637912D02*
X7729586Y-20466484D01*
X7986729Y-20666484D02*
X7986729Y-20466484D01*
X7986729Y-20466484D02*
X8053396Y-20609341D01*
X8053396Y-20609341D02*
X8120062Y-20466484D01*
X8120062Y-20466484D02*
X8120062Y-20666484D01*
X8301015Y-20666484D02*
X8301015Y-20561722D01*
X8301015Y-20561722D02*
X8291491Y-20542674D01*
X8291491Y-20542674D02*
X8272443Y-20533150D01*
X8272443Y-20533150D02*
X8234348Y-20533150D01*
X8234348Y-20533150D02*
X8215301Y-20542674D01*
X8301015Y-20656960D02*
X8281967Y-20666484D01*
X8281967Y-20666484D02*
X8234348Y-20666484D01*
X8234348Y-20666484D02*
X8215301Y-20656960D01*
X8215301Y-20656960D02*
X8205777Y-20637912D01*
X8205777Y-20637912D02*
X8205777Y-20618865D01*
X8205777Y-20618865D02*
X8215301Y-20599817D01*
X8215301Y-20599817D02*
X8234348Y-20590293D01*
X8234348Y-20590293D02*
X8281967Y-20590293D01*
X8281967Y-20590293D02*
X8301015Y-20580770D01*
X8396253Y-20533150D02*
X8396253Y-20733150D01*
X8396253Y-20542674D02*
X8415301Y-20533150D01*
X8415301Y-20533150D02*
X8453396Y-20533150D01*
X8453396Y-20533150D02*
X8472444Y-20542674D01*
X8472444Y-20542674D02*
X8481967Y-20552198D01*
X8481967Y-20552198D02*
X8491491Y-20571246D01*
X8491491Y-20571246D02*
X8491491Y-20628389D01*
X8491491Y-20628389D02*
X8481967Y-20647436D01*
X8481967Y-20647436D02*
X8472444Y-20656960D01*
X8472444Y-20656960D02*
X8453396Y-20666484D01*
X8453396Y-20666484D02*
X8415301Y-20666484D01*
X8415301Y-20666484D02*
X8396253Y-20656960D01*
X8577205Y-20647436D02*
X8586729Y-20656960D01*
X8586729Y-20656960D02*
X8577205Y-20666484D01*
X8577205Y-20666484D02*
X8567682Y-20656960D01*
X8567682Y-20656960D02*
X8577205Y-20647436D01*
X8577205Y-20647436D02*
X8577205Y-20666484D01*
X8577205Y-20542674D02*
X8586729Y-20552198D01*
X8586729Y-20552198D02*
X8577205Y-20561722D01*
X8577205Y-20561722D02*
X8567682Y-20552198D01*
X8567682Y-20552198D02*
X8577205Y-20542674D01*
X8577205Y-20542674D02*
X8577205Y-20561722D01*
D10*
X6855000Y-20950000D02*
X6945000Y-21040000D01*
X6945000Y-20950000D02*
X6855000Y-21040000D01*
D11*
X7243872Y-20886484D02*
X7262920Y-20886484D01*
X7262920Y-20886484D02*
X7281967Y-20896008D01*
X7281967Y-20896008D02*
X7291491Y-20905531D01*
X7291491Y-20905531D02*
X7301015Y-20924579D01*
X7301015Y-20924579D02*
X7310539Y-20962674D01*
X7310539Y-20962674D02*
X7310539Y-21010293D01*
X7310539Y-21010293D02*
X7301015Y-21048389D01*
X7301015Y-21048389D02*
X7291491Y-21067436D01*
X7291491Y-21067436D02*
X7281967Y-21076960D01*
X7281967Y-21076960D02*
X7262920Y-21086484D01*
X7262920Y-21086484D02*
X7243872Y-21086484D01*
X7243872Y-21086484D02*
X7224824Y-21076960D01*
X7224824Y-21076960D02*
X7215301Y-21067436D01*
X7215301Y-21067436D02*
X7205777Y-21048389D01*
X7205777Y-21048389D02*
X7196253Y-21010293D01*
X7196253Y-21010293D02*
X7196253Y-20962674D01*
X7196253Y-20962674D02*
X7205777Y-20924579D01*
X7205777Y-20924579D02*
X7215301Y-20905531D01*
X7215301Y-20905531D02*
X7224824Y-20896008D01*
X7224824Y-20896008D02*
X7243872Y-20886484D01*
X7396253Y-21067436D02*
X7405777Y-21076960D01*
X7405777Y-21076960D02*
X7396253Y-21086484D01*
X7396253Y-21086484D02*
X7386729Y-21076960D01*
X7386729Y-21076960D02*
X7396253Y-21067436D01*
X7396253Y-21067436D02*
X7396253Y-21086484D01*
X7501015Y-21086484D02*
X7539110Y-21086484D01*
X7539110Y-21086484D02*
X7558158Y-21076960D01*
X7558158Y-21076960D02*
X7567682Y-21067436D01*
X7567682Y-21067436D02*
X7586729Y-21038865D01*
X7586729Y-21038865D02*
X7596253Y-21000770D01*
X7596253Y-21000770D02*
X7596253Y-20924579D01*
X7596253Y-20924579D02*
X7586729Y-20905531D01*
X7586729Y-20905531D02*
X7577205Y-20896008D01*
X7577205Y-20896008D02*
X7558158Y-20886484D01*
X7558158Y-20886484D02*
X7520062Y-20886484D01*
X7520062Y-20886484D02*
X7501015Y-20896008D01*
X7501015Y-20896008D02*
X7491491Y-20905531D01*
X7491491Y-20905531D02*
X7481967Y-20924579D01*
X7481967Y-20924579D02*
X7481967Y-20972198D01*
X7481967Y-20972198D02*
X7491491Y-20991246D01*
X7491491Y-20991246D02*
X7501015Y-21000770D01*
X7501015Y-21000770D02*
X7520062Y-21010293D01*
X7520062Y-21010293D02*
X7558158Y-21010293D01*
X7558158Y-21010293D02*
X7577205Y-21000770D01*
X7577205Y-21000770D02*
X7586729Y-20991246D01*
X7586729Y-20991246D02*
X7596253Y-20972198D01*
X7720062Y-20886484D02*
X7739110Y-20886484D01*
X7739110Y-20886484D02*
X7758158Y-20896008D01*
X7758158Y-20896008D02*
X7767682Y-20905531D01*
X7767682Y-20905531D02*
X7777205Y-20924579D01*
X7777205Y-20924579D02*
X7786729Y-20962674D01*
X7786729Y-20962674D02*
X7786729Y-21010293D01*
X7786729Y-21010293D02*
X7777205Y-21048389D01*
X7777205Y-21048389D02*
X7767682Y-21067436D01*
X7767682Y-21067436D02*
X7758158Y-21076960D01*
X7758158Y-21076960D02*
X7739110Y-21086484D01*
X7739110Y-21086484D02*
X7720062Y-21086484D01*
X7720062Y-21086484D02*
X7701015Y-21076960D01*
X7701015Y-21076960D02*
X7691491Y-21067436D01*
X7691491Y-21067436D02*
X7681967Y-21048389D01*
X7681967Y-21048389D02*
X7672443Y-21010293D01*
X7672443Y-21010293D02*
X7672443Y-20962674D01*
X7672443Y-20962674D02*
X7681967Y-20924579D01*
X7681967Y-20924579D02*
X7691491Y-20905531D01*
X7691491Y-20905531D02*
X7701015Y-20896008D01*
X7701015Y-20896008D02*
X7720062Y-20886484D01*
X7910539Y-20886484D02*
X7929586Y-20886484D01*
X7929586Y-20886484D02*
X7948634Y-20896008D01*
X7948634Y-20896008D02*
X7958158Y-20905531D01*
X7958158Y-20905531D02*
X7967682Y-20924579D01*
X7967682Y-20924579D02*
X7977205Y-20962674D01*
X7977205Y-20962674D02*
X7977205Y-21010293D01*
X7977205Y-21010293D02*
X7967682Y-21048389D01*
X7967682Y-21048389D02*
X7958158Y-21067436D01*
X7958158Y-21067436D02*
X7948634Y-21076960D01*
X7948634Y-21076960D02*
X7929586Y-21086484D01*
X7929586Y-21086484D02*
X7910539Y-21086484D01*
X7910539Y-21086484D02*
X7891491Y-21076960D01*
X7891491Y-21076960D02*
X7881967Y-21067436D01*
X7881967Y-21067436D02*
X7872443Y-21048389D01*
X7872443Y-21048389D02*
X7862920Y-21010293D01*
X7862920Y-21010293D02*
X7862920Y-20962674D01*
X7862920Y-20962674D02*
X7872443Y-20924579D01*
X7872443Y-20924579D02*
X7881967Y-20905531D01*
X7881967Y-20905531D02*
X7891491Y-20896008D01*
X7891491Y-20896008D02*
X7910539Y-20886484D01*
X8062920Y-21086484D02*
X8062920Y-20953150D01*
X8062920Y-20972198D02*
X8072443Y-20962674D01*
X8072443Y-20962674D02*
X8091491Y-20953150D01*
X8091491Y-20953150D02*
X8120063Y-20953150D01*
X8120063Y-20953150D02*
X8139110Y-20962674D01*
X8139110Y-20962674D02*
X8148634Y-20981722D01*
X8148634Y-20981722D02*
X8148634Y-21086484D01*
X8148634Y-20981722D02*
X8158158Y-20962674D01*
X8158158Y-20962674D02*
X8177205Y-20953150D01*
X8177205Y-20953150D02*
X8205777Y-20953150D01*
X8205777Y-20953150D02*
X8224824Y-20962674D01*
X8224824Y-20962674D02*
X8234348Y-20981722D01*
X8234348Y-20981722D02*
X8234348Y-21086484D01*
X8329586Y-21086484D02*
X8329586Y-20953150D01*
X8329586Y-20972198D02*
X8339110Y-20962674D01*
X8339110Y-20962674D02*
X8358158Y-20953150D01*
X8358158Y-20953150D02*
X8386729Y-20953150D01*
X8386729Y-20953150D02*
X8405777Y-20962674D01*
X8405777Y-20962674D02*
X8415301Y-20981722D01*
X8415301Y-20981722D02*
X8415301Y-21086484D01*
X8415301Y-20981722D02*
X8424825Y-20962674D01*
X8424825Y-20962674D02*
X8443872Y-20953150D01*
X8443872Y-20953150D02*
X8472444Y-20953150D01*
X8472444Y-20953150D02*
X8491491Y-20962674D01*
X8491491Y-20962674D02*
X8501015Y-20981722D01*
X8501015Y-20981722D02*
X8501015Y-21086484D01*
X8891491Y-20876960D02*
X8720063Y-21134103D01*
X9148634Y-20886484D02*
X9167682Y-20886484D01*
X9167682Y-20886484D02*
X9186729Y-20896008D01*
X9186729Y-20896008D02*
X9196253Y-20905531D01*
X9196253Y-20905531D02*
X9205777Y-20924579D01*
X9205777Y-20924579D02*
X9215301Y-20962674D01*
X9215301Y-20962674D02*
X9215301Y-21010293D01*
X9215301Y-21010293D02*
X9205777Y-21048389D01*
X9205777Y-21048389D02*
X9196253Y-21067436D01*
X9196253Y-21067436D02*
X9186729Y-21076960D01*
X9186729Y-21076960D02*
X9167682Y-21086484D01*
X9167682Y-21086484D02*
X9148634Y-21086484D01*
X9148634Y-21086484D02*
X9129587Y-21076960D01*
X9129587Y-21076960D02*
X9120063Y-21067436D01*
X9120063Y-21067436D02*
X9110539Y-21048389D01*
X9110539Y-21048389D02*
X9101015Y-21010293D01*
X9101015Y-21010293D02*
X9101015Y-20962674D01*
X9101015Y-20962674D02*
X9110539Y-20924579D01*
X9110539Y-20924579D02*
X9120063Y-20905531D01*
X9120063Y-20905531D02*
X9129587Y-20896008D01*
X9129587Y-20896008D02*
X9148634Y-20886484D01*
X9301015Y-21067436D02*
X9310539Y-21076960D01*
X9310539Y-21076960D02*
X9301015Y-21086484D01*
X9301015Y-21086484D02*
X9291491Y-21076960D01*
X9291491Y-21076960D02*
X9301015Y-21067436D01*
X9301015Y-21067436D02*
X9301015Y-21086484D01*
X9434348Y-20886484D02*
X9453396Y-20886484D01*
X9453396Y-20886484D02*
X9472444Y-20896008D01*
X9472444Y-20896008D02*
X9481968Y-20905531D01*
X9481968Y-20905531D02*
X9491491Y-20924579D01*
X9491491Y-20924579D02*
X9501015Y-20962674D01*
X9501015Y-20962674D02*
X9501015Y-21010293D01*
X9501015Y-21010293D02*
X9491491Y-21048389D01*
X9491491Y-21048389D02*
X9481968Y-21067436D01*
X9481968Y-21067436D02*
X9472444Y-21076960D01*
X9472444Y-21076960D02*
X9453396Y-21086484D01*
X9453396Y-21086484D02*
X9434348Y-21086484D01*
X9434348Y-21086484D02*
X9415301Y-21076960D01*
X9415301Y-21076960D02*
X9405777Y-21067436D01*
X9405777Y-21067436D02*
X9396253Y-21048389D01*
X9396253Y-21048389D02*
X9386729Y-21010293D01*
X9386729Y-21010293D02*
X9386729Y-20962674D01*
X9386729Y-20962674D02*
X9396253Y-20924579D01*
X9396253Y-20924579D02*
X9405777Y-20905531D01*
X9405777Y-20905531D02*
X9415301Y-20896008D01*
X9415301Y-20896008D02*
X9434348Y-20886484D01*
X9567682Y-20886484D02*
X9691491Y-20886484D01*
X9691491Y-20886484D02*
X9624825Y-20962674D01*
X9624825Y-20962674D02*
X9653396Y-20962674D01*
X9653396Y-20962674D02*
X9672444Y-20972198D01*
X9672444Y-20972198D02*
X9681968Y-20981722D01*
X9681968Y-20981722D02*
X9691491Y-21000770D01*
X9691491Y-21000770D02*
X9691491Y-21048389D01*
X9691491Y-21048389D02*
X9681968Y-21067436D01*
X9681968Y-21067436D02*
X9672444Y-21076960D01*
X9672444Y-21076960D02*
X9653396Y-21086484D01*
X9653396Y-21086484D02*
X9596253Y-21086484D01*
X9596253Y-21086484D02*
X9577206Y-21076960D01*
X9577206Y-21076960D02*
X9567682Y-21067436D01*
X9872444Y-20886484D02*
X9777206Y-20886484D01*
X9777206Y-20886484D02*
X9767682Y-20981722D01*
X9767682Y-20981722D02*
X9777206Y-20972198D01*
X9777206Y-20972198D02*
X9796253Y-20962674D01*
X9796253Y-20962674D02*
X9843872Y-20962674D01*
X9843872Y-20962674D02*
X9862920Y-20972198D01*
X9862920Y-20972198D02*
X9872444Y-20981722D01*
X9872444Y-20981722D02*
X9881968Y-21000770D01*
X9881968Y-21000770D02*
X9881968Y-21048389D01*
X9881968Y-21048389D02*
X9872444Y-21067436D01*
X9872444Y-21067436D02*
X9862920Y-21076960D01*
X9862920Y-21076960D02*
X9843872Y-21086484D01*
X9843872Y-21086484D02*
X9796253Y-21086484D01*
X9796253Y-21086484D02*
X9777206Y-21076960D01*
X9777206Y-21076960D02*
X9767682Y-21067436D01*
X10053396Y-20953150D02*
X10053396Y-21086484D01*
X10005777Y-20876960D02*
X9958158Y-21019817D01*
X9958158Y-21019817D02*
X10081968Y-21019817D01*
X10148634Y-20886484D02*
X10148634Y-20924579D01*
X10224825Y-20886484D02*
X10224825Y-20924579D01*
X10520063Y-21162674D02*
X10510539Y-21153150D01*
X10510539Y-21153150D02*
X10491491Y-21124579D01*
X10491491Y-21124579D02*
X10481968Y-21105531D01*
X10481968Y-21105531D02*
X10472444Y-21076960D01*
X10472444Y-21076960D02*
X10462920Y-21029341D01*
X10462920Y-21029341D02*
X10462920Y-20991246D01*
X10462920Y-20991246D02*
X10472444Y-20943627D01*
X10472444Y-20943627D02*
X10481968Y-20915055D01*
X10481968Y-20915055D02*
X10491491Y-20896008D01*
X10491491Y-20896008D02*
X10510539Y-20867436D01*
X10510539Y-20867436D02*
X10520063Y-20857912D01*
X10586730Y-20905531D02*
X10596253Y-20896008D01*
X10596253Y-20896008D02*
X10615301Y-20886484D01*
X10615301Y-20886484D02*
X10662920Y-20886484D01*
X10662920Y-20886484D02*
X10681968Y-20896008D01*
X10681968Y-20896008D02*
X10691491Y-20905531D01*
X10691491Y-20905531D02*
X10701015Y-20924579D01*
X10701015Y-20924579D02*
X10701015Y-20943627D01*
X10701015Y-20943627D02*
X10691491Y-20972198D01*
X10691491Y-20972198D02*
X10577206Y-21086484D01*
X10577206Y-21086484D02*
X10701015Y-21086484D01*
X10939111Y-21086484D02*
X10939111Y-20886484D01*
X11024825Y-21086484D02*
X11024825Y-20981722D01*
X11024825Y-20981722D02*
X11015301Y-20962674D01*
X11015301Y-20962674D02*
X10996253Y-20953150D01*
X10996253Y-20953150D02*
X10967682Y-20953150D01*
X10967682Y-20953150D02*
X10948634Y-20962674D01*
X10948634Y-20962674D02*
X10939111Y-20972198D01*
X11148634Y-21086484D02*
X11129587Y-21076960D01*
X11129587Y-21076960D02*
X11120063Y-21067436D01*
X11120063Y-21067436D02*
X11110539Y-21048389D01*
X11110539Y-21048389D02*
X11110539Y-20991246D01*
X11110539Y-20991246D02*
X11120063Y-20972198D01*
X11120063Y-20972198D02*
X11129587Y-20962674D01*
X11129587Y-20962674D02*
X11148634Y-20953150D01*
X11148634Y-20953150D02*
X11177206Y-20953150D01*
X11177206Y-20953150D02*
X11196253Y-20962674D01*
X11196253Y-20962674D02*
X11205777Y-20972198D01*
X11205777Y-20972198D02*
X11215301Y-20991246D01*
X11215301Y-20991246D02*
X11215301Y-21048389D01*
X11215301Y-21048389D02*
X11205777Y-21067436D01*
X11205777Y-21067436D02*
X11196253Y-21076960D01*
X11196253Y-21076960D02*
X11177206Y-21086484D01*
X11177206Y-21086484D02*
X11148634Y-21086484D01*
X11329587Y-21086484D02*
X11310539Y-21076960D01*
X11310539Y-21076960D02*
X11301015Y-21057912D01*
X11301015Y-21057912D02*
X11301015Y-20886484D01*
X11481968Y-21076960D02*
X11462920Y-21086484D01*
X11462920Y-21086484D02*
X11424825Y-21086484D01*
X11424825Y-21086484D02*
X11405777Y-21076960D01*
X11405777Y-21076960D02*
X11396253Y-21057912D01*
X11396253Y-21057912D02*
X11396253Y-20981722D01*
X11396253Y-20981722D02*
X11405777Y-20962674D01*
X11405777Y-20962674D02*
X11424825Y-20953150D01*
X11424825Y-20953150D02*
X11462920Y-20953150D01*
X11462920Y-20953150D02*
X11481968Y-20962674D01*
X11481968Y-20962674D02*
X11491491Y-20981722D01*
X11491491Y-20981722D02*
X11491491Y-21000770D01*
X11491491Y-21000770D02*
X11396253Y-21019817D01*
X11567682Y-21076960D02*
X11586730Y-21086484D01*
X11586730Y-21086484D02*
X11624825Y-21086484D01*
X11624825Y-21086484D02*
X11643872Y-21076960D01*
X11643872Y-21076960D02*
X11653396Y-21057912D01*
X11653396Y-21057912D02*
X11653396Y-21048389D01*
X11653396Y-21048389D02*
X11643872Y-21029341D01*
X11643872Y-21029341D02*
X11624825Y-21019817D01*
X11624825Y-21019817D02*
X11596253Y-21019817D01*
X11596253Y-21019817D02*
X11577206Y-21010293D01*
X11577206Y-21010293D02*
X11567682Y-20991246D01*
X11567682Y-20991246D02*
X11567682Y-20981722D01*
X11567682Y-20981722D02*
X11577206Y-20962674D01*
X11577206Y-20962674D02*
X11596253Y-20953150D01*
X11596253Y-20953150D02*
X11624825Y-20953150D01*
X11624825Y-20953150D02*
X11643872Y-20962674D01*
X11720063Y-21162674D02*
X11729587Y-21153150D01*
X11729587Y-21153150D02*
X11748634Y-21124579D01*
X11748634Y-21124579D02*
X11758158Y-21105531D01*
X11758158Y-21105531D02*
X11767682Y-21076960D01*
X11767682Y-21076960D02*
X11777206Y-21029341D01*
X11777206Y-21029341D02*
X11777206Y-20991246D01*
X11777206Y-20991246D02*
X11767682Y-20943627D01*
X11767682Y-20943627D02*
X11758158Y-20915055D01*
X11758158Y-20915055D02*
X11748634Y-20896008D01*
X11748634Y-20896008D02*
X11729587Y-20867436D01*
X11729587Y-20867436D02*
X11720063Y-20857912D01*
X12081968Y-21162674D02*
X12072444Y-21153150D01*
X12072444Y-21153150D02*
X12053396Y-21124579D01*
X12053396Y-21124579D02*
X12043872Y-21105531D01*
X12043872Y-21105531D02*
X12034349Y-21076960D01*
X12034349Y-21076960D02*
X12024825Y-21029341D01*
X12024825Y-21029341D02*
X12024825Y-20991246D01*
X12024825Y-20991246D02*
X12034349Y-20943627D01*
X12034349Y-20943627D02*
X12043872Y-20915055D01*
X12043872Y-20915055D02*
X12053396Y-20896008D01*
X12053396Y-20896008D02*
X12072444Y-20867436D01*
X12072444Y-20867436D02*
X12081968Y-20857912D01*
X12158158Y-20953150D02*
X12158158Y-21086484D01*
X12158158Y-20972198D02*
X12167682Y-20962674D01*
X12167682Y-20962674D02*
X12186730Y-20953150D01*
X12186730Y-20953150D02*
X12215301Y-20953150D01*
X12215301Y-20953150D02*
X12234349Y-20962674D01*
X12234349Y-20962674D02*
X12243872Y-20981722D01*
X12243872Y-20981722D02*
X12243872Y-21086484D01*
X12367682Y-21086484D02*
X12348634Y-21076960D01*
X12348634Y-21076960D02*
X12339111Y-21067436D01*
X12339111Y-21067436D02*
X12329587Y-21048389D01*
X12329587Y-21048389D02*
X12329587Y-20991246D01*
X12329587Y-20991246D02*
X12339111Y-20972198D01*
X12339111Y-20972198D02*
X12348634Y-20962674D01*
X12348634Y-20962674D02*
X12367682Y-20953150D01*
X12367682Y-20953150D02*
X12396253Y-20953150D01*
X12396253Y-20953150D02*
X12415301Y-20962674D01*
X12415301Y-20962674D02*
X12424825Y-20972198D01*
X12424825Y-20972198D02*
X12434349Y-20991246D01*
X12434349Y-20991246D02*
X12434349Y-21048389D01*
X12434349Y-21048389D02*
X12424825Y-21067436D01*
X12424825Y-21067436D02*
X12415301Y-21076960D01*
X12415301Y-21076960D02*
X12396253Y-21086484D01*
X12396253Y-21086484D02*
X12367682Y-21086484D01*
X12491492Y-20953150D02*
X12567682Y-20953150D01*
X12520063Y-20886484D02*
X12520063Y-21057912D01*
X12520063Y-21057912D02*
X12529587Y-21076960D01*
X12529587Y-21076960D02*
X12548634Y-21086484D01*
X12548634Y-21086484D02*
X12567682Y-21086484D01*
X12786730Y-20953150D02*
X12786730Y-21153150D01*
X12786730Y-20962674D02*
X12805777Y-20953150D01*
X12805777Y-20953150D02*
X12843873Y-20953150D01*
X12843873Y-20953150D02*
X12862920Y-20962674D01*
X12862920Y-20962674D02*
X12872444Y-20972198D01*
X12872444Y-20972198D02*
X12881968Y-20991246D01*
X12881968Y-20991246D02*
X12881968Y-21048389D01*
X12881968Y-21048389D02*
X12872444Y-21067436D01*
X12872444Y-21067436D02*
X12862920Y-21076960D01*
X12862920Y-21076960D02*
X12843873Y-21086484D01*
X12843873Y-21086484D02*
X12805777Y-21086484D01*
X12805777Y-21086484D02*
X12786730Y-21076960D01*
X12996253Y-21086484D02*
X12977206Y-21076960D01*
X12977206Y-21076960D02*
X12967682Y-21057912D01*
X12967682Y-21057912D02*
X12967682Y-20886484D01*
X13158158Y-21086484D02*
X13158158Y-20981722D01*
X13158158Y-20981722D02*
X13148634Y-20962674D01*
X13148634Y-20962674D02*
X13129587Y-20953150D01*
X13129587Y-20953150D02*
X13091492Y-20953150D01*
X13091492Y-20953150D02*
X13072444Y-20962674D01*
X13158158Y-21076960D02*
X13139111Y-21086484D01*
X13139111Y-21086484D02*
X13091492Y-21086484D01*
X13091492Y-21086484D02*
X13072444Y-21076960D01*
X13072444Y-21076960D02*
X13062920Y-21057912D01*
X13062920Y-21057912D02*
X13062920Y-21038865D01*
X13062920Y-21038865D02*
X13072444Y-21019817D01*
X13072444Y-21019817D02*
X13091492Y-21010293D01*
X13091492Y-21010293D02*
X13139111Y-21010293D01*
X13139111Y-21010293D02*
X13158158Y-21000770D01*
X13224825Y-20953150D02*
X13301015Y-20953150D01*
X13253396Y-20886484D02*
X13253396Y-21057912D01*
X13253396Y-21057912D02*
X13262920Y-21076960D01*
X13262920Y-21076960D02*
X13281968Y-21086484D01*
X13281968Y-21086484D02*
X13301015Y-21086484D01*
X13443873Y-21076960D02*
X13424825Y-21086484D01*
X13424825Y-21086484D02*
X13386730Y-21086484D01*
X13386730Y-21086484D02*
X13367682Y-21076960D01*
X13367682Y-21076960D02*
X13358158Y-21057912D01*
X13358158Y-21057912D02*
X13358158Y-20981722D01*
X13358158Y-20981722D02*
X13367682Y-20962674D01*
X13367682Y-20962674D02*
X13386730Y-20953150D01*
X13386730Y-20953150D02*
X13424825Y-20953150D01*
X13424825Y-20953150D02*
X13443873Y-20962674D01*
X13443873Y-20962674D02*
X13453396Y-20981722D01*
X13453396Y-20981722D02*
X13453396Y-21000770D01*
X13453396Y-21000770D02*
X13358158Y-21019817D01*
X13624825Y-21086484D02*
X13624825Y-20886484D01*
X13624825Y-21076960D02*
X13605777Y-21086484D01*
X13605777Y-21086484D02*
X13567682Y-21086484D01*
X13567682Y-21086484D02*
X13548634Y-21076960D01*
X13548634Y-21076960D02*
X13539111Y-21067436D01*
X13539111Y-21067436D02*
X13529587Y-21048389D01*
X13529587Y-21048389D02*
X13529587Y-20991246D01*
X13529587Y-20991246D02*
X13539111Y-20972198D01*
X13539111Y-20972198D02*
X13548634Y-20962674D01*
X13548634Y-20962674D02*
X13567682Y-20953150D01*
X13567682Y-20953150D02*
X13605777Y-20953150D01*
X13605777Y-20953150D02*
X13624825Y-20962674D01*
X13701015Y-21162674D02*
X13710539Y-21153150D01*
X13710539Y-21153150D02*
X13729587Y-21124579D01*
X13729587Y-21124579D02*
X13739111Y-21105531D01*
X13739111Y-21105531D02*
X13748634Y-21076960D01*
X13748634Y-21076960D02*
X13758158Y-21029341D01*
X13758158Y-21029341D02*
X13758158Y-20991246D01*
X13758158Y-20991246D02*
X13748634Y-20943627D01*
X13748634Y-20943627D02*
X13739111Y-20915055D01*
X13739111Y-20915055D02*
X13729587Y-20896008D01*
X13729587Y-20896008D02*
X13710539Y-20867436D01*
X13710539Y-20867436D02*
X13701015Y-20857912D01*
M02*
