%TF.GenerationSoftware,KiCad,Pcbnew,7.0.10-7.0.10~ubuntu22.04.1*%
%TF.CreationDate,2024-04-30T07:38:50+03:00*%
%TF.ProjectId,imu-mouse,696d752d-6d6f-4757-9365-2e6b69636164,v1*%
%TF.SameCoordinates,Original*%
%TF.FileFunction,Paste,Top*%
%TF.FilePolarity,Positive*%
%FSLAX46Y46*%
G04 Gerber Fmt 4.6, Leading zero omitted, Abs format (unit mm)*
G04 Created by KiCad (PCBNEW 7.0.10-7.0.10~ubuntu22.04.1) date 2024-04-30 07:38:50*
%MOMM*%
%LPD*%
G01*
G04 APERTURE LIST*
G04 Aperture macros list*
%AMRoundRect*
0 Rectangle with rounded corners*
0 $1 Rounding radius*
0 $2 $3 $4 $5 $6 $7 $8 $9 X,Y pos of 4 corners*
0 Add a 4 corners polygon primitive as box body*
4,1,4,$2,$3,$4,$5,$6,$7,$8,$9,$2,$3,0*
0 Add four circle primitives for the rounded corners*
1,1,$1+$1,$2,$3*
1,1,$1+$1,$4,$5*
1,1,$1+$1,$6,$7*
1,1,$1+$1,$8,$9*
0 Add four rect primitives between the rounded corners*
20,1,$1+$1,$2,$3,$4,$5,0*
20,1,$1+$1,$4,$5,$6,$7,0*
20,1,$1+$1,$6,$7,$8,$9,0*
20,1,$1+$1,$8,$9,$2,$3,0*%
G04 Aperture macros list end*
%ADD10RoundRect,0.243750X0.243750X0.456250X-0.243750X0.456250X-0.243750X-0.456250X0.243750X-0.456250X0*%
%ADD11R,1.600000X1.000000*%
%ADD12RoundRect,0.250000X-0.250000X-0.475000X0.250000X-0.475000X0.250000X0.475000X-0.250000X0.475000X0*%
%ADD13RoundRect,0.006200X0.323800X0.148800X-0.323800X0.148800X-0.323800X-0.148800X0.323800X-0.148800X0*%
%ADD14RoundRect,0.250000X0.262500X0.450000X-0.262500X0.450000X-0.262500X-0.450000X0.262500X-0.450000X0*%
%ADD15R,0.350000X0.350000*%
%ADD16R,0.420000X0.420000*%
%ADD17RoundRect,0.250000X0.450000X-0.262500X0.450000X0.262500X-0.450000X0.262500X-0.450000X-0.262500X0*%
%ADD18C,0.200000*%
%ADD19RoundRect,0.150000X-0.512500X-0.150000X0.512500X-0.150000X0.512500X0.150000X-0.512500X0.150000X0*%
%ADD20RoundRect,0.250000X-0.475000X0.250000X-0.475000X-0.250000X0.475000X-0.250000X0.475000X0.250000X0*%
%ADD21RoundRect,0.250000X-0.262500X-0.450000X0.262500X-0.450000X0.262500X0.450000X-0.262500X0.450000X0*%
%ADD22R,1.550000X1.300000*%
%ADD23C,0.220000*%
%ADD24RoundRect,0.243750X-0.243750X-0.456250X0.243750X-0.456250X0.243750X0.456250X-0.243750X0.456250X0*%
%ADD25R,0.914400X0.660400*%
%ADD26RoundRect,0.250000X0.250000X0.475000X-0.250000X0.475000X-0.250000X-0.475000X0.250000X-0.475000X0*%
%ADD27RoundRect,0.175000X-0.175000X-0.425000X0.175000X-0.425000X0.175000X0.425000X-0.175000X0.425000X0*%
%ADD28RoundRect,0.190000X0.190000X0.410000X-0.190000X0.410000X-0.190000X-0.410000X0.190000X-0.410000X0*%
%ADD29RoundRect,0.200000X0.200000X0.400000X-0.200000X0.400000X-0.200000X-0.400000X0.200000X-0.400000X0*%
%ADD30RoundRect,0.175000X0.175000X0.425000X-0.175000X0.425000X-0.175000X-0.425000X0.175000X-0.425000X0*%
%ADD31RoundRect,0.190000X-0.190000X-0.410000X0.190000X-0.410000X0.190000X0.410000X-0.190000X0.410000X0*%
%ADD32RoundRect,0.200000X-0.200000X-0.400000X0.200000X-0.400000X0.200000X0.400000X-0.200000X0.400000X0*%
%ADD33O,1.100000X1.700000*%
%ADD34R,1.100000X0.600000*%
%ADD35R,0.475000X0.250000*%
%ADD36R,0.250000X0.475000*%
%ADD37R,0.250000X0.250000*%
%ADD38RoundRect,0.250000X-0.450000X0.262500X-0.450000X-0.262500X0.450000X-0.262500X0.450000X0.262500X0*%
%ADD39RoundRect,0.250000X0.475000X-0.250000X0.475000X0.250000X-0.475000X0.250000X-0.475000X-0.250000X0*%
%ADD40RoundRect,0.218750X0.218750X0.381250X-0.218750X0.381250X-0.218750X-0.381250X0.218750X-0.381250X0*%
%ADD41R,0.350000X0.300000*%
%ADD42R,0.250000X0.300000*%
%ADD43R,1.422400X0.812800*%
%ADD44R,0.304800X0.304800*%
G04 APERTURE END LIST*
D10*
%TO.C,D1*%
X80900000Y-145800000D03*
X79025000Y-145800000D03*
%TD*%
D11*
%TO.C,SW1*%
X113800000Y-194680000D03*
X113800000Y-192180000D03*
X113800000Y-189680000D03*
X116200000Y-194680000D03*
X116200000Y-192180000D03*
X116200000Y-189680000D03*
%TD*%
D12*
%TO.C,C14*%
X109540000Y-155760000D03*
X111440000Y-155760000D03*
%TD*%
D13*
%TO.C,Q1*%
X78300000Y-167380000D03*
X78300000Y-166880000D03*
X78300000Y-166380000D03*
X76830000Y-166380000D03*
X76830000Y-166880000D03*
X76830000Y-167380000D03*
%TD*%
D14*
%TO.C,R6*%
X76115000Y-174500000D03*
X74290000Y-174500000D03*
%TD*%
D12*
%TO.C,C13*%
X109540000Y-153220000D03*
X111440000Y-153220000D03*
%TD*%
D15*
%TO.C,U5*%
X95580000Y-124920000D03*
X94930000Y-124920000D03*
X93988000Y-124920000D03*
X93338000Y-124920000D03*
X92688000Y-124920000D03*
X92038000Y-124920000D03*
X91388000Y-124920000D03*
X90738000Y-124920000D03*
X90088000Y-124920000D03*
X93013000Y-125570000D03*
X92363000Y-125570000D03*
X91713000Y-125570000D03*
X91063000Y-125570000D03*
X89900000Y-125810000D03*
X89900000Y-126460000D03*
X89900000Y-127110000D03*
X89900000Y-127760000D03*
X89900000Y-128410000D03*
X89900000Y-129060000D03*
X89900000Y-129710000D03*
X90550000Y-126785000D03*
X90550000Y-127435000D03*
X90550000Y-128085000D03*
X90550000Y-128735000D03*
X90088000Y-130600000D03*
X90738000Y-130600000D03*
X91388000Y-130600000D03*
X92038000Y-130600000D03*
X92688000Y-130600000D03*
X93338000Y-130600000D03*
X93988000Y-130600000D03*
X94930000Y-130600000D03*
X95580000Y-130600000D03*
X91063000Y-129950000D03*
X91713000Y-129950000D03*
X92363000Y-129950000D03*
X93013000Y-129950000D03*
X94175000Y-129710000D03*
X94175000Y-129060000D03*
X94175000Y-128410000D03*
X94175000Y-127760000D03*
X94175000Y-127110000D03*
X94175000Y-126460000D03*
X94175000Y-125810000D03*
X93525000Y-128735000D03*
X93525000Y-128085000D03*
X93525000Y-127435000D03*
X93525000Y-126785000D03*
D16*
X92488000Y-127240000D03*
X91588000Y-127240000D03*
X91588000Y-128280000D03*
X92488000Y-128280000D03*
%TD*%
D17*
%TO.C,R14*%
X89500000Y-136045000D03*
X89500000Y-134220000D03*
%TD*%
D18*
%TO.C,U8*%
X98173595Y-179238558D03*
X98573595Y-179238558D03*
X98973595Y-179238558D03*
X98173595Y-179638558D03*
X98573595Y-179638558D03*
X98973595Y-179638558D03*
X98173595Y-180038558D03*
X98573595Y-180038558D03*
X98973595Y-180038558D03*
%TD*%
D19*
%TO.C,U9*%
X78362500Y-190230000D03*
X78362500Y-191180000D03*
X78362500Y-192130000D03*
X80637500Y-192130000D03*
X80637500Y-190230000D03*
%TD*%
D20*
%TO.C,C12*%
X100100000Y-170700000D03*
X100100000Y-172600000D03*
%TD*%
D21*
%TO.C,R4*%
X85165000Y-179580000D03*
X86990000Y-179580000D03*
%TD*%
D20*
%TO.C,C11*%
X97000000Y-170700000D03*
X97000000Y-172600000D03*
%TD*%
D22*
%TO.C,SW4*%
X105020000Y-136930000D03*
X112980000Y-136930000D03*
X105020000Y-141430000D03*
X112980000Y-141430000D03*
%TD*%
D12*
%TO.C,C18*%
X97420000Y-182320000D03*
X99320000Y-182320000D03*
%TD*%
D23*
%TO.C,U4*%
X77900000Y-154380000D03*
X78300000Y-154380000D03*
X78700000Y-154380000D03*
X79100000Y-154380000D03*
X79500000Y-154380000D03*
X77900000Y-154780000D03*
X78300000Y-154780000D03*
X78700000Y-154780000D03*
X79100000Y-154780000D03*
X79500000Y-154780000D03*
X77900000Y-155180000D03*
X78300000Y-155180000D03*
X78700000Y-155180000D03*
X79100000Y-155180000D03*
X79500000Y-155180000D03*
X77900000Y-155580000D03*
X78300000Y-155580000D03*
X78700000Y-155580000D03*
X79100000Y-155580000D03*
X79500000Y-155580000D03*
X77900000Y-155980000D03*
X78300000Y-155980000D03*
X78700000Y-155980000D03*
X79100000Y-155980000D03*
X79500000Y-155980000D03*
%TD*%
D22*
%TO.C,SW3*%
X76020000Y-136930000D03*
X83980000Y-136930000D03*
X76020000Y-141430000D03*
X83980000Y-141430000D03*
%TD*%
D24*
%TO.C,D2*%
X73225000Y-145800000D03*
X75100000Y-145800000D03*
%TD*%
D25*
%TO.C,U2*%
X80665400Y-178629999D03*
X80665400Y-180530001D03*
X83154600Y-179580000D03*
%TD*%
D12*
%TO.C,C6*%
X82890000Y-125420000D03*
X84790000Y-125420000D03*
%TD*%
D14*
%TO.C,R15*%
X78740000Y-164180000D03*
X76915000Y-164180000D03*
%TD*%
D26*
%TO.C,C1*%
X75575000Y-154640000D03*
X73675000Y-154640000D03*
%TD*%
D27*
%TO.C,J3*%
X93955024Y-197029206D03*
D28*
X95975024Y-197029206D03*
D29*
X97205024Y-197029206D03*
D30*
X94955024Y-197029206D03*
D31*
X92935024Y-197029206D03*
D32*
X91705024Y-197029206D03*
D33*
X90135024Y-197109206D03*
X90135024Y-200909206D03*
X98775024Y-197109206D03*
X98775024Y-200909206D03*
%TD*%
D21*
%TO.C,R5*%
X85165000Y-184660000D03*
X86990000Y-184660000D03*
%TD*%
D26*
%TO.C,C8*%
X84800000Y-132500000D03*
X82900000Y-132500000D03*
%TD*%
D14*
%TO.C,R7*%
X76115000Y-179580000D03*
X74290000Y-179580000D03*
%TD*%
D21*
%TO.C,R20*%
X109540000Y-158300000D03*
X111365000Y-158300000D03*
%TD*%
D14*
%TO.C,R8*%
X76115000Y-184660000D03*
X74290000Y-184660000D03*
%TD*%
D17*
%TO.C,R10*%
X94590000Y-194400000D03*
X94590000Y-192575000D03*
%TD*%
D12*
%TO.C,C2*%
X77800000Y-151900000D03*
X79700000Y-151900000D03*
%TD*%
D34*
%TO.C,Y1*%
X84840000Y-128620000D03*
X84840000Y-127220000D03*
%TD*%
D21*
%TO.C,R3*%
X85165000Y-174500000D03*
X86990000Y-174500000D03*
%TD*%
D12*
%TO.C,C5*%
X82100000Y-155180000D03*
X84000000Y-155180000D03*
%TD*%
D14*
%TO.C,R2*%
X75500000Y-157180000D03*
X73675000Y-157180000D03*
%TD*%
D35*
%TO.C,U6*%
X97175000Y-166600000D03*
X97175000Y-167100000D03*
X97175000Y-167600000D03*
X97175000Y-168100000D03*
D36*
X97837500Y-168262500D03*
X98337500Y-168262500D03*
X98837500Y-168262500D03*
D35*
X99500000Y-168100000D03*
X99500000Y-167600000D03*
X99500000Y-167100000D03*
X99500000Y-166600000D03*
D36*
X98837500Y-166437500D03*
X98337500Y-166437500D03*
X97837500Y-166437500D03*
D37*
X97837500Y-167600000D03*
X98337500Y-167600000D03*
X98837500Y-167600000D03*
X98837500Y-167100000D03*
X98337500Y-167100000D03*
X97837500Y-167100000D03*
%TD*%
D14*
%TO.C,R19*%
X104425000Y-168700000D03*
X102600000Y-168700000D03*
%TD*%
D26*
%TO.C,C7*%
X84790000Y-130420000D03*
X82890000Y-130420000D03*
%TD*%
D25*
%TO.C,U1*%
X80665400Y-173549999D03*
X80665400Y-175450001D03*
X83154600Y-174500000D03*
%TD*%
D21*
%TO.C,R16*%
X76830000Y-169420000D03*
X78655000Y-169420000D03*
%TD*%
D38*
%TO.C,R18*%
X81910000Y-165967500D03*
X81910000Y-167792500D03*
%TD*%
D39*
%TO.C,C3*%
X92000000Y-194437500D03*
X92000000Y-192537500D03*
%TD*%
D17*
%TO.C,R11*%
X91985675Y-136051599D03*
X91985675Y-134226599D03*
%TD*%
D26*
%TO.C,C4*%
X75575000Y-152100000D03*
X73675000Y-152100000D03*
%TD*%
D22*
%TO.C,SW5*%
X90020000Y-148930000D03*
X97980000Y-148930000D03*
X90020000Y-153430000D03*
X97980000Y-153430000D03*
%TD*%
D40*
%TO.C,L1*%
X84100000Y-153200000D03*
X81975000Y-153200000D03*
%TD*%
D12*
%TO.C,C9*%
X102512500Y-166140000D03*
X104412500Y-166140000D03*
%TD*%
D41*
%TO.C,U7*%
X103935000Y-154210000D03*
X103935000Y-154710000D03*
X103935000Y-155210000D03*
X103935000Y-155710000D03*
D42*
X104460000Y-155760000D03*
X104960000Y-155760000D03*
D41*
X105485000Y-155710000D03*
X105485000Y-155210000D03*
X105485000Y-154710000D03*
X105485000Y-154210000D03*
D42*
X104960000Y-154160000D03*
X104460000Y-154160000D03*
%TD*%
D43*
%TO.C,SW2*%
X105199800Y-190875000D03*
X105199800Y-192525000D03*
X108400200Y-192525000D03*
X108400200Y-190875000D03*
%TD*%
D44*
%TO.C,LED1*%
X73000000Y-188180000D03*
X73000000Y-187570400D03*
X72390400Y-187570400D03*
X72390400Y-188180000D03*
%TD*%
D39*
%TO.C,C17*%
X83000000Y-192180000D03*
X83000000Y-190280000D03*
%TD*%
D14*
%TO.C,R1*%
X78962500Y-159160000D03*
X77137500Y-159160000D03*
%TD*%
D25*
%TO.C,U3*%
X80665400Y-183709999D03*
X80665400Y-185610001D03*
X83154600Y-184660000D03*
%TD*%
D38*
%TO.C,R17*%
X74290000Y-165967500D03*
X74290000Y-167792500D03*
%TD*%
D17*
%TO.C,R13*%
X97065675Y-136051599D03*
X97065675Y-134226599D03*
%TD*%
D20*
%TO.C,C15*%
X102500000Y-179780000D03*
X102500000Y-181680000D03*
%TD*%
D17*
%TO.C,R9*%
X97150000Y-194400000D03*
X97150000Y-192575000D03*
%TD*%
%TO.C,R12*%
X94525675Y-136051599D03*
X94525675Y-134226599D03*
%TD*%
D39*
%TO.C,C10*%
X76000000Y-192130000D03*
X76000000Y-190230000D03*
%TD*%
%TO.C,C16*%
X94880000Y-181680000D03*
X94880000Y-179780000D03*
%TD*%
M02*
