%TF.GenerationSoftware,KiCad,Pcbnew,7.0.10-7.0.10~ubuntu22.04.1*%
%TF.CreationDate,2024-04-30T07:38:50+03:00*%
%TF.ProjectId,imu-mouse,696d752d-6d6f-4757-9365-2e6b69636164,v1*%
%TF.SameCoordinates,Original*%
%TF.FileFunction,Legend,Top*%
%TF.FilePolarity,Positive*%
%FSLAX46Y46*%
G04 Gerber Fmt 4.6, Leading zero omitted, Abs format (unit mm)*
G04 Created by KiCad (PCBNEW 7.0.10-7.0.10~ubuntu22.04.1) date 2024-04-30 07:38:50*
%MOMM*%
%LPD*%
G01*
G04 APERTURE LIST*
%ADD10C,0.150000*%
%ADD11C,0.120000*%
%ADD12C,0.100000*%
%ADD13C,0.200000*%
%ADD14C,0.127000*%
%ADD15C,0.250000*%
%ADD16C,0.152400*%
G04 APERTURE END LIST*
D10*
X72806292Y-143654109D02*
X73139625Y-143654109D01*
X73282482Y-144177919D02*
X72806292Y-144177919D01*
X72806292Y-144177919D02*
X72806292Y-143177919D01*
X72806292Y-143177919D02*
X73282482Y-143177919D01*
X74282482Y-144177919D02*
X73949149Y-143701728D01*
X73711054Y-144177919D02*
X73711054Y-143177919D01*
X73711054Y-143177919D02*
X74092006Y-143177919D01*
X74092006Y-143177919D02*
X74187244Y-143225538D01*
X74187244Y-143225538D02*
X74234863Y-143273157D01*
X74234863Y-143273157D02*
X74282482Y-143368395D01*
X74282482Y-143368395D02*
X74282482Y-143511252D01*
X74282482Y-143511252D02*
X74234863Y-143606490D01*
X74234863Y-143606490D02*
X74187244Y-143654109D01*
X74187244Y-143654109D02*
X74092006Y-143701728D01*
X74092006Y-143701728D02*
X73711054Y-143701728D01*
X75282482Y-144177919D02*
X74949149Y-143701728D01*
X74711054Y-144177919D02*
X74711054Y-143177919D01*
X74711054Y-143177919D02*
X75092006Y-143177919D01*
X75092006Y-143177919D02*
X75187244Y-143225538D01*
X75187244Y-143225538D02*
X75234863Y-143273157D01*
X75234863Y-143273157D02*
X75282482Y-143368395D01*
X75282482Y-143368395D02*
X75282482Y-143511252D01*
X75282482Y-143511252D02*
X75234863Y-143606490D01*
X75234863Y-143606490D02*
X75187244Y-143654109D01*
X75187244Y-143654109D02*
X75092006Y-143701728D01*
X75092006Y-143701728D02*
X74711054Y-143701728D01*
X79067720Y-144082680D02*
X79020101Y-144130300D01*
X79020101Y-144130300D02*
X78877244Y-144177919D01*
X78877244Y-144177919D02*
X78782006Y-144177919D01*
X78782006Y-144177919D02*
X78639149Y-144130300D01*
X78639149Y-144130300D02*
X78543911Y-144035061D01*
X78543911Y-144035061D02*
X78496292Y-143939823D01*
X78496292Y-143939823D02*
X78448673Y-143749347D01*
X78448673Y-143749347D02*
X78448673Y-143606490D01*
X78448673Y-143606490D02*
X78496292Y-143416014D01*
X78496292Y-143416014D02*
X78543911Y-143320776D01*
X78543911Y-143320776D02*
X78639149Y-143225538D01*
X78639149Y-143225538D02*
X78782006Y-143177919D01*
X78782006Y-143177919D02*
X78877244Y-143177919D01*
X78877244Y-143177919D02*
X79020101Y-143225538D01*
X79020101Y-143225538D02*
X79067720Y-143273157D01*
X79496292Y-144177919D02*
X79496292Y-143177919D01*
X79496292Y-143654109D02*
X80067720Y-143654109D01*
X80067720Y-144177919D02*
X80067720Y-143177919D01*
X81067720Y-143225538D02*
X80972482Y-143177919D01*
X80972482Y-143177919D02*
X80829625Y-143177919D01*
X80829625Y-143177919D02*
X80686768Y-143225538D01*
X80686768Y-143225538D02*
X80591530Y-143320776D01*
X80591530Y-143320776D02*
X80543911Y-143416014D01*
X80543911Y-143416014D02*
X80496292Y-143606490D01*
X80496292Y-143606490D02*
X80496292Y-143749347D01*
X80496292Y-143749347D02*
X80543911Y-143939823D01*
X80543911Y-143939823D02*
X80591530Y-144035061D01*
X80591530Y-144035061D02*
X80686768Y-144130300D01*
X80686768Y-144130300D02*
X80829625Y-144177919D01*
X80829625Y-144177919D02*
X80924863Y-144177919D01*
X80924863Y-144177919D02*
X81067720Y-144130300D01*
X81067720Y-144130300D02*
X81115339Y-144082680D01*
X81115339Y-144082680D02*
X81115339Y-143749347D01*
X81115339Y-143749347D02*
X80924863Y-143749347D01*
X118324200Y-191516667D02*
X118362295Y-191402381D01*
X118362295Y-191402381D02*
X118362295Y-191211905D01*
X118362295Y-191211905D02*
X118324200Y-191135714D01*
X118324200Y-191135714D02*
X118286104Y-191097619D01*
X118286104Y-191097619D02*
X118209914Y-191059524D01*
X118209914Y-191059524D02*
X118133723Y-191059524D01*
X118133723Y-191059524D02*
X118057533Y-191097619D01*
X118057533Y-191097619D02*
X118019438Y-191135714D01*
X118019438Y-191135714D02*
X117981342Y-191211905D01*
X117981342Y-191211905D02*
X117943247Y-191364286D01*
X117943247Y-191364286D02*
X117905152Y-191440476D01*
X117905152Y-191440476D02*
X117867057Y-191478571D01*
X117867057Y-191478571D02*
X117790866Y-191516667D01*
X117790866Y-191516667D02*
X117714676Y-191516667D01*
X117714676Y-191516667D02*
X117638485Y-191478571D01*
X117638485Y-191478571D02*
X117600390Y-191440476D01*
X117600390Y-191440476D02*
X117562295Y-191364286D01*
X117562295Y-191364286D02*
X117562295Y-191173809D01*
X117562295Y-191173809D02*
X117600390Y-191059524D01*
X117562295Y-190792857D02*
X118362295Y-190602381D01*
X118362295Y-190602381D02*
X117790866Y-190450000D01*
X117790866Y-190450000D02*
X118362295Y-190297619D01*
X118362295Y-190297619D02*
X117562295Y-190107143D01*
X118362295Y-189383333D02*
X118362295Y-189840476D01*
X118362295Y-189611904D02*
X117562295Y-189611904D01*
X117562295Y-189611904D02*
X117676580Y-189688095D01*
X117676580Y-189688095D02*
X117752771Y-189764285D01*
X117752771Y-189764285D02*
X117790866Y-189840476D01*
X113485714Y-156156104D02*
X113447618Y-156194200D01*
X113447618Y-156194200D02*
X113333333Y-156232295D01*
X113333333Y-156232295D02*
X113257142Y-156232295D01*
X113257142Y-156232295D02*
X113142856Y-156194200D01*
X113142856Y-156194200D02*
X113066666Y-156118009D01*
X113066666Y-156118009D02*
X113028571Y-156041819D01*
X113028571Y-156041819D02*
X112990475Y-155889438D01*
X112990475Y-155889438D02*
X112990475Y-155775152D01*
X112990475Y-155775152D02*
X113028571Y-155622771D01*
X113028571Y-155622771D02*
X113066666Y-155546580D01*
X113066666Y-155546580D02*
X113142856Y-155470390D01*
X113142856Y-155470390D02*
X113257142Y-155432295D01*
X113257142Y-155432295D02*
X113333333Y-155432295D01*
X113333333Y-155432295D02*
X113447618Y-155470390D01*
X113447618Y-155470390D02*
X113485714Y-155508485D01*
X114247618Y-156232295D02*
X113790475Y-156232295D01*
X114019047Y-156232295D02*
X114019047Y-155432295D01*
X114019047Y-155432295D02*
X113942856Y-155546580D01*
X113942856Y-155546580D02*
X113866666Y-155622771D01*
X113866666Y-155622771D02*
X113790475Y-155660866D01*
X114933333Y-155698961D02*
X114933333Y-156232295D01*
X114742857Y-155394200D02*
X114552380Y-155965628D01*
X114552380Y-155965628D02*
X115047619Y-155965628D01*
X79863809Y-166508485D02*
X79787619Y-166470390D01*
X79787619Y-166470390D02*
X79711428Y-166394200D01*
X79711428Y-166394200D02*
X79597142Y-166279914D01*
X79597142Y-166279914D02*
X79520952Y-166241819D01*
X79520952Y-166241819D02*
X79444761Y-166241819D01*
X79482857Y-166432295D02*
X79406666Y-166394200D01*
X79406666Y-166394200D02*
X79330476Y-166318009D01*
X79330476Y-166318009D02*
X79292380Y-166165628D01*
X79292380Y-166165628D02*
X79292380Y-165898961D01*
X79292380Y-165898961D02*
X79330476Y-165746580D01*
X79330476Y-165746580D02*
X79406666Y-165670390D01*
X79406666Y-165670390D02*
X79482857Y-165632295D01*
X79482857Y-165632295D02*
X79635238Y-165632295D01*
X79635238Y-165632295D02*
X79711428Y-165670390D01*
X79711428Y-165670390D02*
X79787619Y-165746580D01*
X79787619Y-165746580D02*
X79825714Y-165898961D01*
X79825714Y-165898961D02*
X79825714Y-166165628D01*
X79825714Y-166165628D02*
X79787619Y-166318009D01*
X79787619Y-166318009D02*
X79711428Y-166394200D01*
X79711428Y-166394200D02*
X79635238Y-166432295D01*
X79635238Y-166432295D02*
X79482857Y-166432295D01*
X80587618Y-166432295D02*
X80130475Y-166432295D01*
X80359047Y-166432295D02*
X80359047Y-165632295D01*
X80359047Y-165632295D02*
X80282856Y-165746580D01*
X80282856Y-165746580D02*
X80206666Y-165822771D01*
X80206666Y-165822771D02*
X80130475Y-165860866D01*
X72566667Y-175042295D02*
X72300000Y-174661342D01*
X72109524Y-175042295D02*
X72109524Y-174242295D01*
X72109524Y-174242295D02*
X72414286Y-174242295D01*
X72414286Y-174242295D02*
X72490476Y-174280390D01*
X72490476Y-174280390D02*
X72528571Y-174318485D01*
X72528571Y-174318485D02*
X72566667Y-174394676D01*
X72566667Y-174394676D02*
X72566667Y-174508961D01*
X72566667Y-174508961D02*
X72528571Y-174585152D01*
X72528571Y-174585152D02*
X72490476Y-174623247D01*
X72490476Y-174623247D02*
X72414286Y-174661342D01*
X72414286Y-174661342D02*
X72109524Y-174661342D01*
X73252381Y-174242295D02*
X73100000Y-174242295D01*
X73100000Y-174242295D02*
X73023809Y-174280390D01*
X73023809Y-174280390D02*
X72985714Y-174318485D01*
X72985714Y-174318485D02*
X72909524Y-174432771D01*
X72909524Y-174432771D02*
X72871428Y-174585152D01*
X72871428Y-174585152D02*
X72871428Y-174889914D01*
X72871428Y-174889914D02*
X72909524Y-174966104D01*
X72909524Y-174966104D02*
X72947619Y-175004200D01*
X72947619Y-175004200D02*
X73023809Y-175042295D01*
X73023809Y-175042295D02*
X73176190Y-175042295D01*
X73176190Y-175042295D02*
X73252381Y-175004200D01*
X73252381Y-175004200D02*
X73290476Y-174966104D01*
X73290476Y-174966104D02*
X73328571Y-174889914D01*
X73328571Y-174889914D02*
X73328571Y-174699438D01*
X73328571Y-174699438D02*
X73290476Y-174623247D01*
X73290476Y-174623247D02*
X73252381Y-174585152D01*
X73252381Y-174585152D02*
X73176190Y-174547057D01*
X73176190Y-174547057D02*
X73023809Y-174547057D01*
X73023809Y-174547057D02*
X72947619Y-174585152D01*
X72947619Y-174585152D02*
X72909524Y-174623247D01*
X72909524Y-174623247D02*
X72871428Y-174699438D01*
X113505714Y-153596104D02*
X113467618Y-153634200D01*
X113467618Y-153634200D02*
X113353333Y-153672295D01*
X113353333Y-153672295D02*
X113277142Y-153672295D01*
X113277142Y-153672295D02*
X113162856Y-153634200D01*
X113162856Y-153634200D02*
X113086666Y-153558009D01*
X113086666Y-153558009D02*
X113048571Y-153481819D01*
X113048571Y-153481819D02*
X113010475Y-153329438D01*
X113010475Y-153329438D02*
X113010475Y-153215152D01*
X113010475Y-153215152D02*
X113048571Y-153062771D01*
X113048571Y-153062771D02*
X113086666Y-152986580D01*
X113086666Y-152986580D02*
X113162856Y-152910390D01*
X113162856Y-152910390D02*
X113277142Y-152872295D01*
X113277142Y-152872295D02*
X113353333Y-152872295D01*
X113353333Y-152872295D02*
X113467618Y-152910390D01*
X113467618Y-152910390D02*
X113505714Y-152948485D01*
X114267618Y-153672295D02*
X113810475Y-153672295D01*
X114039047Y-153672295D02*
X114039047Y-152872295D01*
X114039047Y-152872295D02*
X113962856Y-152986580D01*
X113962856Y-152986580D02*
X113886666Y-153062771D01*
X113886666Y-153062771D02*
X113810475Y-153100866D01*
X114534285Y-152872295D02*
X115029523Y-152872295D01*
X115029523Y-152872295D02*
X114762857Y-153177057D01*
X114762857Y-153177057D02*
X114877142Y-153177057D01*
X114877142Y-153177057D02*
X114953333Y-153215152D01*
X114953333Y-153215152D02*
X114991428Y-153253247D01*
X114991428Y-153253247D02*
X115029523Y-153329438D01*
X115029523Y-153329438D02*
X115029523Y-153519914D01*
X115029523Y-153519914D02*
X114991428Y-153596104D01*
X114991428Y-153596104D02*
X114953333Y-153634200D01*
X114953333Y-153634200D02*
X114877142Y-153672295D01*
X114877142Y-153672295D02*
X114648571Y-153672295D01*
X114648571Y-153672295D02*
X114572380Y-153634200D01*
X114572380Y-153634200D02*
X114534285Y-153596104D01*
X96937295Y-128044523D02*
X97584914Y-128044523D01*
X97584914Y-128044523D02*
X97661104Y-128006428D01*
X97661104Y-128006428D02*
X97699200Y-127968333D01*
X97699200Y-127968333D02*
X97737295Y-127892142D01*
X97737295Y-127892142D02*
X97737295Y-127739761D01*
X97737295Y-127739761D02*
X97699200Y-127663571D01*
X97699200Y-127663571D02*
X97661104Y-127625476D01*
X97661104Y-127625476D02*
X97584914Y-127587380D01*
X97584914Y-127587380D02*
X96937295Y-127587380D01*
X96937295Y-126825476D02*
X96937295Y-127206428D01*
X96937295Y-127206428D02*
X97318247Y-127244524D01*
X97318247Y-127244524D02*
X97280152Y-127206428D01*
X97280152Y-127206428D02*
X97242057Y-127130238D01*
X97242057Y-127130238D02*
X97242057Y-126939762D01*
X97242057Y-126939762D02*
X97280152Y-126863571D01*
X97280152Y-126863571D02*
X97318247Y-126825476D01*
X97318247Y-126825476D02*
X97394438Y-126787381D01*
X97394438Y-126787381D02*
X97584914Y-126787381D01*
X97584914Y-126787381D02*
X97661104Y-126825476D01*
X97661104Y-126825476D02*
X97699200Y-126863571D01*
X97699200Y-126863571D02*
X97737295Y-126939762D01*
X97737295Y-126939762D02*
X97737295Y-127130238D01*
X97737295Y-127130238D02*
X97699200Y-127206428D01*
X97699200Y-127206428D02*
X97661104Y-127244524D01*
X89887970Y-139065884D02*
X89507017Y-139332551D01*
X89887970Y-139523027D02*
X89087970Y-139523027D01*
X89087970Y-139523027D02*
X89087970Y-139218265D01*
X89087970Y-139218265D02*
X89126065Y-139142075D01*
X89126065Y-139142075D02*
X89164160Y-139103980D01*
X89164160Y-139103980D02*
X89240351Y-139065884D01*
X89240351Y-139065884D02*
X89354636Y-139065884D01*
X89354636Y-139065884D02*
X89430827Y-139103980D01*
X89430827Y-139103980D02*
X89468922Y-139142075D01*
X89468922Y-139142075D02*
X89507017Y-139218265D01*
X89507017Y-139218265D02*
X89507017Y-139523027D01*
X89887970Y-138303980D02*
X89887970Y-138761123D01*
X89887970Y-138532551D02*
X89087970Y-138532551D01*
X89087970Y-138532551D02*
X89202255Y-138608742D01*
X89202255Y-138608742D02*
X89278446Y-138684932D01*
X89278446Y-138684932D02*
X89316541Y-138761123D01*
X89354636Y-137618265D02*
X89887970Y-137618265D01*
X89049875Y-137808741D02*
X89621303Y-137999218D01*
X89621303Y-137999218D02*
X89621303Y-137503979D01*
X78890476Y-193375445D02*
X78890476Y-194023064D01*
X78890476Y-194023064D02*
X78928571Y-194099254D01*
X78928571Y-194099254D02*
X78966666Y-194137350D01*
X78966666Y-194137350D02*
X79042857Y-194175445D01*
X79042857Y-194175445D02*
X79195238Y-194175445D01*
X79195238Y-194175445D02*
X79271428Y-194137350D01*
X79271428Y-194137350D02*
X79309523Y-194099254D01*
X79309523Y-194099254D02*
X79347619Y-194023064D01*
X79347619Y-194023064D02*
X79347619Y-193375445D01*
X79766666Y-194175445D02*
X79919047Y-194175445D01*
X79919047Y-194175445D02*
X79995237Y-194137350D01*
X79995237Y-194137350D02*
X80033333Y-194099254D01*
X80033333Y-194099254D02*
X80109523Y-193984969D01*
X80109523Y-193984969D02*
X80147618Y-193832588D01*
X80147618Y-193832588D02*
X80147618Y-193527826D01*
X80147618Y-193527826D02*
X80109523Y-193451635D01*
X80109523Y-193451635D02*
X80071428Y-193413540D01*
X80071428Y-193413540D02*
X79995237Y-193375445D01*
X79995237Y-193375445D02*
X79842856Y-193375445D01*
X79842856Y-193375445D02*
X79766666Y-193413540D01*
X79766666Y-193413540D02*
X79728571Y-193451635D01*
X79728571Y-193451635D02*
X79690475Y-193527826D01*
X79690475Y-193527826D02*
X79690475Y-193718302D01*
X79690475Y-193718302D02*
X79728571Y-193794492D01*
X79728571Y-193794492D02*
X79766666Y-193832588D01*
X79766666Y-193832588D02*
X79842856Y-193870683D01*
X79842856Y-193870683D02*
X79995237Y-193870683D01*
X79995237Y-193870683D02*
X80071428Y-193832588D01*
X80071428Y-193832588D02*
X80109523Y-193794492D01*
X80109523Y-193794492D02*
X80147618Y-193718302D01*
X99585714Y-174386104D02*
X99547618Y-174424200D01*
X99547618Y-174424200D02*
X99433333Y-174462295D01*
X99433333Y-174462295D02*
X99357142Y-174462295D01*
X99357142Y-174462295D02*
X99242856Y-174424200D01*
X99242856Y-174424200D02*
X99166666Y-174348009D01*
X99166666Y-174348009D02*
X99128571Y-174271819D01*
X99128571Y-174271819D02*
X99090475Y-174119438D01*
X99090475Y-174119438D02*
X99090475Y-174005152D01*
X99090475Y-174005152D02*
X99128571Y-173852771D01*
X99128571Y-173852771D02*
X99166666Y-173776580D01*
X99166666Y-173776580D02*
X99242856Y-173700390D01*
X99242856Y-173700390D02*
X99357142Y-173662295D01*
X99357142Y-173662295D02*
X99433333Y-173662295D01*
X99433333Y-173662295D02*
X99547618Y-173700390D01*
X99547618Y-173700390D02*
X99585714Y-173738485D01*
X100347618Y-174462295D02*
X99890475Y-174462295D01*
X100119047Y-174462295D02*
X100119047Y-173662295D01*
X100119047Y-173662295D02*
X100042856Y-173776580D01*
X100042856Y-173776580D02*
X99966666Y-173852771D01*
X99966666Y-173852771D02*
X99890475Y-173890866D01*
X100652380Y-173738485D02*
X100690476Y-173700390D01*
X100690476Y-173700390D02*
X100766666Y-173662295D01*
X100766666Y-173662295D02*
X100957142Y-173662295D01*
X100957142Y-173662295D02*
X101033333Y-173700390D01*
X101033333Y-173700390D02*
X101071428Y-173738485D01*
X101071428Y-173738485D02*
X101109523Y-173814676D01*
X101109523Y-173814676D02*
X101109523Y-173890866D01*
X101109523Y-173890866D02*
X101071428Y-174005152D01*
X101071428Y-174005152D02*
X100614285Y-174462295D01*
X100614285Y-174462295D02*
X101109523Y-174462295D01*
X88386667Y-180022295D02*
X88120000Y-179641342D01*
X87929524Y-180022295D02*
X87929524Y-179222295D01*
X87929524Y-179222295D02*
X88234286Y-179222295D01*
X88234286Y-179222295D02*
X88310476Y-179260390D01*
X88310476Y-179260390D02*
X88348571Y-179298485D01*
X88348571Y-179298485D02*
X88386667Y-179374676D01*
X88386667Y-179374676D02*
X88386667Y-179488961D01*
X88386667Y-179488961D02*
X88348571Y-179565152D01*
X88348571Y-179565152D02*
X88310476Y-179603247D01*
X88310476Y-179603247D02*
X88234286Y-179641342D01*
X88234286Y-179641342D02*
X87929524Y-179641342D01*
X89072381Y-179488961D02*
X89072381Y-180022295D01*
X88881905Y-179184200D02*
X88691428Y-179755628D01*
X88691428Y-179755628D02*
X89186667Y-179755628D01*
X96608976Y-174314231D02*
X96570880Y-174352327D01*
X96570880Y-174352327D02*
X96456595Y-174390422D01*
X96456595Y-174390422D02*
X96380404Y-174390422D01*
X96380404Y-174390422D02*
X96266118Y-174352327D01*
X96266118Y-174352327D02*
X96189928Y-174276136D01*
X96189928Y-174276136D02*
X96151833Y-174199946D01*
X96151833Y-174199946D02*
X96113737Y-174047565D01*
X96113737Y-174047565D02*
X96113737Y-173933279D01*
X96113737Y-173933279D02*
X96151833Y-173780898D01*
X96151833Y-173780898D02*
X96189928Y-173704707D01*
X96189928Y-173704707D02*
X96266118Y-173628517D01*
X96266118Y-173628517D02*
X96380404Y-173590422D01*
X96380404Y-173590422D02*
X96456595Y-173590422D01*
X96456595Y-173590422D02*
X96570880Y-173628517D01*
X96570880Y-173628517D02*
X96608976Y-173666612D01*
X97370880Y-174390422D02*
X96913737Y-174390422D01*
X97142309Y-174390422D02*
X97142309Y-173590422D01*
X97142309Y-173590422D02*
X97066118Y-173704707D01*
X97066118Y-173704707D02*
X96989928Y-173780898D01*
X96989928Y-173780898D02*
X96913737Y-173818993D01*
X98132785Y-174390422D02*
X97675642Y-174390422D01*
X97904214Y-174390422D02*
X97904214Y-173590422D01*
X97904214Y-173590422D02*
X97828023Y-173704707D01*
X97828023Y-173704707D02*
X97751833Y-173780898D01*
X97751833Y-173780898D02*
X97675642Y-173818993D01*
X107933332Y-135454200D02*
X108047618Y-135492295D01*
X108047618Y-135492295D02*
X108238094Y-135492295D01*
X108238094Y-135492295D02*
X108314285Y-135454200D01*
X108314285Y-135454200D02*
X108352380Y-135416104D01*
X108352380Y-135416104D02*
X108390475Y-135339914D01*
X108390475Y-135339914D02*
X108390475Y-135263723D01*
X108390475Y-135263723D02*
X108352380Y-135187533D01*
X108352380Y-135187533D02*
X108314285Y-135149438D01*
X108314285Y-135149438D02*
X108238094Y-135111342D01*
X108238094Y-135111342D02*
X108085713Y-135073247D01*
X108085713Y-135073247D02*
X108009523Y-135035152D01*
X108009523Y-135035152D02*
X107971428Y-134997057D01*
X107971428Y-134997057D02*
X107933332Y-134920866D01*
X107933332Y-134920866D02*
X107933332Y-134844676D01*
X107933332Y-134844676D02*
X107971428Y-134768485D01*
X107971428Y-134768485D02*
X108009523Y-134730390D01*
X108009523Y-134730390D02*
X108085713Y-134692295D01*
X108085713Y-134692295D02*
X108276190Y-134692295D01*
X108276190Y-134692295D02*
X108390475Y-134730390D01*
X108657142Y-134692295D02*
X108847618Y-135492295D01*
X108847618Y-135492295D02*
X108999999Y-134920866D01*
X108999999Y-134920866D02*
X109152380Y-135492295D01*
X109152380Y-135492295D02*
X109342857Y-134692295D01*
X109990476Y-134958961D02*
X109990476Y-135492295D01*
X109800000Y-134654200D02*
X109609523Y-135225628D01*
X109609523Y-135225628D02*
X110104762Y-135225628D01*
X97855714Y-184506104D02*
X97817618Y-184544200D01*
X97817618Y-184544200D02*
X97703333Y-184582295D01*
X97703333Y-184582295D02*
X97627142Y-184582295D01*
X97627142Y-184582295D02*
X97512856Y-184544200D01*
X97512856Y-184544200D02*
X97436666Y-184468009D01*
X97436666Y-184468009D02*
X97398571Y-184391819D01*
X97398571Y-184391819D02*
X97360475Y-184239438D01*
X97360475Y-184239438D02*
X97360475Y-184125152D01*
X97360475Y-184125152D02*
X97398571Y-183972771D01*
X97398571Y-183972771D02*
X97436666Y-183896580D01*
X97436666Y-183896580D02*
X97512856Y-183820390D01*
X97512856Y-183820390D02*
X97627142Y-183782295D01*
X97627142Y-183782295D02*
X97703333Y-183782295D01*
X97703333Y-183782295D02*
X97817618Y-183820390D01*
X97817618Y-183820390D02*
X97855714Y-183858485D01*
X98617618Y-184582295D02*
X98160475Y-184582295D01*
X98389047Y-184582295D02*
X98389047Y-183782295D01*
X98389047Y-183782295D02*
X98312856Y-183896580D01*
X98312856Y-183896580D02*
X98236666Y-183972771D01*
X98236666Y-183972771D02*
X98160475Y-184010866D01*
X99074761Y-184125152D02*
X98998571Y-184087057D01*
X98998571Y-184087057D02*
X98960476Y-184048961D01*
X98960476Y-184048961D02*
X98922380Y-183972771D01*
X98922380Y-183972771D02*
X98922380Y-183934676D01*
X98922380Y-183934676D02*
X98960476Y-183858485D01*
X98960476Y-183858485D02*
X98998571Y-183820390D01*
X98998571Y-183820390D02*
X99074761Y-183782295D01*
X99074761Y-183782295D02*
X99227142Y-183782295D01*
X99227142Y-183782295D02*
X99303333Y-183820390D01*
X99303333Y-183820390D02*
X99341428Y-183858485D01*
X99341428Y-183858485D02*
X99379523Y-183934676D01*
X99379523Y-183934676D02*
X99379523Y-183972771D01*
X99379523Y-183972771D02*
X99341428Y-184048961D01*
X99341428Y-184048961D02*
X99303333Y-184087057D01*
X99303333Y-184087057D02*
X99227142Y-184125152D01*
X99227142Y-184125152D02*
X99074761Y-184125152D01*
X99074761Y-184125152D02*
X98998571Y-184163247D01*
X98998571Y-184163247D02*
X98960476Y-184201342D01*
X98960476Y-184201342D02*
X98922380Y-184277533D01*
X98922380Y-184277533D02*
X98922380Y-184429914D01*
X98922380Y-184429914D02*
X98960476Y-184506104D01*
X98960476Y-184506104D02*
X98998571Y-184544200D01*
X98998571Y-184544200D02*
X99074761Y-184582295D01*
X99074761Y-184582295D02*
X99227142Y-184582295D01*
X99227142Y-184582295D02*
X99303333Y-184544200D01*
X99303333Y-184544200D02*
X99341428Y-184506104D01*
X99341428Y-184506104D02*
X99379523Y-184429914D01*
X99379523Y-184429914D02*
X99379523Y-184277533D01*
X99379523Y-184277533D02*
X99341428Y-184201342D01*
X99341428Y-184201342D02*
X99303333Y-184163247D01*
X99303333Y-184163247D02*
X99227142Y-184125152D01*
X76730476Y-157302295D02*
X76730476Y-157949914D01*
X76730476Y-157949914D02*
X76768571Y-158026104D01*
X76768571Y-158026104D02*
X76806666Y-158064200D01*
X76806666Y-158064200D02*
X76882857Y-158102295D01*
X76882857Y-158102295D02*
X77035238Y-158102295D01*
X77035238Y-158102295D02*
X77111428Y-158064200D01*
X77111428Y-158064200D02*
X77149523Y-158026104D01*
X77149523Y-158026104D02*
X77187619Y-157949914D01*
X77187619Y-157949914D02*
X77187619Y-157302295D01*
X77911428Y-157568961D02*
X77911428Y-158102295D01*
X77720952Y-157264200D02*
X77530475Y-157835628D01*
X77530475Y-157835628D02*
X78025714Y-157835628D01*
X78933332Y-135454200D02*
X79047618Y-135492295D01*
X79047618Y-135492295D02*
X79238094Y-135492295D01*
X79238094Y-135492295D02*
X79314285Y-135454200D01*
X79314285Y-135454200D02*
X79352380Y-135416104D01*
X79352380Y-135416104D02*
X79390475Y-135339914D01*
X79390475Y-135339914D02*
X79390475Y-135263723D01*
X79390475Y-135263723D02*
X79352380Y-135187533D01*
X79352380Y-135187533D02*
X79314285Y-135149438D01*
X79314285Y-135149438D02*
X79238094Y-135111342D01*
X79238094Y-135111342D02*
X79085713Y-135073247D01*
X79085713Y-135073247D02*
X79009523Y-135035152D01*
X79009523Y-135035152D02*
X78971428Y-134997057D01*
X78971428Y-134997057D02*
X78933332Y-134920866D01*
X78933332Y-134920866D02*
X78933332Y-134844676D01*
X78933332Y-134844676D02*
X78971428Y-134768485D01*
X78971428Y-134768485D02*
X79009523Y-134730390D01*
X79009523Y-134730390D02*
X79085713Y-134692295D01*
X79085713Y-134692295D02*
X79276190Y-134692295D01*
X79276190Y-134692295D02*
X79390475Y-134730390D01*
X79657142Y-134692295D02*
X79847618Y-135492295D01*
X79847618Y-135492295D02*
X79999999Y-134920866D01*
X79999999Y-134920866D02*
X80152380Y-135492295D01*
X80152380Y-135492295D02*
X80342857Y-134692295D01*
X80571428Y-134692295D02*
X81066666Y-134692295D01*
X81066666Y-134692295D02*
X80800000Y-134997057D01*
X80800000Y-134997057D02*
X80914285Y-134997057D01*
X80914285Y-134997057D02*
X80990476Y-135035152D01*
X80990476Y-135035152D02*
X81028571Y-135073247D01*
X81028571Y-135073247D02*
X81066666Y-135149438D01*
X81066666Y-135149438D02*
X81066666Y-135339914D01*
X81066666Y-135339914D02*
X81028571Y-135416104D01*
X81028571Y-135416104D02*
X80990476Y-135454200D01*
X80990476Y-135454200D02*
X80914285Y-135492295D01*
X80914285Y-135492295D02*
X80685714Y-135492295D01*
X80685714Y-135492295D02*
X80609523Y-135454200D01*
X80609523Y-135454200D02*
X80571428Y-135416104D01*
X79252244Y-178970476D02*
X78604625Y-178970476D01*
X78604625Y-178970476D02*
X78528435Y-179008571D01*
X78528435Y-179008571D02*
X78490340Y-179046666D01*
X78490340Y-179046666D02*
X78452244Y-179122857D01*
X78452244Y-179122857D02*
X78452244Y-179275238D01*
X78452244Y-179275238D02*
X78490340Y-179351428D01*
X78490340Y-179351428D02*
X78528435Y-179389523D01*
X78528435Y-179389523D02*
X78604625Y-179427619D01*
X78604625Y-179427619D02*
X79252244Y-179427619D01*
X79176054Y-179770475D02*
X79214149Y-179808571D01*
X79214149Y-179808571D02*
X79252244Y-179884761D01*
X79252244Y-179884761D02*
X79252244Y-180075237D01*
X79252244Y-180075237D02*
X79214149Y-180151428D01*
X79214149Y-180151428D02*
X79176054Y-180189523D01*
X79176054Y-180189523D02*
X79099863Y-180227618D01*
X79099863Y-180227618D02*
X79023673Y-180227618D01*
X79023673Y-180227618D02*
X78909387Y-180189523D01*
X78909387Y-180189523D02*
X78452244Y-179732380D01*
X78452244Y-179732380D02*
X78452244Y-180227618D01*
X81916104Y-125893332D02*
X81954200Y-125931428D01*
X81954200Y-125931428D02*
X81992295Y-126045713D01*
X81992295Y-126045713D02*
X81992295Y-126121904D01*
X81992295Y-126121904D02*
X81954200Y-126236190D01*
X81954200Y-126236190D02*
X81878009Y-126312380D01*
X81878009Y-126312380D02*
X81801819Y-126350475D01*
X81801819Y-126350475D02*
X81649438Y-126388571D01*
X81649438Y-126388571D02*
X81535152Y-126388571D01*
X81535152Y-126388571D02*
X81382771Y-126350475D01*
X81382771Y-126350475D02*
X81306580Y-126312380D01*
X81306580Y-126312380D02*
X81230390Y-126236190D01*
X81230390Y-126236190D02*
X81192295Y-126121904D01*
X81192295Y-126121904D02*
X81192295Y-126045713D01*
X81192295Y-126045713D02*
X81230390Y-125931428D01*
X81230390Y-125931428D02*
X81268485Y-125893332D01*
X81192295Y-125207618D02*
X81192295Y-125359999D01*
X81192295Y-125359999D02*
X81230390Y-125436190D01*
X81230390Y-125436190D02*
X81268485Y-125474285D01*
X81268485Y-125474285D02*
X81382771Y-125550475D01*
X81382771Y-125550475D02*
X81535152Y-125588571D01*
X81535152Y-125588571D02*
X81839914Y-125588571D01*
X81839914Y-125588571D02*
X81916104Y-125550475D01*
X81916104Y-125550475D02*
X81954200Y-125512380D01*
X81954200Y-125512380D02*
X81992295Y-125436190D01*
X81992295Y-125436190D02*
X81992295Y-125283809D01*
X81992295Y-125283809D02*
X81954200Y-125207618D01*
X81954200Y-125207618D02*
X81916104Y-125169523D01*
X81916104Y-125169523D02*
X81839914Y-125131428D01*
X81839914Y-125131428D02*
X81649438Y-125131428D01*
X81649438Y-125131428D02*
X81573247Y-125169523D01*
X81573247Y-125169523D02*
X81535152Y-125207618D01*
X81535152Y-125207618D02*
X81497057Y-125283809D01*
X81497057Y-125283809D02*
X81497057Y-125436190D01*
X81497057Y-125436190D02*
X81535152Y-125512380D01*
X81535152Y-125512380D02*
X81573247Y-125550475D01*
X81573247Y-125550475D02*
X81649438Y-125588571D01*
X80462295Y-164454285D02*
X80081342Y-164720952D01*
X80462295Y-164911428D02*
X79662295Y-164911428D01*
X79662295Y-164911428D02*
X79662295Y-164606666D01*
X79662295Y-164606666D02*
X79700390Y-164530476D01*
X79700390Y-164530476D02*
X79738485Y-164492381D01*
X79738485Y-164492381D02*
X79814676Y-164454285D01*
X79814676Y-164454285D02*
X79928961Y-164454285D01*
X79928961Y-164454285D02*
X80005152Y-164492381D01*
X80005152Y-164492381D02*
X80043247Y-164530476D01*
X80043247Y-164530476D02*
X80081342Y-164606666D01*
X80081342Y-164606666D02*
X80081342Y-164911428D01*
X80462295Y-163692381D02*
X80462295Y-164149524D01*
X80462295Y-163920952D02*
X79662295Y-163920952D01*
X79662295Y-163920952D02*
X79776580Y-163997143D01*
X79776580Y-163997143D02*
X79852771Y-164073333D01*
X79852771Y-164073333D02*
X79890866Y-164149524D01*
X79662295Y-162968571D02*
X79662295Y-163349523D01*
X79662295Y-163349523D02*
X80043247Y-163387619D01*
X80043247Y-163387619D02*
X80005152Y-163349523D01*
X80005152Y-163349523D02*
X79967057Y-163273333D01*
X79967057Y-163273333D02*
X79967057Y-163082857D01*
X79967057Y-163082857D02*
X80005152Y-163006666D01*
X80005152Y-163006666D02*
X80043247Y-162968571D01*
X80043247Y-162968571D02*
X80119438Y-162930476D01*
X80119438Y-162930476D02*
X80309914Y-162930476D01*
X80309914Y-162930476D02*
X80386104Y-162968571D01*
X80386104Y-162968571D02*
X80424200Y-163006666D01*
X80424200Y-163006666D02*
X80462295Y-163082857D01*
X80462295Y-163082857D02*
X80462295Y-163273333D01*
X80462295Y-163273333D02*
X80424200Y-163349523D01*
X80424200Y-163349523D02*
X80386104Y-163387619D01*
X72636104Y-154783332D02*
X72674200Y-154821428D01*
X72674200Y-154821428D02*
X72712295Y-154935713D01*
X72712295Y-154935713D02*
X72712295Y-155011904D01*
X72712295Y-155011904D02*
X72674200Y-155126190D01*
X72674200Y-155126190D02*
X72598009Y-155202380D01*
X72598009Y-155202380D02*
X72521819Y-155240475D01*
X72521819Y-155240475D02*
X72369438Y-155278571D01*
X72369438Y-155278571D02*
X72255152Y-155278571D01*
X72255152Y-155278571D02*
X72102771Y-155240475D01*
X72102771Y-155240475D02*
X72026580Y-155202380D01*
X72026580Y-155202380D02*
X71950390Y-155126190D01*
X71950390Y-155126190D02*
X71912295Y-155011904D01*
X71912295Y-155011904D02*
X71912295Y-154935713D01*
X71912295Y-154935713D02*
X71950390Y-154821428D01*
X71950390Y-154821428D02*
X71988485Y-154783332D01*
X72712295Y-154021428D02*
X72712295Y-154478571D01*
X72712295Y-154249999D02*
X71912295Y-154249999D01*
X71912295Y-154249999D02*
X72026580Y-154326190D01*
X72026580Y-154326190D02*
X72102771Y-154402380D01*
X72102771Y-154402380D02*
X72140866Y-154478571D01*
X88356667Y-185022295D02*
X88090000Y-184641342D01*
X87899524Y-185022295D02*
X87899524Y-184222295D01*
X87899524Y-184222295D02*
X88204286Y-184222295D01*
X88204286Y-184222295D02*
X88280476Y-184260390D01*
X88280476Y-184260390D02*
X88318571Y-184298485D01*
X88318571Y-184298485D02*
X88356667Y-184374676D01*
X88356667Y-184374676D02*
X88356667Y-184488961D01*
X88356667Y-184488961D02*
X88318571Y-184565152D01*
X88318571Y-184565152D02*
X88280476Y-184603247D01*
X88280476Y-184603247D02*
X88204286Y-184641342D01*
X88204286Y-184641342D02*
X87899524Y-184641342D01*
X89080476Y-184222295D02*
X88699524Y-184222295D01*
X88699524Y-184222295D02*
X88661428Y-184603247D01*
X88661428Y-184603247D02*
X88699524Y-184565152D01*
X88699524Y-184565152D02*
X88775714Y-184527057D01*
X88775714Y-184527057D02*
X88966190Y-184527057D01*
X88966190Y-184527057D02*
X89042381Y-184565152D01*
X89042381Y-184565152D02*
X89080476Y-184603247D01*
X89080476Y-184603247D02*
X89118571Y-184679438D01*
X89118571Y-184679438D02*
X89118571Y-184869914D01*
X89118571Y-184869914D02*
X89080476Y-184946104D01*
X89080476Y-184946104D02*
X89042381Y-184984200D01*
X89042381Y-184984200D02*
X88966190Y-185022295D01*
X88966190Y-185022295D02*
X88775714Y-185022295D01*
X88775714Y-185022295D02*
X88699524Y-184984200D01*
X88699524Y-184984200D02*
X88661428Y-184946104D01*
X81876104Y-132663332D02*
X81914200Y-132701428D01*
X81914200Y-132701428D02*
X81952295Y-132815713D01*
X81952295Y-132815713D02*
X81952295Y-132891904D01*
X81952295Y-132891904D02*
X81914200Y-133006190D01*
X81914200Y-133006190D02*
X81838009Y-133082380D01*
X81838009Y-133082380D02*
X81761819Y-133120475D01*
X81761819Y-133120475D02*
X81609438Y-133158571D01*
X81609438Y-133158571D02*
X81495152Y-133158571D01*
X81495152Y-133158571D02*
X81342771Y-133120475D01*
X81342771Y-133120475D02*
X81266580Y-133082380D01*
X81266580Y-133082380D02*
X81190390Y-133006190D01*
X81190390Y-133006190D02*
X81152295Y-132891904D01*
X81152295Y-132891904D02*
X81152295Y-132815713D01*
X81152295Y-132815713D02*
X81190390Y-132701428D01*
X81190390Y-132701428D02*
X81228485Y-132663332D01*
X81495152Y-132206190D02*
X81457057Y-132282380D01*
X81457057Y-132282380D02*
X81418961Y-132320475D01*
X81418961Y-132320475D02*
X81342771Y-132358571D01*
X81342771Y-132358571D02*
X81304676Y-132358571D01*
X81304676Y-132358571D02*
X81228485Y-132320475D01*
X81228485Y-132320475D02*
X81190390Y-132282380D01*
X81190390Y-132282380D02*
X81152295Y-132206190D01*
X81152295Y-132206190D02*
X81152295Y-132053809D01*
X81152295Y-132053809D02*
X81190390Y-131977618D01*
X81190390Y-131977618D02*
X81228485Y-131939523D01*
X81228485Y-131939523D02*
X81304676Y-131901428D01*
X81304676Y-131901428D02*
X81342771Y-131901428D01*
X81342771Y-131901428D02*
X81418961Y-131939523D01*
X81418961Y-131939523D02*
X81457057Y-131977618D01*
X81457057Y-131977618D02*
X81495152Y-132053809D01*
X81495152Y-132053809D02*
X81495152Y-132206190D01*
X81495152Y-132206190D02*
X81533247Y-132282380D01*
X81533247Y-132282380D02*
X81571342Y-132320475D01*
X81571342Y-132320475D02*
X81647533Y-132358571D01*
X81647533Y-132358571D02*
X81799914Y-132358571D01*
X81799914Y-132358571D02*
X81876104Y-132320475D01*
X81876104Y-132320475D02*
X81914200Y-132282380D01*
X81914200Y-132282380D02*
X81952295Y-132206190D01*
X81952295Y-132206190D02*
X81952295Y-132053809D01*
X81952295Y-132053809D02*
X81914200Y-131977618D01*
X81914200Y-131977618D02*
X81876104Y-131939523D01*
X81876104Y-131939523D02*
X81799914Y-131901428D01*
X81799914Y-131901428D02*
X81647533Y-131901428D01*
X81647533Y-131901428D02*
X81571342Y-131939523D01*
X81571342Y-131939523D02*
X81533247Y-131977618D01*
X81533247Y-131977618D02*
X81495152Y-132053809D01*
X72566667Y-180132295D02*
X72300000Y-179751342D01*
X72109524Y-180132295D02*
X72109524Y-179332295D01*
X72109524Y-179332295D02*
X72414286Y-179332295D01*
X72414286Y-179332295D02*
X72490476Y-179370390D01*
X72490476Y-179370390D02*
X72528571Y-179408485D01*
X72528571Y-179408485D02*
X72566667Y-179484676D01*
X72566667Y-179484676D02*
X72566667Y-179598961D01*
X72566667Y-179598961D02*
X72528571Y-179675152D01*
X72528571Y-179675152D02*
X72490476Y-179713247D01*
X72490476Y-179713247D02*
X72414286Y-179751342D01*
X72414286Y-179751342D02*
X72109524Y-179751342D01*
X72833333Y-179332295D02*
X73366667Y-179332295D01*
X73366667Y-179332295D02*
X73023809Y-180132295D01*
X109795714Y-160292295D02*
X109529047Y-159911342D01*
X109338571Y-160292295D02*
X109338571Y-159492295D01*
X109338571Y-159492295D02*
X109643333Y-159492295D01*
X109643333Y-159492295D02*
X109719523Y-159530390D01*
X109719523Y-159530390D02*
X109757618Y-159568485D01*
X109757618Y-159568485D02*
X109795714Y-159644676D01*
X109795714Y-159644676D02*
X109795714Y-159758961D01*
X109795714Y-159758961D02*
X109757618Y-159835152D01*
X109757618Y-159835152D02*
X109719523Y-159873247D01*
X109719523Y-159873247D02*
X109643333Y-159911342D01*
X109643333Y-159911342D02*
X109338571Y-159911342D01*
X110100475Y-159568485D02*
X110138571Y-159530390D01*
X110138571Y-159530390D02*
X110214761Y-159492295D01*
X110214761Y-159492295D02*
X110405237Y-159492295D01*
X110405237Y-159492295D02*
X110481428Y-159530390D01*
X110481428Y-159530390D02*
X110519523Y-159568485D01*
X110519523Y-159568485D02*
X110557618Y-159644676D01*
X110557618Y-159644676D02*
X110557618Y-159720866D01*
X110557618Y-159720866D02*
X110519523Y-159835152D01*
X110519523Y-159835152D02*
X110062380Y-160292295D01*
X110062380Y-160292295D02*
X110557618Y-160292295D01*
X111052857Y-159492295D02*
X111129047Y-159492295D01*
X111129047Y-159492295D02*
X111205238Y-159530390D01*
X111205238Y-159530390D02*
X111243333Y-159568485D01*
X111243333Y-159568485D02*
X111281428Y-159644676D01*
X111281428Y-159644676D02*
X111319523Y-159797057D01*
X111319523Y-159797057D02*
X111319523Y-159987533D01*
X111319523Y-159987533D02*
X111281428Y-160139914D01*
X111281428Y-160139914D02*
X111243333Y-160216104D01*
X111243333Y-160216104D02*
X111205238Y-160254200D01*
X111205238Y-160254200D02*
X111129047Y-160292295D01*
X111129047Y-160292295D02*
X111052857Y-160292295D01*
X111052857Y-160292295D02*
X110976666Y-160254200D01*
X110976666Y-160254200D02*
X110938571Y-160216104D01*
X110938571Y-160216104D02*
X110900476Y-160139914D01*
X110900476Y-160139914D02*
X110862380Y-159987533D01*
X110862380Y-159987533D02*
X110862380Y-159797057D01*
X110862380Y-159797057D02*
X110900476Y-159644676D01*
X110900476Y-159644676D02*
X110938571Y-159568485D01*
X110938571Y-159568485D02*
X110976666Y-159530390D01*
X110976666Y-159530390D02*
X111052857Y-159492295D01*
X72476667Y-185122295D02*
X72210000Y-184741342D01*
X72019524Y-185122295D02*
X72019524Y-184322295D01*
X72019524Y-184322295D02*
X72324286Y-184322295D01*
X72324286Y-184322295D02*
X72400476Y-184360390D01*
X72400476Y-184360390D02*
X72438571Y-184398485D01*
X72438571Y-184398485D02*
X72476667Y-184474676D01*
X72476667Y-184474676D02*
X72476667Y-184588961D01*
X72476667Y-184588961D02*
X72438571Y-184665152D01*
X72438571Y-184665152D02*
X72400476Y-184703247D01*
X72400476Y-184703247D02*
X72324286Y-184741342D01*
X72324286Y-184741342D02*
X72019524Y-184741342D01*
X72933809Y-184665152D02*
X72857619Y-184627057D01*
X72857619Y-184627057D02*
X72819524Y-184588961D01*
X72819524Y-184588961D02*
X72781428Y-184512771D01*
X72781428Y-184512771D02*
X72781428Y-184474676D01*
X72781428Y-184474676D02*
X72819524Y-184398485D01*
X72819524Y-184398485D02*
X72857619Y-184360390D01*
X72857619Y-184360390D02*
X72933809Y-184322295D01*
X72933809Y-184322295D02*
X73086190Y-184322295D01*
X73086190Y-184322295D02*
X73162381Y-184360390D01*
X73162381Y-184360390D02*
X73200476Y-184398485D01*
X73200476Y-184398485D02*
X73238571Y-184474676D01*
X73238571Y-184474676D02*
X73238571Y-184512771D01*
X73238571Y-184512771D02*
X73200476Y-184588961D01*
X73200476Y-184588961D02*
X73162381Y-184627057D01*
X73162381Y-184627057D02*
X73086190Y-184665152D01*
X73086190Y-184665152D02*
X72933809Y-184665152D01*
X72933809Y-184665152D02*
X72857619Y-184703247D01*
X72857619Y-184703247D02*
X72819524Y-184741342D01*
X72819524Y-184741342D02*
X72781428Y-184817533D01*
X72781428Y-184817533D02*
X72781428Y-184969914D01*
X72781428Y-184969914D02*
X72819524Y-185046104D01*
X72819524Y-185046104D02*
X72857619Y-185084200D01*
X72857619Y-185084200D02*
X72933809Y-185122295D01*
X72933809Y-185122295D02*
X73086190Y-185122295D01*
X73086190Y-185122295D02*
X73162381Y-185084200D01*
X73162381Y-185084200D02*
X73200476Y-185046104D01*
X73200476Y-185046104D02*
X73238571Y-184969914D01*
X73238571Y-184969914D02*
X73238571Y-184817533D01*
X73238571Y-184817533D02*
X73200476Y-184741342D01*
X73200476Y-184741342D02*
X73162381Y-184703247D01*
X73162381Y-184703247D02*
X73086190Y-184665152D01*
X94962295Y-191084285D02*
X94581342Y-191350952D01*
X94962295Y-191541428D02*
X94162295Y-191541428D01*
X94162295Y-191541428D02*
X94162295Y-191236666D01*
X94162295Y-191236666D02*
X94200390Y-191160476D01*
X94200390Y-191160476D02*
X94238485Y-191122381D01*
X94238485Y-191122381D02*
X94314676Y-191084285D01*
X94314676Y-191084285D02*
X94428961Y-191084285D01*
X94428961Y-191084285D02*
X94505152Y-191122381D01*
X94505152Y-191122381D02*
X94543247Y-191160476D01*
X94543247Y-191160476D02*
X94581342Y-191236666D01*
X94581342Y-191236666D02*
X94581342Y-191541428D01*
X94962295Y-190322381D02*
X94962295Y-190779524D01*
X94962295Y-190550952D02*
X94162295Y-190550952D01*
X94162295Y-190550952D02*
X94276580Y-190627143D01*
X94276580Y-190627143D02*
X94352771Y-190703333D01*
X94352771Y-190703333D02*
X94390866Y-190779524D01*
X94162295Y-189827142D02*
X94162295Y-189750952D01*
X94162295Y-189750952D02*
X94200390Y-189674761D01*
X94200390Y-189674761D02*
X94238485Y-189636666D01*
X94238485Y-189636666D02*
X94314676Y-189598571D01*
X94314676Y-189598571D02*
X94467057Y-189560476D01*
X94467057Y-189560476D02*
X94657533Y-189560476D01*
X94657533Y-189560476D02*
X94809914Y-189598571D01*
X94809914Y-189598571D02*
X94886104Y-189636666D01*
X94886104Y-189636666D02*
X94924200Y-189674761D01*
X94924200Y-189674761D02*
X94962295Y-189750952D01*
X94962295Y-189750952D02*
X94962295Y-189827142D01*
X94962295Y-189827142D02*
X94924200Y-189903333D01*
X94924200Y-189903333D02*
X94886104Y-189941428D01*
X94886104Y-189941428D02*
X94809914Y-189979523D01*
X94809914Y-189979523D02*
X94657533Y-190017619D01*
X94657533Y-190017619D02*
X94467057Y-190017619D01*
X94467057Y-190017619D02*
X94314676Y-189979523D01*
X94314676Y-189979523D02*
X94238485Y-189941428D01*
X94238485Y-189941428D02*
X94200390Y-189903333D01*
X94200390Y-189903333D02*
X94162295Y-189827142D01*
X81266667Y-151936104D02*
X81228571Y-151974200D01*
X81228571Y-151974200D02*
X81114286Y-152012295D01*
X81114286Y-152012295D02*
X81038095Y-152012295D01*
X81038095Y-152012295D02*
X80923809Y-151974200D01*
X80923809Y-151974200D02*
X80847619Y-151898009D01*
X80847619Y-151898009D02*
X80809524Y-151821819D01*
X80809524Y-151821819D02*
X80771428Y-151669438D01*
X80771428Y-151669438D02*
X80771428Y-151555152D01*
X80771428Y-151555152D02*
X80809524Y-151402771D01*
X80809524Y-151402771D02*
X80847619Y-151326580D01*
X80847619Y-151326580D02*
X80923809Y-151250390D01*
X80923809Y-151250390D02*
X81038095Y-151212295D01*
X81038095Y-151212295D02*
X81114286Y-151212295D01*
X81114286Y-151212295D02*
X81228571Y-151250390D01*
X81228571Y-151250390D02*
X81266667Y-151288485D01*
X81571428Y-151288485D02*
X81609524Y-151250390D01*
X81609524Y-151250390D02*
X81685714Y-151212295D01*
X81685714Y-151212295D02*
X81876190Y-151212295D01*
X81876190Y-151212295D02*
X81952381Y-151250390D01*
X81952381Y-151250390D02*
X81990476Y-151288485D01*
X81990476Y-151288485D02*
X82028571Y-151364676D01*
X82028571Y-151364676D02*
X82028571Y-151440866D01*
X82028571Y-151440866D02*
X81990476Y-151555152D01*
X81990476Y-151555152D02*
X81533333Y-152012295D01*
X81533333Y-152012295D02*
X82028571Y-152012295D01*
X82799048Y-128691342D02*
X82799048Y-129072295D01*
X82532381Y-128272295D02*
X82799048Y-128691342D01*
X82799048Y-128691342D02*
X83065714Y-128272295D01*
X83751428Y-129072295D02*
X83294285Y-129072295D01*
X83522857Y-129072295D02*
X83522857Y-128272295D01*
X83522857Y-128272295D02*
X83446666Y-128386580D01*
X83446666Y-128386580D02*
X83370476Y-128462771D01*
X83370476Y-128462771D02*
X83294285Y-128500866D01*
X107538333Y-122947295D02*
X107538333Y-123518723D01*
X107538333Y-123518723D02*
X107500238Y-123633009D01*
X107500238Y-123633009D02*
X107424047Y-123709200D01*
X107424047Y-123709200D02*
X107309762Y-123747295D01*
X107309762Y-123747295D02*
X107233571Y-123747295D01*
X108262143Y-123213961D02*
X108262143Y-123747295D01*
X108071667Y-122909200D02*
X107881190Y-123480628D01*
X107881190Y-123480628D02*
X108376429Y-123480628D01*
X88416667Y-175002295D02*
X88150000Y-174621342D01*
X87959524Y-175002295D02*
X87959524Y-174202295D01*
X87959524Y-174202295D02*
X88264286Y-174202295D01*
X88264286Y-174202295D02*
X88340476Y-174240390D01*
X88340476Y-174240390D02*
X88378571Y-174278485D01*
X88378571Y-174278485D02*
X88416667Y-174354676D01*
X88416667Y-174354676D02*
X88416667Y-174468961D01*
X88416667Y-174468961D02*
X88378571Y-174545152D01*
X88378571Y-174545152D02*
X88340476Y-174583247D01*
X88340476Y-174583247D02*
X88264286Y-174621342D01*
X88264286Y-174621342D02*
X87959524Y-174621342D01*
X88683333Y-174202295D02*
X89178571Y-174202295D01*
X89178571Y-174202295D02*
X88911905Y-174507057D01*
X88911905Y-174507057D02*
X89026190Y-174507057D01*
X89026190Y-174507057D02*
X89102381Y-174545152D01*
X89102381Y-174545152D02*
X89140476Y-174583247D01*
X89140476Y-174583247D02*
X89178571Y-174659438D01*
X89178571Y-174659438D02*
X89178571Y-174849914D01*
X89178571Y-174849914D02*
X89140476Y-174926104D01*
X89140476Y-174926104D02*
X89102381Y-174964200D01*
X89102381Y-174964200D02*
X89026190Y-175002295D01*
X89026190Y-175002295D02*
X88797619Y-175002295D01*
X88797619Y-175002295D02*
X88721428Y-174964200D01*
X88721428Y-174964200D02*
X88683333Y-174926104D01*
X116733333Y-162742295D02*
X116733333Y-163313723D01*
X116733333Y-163313723D02*
X116695238Y-163428009D01*
X116695238Y-163428009D02*
X116619047Y-163504200D01*
X116619047Y-163504200D02*
X116504762Y-163542295D01*
X116504762Y-163542295D02*
X116428571Y-163542295D01*
X117495238Y-162742295D02*
X117114286Y-162742295D01*
X117114286Y-162742295D02*
X117076190Y-163123247D01*
X117076190Y-163123247D02*
X117114286Y-163085152D01*
X117114286Y-163085152D02*
X117190476Y-163047057D01*
X117190476Y-163047057D02*
X117380952Y-163047057D01*
X117380952Y-163047057D02*
X117457143Y-163085152D01*
X117457143Y-163085152D02*
X117495238Y-163123247D01*
X117495238Y-163123247D02*
X117533333Y-163199438D01*
X117533333Y-163199438D02*
X117533333Y-163389914D01*
X117533333Y-163389914D02*
X117495238Y-163466104D01*
X117495238Y-163466104D02*
X117457143Y-163504200D01*
X117457143Y-163504200D02*
X117380952Y-163542295D01*
X117380952Y-163542295D02*
X117190476Y-163542295D01*
X117190476Y-163542295D02*
X117114286Y-163504200D01*
X117114286Y-163504200D02*
X117076190Y-163466104D01*
X116733333Y-157662295D02*
X116733333Y-158233723D01*
X116733333Y-158233723D02*
X116695238Y-158348009D01*
X116695238Y-158348009D02*
X116619047Y-158424200D01*
X116619047Y-158424200D02*
X116504762Y-158462295D01*
X116504762Y-158462295D02*
X116428571Y-158462295D01*
X117457143Y-157662295D02*
X117304762Y-157662295D01*
X117304762Y-157662295D02*
X117228571Y-157700390D01*
X117228571Y-157700390D02*
X117190476Y-157738485D01*
X117190476Y-157738485D02*
X117114286Y-157852771D01*
X117114286Y-157852771D02*
X117076190Y-158005152D01*
X117076190Y-158005152D02*
X117076190Y-158309914D01*
X117076190Y-158309914D02*
X117114286Y-158386104D01*
X117114286Y-158386104D02*
X117152381Y-158424200D01*
X117152381Y-158424200D02*
X117228571Y-158462295D01*
X117228571Y-158462295D02*
X117380952Y-158462295D01*
X117380952Y-158462295D02*
X117457143Y-158424200D01*
X117457143Y-158424200D02*
X117495238Y-158386104D01*
X117495238Y-158386104D02*
X117533333Y-158309914D01*
X117533333Y-158309914D02*
X117533333Y-158119438D01*
X117533333Y-158119438D02*
X117495238Y-158043247D01*
X117495238Y-158043247D02*
X117457143Y-158005152D01*
X117457143Y-158005152D02*
X117380952Y-157967057D01*
X117380952Y-157967057D02*
X117228571Y-157967057D01*
X117228571Y-157967057D02*
X117152381Y-158005152D01*
X117152381Y-158005152D02*
X117114286Y-158043247D01*
X117114286Y-158043247D02*
X117076190Y-158119438D01*
X85416667Y-155466104D02*
X85378571Y-155504200D01*
X85378571Y-155504200D02*
X85264286Y-155542295D01*
X85264286Y-155542295D02*
X85188095Y-155542295D01*
X85188095Y-155542295D02*
X85073809Y-155504200D01*
X85073809Y-155504200D02*
X84997619Y-155428009D01*
X84997619Y-155428009D02*
X84959524Y-155351819D01*
X84959524Y-155351819D02*
X84921428Y-155199438D01*
X84921428Y-155199438D02*
X84921428Y-155085152D01*
X84921428Y-155085152D02*
X84959524Y-154932771D01*
X84959524Y-154932771D02*
X84997619Y-154856580D01*
X84997619Y-154856580D02*
X85073809Y-154780390D01*
X85073809Y-154780390D02*
X85188095Y-154742295D01*
X85188095Y-154742295D02*
X85264286Y-154742295D01*
X85264286Y-154742295D02*
X85378571Y-154780390D01*
X85378571Y-154780390D02*
X85416667Y-154818485D01*
X86140476Y-154742295D02*
X85759524Y-154742295D01*
X85759524Y-154742295D02*
X85721428Y-155123247D01*
X85721428Y-155123247D02*
X85759524Y-155085152D01*
X85759524Y-155085152D02*
X85835714Y-155047057D01*
X85835714Y-155047057D02*
X86026190Y-155047057D01*
X86026190Y-155047057D02*
X86102381Y-155085152D01*
X86102381Y-155085152D02*
X86140476Y-155123247D01*
X86140476Y-155123247D02*
X86178571Y-155199438D01*
X86178571Y-155199438D02*
X86178571Y-155389914D01*
X86178571Y-155389914D02*
X86140476Y-155466104D01*
X86140476Y-155466104D02*
X86102381Y-155504200D01*
X86102381Y-155504200D02*
X86026190Y-155542295D01*
X86026190Y-155542295D02*
X85835714Y-155542295D01*
X85835714Y-155542295D02*
X85759524Y-155504200D01*
X85759524Y-155504200D02*
X85721428Y-155466104D01*
X72062295Y-157293332D02*
X71681342Y-157559999D01*
X72062295Y-157750475D02*
X71262295Y-157750475D01*
X71262295Y-157750475D02*
X71262295Y-157445713D01*
X71262295Y-157445713D02*
X71300390Y-157369523D01*
X71300390Y-157369523D02*
X71338485Y-157331428D01*
X71338485Y-157331428D02*
X71414676Y-157293332D01*
X71414676Y-157293332D02*
X71528961Y-157293332D01*
X71528961Y-157293332D02*
X71605152Y-157331428D01*
X71605152Y-157331428D02*
X71643247Y-157369523D01*
X71643247Y-157369523D02*
X71681342Y-157445713D01*
X71681342Y-157445713D02*
X71681342Y-157750475D01*
X71338485Y-156988571D02*
X71300390Y-156950475D01*
X71300390Y-156950475D02*
X71262295Y-156874285D01*
X71262295Y-156874285D02*
X71262295Y-156683809D01*
X71262295Y-156683809D02*
X71300390Y-156607618D01*
X71300390Y-156607618D02*
X71338485Y-156569523D01*
X71338485Y-156569523D02*
X71414676Y-156531428D01*
X71414676Y-156531428D02*
X71490866Y-156531428D01*
X71490866Y-156531428D02*
X71605152Y-156569523D01*
X71605152Y-156569523D02*
X72062295Y-157026666D01*
X72062295Y-157026666D02*
X72062295Y-156531428D01*
X106162295Y-169164285D02*
X105781342Y-169430952D01*
X106162295Y-169621428D02*
X105362295Y-169621428D01*
X105362295Y-169621428D02*
X105362295Y-169316666D01*
X105362295Y-169316666D02*
X105400390Y-169240476D01*
X105400390Y-169240476D02*
X105438485Y-169202381D01*
X105438485Y-169202381D02*
X105514676Y-169164285D01*
X105514676Y-169164285D02*
X105628961Y-169164285D01*
X105628961Y-169164285D02*
X105705152Y-169202381D01*
X105705152Y-169202381D02*
X105743247Y-169240476D01*
X105743247Y-169240476D02*
X105781342Y-169316666D01*
X105781342Y-169316666D02*
X105781342Y-169621428D01*
X106162295Y-168402381D02*
X106162295Y-168859524D01*
X106162295Y-168630952D02*
X105362295Y-168630952D01*
X105362295Y-168630952D02*
X105476580Y-168707143D01*
X105476580Y-168707143D02*
X105552771Y-168783333D01*
X105552771Y-168783333D02*
X105590866Y-168859524D01*
X106162295Y-168021428D02*
X106162295Y-167869047D01*
X106162295Y-167869047D02*
X106124200Y-167792857D01*
X106124200Y-167792857D02*
X106086104Y-167754761D01*
X106086104Y-167754761D02*
X105971819Y-167678571D01*
X105971819Y-167678571D02*
X105819438Y-167640476D01*
X105819438Y-167640476D02*
X105514676Y-167640476D01*
X105514676Y-167640476D02*
X105438485Y-167678571D01*
X105438485Y-167678571D02*
X105400390Y-167716666D01*
X105400390Y-167716666D02*
X105362295Y-167792857D01*
X105362295Y-167792857D02*
X105362295Y-167945238D01*
X105362295Y-167945238D02*
X105400390Y-168021428D01*
X105400390Y-168021428D02*
X105438485Y-168059523D01*
X105438485Y-168059523D02*
X105514676Y-168097619D01*
X105514676Y-168097619D02*
X105705152Y-168097619D01*
X105705152Y-168097619D02*
X105781342Y-168059523D01*
X105781342Y-168059523D02*
X105819438Y-168021428D01*
X105819438Y-168021428D02*
X105857533Y-167945238D01*
X105857533Y-167945238D02*
X105857533Y-167792857D01*
X105857533Y-167792857D02*
X105819438Y-167716666D01*
X105819438Y-167716666D02*
X105781342Y-167678571D01*
X105781342Y-167678571D02*
X105705152Y-167640476D01*
X81856104Y-130623332D02*
X81894200Y-130661428D01*
X81894200Y-130661428D02*
X81932295Y-130775713D01*
X81932295Y-130775713D02*
X81932295Y-130851904D01*
X81932295Y-130851904D02*
X81894200Y-130966190D01*
X81894200Y-130966190D02*
X81818009Y-131042380D01*
X81818009Y-131042380D02*
X81741819Y-131080475D01*
X81741819Y-131080475D02*
X81589438Y-131118571D01*
X81589438Y-131118571D02*
X81475152Y-131118571D01*
X81475152Y-131118571D02*
X81322771Y-131080475D01*
X81322771Y-131080475D02*
X81246580Y-131042380D01*
X81246580Y-131042380D02*
X81170390Y-130966190D01*
X81170390Y-130966190D02*
X81132295Y-130851904D01*
X81132295Y-130851904D02*
X81132295Y-130775713D01*
X81132295Y-130775713D02*
X81170390Y-130661428D01*
X81170390Y-130661428D02*
X81208485Y-130623332D01*
X81132295Y-130356666D02*
X81132295Y-129823332D01*
X81132295Y-129823332D02*
X81932295Y-130166190D01*
X79252244Y-173890476D02*
X78604625Y-173890476D01*
X78604625Y-173890476D02*
X78528435Y-173928571D01*
X78528435Y-173928571D02*
X78490340Y-173966666D01*
X78490340Y-173966666D02*
X78452244Y-174042857D01*
X78452244Y-174042857D02*
X78452244Y-174195238D01*
X78452244Y-174195238D02*
X78490340Y-174271428D01*
X78490340Y-174271428D02*
X78528435Y-174309523D01*
X78528435Y-174309523D02*
X78604625Y-174347619D01*
X78604625Y-174347619D02*
X79252244Y-174347619D01*
X78452244Y-175147618D02*
X78452244Y-174690475D01*
X78452244Y-174919047D02*
X79252244Y-174919047D01*
X79252244Y-174919047D02*
X79137959Y-174842856D01*
X79137959Y-174842856D02*
X79061768Y-174766666D01*
X79061768Y-174766666D02*
X79023673Y-174690475D01*
X77225714Y-171472295D02*
X76959047Y-171091342D01*
X76768571Y-171472295D02*
X76768571Y-170672295D01*
X76768571Y-170672295D02*
X77073333Y-170672295D01*
X77073333Y-170672295D02*
X77149523Y-170710390D01*
X77149523Y-170710390D02*
X77187618Y-170748485D01*
X77187618Y-170748485D02*
X77225714Y-170824676D01*
X77225714Y-170824676D02*
X77225714Y-170938961D01*
X77225714Y-170938961D02*
X77187618Y-171015152D01*
X77187618Y-171015152D02*
X77149523Y-171053247D01*
X77149523Y-171053247D02*
X77073333Y-171091342D01*
X77073333Y-171091342D02*
X76768571Y-171091342D01*
X77987618Y-171472295D02*
X77530475Y-171472295D01*
X77759047Y-171472295D02*
X77759047Y-170672295D01*
X77759047Y-170672295D02*
X77682856Y-170786580D01*
X77682856Y-170786580D02*
X77606666Y-170862771D01*
X77606666Y-170862771D02*
X77530475Y-170900866D01*
X78673333Y-170672295D02*
X78520952Y-170672295D01*
X78520952Y-170672295D02*
X78444761Y-170710390D01*
X78444761Y-170710390D02*
X78406666Y-170748485D01*
X78406666Y-170748485D02*
X78330476Y-170862771D01*
X78330476Y-170862771D02*
X78292380Y-171015152D01*
X78292380Y-171015152D02*
X78292380Y-171319914D01*
X78292380Y-171319914D02*
X78330476Y-171396104D01*
X78330476Y-171396104D02*
X78368571Y-171434200D01*
X78368571Y-171434200D02*
X78444761Y-171472295D01*
X78444761Y-171472295D02*
X78597142Y-171472295D01*
X78597142Y-171472295D02*
X78673333Y-171434200D01*
X78673333Y-171434200D02*
X78711428Y-171396104D01*
X78711428Y-171396104D02*
X78749523Y-171319914D01*
X78749523Y-171319914D02*
X78749523Y-171129438D01*
X78749523Y-171129438D02*
X78711428Y-171053247D01*
X78711428Y-171053247D02*
X78673333Y-171015152D01*
X78673333Y-171015152D02*
X78597142Y-170977057D01*
X78597142Y-170977057D02*
X78444761Y-170977057D01*
X78444761Y-170977057D02*
X78368571Y-171015152D01*
X78368571Y-171015152D02*
X78330476Y-171053247D01*
X78330476Y-171053247D02*
X78292380Y-171129438D01*
X83922295Y-167394285D02*
X83541342Y-167660952D01*
X83922295Y-167851428D02*
X83122295Y-167851428D01*
X83122295Y-167851428D02*
X83122295Y-167546666D01*
X83122295Y-167546666D02*
X83160390Y-167470476D01*
X83160390Y-167470476D02*
X83198485Y-167432381D01*
X83198485Y-167432381D02*
X83274676Y-167394285D01*
X83274676Y-167394285D02*
X83388961Y-167394285D01*
X83388961Y-167394285D02*
X83465152Y-167432381D01*
X83465152Y-167432381D02*
X83503247Y-167470476D01*
X83503247Y-167470476D02*
X83541342Y-167546666D01*
X83541342Y-167546666D02*
X83541342Y-167851428D01*
X83922295Y-166632381D02*
X83922295Y-167089524D01*
X83922295Y-166860952D02*
X83122295Y-166860952D01*
X83122295Y-166860952D02*
X83236580Y-166937143D01*
X83236580Y-166937143D02*
X83312771Y-167013333D01*
X83312771Y-167013333D02*
X83350866Y-167089524D01*
X83465152Y-166175238D02*
X83427057Y-166251428D01*
X83427057Y-166251428D02*
X83388961Y-166289523D01*
X83388961Y-166289523D02*
X83312771Y-166327619D01*
X83312771Y-166327619D02*
X83274676Y-166327619D01*
X83274676Y-166327619D02*
X83198485Y-166289523D01*
X83198485Y-166289523D02*
X83160390Y-166251428D01*
X83160390Y-166251428D02*
X83122295Y-166175238D01*
X83122295Y-166175238D02*
X83122295Y-166022857D01*
X83122295Y-166022857D02*
X83160390Y-165946666D01*
X83160390Y-165946666D02*
X83198485Y-165908571D01*
X83198485Y-165908571D02*
X83274676Y-165870476D01*
X83274676Y-165870476D02*
X83312771Y-165870476D01*
X83312771Y-165870476D02*
X83388961Y-165908571D01*
X83388961Y-165908571D02*
X83427057Y-165946666D01*
X83427057Y-165946666D02*
X83465152Y-166022857D01*
X83465152Y-166022857D02*
X83465152Y-166175238D01*
X83465152Y-166175238D02*
X83503247Y-166251428D01*
X83503247Y-166251428D02*
X83541342Y-166289523D01*
X83541342Y-166289523D02*
X83617533Y-166327619D01*
X83617533Y-166327619D02*
X83769914Y-166327619D01*
X83769914Y-166327619D02*
X83846104Y-166289523D01*
X83846104Y-166289523D02*
X83884200Y-166251428D01*
X83884200Y-166251428D02*
X83922295Y-166175238D01*
X83922295Y-166175238D02*
X83922295Y-166022857D01*
X83922295Y-166022857D02*
X83884200Y-165946666D01*
X83884200Y-165946666D02*
X83846104Y-165908571D01*
X83846104Y-165908571D02*
X83769914Y-165870476D01*
X83769914Y-165870476D02*
X83617533Y-165870476D01*
X83617533Y-165870476D02*
X83541342Y-165908571D01*
X83541342Y-165908571D02*
X83503247Y-165946666D01*
X83503247Y-165946666D02*
X83465152Y-166022857D01*
X92336104Y-190993332D02*
X92374200Y-191031428D01*
X92374200Y-191031428D02*
X92412295Y-191145713D01*
X92412295Y-191145713D02*
X92412295Y-191221904D01*
X92412295Y-191221904D02*
X92374200Y-191336190D01*
X92374200Y-191336190D02*
X92298009Y-191412380D01*
X92298009Y-191412380D02*
X92221819Y-191450475D01*
X92221819Y-191450475D02*
X92069438Y-191488571D01*
X92069438Y-191488571D02*
X91955152Y-191488571D01*
X91955152Y-191488571D02*
X91802771Y-191450475D01*
X91802771Y-191450475D02*
X91726580Y-191412380D01*
X91726580Y-191412380D02*
X91650390Y-191336190D01*
X91650390Y-191336190D02*
X91612295Y-191221904D01*
X91612295Y-191221904D02*
X91612295Y-191145713D01*
X91612295Y-191145713D02*
X91650390Y-191031428D01*
X91650390Y-191031428D02*
X91688485Y-190993332D01*
X91612295Y-190726666D02*
X91612295Y-190231428D01*
X91612295Y-190231428D02*
X91917057Y-190498094D01*
X91917057Y-190498094D02*
X91917057Y-190383809D01*
X91917057Y-190383809D02*
X91955152Y-190307618D01*
X91955152Y-190307618D02*
X91993247Y-190269523D01*
X91993247Y-190269523D02*
X92069438Y-190231428D01*
X92069438Y-190231428D02*
X92259914Y-190231428D01*
X92259914Y-190231428D02*
X92336104Y-190269523D01*
X92336104Y-190269523D02*
X92374200Y-190307618D01*
X92374200Y-190307618D02*
X92412295Y-190383809D01*
X92412295Y-190383809D02*
X92412295Y-190612380D01*
X92412295Y-190612380D02*
X92374200Y-190688571D01*
X92374200Y-190688571D02*
X92336104Y-190726666D01*
X92347970Y-139065884D02*
X91967017Y-139332551D01*
X92347970Y-139523027D02*
X91547970Y-139523027D01*
X91547970Y-139523027D02*
X91547970Y-139218265D01*
X91547970Y-139218265D02*
X91586065Y-139142075D01*
X91586065Y-139142075D02*
X91624160Y-139103980D01*
X91624160Y-139103980D02*
X91700351Y-139065884D01*
X91700351Y-139065884D02*
X91814636Y-139065884D01*
X91814636Y-139065884D02*
X91890827Y-139103980D01*
X91890827Y-139103980D02*
X91928922Y-139142075D01*
X91928922Y-139142075D02*
X91967017Y-139218265D01*
X91967017Y-139218265D02*
X91967017Y-139523027D01*
X92347970Y-138303980D02*
X92347970Y-138761123D01*
X92347970Y-138532551D02*
X91547970Y-138532551D01*
X91547970Y-138532551D02*
X91662255Y-138608742D01*
X91662255Y-138608742D02*
X91738446Y-138684932D01*
X91738446Y-138684932D02*
X91776541Y-138761123D01*
X92347970Y-137542075D02*
X92347970Y-137999218D01*
X92347970Y-137770646D02*
X91547970Y-137770646D01*
X91547970Y-137770646D02*
X91662255Y-137846837D01*
X91662255Y-137846837D02*
X91738446Y-137923027D01*
X91738446Y-137923027D02*
X91776541Y-137999218D01*
X72536104Y-152233332D02*
X72574200Y-152271428D01*
X72574200Y-152271428D02*
X72612295Y-152385713D01*
X72612295Y-152385713D02*
X72612295Y-152461904D01*
X72612295Y-152461904D02*
X72574200Y-152576190D01*
X72574200Y-152576190D02*
X72498009Y-152652380D01*
X72498009Y-152652380D02*
X72421819Y-152690475D01*
X72421819Y-152690475D02*
X72269438Y-152728571D01*
X72269438Y-152728571D02*
X72155152Y-152728571D01*
X72155152Y-152728571D02*
X72002771Y-152690475D01*
X72002771Y-152690475D02*
X71926580Y-152652380D01*
X71926580Y-152652380D02*
X71850390Y-152576190D01*
X71850390Y-152576190D02*
X71812295Y-152461904D01*
X71812295Y-152461904D02*
X71812295Y-152385713D01*
X71812295Y-152385713D02*
X71850390Y-152271428D01*
X71850390Y-152271428D02*
X71888485Y-152233332D01*
X72078961Y-151547618D02*
X72612295Y-151547618D01*
X71774200Y-151738094D02*
X72345628Y-151928571D01*
X72345628Y-151928571D02*
X72345628Y-151433332D01*
X92933332Y-147454200D02*
X93047618Y-147492295D01*
X93047618Y-147492295D02*
X93238094Y-147492295D01*
X93238094Y-147492295D02*
X93314285Y-147454200D01*
X93314285Y-147454200D02*
X93352380Y-147416104D01*
X93352380Y-147416104D02*
X93390475Y-147339914D01*
X93390475Y-147339914D02*
X93390475Y-147263723D01*
X93390475Y-147263723D02*
X93352380Y-147187533D01*
X93352380Y-147187533D02*
X93314285Y-147149438D01*
X93314285Y-147149438D02*
X93238094Y-147111342D01*
X93238094Y-147111342D02*
X93085713Y-147073247D01*
X93085713Y-147073247D02*
X93009523Y-147035152D01*
X93009523Y-147035152D02*
X92971428Y-146997057D01*
X92971428Y-146997057D02*
X92933332Y-146920866D01*
X92933332Y-146920866D02*
X92933332Y-146844676D01*
X92933332Y-146844676D02*
X92971428Y-146768485D01*
X92971428Y-146768485D02*
X93009523Y-146730390D01*
X93009523Y-146730390D02*
X93085713Y-146692295D01*
X93085713Y-146692295D02*
X93276190Y-146692295D01*
X93276190Y-146692295D02*
X93390475Y-146730390D01*
X93657142Y-146692295D02*
X93847618Y-147492295D01*
X93847618Y-147492295D02*
X93999999Y-146920866D01*
X93999999Y-146920866D02*
X94152380Y-147492295D01*
X94152380Y-147492295D02*
X94342857Y-146692295D01*
X95028571Y-146692295D02*
X94647619Y-146692295D01*
X94647619Y-146692295D02*
X94609523Y-147073247D01*
X94609523Y-147073247D02*
X94647619Y-147035152D01*
X94647619Y-147035152D02*
X94723809Y-146997057D01*
X94723809Y-146997057D02*
X94914285Y-146997057D01*
X94914285Y-146997057D02*
X94990476Y-147035152D01*
X94990476Y-147035152D02*
X95028571Y-147073247D01*
X95028571Y-147073247D02*
X95066666Y-147149438D01*
X95066666Y-147149438D02*
X95066666Y-147339914D01*
X95066666Y-147339914D02*
X95028571Y-147416104D01*
X95028571Y-147416104D02*
X94990476Y-147454200D01*
X94990476Y-147454200D02*
X94914285Y-147492295D01*
X94914285Y-147492295D02*
X94723809Y-147492295D01*
X94723809Y-147492295D02*
X94647619Y-147454200D01*
X94647619Y-147454200D02*
X94609523Y-147416104D01*
X85336666Y-153532295D02*
X84955714Y-153532295D01*
X84955714Y-153532295D02*
X84955714Y-152732295D01*
X86022380Y-153532295D02*
X85565237Y-153532295D01*
X85793809Y-153532295D02*
X85793809Y-152732295D01*
X85793809Y-152732295D02*
X85717618Y-152846580D01*
X85717618Y-152846580D02*
X85641428Y-152922771D01*
X85641428Y-152922771D02*
X85565237Y-152960866D01*
X106946104Y-166363332D02*
X106984200Y-166401428D01*
X106984200Y-166401428D02*
X107022295Y-166515713D01*
X107022295Y-166515713D02*
X107022295Y-166591904D01*
X107022295Y-166591904D02*
X106984200Y-166706190D01*
X106984200Y-166706190D02*
X106908009Y-166782380D01*
X106908009Y-166782380D02*
X106831819Y-166820475D01*
X106831819Y-166820475D02*
X106679438Y-166858571D01*
X106679438Y-166858571D02*
X106565152Y-166858571D01*
X106565152Y-166858571D02*
X106412771Y-166820475D01*
X106412771Y-166820475D02*
X106336580Y-166782380D01*
X106336580Y-166782380D02*
X106260390Y-166706190D01*
X106260390Y-166706190D02*
X106222295Y-166591904D01*
X106222295Y-166591904D02*
X106222295Y-166515713D01*
X106222295Y-166515713D02*
X106260390Y-166401428D01*
X106260390Y-166401428D02*
X106298485Y-166363332D01*
X107022295Y-165982380D02*
X107022295Y-165829999D01*
X107022295Y-165829999D02*
X106984200Y-165753809D01*
X106984200Y-165753809D02*
X106946104Y-165715713D01*
X106946104Y-165715713D02*
X106831819Y-165639523D01*
X106831819Y-165639523D02*
X106679438Y-165601428D01*
X106679438Y-165601428D02*
X106374676Y-165601428D01*
X106374676Y-165601428D02*
X106298485Y-165639523D01*
X106298485Y-165639523D02*
X106260390Y-165677618D01*
X106260390Y-165677618D02*
X106222295Y-165753809D01*
X106222295Y-165753809D02*
X106222295Y-165906190D01*
X106222295Y-165906190D02*
X106260390Y-165982380D01*
X106260390Y-165982380D02*
X106298485Y-166020475D01*
X106298485Y-166020475D02*
X106374676Y-166058571D01*
X106374676Y-166058571D02*
X106565152Y-166058571D01*
X106565152Y-166058571D02*
X106641342Y-166020475D01*
X106641342Y-166020475D02*
X106679438Y-165982380D01*
X106679438Y-165982380D02*
X106717533Y-165906190D01*
X106717533Y-165906190D02*
X106717533Y-165753809D01*
X106717533Y-165753809D02*
X106679438Y-165677618D01*
X106679438Y-165677618D02*
X106641342Y-165639523D01*
X106641342Y-165639523D02*
X106565152Y-165601428D01*
X104116476Y-153019095D02*
X104116476Y-153666714D01*
X104116476Y-153666714D02*
X104154571Y-153742904D01*
X104154571Y-153742904D02*
X104192666Y-153781000D01*
X104192666Y-153781000D02*
X104268857Y-153819095D01*
X104268857Y-153819095D02*
X104421238Y-153819095D01*
X104421238Y-153819095D02*
X104497428Y-153781000D01*
X104497428Y-153781000D02*
X104535523Y-153742904D01*
X104535523Y-153742904D02*
X104573619Y-153666714D01*
X104573619Y-153666714D02*
X104573619Y-153019095D01*
X104878380Y-153019095D02*
X105411714Y-153019095D01*
X105411714Y-153019095D02*
X105068856Y-153819095D01*
X105766366Y-189692080D02*
X105880652Y-189730175D01*
X105880652Y-189730175D02*
X106071128Y-189730175D01*
X106071128Y-189730175D02*
X106147319Y-189692080D01*
X106147319Y-189692080D02*
X106185414Y-189653984D01*
X106185414Y-189653984D02*
X106223509Y-189577794D01*
X106223509Y-189577794D02*
X106223509Y-189501603D01*
X106223509Y-189501603D02*
X106185414Y-189425413D01*
X106185414Y-189425413D02*
X106147319Y-189387318D01*
X106147319Y-189387318D02*
X106071128Y-189349222D01*
X106071128Y-189349222D02*
X105918747Y-189311127D01*
X105918747Y-189311127D02*
X105842557Y-189273032D01*
X105842557Y-189273032D02*
X105804462Y-189234937D01*
X105804462Y-189234937D02*
X105766366Y-189158746D01*
X105766366Y-189158746D02*
X105766366Y-189082556D01*
X105766366Y-189082556D02*
X105804462Y-189006365D01*
X105804462Y-189006365D02*
X105842557Y-188968270D01*
X105842557Y-188968270D02*
X105918747Y-188930175D01*
X105918747Y-188930175D02*
X106109224Y-188930175D01*
X106109224Y-188930175D02*
X106223509Y-188968270D01*
X106490176Y-188930175D02*
X106680652Y-189730175D01*
X106680652Y-189730175D02*
X106833033Y-189158746D01*
X106833033Y-189158746D02*
X106985414Y-189730175D01*
X106985414Y-189730175D02*
X107175891Y-188930175D01*
X107442557Y-189006365D02*
X107480653Y-188968270D01*
X107480653Y-188968270D02*
X107556843Y-188930175D01*
X107556843Y-188930175D02*
X107747319Y-188930175D01*
X107747319Y-188930175D02*
X107823510Y-188968270D01*
X107823510Y-188968270D02*
X107861605Y-189006365D01*
X107861605Y-189006365D02*
X107899700Y-189082556D01*
X107899700Y-189082556D02*
X107899700Y-189158746D01*
X107899700Y-189158746D02*
X107861605Y-189273032D01*
X107861605Y-189273032D02*
X107404462Y-189730175D01*
X107404462Y-189730175D02*
X107899700Y-189730175D01*
X71904761Y-190312295D02*
X71523809Y-190312295D01*
X71523809Y-190312295D02*
X71523809Y-189512295D01*
X72171428Y-189893247D02*
X72438094Y-189893247D01*
X72552380Y-190312295D02*
X72171428Y-190312295D01*
X72171428Y-190312295D02*
X72171428Y-189512295D01*
X72171428Y-189512295D02*
X72552380Y-189512295D01*
X72895238Y-190312295D02*
X72895238Y-189512295D01*
X72895238Y-189512295D02*
X73085714Y-189512295D01*
X73085714Y-189512295D02*
X73200000Y-189550390D01*
X73200000Y-189550390D02*
X73276190Y-189626580D01*
X73276190Y-189626580D02*
X73314285Y-189702771D01*
X73314285Y-189702771D02*
X73352381Y-189855152D01*
X73352381Y-189855152D02*
X73352381Y-189969438D01*
X73352381Y-189969438D02*
X73314285Y-190121819D01*
X73314285Y-190121819D02*
X73276190Y-190198009D01*
X73276190Y-190198009D02*
X73200000Y-190274200D01*
X73200000Y-190274200D02*
X73085714Y-190312295D01*
X73085714Y-190312295D02*
X72895238Y-190312295D01*
X74114285Y-190312295D02*
X73657142Y-190312295D01*
X73885714Y-190312295D02*
X73885714Y-189512295D01*
X73885714Y-189512295D02*
X73809523Y-189626580D01*
X73809523Y-189626580D02*
X73733333Y-189702771D01*
X73733333Y-189702771D02*
X73657142Y-189740866D01*
X82265714Y-193986104D02*
X82227618Y-194024200D01*
X82227618Y-194024200D02*
X82113333Y-194062295D01*
X82113333Y-194062295D02*
X82037142Y-194062295D01*
X82037142Y-194062295D02*
X81922856Y-194024200D01*
X81922856Y-194024200D02*
X81846666Y-193948009D01*
X81846666Y-193948009D02*
X81808571Y-193871819D01*
X81808571Y-193871819D02*
X81770475Y-193719438D01*
X81770475Y-193719438D02*
X81770475Y-193605152D01*
X81770475Y-193605152D02*
X81808571Y-193452771D01*
X81808571Y-193452771D02*
X81846666Y-193376580D01*
X81846666Y-193376580D02*
X81922856Y-193300390D01*
X81922856Y-193300390D02*
X82037142Y-193262295D01*
X82037142Y-193262295D02*
X82113333Y-193262295D01*
X82113333Y-193262295D02*
X82227618Y-193300390D01*
X82227618Y-193300390D02*
X82265714Y-193338485D01*
X83027618Y-194062295D02*
X82570475Y-194062295D01*
X82799047Y-194062295D02*
X82799047Y-193262295D01*
X82799047Y-193262295D02*
X82722856Y-193376580D01*
X82722856Y-193376580D02*
X82646666Y-193452771D01*
X82646666Y-193452771D02*
X82570475Y-193490866D01*
X83294285Y-193262295D02*
X83827619Y-193262295D01*
X83827619Y-193262295D02*
X83484761Y-194062295D01*
X80426667Y-159462295D02*
X80160000Y-159081342D01*
X79969524Y-159462295D02*
X79969524Y-158662295D01*
X79969524Y-158662295D02*
X80274286Y-158662295D01*
X80274286Y-158662295D02*
X80350476Y-158700390D01*
X80350476Y-158700390D02*
X80388571Y-158738485D01*
X80388571Y-158738485D02*
X80426667Y-158814676D01*
X80426667Y-158814676D02*
X80426667Y-158928961D01*
X80426667Y-158928961D02*
X80388571Y-159005152D01*
X80388571Y-159005152D02*
X80350476Y-159043247D01*
X80350476Y-159043247D02*
X80274286Y-159081342D01*
X80274286Y-159081342D02*
X79969524Y-159081342D01*
X81188571Y-159462295D02*
X80731428Y-159462295D01*
X80960000Y-159462295D02*
X80960000Y-158662295D01*
X80960000Y-158662295D02*
X80883809Y-158776580D01*
X80883809Y-158776580D02*
X80807619Y-158852771D01*
X80807619Y-158852771D02*
X80731428Y-158890866D01*
X79177704Y-184050476D02*
X78530085Y-184050476D01*
X78530085Y-184050476D02*
X78453895Y-184088571D01*
X78453895Y-184088571D02*
X78415800Y-184126666D01*
X78415800Y-184126666D02*
X78377704Y-184202857D01*
X78377704Y-184202857D02*
X78377704Y-184355238D01*
X78377704Y-184355238D02*
X78415800Y-184431428D01*
X78415800Y-184431428D02*
X78453895Y-184469523D01*
X78453895Y-184469523D02*
X78530085Y-184507619D01*
X78530085Y-184507619D02*
X79177704Y-184507619D01*
X79177704Y-184812380D02*
X79177704Y-185307618D01*
X79177704Y-185307618D02*
X78872942Y-185040952D01*
X78872942Y-185040952D02*
X78872942Y-185155237D01*
X78872942Y-185155237D02*
X78834847Y-185231428D01*
X78834847Y-185231428D02*
X78796752Y-185269523D01*
X78796752Y-185269523D02*
X78720561Y-185307618D01*
X78720561Y-185307618D02*
X78530085Y-185307618D01*
X78530085Y-185307618D02*
X78453895Y-185269523D01*
X78453895Y-185269523D02*
X78415800Y-185231428D01*
X78415800Y-185231428D02*
X78377704Y-185155237D01*
X78377704Y-185155237D02*
X78377704Y-184926666D01*
X78377704Y-184926666D02*
X78415800Y-184850475D01*
X78415800Y-184850475D02*
X78453895Y-184812380D01*
X73835714Y-165062295D02*
X73569047Y-164681342D01*
X73378571Y-165062295D02*
X73378571Y-164262295D01*
X73378571Y-164262295D02*
X73683333Y-164262295D01*
X73683333Y-164262295D02*
X73759523Y-164300390D01*
X73759523Y-164300390D02*
X73797618Y-164338485D01*
X73797618Y-164338485D02*
X73835714Y-164414676D01*
X73835714Y-164414676D02*
X73835714Y-164528961D01*
X73835714Y-164528961D02*
X73797618Y-164605152D01*
X73797618Y-164605152D02*
X73759523Y-164643247D01*
X73759523Y-164643247D02*
X73683333Y-164681342D01*
X73683333Y-164681342D02*
X73378571Y-164681342D01*
X74597618Y-165062295D02*
X74140475Y-165062295D01*
X74369047Y-165062295D02*
X74369047Y-164262295D01*
X74369047Y-164262295D02*
X74292856Y-164376580D01*
X74292856Y-164376580D02*
X74216666Y-164452771D01*
X74216666Y-164452771D02*
X74140475Y-164490866D01*
X74864285Y-164262295D02*
X75397619Y-164262295D01*
X75397619Y-164262295D02*
X75054761Y-165062295D01*
X97427970Y-139065884D02*
X97047017Y-139332551D01*
X97427970Y-139523027D02*
X96627970Y-139523027D01*
X96627970Y-139523027D02*
X96627970Y-139218265D01*
X96627970Y-139218265D02*
X96666065Y-139142075D01*
X96666065Y-139142075D02*
X96704160Y-139103980D01*
X96704160Y-139103980D02*
X96780351Y-139065884D01*
X96780351Y-139065884D02*
X96894636Y-139065884D01*
X96894636Y-139065884D02*
X96970827Y-139103980D01*
X96970827Y-139103980D02*
X97008922Y-139142075D01*
X97008922Y-139142075D02*
X97047017Y-139218265D01*
X97047017Y-139218265D02*
X97047017Y-139523027D01*
X97427970Y-138303980D02*
X97427970Y-138761123D01*
X97427970Y-138532551D02*
X96627970Y-138532551D01*
X96627970Y-138532551D02*
X96742255Y-138608742D01*
X96742255Y-138608742D02*
X96818446Y-138684932D01*
X96818446Y-138684932D02*
X96856541Y-138761123D01*
X96627970Y-138037313D02*
X96627970Y-137542075D01*
X96627970Y-137542075D02*
X96932732Y-137808741D01*
X96932732Y-137808741D02*
X96932732Y-137694456D01*
X96932732Y-137694456D02*
X96970827Y-137618265D01*
X96970827Y-137618265D02*
X97008922Y-137580170D01*
X97008922Y-137580170D02*
X97085113Y-137542075D01*
X97085113Y-137542075D02*
X97275589Y-137542075D01*
X97275589Y-137542075D02*
X97351779Y-137580170D01*
X97351779Y-137580170D02*
X97389875Y-137618265D01*
X97389875Y-137618265D02*
X97427970Y-137694456D01*
X97427970Y-137694456D02*
X97427970Y-137923027D01*
X97427970Y-137923027D02*
X97389875Y-137999218D01*
X97389875Y-137999218D02*
X97351779Y-138037313D01*
X105006104Y-181394285D02*
X105044200Y-181432381D01*
X105044200Y-181432381D02*
X105082295Y-181546666D01*
X105082295Y-181546666D02*
X105082295Y-181622857D01*
X105082295Y-181622857D02*
X105044200Y-181737143D01*
X105044200Y-181737143D02*
X104968009Y-181813333D01*
X104968009Y-181813333D02*
X104891819Y-181851428D01*
X104891819Y-181851428D02*
X104739438Y-181889524D01*
X104739438Y-181889524D02*
X104625152Y-181889524D01*
X104625152Y-181889524D02*
X104472771Y-181851428D01*
X104472771Y-181851428D02*
X104396580Y-181813333D01*
X104396580Y-181813333D02*
X104320390Y-181737143D01*
X104320390Y-181737143D02*
X104282295Y-181622857D01*
X104282295Y-181622857D02*
X104282295Y-181546666D01*
X104282295Y-181546666D02*
X104320390Y-181432381D01*
X104320390Y-181432381D02*
X104358485Y-181394285D01*
X105082295Y-180632381D02*
X105082295Y-181089524D01*
X105082295Y-180860952D02*
X104282295Y-180860952D01*
X104282295Y-180860952D02*
X104396580Y-180937143D01*
X104396580Y-180937143D02*
X104472771Y-181013333D01*
X104472771Y-181013333D02*
X104510866Y-181089524D01*
X104282295Y-179908571D02*
X104282295Y-180289523D01*
X104282295Y-180289523D02*
X104663247Y-180327619D01*
X104663247Y-180327619D02*
X104625152Y-180289523D01*
X104625152Y-180289523D02*
X104587057Y-180213333D01*
X104587057Y-180213333D02*
X104587057Y-180022857D01*
X104587057Y-180022857D02*
X104625152Y-179946666D01*
X104625152Y-179946666D02*
X104663247Y-179908571D01*
X104663247Y-179908571D02*
X104739438Y-179870476D01*
X104739438Y-179870476D02*
X104929914Y-179870476D01*
X104929914Y-179870476D02*
X105006104Y-179908571D01*
X105006104Y-179908571D02*
X105044200Y-179946666D01*
X105044200Y-179946666D02*
X105082295Y-180022857D01*
X105082295Y-180022857D02*
X105082295Y-180213333D01*
X105082295Y-180213333D02*
X105044200Y-180289523D01*
X105044200Y-180289523D02*
X105006104Y-180327619D01*
X97522295Y-191013332D02*
X97141342Y-191279999D01*
X97522295Y-191470475D02*
X96722295Y-191470475D01*
X96722295Y-191470475D02*
X96722295Y-191165713D01*
X96722295Y-191165713D02*
X96760390Y-191089523D01*
X96760390Y-191089523D02*
X96798485Y-191051428D01*
X96798485Y-191051428D02*
X96874676Y-191013332D01*
X96874676Y-191013332D02*
X96988961Y-191013332D01*
X96988961Y-191013332D02*
X97065152Y-191051428D01*
X97065152Y-191051428D02*
X97103247Y-191089523D01*
X97103247Y-191089523D02*
X97141342Y-191165713D01*
X97141342Y-191165713D02*
X97141342Y-191470475D01*
X97522295Y-190632380D02*
X97522295Y-190479999D01*
X97522295Y-190479999D02*
X97484200Y-190403809D01*
X97484200Y-190403809D02*
X97446104Y-190365713D01*
X97446104Y-190365713D02*
X97331819Y-190289523D01*
X97331819Y-190289523D02*
X97179438Y-190251428D01*
X97179438Y-190251428D02*
X96874676Y-190251428D01*
X96874676Y-190251428D02*
X96798485Y-190289523D01*
X96798485Y-190289523D02*
X96760390Y-190327618D01*
X96760390Y-190327618D02*
X96722295Y-190403809D01*
X96722295Y-190403809D02*
X96722295Y-190556190D01*
X96722295Y-190556190D02*
X96760390Y-190632380D01*
X96760390Y-190632380D02*
X96798485Y-190670475D01*
X96798485Y-190670475D02*
X96874676Y-190708571D01*
X96874676Y-190708571D02*
X97065152Y-190708571D01*
X97065152Y-190708571D02*
X97141342Y-190670475D01*
X97141342Y-190670475D02*
X97179438Y-190632380D01*
X97179438Y-190632380D02*
X97217533Y-190556190D01*
X97217533Y-190556190D02*
X97217533Y-190403809D01*
X97217533Y-190403809D02*
X97179438Y-190327618D01*
X97179438Y-190327618D02*
X97141342Y-190289523D01*
X97141342Y-190289523D02*
X97065152Y-190251428D01*
X94887970Y-139065884D02*
X94507017Y-139332551D01*
X94887970Y-139523027D02*
X94087970Y-139523027D01*
X94087970Y-139523027D02*
X94087970Y-139218265D01*
X94087970Y-139218265D02*
X94126065Y-139142075D01*
X94126065Y-139142075D02*
X94164160Y-139103980D01*
X94164160Y-139103980D02*
X94240351Y-139065884D01*
X94240351Y-139065884D02*
X94354636Y-139065884D01*
X94354636Y-139065884D02*
X94430827Y-139103980D01*
X94430827Y-139103980D02*
X94468922Y-139142075D01*
X94468922Y-139142075D02*
X94507017Y-139218265D01*
X94507017Y-139218265D02*
X94507017Y-139523027D01*
X94887970Y-138303980D02*
X94887970Y-138761123D01*
X94887970Y-138532551D02*
X94087970Y-138532551D01*
X94087970Y-138532551D02*
X94202255Y-138608742D01*
X94202255Y-138608742D02*
X94278446Y-138684932D01*
X94278446Y-138684932D02*
X94316541Y-138761123D01*
X94164160Y-137999218D02*
X94126065Y-137961122D01*
X94126065Y-137961122D02*
X94087970Y-137884932D01*
X94087970Y-137884932D02*
X94087970Y-137694456D01*
X94087970Y-137694456D02*
X94126065Y-137618265D01*
X94126065Y-137618265D02*
X94164160Y-137580170D01*
X94164160Y-137580170D02*
X94240351Y-137542075D01*
X94240351Y-137542075D02*
X94316541Y-137542075D01*
X94316541Y-137542075D02*
X94430827Y-137580170D01*
X94430827Y-137580170D02*
X94887970Y-138037313D01*
X94887970Y-138037313D02*
X94887970Y-137542075D01*
X73255714Y-192636104D02*
X73217618Y-192674200D01*
X73217618Y-192674200D02*
X73103333Y-192712295D01*
X73103333Y-192712295D02*
X73027142Y-192712295D01*
X73027142Y-192712295D02*
X72912856Y-192674200D01*
X72912856Y-192674200D02*
X72836666Y-192598009D01*
X72836666Y-192598009D02*
X72798571Y-192521819D01*
X72798571Y-192521819D02*
X72760475Y-192369438D01*
X72760475Y-192369438D02*
X72760475Y-192255152D01*
X72760475Y-192255152D02*
X72798571Y-192102771D01*
X72798571Y-192102771D02*
X72836666Y-192026580D01*
X72836666Y-192026580D02*
X72912856Y-191950390D01*
X72912856Y-191950390D02*
X73027142Y-191912295D01*
X73027142Y-191912295D02*
X73103333Y-191912295D01*
X73103333Y-191912295D02*
X73217618Y-191950390D01*
X73217618Y-191950390D02*
X73255714Y-191988485D01*
X74017618Y-192712295D02*
X73560475Y-192712295D01*
X73789047Y-192712295D02*
X73789047Y-191912295D01*
X73789047Y-191912295D02*
X73712856Y-192026580D01*
X73712856Y-192026580D02*
X73636666Y-192102771D01*
X73636666Y-192102771D02*
X73560475Y-192140866D01*
X74512857Y-191912295D02*
X74589047Y-191912295D01*
X74589047Y-191912295D02*
X74665238Y-191950390D01*
X74665238Y-191950390D02*
X74703333Y-191988485D01*
X74703333Y-191988485D02*
X74741428Y-192064676D01*
X74741428Y-192064676D02*
X74779523Y-192217057D01*
X74779523Y-192217057D02*
X74779523Y-192407533D01*
X74779523Y-192407533D02*
X74741428Y-192559914D01*
X74741428Y-192559914D02*
X74703333Y-192636104D01*
X74703333Y-192636104D02*
X74665238Y-192674200D01*
X74665238Y-192674200D02*
X74589047Y-192712295D01*
X74589047Y-192712295D02*
X74512857Y-192712295D01*
X74512857Y-192712295D02*
X74436666Y-192674200D01*
X74436666Y-192674200D02*
X74398571Y-192636104D01*
X74398571Y-192636104D02*
X74360476Y-192559914D01*
X74360476Y-192559914D02*
X74322380Y-192407533D01*
X74322380Y-192407533D02*
X74322380Y-192217057D01*
X74322380Y-192217057D02*
X74360476Y-192064676D01*
X74360476Y-192064676D02*
X74398571Y-191988485D01*
X74398571Y-191988485D02*
X74436666Y-191950390D01*
X74436666Y-191950390D02*
X74512857Y-191912295D01*
X93486104Y-181314285D02*
X93524200Y-181352381D01*
X93524200Y-181352381D02*
X93562295Y-181466666D01*
X93562295Y-181466666D02*
X93562295Y-181542857D01*
X93562295Y-181542857D02*
X93524200Y-181657143D01*
X93524200Y-181657143D02*
X93448009Y-181733333D01*
X93448009Y-181733333D02*
X93371819Y-181771428D01*
X93371819Y-181771428D02*
X93219438Y-181809524D01*
X93219438Y-181809524D02*
X93105152Y-181809524D01*
X93105152Y-181809524D02*
X92952771Y-181771428D01*
X92952771Y-181771428D02*
X92876580Y-181733333D01*
X92876580Y-181733333D02*
X92800390Y-181657143D01*
X92800390Y-181657143D02*
X92762295Y-181542857D01*
X92762295Y-181542857D02*
X92762295Y-181466666D01*
X92762295Y-181466666D02*
X92800390Y-181352381D01*
X92800390Y-181352381D02*
X92838485Y-181314285D01*
X93562295Y-180552381D02*
X93562295Y-181009524D01*
X93562295Y-180780952D02*
X92762295Y-180780952D01*
X92762295Y-180780952D02*
X92876580Y-180857143D01*
X92876580Y-180857143D02*
X92952771Y-180933333D01*
X92952771Y-180933333D02*
X92990866Y-181009524D01*
X92762295Y-179866666D02*
X92762295Y-180019047D01*
X92762295Y-180019047D02*
X92800390Y-180095238D01*
X92800390Y-180095238D02*
X92838485Y-180133333D01*
X92838485Y-180133333D02*
X92952771Y-180209523D01*
X92952771Y-180209523D02*
X93105152Y-180247619D01*
X93105152Y-180247619D02*
X93409914Y-180247619D01*
X93409914Y-180247619D02*
X93486104Y-180209523D01*
X93486104Y-180209523D02*
X93524200Y-180171428D01*
X93524200Y-180171428D02*
X93562295Y-180095238D01*
X93562295Y-180095238D02*
X93562295Y-179942857D01*
X93562295Y-179942857D02*
X93524200Y-179866666D01*
X93524200Y-179866666D02*
X93486104Y-179828571D01*
X93486104Y-179828571D02*
X93409914Y-179790476D01*
X93409914Y-179790476D02*
X93219438Y-179790476D01*
X93219438Y-179790476D02*
X93143247Y-179828571D01*
X93143247Y-179828571D02*
X93105152Y-179866666D01*
X93105152Y-179866666D02*
X93067057Y-179942857D01*
X93067057Y-179942857D02*
X93067057Y-180095238D01*
X93067057Y-180095238D02*
X93105152Y-180171428D01*
X93105152Y-180171428D02*
X93143247Y-180209523D01*
X93143247Y-180209523D02*
X93219438Y-180247619D01*
D11*
%TO.C,D1*%
X81647500Y-146760000D02*
X81647500Y-144840000D01*
X81647500Y-144840000D02*
X78962500Y-144840000D01*
X78962500Y-146760000D02*
X81647500Y-146760000D01*
D12*
%TO.C,SW1*%
X113250000Y-196680000D02*
X116750000Y-196680000D01*
X116750000Y-196680000D02*
X116750000Y-195680000D01*
X113250000Y-195680000D02*
X113250000Y-196680000D01*
X116750000Y-193680000D02*
X118750000Y-193680000D01*
X118750000Y-193680000D02*
X118750000Y-192180000D01*
X118750000Y-192180000D02*
X117250000Y-192180000D01*
X113250000Y-188680000D02*
X113250000Y-187680000D01*
X113250000Y-187680000D02*
X116750000Y-187680000D01*
X116750000Y-187680000D02*
X116750000Y-188680000D01*
D13*
X112650000Y-194580000D02*
G75*
G03*
X112650000Y-194780000I0J-100000D01*
G01*
X112650000Y-194780000D02*
G75*
G03*
X112650000Y-194580000I0J100000D01*
G01*
D11*
%TO.C,C14*%
X110228748Y-155025000D02*
X110751252Y-155025000D01*
X110228748Y-156495000D02*
X110751252Y-156495000D01*
%TO.C,TP16*%
X102560000Y-177240000D02*
G75*
G03*
X101160000Y-177240000I-700000J0D01*
G01*
X101160000Y-177240000D02*
G75*
G03*
X102560000Y-177240000I700000J0D01*
G01*
D14*
%TO.C,Q1*%
X78165000Y-167855000D02*
X76965000Y-167855000D01*
X78165000Y-165905000D02*
X76965000Y-165905000D01*
D13*
X79265000Y-167480000D02*
G75*
G03*
X79065000Y-167480000I-100000J0D01*
G01*
X79065000Y-167480000D02*
G75*
G03*
X79265000Y-167480000I100000J0D01*
G01*
D11*
%TO.C,R6*%
X75429564Y-175235000D02*
X74975436Y-175235000D01*
X75429564Y-173765000D02*
X74975436Y-173765000D01*
%TO.C,TP14*%
X107700000Y-150680000D02*
G75*
G03*
X106300000Y-150680000I-700000J0D01*
G01*
X106300000Y-150680000D02*
G75*
G03*
X107700000Y-150680000I700000J0D01*
G01*
%TO.C,C13*%
X110228748Y-152485000D02*
X110751252Y-152485000D01*
X110228748Y-153955000D02*
X110751252Y-153955000D01*
D14*
%TO.C,U5*%
X89490000Y-124510000D02*
X89593000Y-124510000D01*
X89490000Y-124510000D02*
X89490000Y-125315000D01*
X95990000Y-125415000D02*
X95990000Y-130105000D01*
X89490000Y-130205000D02*
X89490000Y-131010000D01*
X89490000Y-131010000D02*
X89593000Y-131010000D01*
D13*
X95680000Y-123760000D02*
G75*
G03*
X95480000Y-123760000I-100000J0D01*
G01*
X95480000Y-123760000D02*
G75*
G03*
X95680000Y-123760000I100000J0D01*
G01*
D11*
%TO.C,R14*%
X88765000Y-135359564D02*
X88765000Y-134905436D01*
X90235000Y-135359564D02*
X90235000Y-134905436D01*
%TO.C,TP3*%
X88840000Y-193420000D02*
G75*
G03*
X87440000Y-193420000I-700000J0D01*
G01*
X87440000Y-193420000D02*
G75*
G03*
X88840000Y-193420000I700000J0D01*
G01*
%TO.C,U8*%
X97933595Y-178998558D02*
X97933595Y-179318558D01*
X97933595Y-178998558D02*
X98253595Y-178998558D01*
X97933595Y-180278558D02*
X97933595Y-179958558D01*
X97933595Y-180278558D02*
X98253595Y-180278558D01*
X99213595Y-178998558D02*
X98893595Y-178998558D01*
X99213595Y-178998558D02*
X99213595Y-179318558D01*
X99213595Y-180278558D02*
X98893595Y-180278558D01*
X99213595Y-180278558D02*
X99213595Y-179958558D01*
D15*
X97554595Y-179238558D02*
G75*
G03*
X97304595Y-179238558I-125000J0D01*
G01*
X97304595Y-179238558D02*
G75*
G03*
X97554595Y-179238558I125000J0D01*
G01*
D11*
%TO.C,U9*%
X79500000Y-189620000D02*
X78700000Y-189620000D01*
X79500000Y-189620000D02*
X80300000Y-189620000D01*
X79500000Y-192740000D02*
X78700000Y-192740000D01*
X79500000Y-192740000D02*
X80300000Y-192740000D01*
X78200000Y-189670000D02*
X77960000Y-189340000D01*
X78440000Y-189340000D01*
X78200000Y-189670000D01*
G36*
X78200000Y-189670000D02*
G01*
X77960000Y-189340000D01*
X78440000Y-189340000D01*
X78200000Y-189670000D01*
G37*
%TO.C,C12*%
X100835000Y-171388748D02*
X100835000Y-171911252D01*
X99365000Y-171388748D02*
X99365000Y-171911252D01*
%TO.C,R4*%
X85850436Y-178845000D02*
X86304564Y-178845000D01*
X85850436Y-180315000D02*
X86304564Y-180315000D01*
%TO.C,C11*%
X97735000Y-171388748D02*
X97735000Y-171911252D01*
X96265000Y-171388748D02*
X96265000Y-171911252D01*
%TO.C,SW4*%
X105770000Y-135950000D02*
X112230000Y-135950000D01*
X105770000Y-135980000D02*
X105770000Y-135950000D01*
X105770000Y-137880000D02*
X105770000Y-140480000D01*
X105770000Y-142410000D02*
X105770000Y-142380000D01*
X105770000Y-142410000D02*
X112230000Y-142410000D01*
X112230000Y-135950000D02*
X112230000Y-135980000D01*
X112230000Y-137880000D02*
X112230000Y-140480000D01*
X112230000Y-142410000D02*
X112230000Y-142380000D01*
%TO.C,TP18*%
X106825000Y-158300000D02*
G75*
G03*
X105425000Y-158300000I-700000J0D01*
G01*
X105425000Y-158300000D02*
G75*
G03*
X106825000Y-158300000I700000J0D01*
G01*
%TO.C,C18*%
X98108748Y-181585000D02*
X98631252Y-181585000D01*
X98108748Y-183055000D02*
X98631252Y-183055000D01*
%TO.C,TP4*%
X74700000Y-149680000D02*
G75*
G03*
X73300000Y-149680000I-700000J0D01*
G01*
X73300000Y-149680000D02*
G75*
G03*
X74700000Y-149680000I700000J0D01*
G01*
D14*
%TO.C,U4*%
X77470000Y-153950000D02*
X77470000Y-154565000D01*
X77470000Y-153950000D02*
X78085000Y-153950000D01*
X77470000Y-156410000D02*
X77470000Y-155795000D01*
X77470000Y-156410000D02*
X78085000Y-156410000D01*
X79930000Y-153950000D02*
X79315000Y-153950000D01*
X79930000Y-153950000D02*
X79930000Y-154565000D01*
X79930000Y-156410000D02*
X79315000Y-156410000D01*
X79930000Y-156410000D02*
X79930000Y-155795000D01*
D13*
X77135500Y-154380000D02*
G75*
G03*
X76935500Y-154380000I-100000J0D01*
G01*
X76935500Y-154380000D02*
G75*
G03*
X77135500Y-154380000I100000J0D01*
G01*
D11*
%TO.C,SW3*%
X76770000Y-135950000D02*
X83230000Y-135950000D01*
X76770000Y-135980000D02*
X76770000Y-135950000D01*
X76770000Y-137880000D02*
X76770000Y-140480000D01*
X76770000Y-142410000D02*
X76770000Y-142380000D01*
X76770000Y-142410000D02*
X83230000Y-142410000D01*
X83230000Y-135950000D02*
X83230000Y-135980000D01*
X83230000Y-137880000D02*
X83230000Y-140480000D01*
X83230000Y-142410000D02*
X83230000Y-142380000D01*
%TO.C,TP17*%
X97480000Y-177240000D02*
G75*
G03*
X96080000Y-177240000I-700000J0D01*
G01*
X96080000Y-177240000D02*
G75*
G03*
X97480000Y-177240000I700000J0D01*
G01*
%TO.C,D2*%
X72477500Y-144840000D02*
X72477500Y-146760000D01*
X72477500Y-146760000D02*
X75162500Y-146760000D01*
X75162500Y-144840000D02*
X72477500Y-144840000D01*
D16*
%TO.C,U2*%
X82786300Y-177890900D02*
X81033700Y-177890900D01*
X82786300Y-178917060D02*
X82786300Y-177890900D01*
X81033700Y-179292939D02*
X81033700Y-179867061D01*
X82786300Y-181269100D02*
X82786300Y-180242940D01*
X81033700Y-181269100D02*
X82786300Y-181269100D01*
X80690800Y-176747900D02*
G75*
G03*
X80436800Y-176747900I-127000J0D01*
G01*
X80436800Y-176747900D02*
G75*
G03*
X80690800Y-176747900I127000J0D01*
G01*
D11*
%TO.C,C6*%
X83578748Y-124685000D02*
X84101252Y-124685000D01*
X83578748Y-126155000D02*
X84101252Y-126155000D01*
%TO.C,TP6*%
X79400000Y-131000000D02*
G75*
G03*
X78000000Y-131000000I-700000J0D01*
G01*
X78000000Y-131000000D02*
G75*
G03*
X79400000Y-131000000I700000J0D01*
G01*
%TO.C,TP19*%
X102620000Y-155760000D02*
G75*
G03*
X101220000Y-155760000I-700000J0D01*
G01*
X101220000Y-155760000D02*
G75*
G03*
X102620000Y-155760000I700000J0D01*
G01*
%TO.C,R15*%
X78054564Y-164915000D02*
X77600436Y-164915000D01*
X78054564Y-163445000D02*
X77600436Y-163445000D01*
%TO.C,C1*%
X74886252Y-155375000D02*
X74363748Y-155375000D01*
X74886252Y-153905000D02*
X74363748Y-153905000D01*
%TO.C,TP12*%
X105160000Y-150680000D02*
G75*
G03*
X103760000Y-150680000I-700000J0D01*
G01*
X103760000Y-150680000D02*
G75*
G03*
X105160000Y-150680000I700000J0D01*
G01*
%TO.C,J3*%
X89785024Y-199859206D02*
X89785024Y-198159206D01*
X99125024Y-199859206D02*
X99125024Y-198159206D01*
%TO.C,R5*%
X85850436Y-183925000D02*
X86304564Y-183925000D01*
X85850436Y-185395000D02*
X86304564Y-185395000D01*
%TO.C,C8*%
X84111252Y-133235000D02*
X83588748Y-133235000D01*
X84111252Y-131765000D02*
X83588748Y-131765000D01*
%TO.C,R7*%
X75429564Y-180315000D02*
X74975436Y-180315000D01*
X75429564Y-178845000D02*
X74975436Y-178845000D01*
%TO.C,R20*%
X110225436Y-157565000D02*
X110679564Y-157565000D01*
X110225436Y-159035000D02*
X110679564Y-159035000D01*
%TO.C,R8*%
X75429564Y-185395000D02*
X74975436Y-185395000D01*
X75429564Y-183925000D02*
X74975436Y-183925000D01*
%TO.C,R10*%
X93855000Y-193714564D02*
X93855000Y-193260436D01*
X95325000Y-193714564D02*
X95325000Y-193260436D01*
%TO.C,C2*%
X78488748Y-151165000D02*
X79011252Y-151165000D01*
X78488748Y-152635000D02*
X79011252Y-152635000D01*
%TO.C,Y1*%
X84040000Y-129120000D02*
X85640000Y-129120000D01*
X85640000Y-129120000D02*
X85640000Y-126720000D01*
X84040000Y-126720000D02*
X84040000Y-129120000D01*
%TO.C,TP13*%
X102620000Y-150680000D02*
G75*
G03*
X101220000Y-150680000I-700000J0D01*
G01*
X101220000Y-150680000D02*
G75*
G03*
X102620000Y-150680000I700000J0D01*
G01*
%TO.C,J4*%
X106040000Y-124320000D02*
X107170000Y-124320000D01*
X106040000Y-125080000D02*
X106040000Y-124320000D01*
X106040000Y-125840000D02*
X106040000Y-130855000D01*
X106040000Y-125840000D02*
X106606529Y-125840000D01*
X106040000Y-130855000D02*
X106862470Y-130855000D01*
X107477530Y-130855000D02*
X108132470Y-130855000D01*
X107733471Y-125840000D02*
X107876529Y-125840000D01*
X107930000Y-124385000D02*
X108132470Y-124385000D01*
X107930000Y-124516529D02*
X107930000Y-124385000D01*
X107930000Y-125786529D02*
X107930000Y-125643471D01*
X108747530Y-124385000D02*
X109570000Y-124385000D01*
X108747530Y-130855000D02*
X109570000Y-130855000D01*
X109570000Y-124385000D02*
X109570000Y-130855000D01*
%TO.C,R3*%
X85850436Y-173765000D02*
X86304564Y-173765000D01*
X85850436Y-175235000D02*
X86304564Y-175235000D01*
%TO.C,TP8*%
X100200000Y-164060000D02*
G75*
G03*
X98800000Y-164060000I-700000J0D01*
G01*
X98800000Y-164060000D02*
G75*
G03*
X100200000Y-164060000I700000J0D01*
G01*
%TO.C,TP5*%
X85300000Y-158900000D02*
G75*
G03*
X83900000Y-158900000I-700000J0D01*
G01*
X83900000Y-158900000D02*
G75*
G03*
X85300000Y-158900000I700000J0D01*
G01*
%TO.C,C5*%
X82788748Y-154445000D02*
X83311252Y-154445000D01*
X82788748Y-155915000D02*
X83311252Y-155915000D01*
%TO.C,TP10*%
X95120000Y-164060000D02*
G75*
G03*
X93720000Y-164060000I-700000J0D01*
G01*
X93720000Y-164060000D02*
G75*
G03*
X95120000Y-164060000I700000J0D01*
G01*
%TO.C,R2*%
X74814564Y-157915000D02*
X74360436Y-157915000D01*
X74814564Y-156445000D02*
X74360436Y-156445000D01*
%TO.C,TP1*%
X104700000Y-199180000D02*
G75*
G03*
X103300000Y-199180000I-700000J0D01*
G01*
X103300000Y-199180000D02*
G75*
G03*
X104700000Y-199180000I700000J0D01*
G01*
D14*
%TO.C,U6*%
X96837500Y-166100000D02*
X97397500Y-166100000D01*
X96837500Y-166160000D02*
X96837500Y-166100000D01*
X96837500Y-168600000D02*
X96837500Y-168540000D01*
X97397500Y-168600000D02*
X96837500Y-168600000D01*
X99277500Y-166100000D02*
X99837500Y-166100000D01*
X99837500Y-166100000D02*
X99837500Y-166160000D01*
X99837500Y-168540000D02*
X99837500Y-168600000D01*
X99837500Y-168600000D02*
X99277500Y-168600000D01*
D13*
X96437500Y-166600000D02*
G75*
G03*
X96237500Y-166600000I-100000J0D01*
G01*
X96237500Y-166600000D02*
G75*
G03*
X96437500Y-166600000I100000J0D01*
G01*
D11*
%TO.C,R19*%
X103739564Y-169435000D02*
X103285436Y-169435000D01*
X103739564Y-167965000D02*
X103285436Y-167965000D01*
%TO.C,C7*%
X84101252Y-131155000D02*
X83578748Y-131155000D01*
X84101252Y-129685000D02*
X83578748Y-129685000D01*
D16*
%TO.C,U1*%
X82786300Y-172810900D02*
X81033700Y-172810900D01*
X82786300Y-173837060D02*
X82786300Y-172810900D01*
X81033700Y-174212939D02*
X81033700Y-174787061D01*
X82786300Y-176189100D02*
X82786300Y-175162940D01*
X81033700Y-176189100D02*
X82786300Y-176189100D01*
X80690800Y-171667900D02*
G75*
G03*
X80436800Y-171667900I-127000J0D01*
G01*
X80436800Y-171667900D02*
G75*
G03*
X80690800Y-171667900I127000J0D01*
G01*
D11*
%TO.C,TP2*%
X110700000Y-199180000D02*
G75*
G03*
X109300000Y-199180000I-700000J0D01*
G01*
X109300000Y-199180000D02*
G75*
G03*
X110700000Y-199180000I700000J0D01*
G01*
%TO.C,TP11*%
X97660000Y-164060000D02*
G75*
G03*
X96260000Y-164060000I-700000J0D01*
G01*
X96260000Y-164060000D02*
G75*
G03*
X97660000Y-164060000I700000J0D01*
G01*
%TO.C,R16*%
X77515436Y-168685000D02*
X77969564Y-168685000D01*
X77515436Y-170155000D02*
X77969564Y-170155000D01*
%TO.C,R18*%
X82645000Y-166652936D02*
X82645000Y-167107064D01*
X81175000Y-166652936D02*
X81175000Y-167107064D01*
%TO.C,TP7*%
X95120000Y-169140000D02*
G75*
G03*
X93720000Y-169140000I-700000J0D01*
G01*
X93720000Y-169140000D02*
G75*
G03*
X95120000Y-169140000I700000J0D01*
G01*
%TO.C,C3*%
X91265000Y-193748752D02*
X91265000Y-193226248D01*
X92735000Y-193748752D02*
X92735000Y-193226248D01*
%TO.C,R11*%
X91250675Y-135366163D02*
X91250675Y-134912035D01*
X92720675Y-135366163D02*
X92720675Y-134912035D01*
%TO.C,C4*%
X74886252Y-152835000D02*
X74363748Y-152835000D01*
X74886252Y-151365000D02*
X74363748Y-151365000D01*
%TO.C,SW5*%
X90770000Y-147950000D02*
X97230000Y-147950000D01*
X90770000Y-147980000D02*
X90770000Y-147950000D01*
X90770000Y-149880000D02*
X90770000Y-152480000D01*
X90770000Y-154410000D02*
X90770000Y-154380000D01*
X90770000Y-154410000D02*
X97230000Y-154410000D01*
X97230000Y-147950000D02*
X97230000Y-147980000D01*
X97230000Y-149880000D02*
X97230000Y-152480000D01*
X97230000Y-154410000D02*
X97230000Y-154380000D01*
%TO.C,L1*%
X83437122Y-153760000D02*
X82637878Y-153760000D01*
X83437122Y-152640000D02*
X82637878Y-152640000D01*
%TO.C,C9*%
X103201248Y-165405000D02*
X103723752Y-165405000D01*
X103201248Y-166875000D02*
X103723752Y-166875000D01*
D12*
%TO.C,U7*%
X103260000Y-154210000D02*
G75*
G03*
X103160000Y-154210000I-50000J0D01*
G01*
X103160000Y-154210000D02*
G75*
G03*
X103260000Y-154210000I50000J0D01*
G01*
D16*
%TO.C,SW2*%
X104844200Y-191614140D02*
X104844200Y-191785860D01*
X104844200Y-193274800D02*
X108755800Y-193274800D01*
X108755800Y-190125200D02*
X104844200Y-190125200D01*
X108755800Y-191785860D02*
X108755800Y-191614140D01*
X105953727Y-191611386D02*
G75*
G03*
X105953727Y-191788614I846232J-88614D01*
G01*
X107356259Y-191056102D02*
G75*
G03*
X106243741Y-191056102I-556259J-643899D01*
G01*
X106243741Y-192343898D02*
G75*
G03*
X107356259Y-192343898I556259J643899D01*
G01*
D11*
%TO.C,TP15*%
X110250000Y-150600000D02*
G75*
G03*
X108850000Y-150600000I-700000J0D01*
G01*
X108850000Y-150600000D02*
G75*
G03*
X110250000Y-150600000I700000J0D01*
G01*
D16*
%TO.C,LED1*%
X73914400Y-188180000D02*
G75*
G03*
X73711200Y-188180000I-101600J0D01*
G01*
X73711200Y-188180000D02*
G75*
G03*
X73914400Y-188180000I101600J0D01*
G01*
D11*
%TO.C,C17*%
X82265000Y-191491252D02*
X82265000Y-190968748D01*
X83735000Y-191491252D02*
X83735000Y-190968748D01*
%TO.C,R1*%
X78277064Y-159895000D02*
X77822936Y-159895000D01*
X78277064Y-158425000D02*
X77822936Y-158425000D01*
D16*
%TO.C,U3*%
X82786300Y-182970900D02*
X81033700Y-182970900D01*
X82786300Y-183997060D02*
X82786300Y-182970900D01*
X81033700Y-184372939D02*
X81033700Y-184947061D01*
X82786300Y-186349100D02*
X82786300Y-185322940D01*
X81033700Y-186349100D02*
X82786300Y-186349100D01*
X80690800Y-181827900D02*
G75*
G03*
X80436800Y-181827900I-127000J0D01*
G01*
X80436800Y-181827900D02*
G75*
G03*
X80690800Y-181827900I127000J0D01*
G01*
D11*
%TO.C,R17*%
X75025000Y-166652936D02*
X75025000Y-167107064D01*
X73555000Y-166652936D02*
X73555000Y-167107064D01*
%TO.C,R13*%
X96330675Y-135366163D02*
X96330675Y-134912035D01*
X97800675Y-135366163D02*
X97800675Y-134912035D01*
%TO.C,C15*%
X103235000Y-180468748D02*
X103235000Y-180991252D01*
X101765000Y-180468748D02*
X101765000Y-180991252D01*
%TO.C,R9*%
X96415000Y-193714564D02*
X96415000Y-193260436D01*
X97885000Y-193714564D02*
X97885000Y-193260436D01*
%TO.C,R12*%
X93790675Y-135366163D02*
X93790675Y-134912035D01*
X95260675Y-135366163D02*
X95260675Y-134912035D01*
%TO.C,C10*%
X75265000Y-191441252D02*
X75265000Y-190918748D01*
X76735000Y-191441252D02*
X76735000Y-190918748D01*
%TO.C,TP9*%
X95120000Y-166600000D02*
G75*
G03*
X93720000Y-166600000I-700000J0D01*
G01*
X93720000Y-166600000D02*
G75*
G03*
X95120000Y-166600000I700000J0D01*
G01*
%TO.C,C16*%
X94145000Y-180991252D02*
X94145000Y-180468748D01*
X95615000Y-180991252D02*
X95615000Y-180468748D01*
%TD*%
M02*
