M48
; DRILL file {KiCad 7.0.10-7.0.10~ubuntu22.04.1} date ti 30. huhtikuuta 2024 07.39.17
; FORMAT={-:-/ absolute / metric / decimal}
; #@! TF.CreationDate,2024-04-30T07:39:17+03:00
; #@! TF.GenerationSoftware,Kicad,Pcbnew,7.0.10-7.0.10~ubuntu22.04.1
; #@! TF.FileFunction,Plated,1,4,PTH
FMAT,2
METRIC
; #@! TA.AperFunction,Plated,PTH,ViaDrill
T1C0.200
; #@! TA.AperFunction,Plated,PTH,ViaDrill
T2C0.300
; #@! TA.AperFunction,Plated,PTH,ViaDrill
T3C0.400
; #@! TA.AperFunction,Plated,PTH,ComponentDrill
T4C0.600
; #@! TA.AperFunction,Plated,PTH,ComponentDrill
T5C0.650
; #@! TA.AperFunction,Plated,PTH,ComponentDrill
T6C3.500
%
G90
G05
T1
X81.01Y-128.28
X83.16Y-127.78
X86.2Y-125.51
X86.2Y-126.5
X86.3Y-129.5
X86.3Y-130.3
X86.3Y-131.1
X86.3Y-131.9
X86.3Y-132.7
X86.6Y-133.63
X86.88Y-126.06
X86.95Y-124.85
X88.94Y-132.64
X89.43Y-124.9
X89.72Y-130.96
X89.9Y-127.11
X89.9Y-129.06
X89.9Y-129.71
X90.44Y-132.54
X90.55Y-128.085
X90.55Y-128.735
X90.79Y-124.29
X91.063Y-125.57
X91.063Y-129.95
X91.19Y-132.54
X91.3Y-127.77
X91.388Y-130.6
X91.39Y-124.29
X91.713Y-125.57
X91.713Y-129.95
X92.02Y-128.89
X92.03Y-126.72
X92.038Y-130.6
X92.06Y-127.78
X92.34Y-126.14
X92.363Y-129.95
X92.39Y-124.19
X92.688Y-130.6
X92.98Y-127.77
X92.99Y-126.17
X92.99Y-126.85
X93.013Y-129.95
X93.06Y-171.87
X93.19Y-124.19
X93.338Y-130.6
X93.53Y-128.72
X93.6Y-126.11
X93.63Y-125.48
X93.89Y-124.29
X93.99Y-131.03
X94.175Y-128.41
X94.175Y-129.06
X94.175Y-129.71
X95.0Y-171.92
X95.61Y-167.12
X96.1Y-168.1
X97.837Y-167.6
X97.88Y-132.64
X98.34Y-167.6
X98.84Y-167.6
X102.6Y-157.1
X104.46Y-156.24
T2
X70.82Y-166.4
X72.4Y-159.3
X72.56Y-153.37
X73.0Y-178.1
X73.0Y-186.1
X73.65Y-158.59
X73.92Y-191.08
X74.2Y-165.96
X74.2Y-188.2
X74.25Y-172.75
X74.42Y-181.17
X74.58Y-183.15
X74.6Y-193.9
X77.7Y-141.39
X77.88Y-153.57
X79.5Y-188.97
X79.71Y-150.46
X80.08Y-168.73
X80.14Y-155.64
X80.46Y-154.01
X81.09Y-126.94
X81.91Y-163.25
X82.51Y-141.48
X82.9Y-130.45
X82.95Y-132.5
X83.4Y-177.35
X83.48Y-156.62
X83.91Y-136.95
X84.15Y-182.95
X84.56Y-190.27
X84.95Y-172.15
X85.6Y-191.9
X85.75Y-151.3
X85.8Y-158.9
X86.6Y-136.1
X86.97Y-176.99
X87.0Y-182.06
X88.51Y-147.63
X88.69Y-146.55
X88.85Y-169.75
X89.09Y-144.05
X89.5Y-134.2
X89.64Y-146.14
X90.06Y-152.22
X91.12Y-142.73
X91.15Y-140.75
X91.15Y-144.72
X91.705Y-198.265
X92.0Y-134.2
X93.34Y-191.37
X93.63Y-155.9
X94.5Y-134.2
X94.91Y-178.46
X95.4Y-156.71
X95.41Y-155.61
X95.86Y-191.4
X95.905Y-127.98
X96.38Y-148.93
X96.817Y-127.98
X97.05Y-134.2
X97.11Y-158.07
X97.205Y-198.195
X97.73Y-127.98
X98.06Y-157.97
X98.1Y-143.35
X98.26Y-152.2
X98.55Y-137.07
X98.55Y-172.65
X98.61Y-169.41
X98.642Y-127.98
X99.555Y-127.98
X100.26Y-123.66
X100.26Y-124.59
X100.26Y-125.52
X100.26Y-126.45
X100.26Y-127.38
X100.52Y-139.39
X100.7Y-143.16
X100.82Y-181.8
X100.96Y-168.7
X101.45Y-132.84
X101.6Y-144.97
X101.79Y-138.48
X102.02Y-143.68
X102.9Y-134.77
X102.96Y-143.24
X103.24Y-137.83
X103.59Y-190.93
X103.7Y-170.7
X103.84Y-133.68
X104.0Y-158.9
X104.05Y-130.77
X104.81Y-134.31
X105.8Y-166.18
X105.855Y-134.495
X106.53Y-141.5
X106.7Y-136.93
X106.7Y-154.7
X107.51Y-165.72
X107.53Y-163.04
X108.25Y-133.23
X108.27Y-131.61
X110.0Y-199.2
X110.51Y-129.28
X111.43Y-154.44
X111.53Y-141.51
X111.93Y-195.68
X113.8Y-192.2
X115.34Y-165.17
X115.4Y-160.1
T3
X71.8Y-150.1
T4
X106.0Y-201.68
X112.0Y-201.68
X117.0Y-160.1
X117.0Y-165.18
T5
X107.17Y-125.08
X107.17Y-126.35
X107.17Y-127.62
X107.17Y-128.89
X107.17Y-130.16
X108.44Y-125.08
X108.44Y-126.35
X108.44Y-127.62
X108.44Y-128.89
X108.44Y-130.16
T6
X75.0Y-127.68
X75.0Y-198.68
X114.7Y-127.67
T4
G00X90.135Y-196.809
M15
G01X90.135Y-197.409
M16
G05
G00X90.135Y-200.609
M15
G01X90.135Y-201.209
M16
G05
G00X98.775Y-196.809
M15
G01X98.775Y-197.409
M16
G05
G00X98.775Y-200.609
M15
G01X98.775Y-201.209
M16
G05
M30
