%TF.GenerationSoftware,KiCad,Pcbnew,7.0.10-7.0.10~ubuntu22.04.1*%
%TF.CreationDate,2024-04-30T07:38:50+03:00*%
%TF.ProjectId,imu-mouse,696d752d-6d6f-4757-9365-2e6b69636164,v1*%
%TF.SameCoordinates,Original*%
%TF.FileFunction,Copper,L2,Inr*%
%TF.FilePolarity,Positive*%
%FSLAX46Y46*%
G04 Gerber Fmt 4.6, Leading zero omitted, Abs format (unit mm)*
G04 Created by KiCad (PCBNEW 7.0.10-7.0.10~ubuntu22.04.1) date 2024-04-30 07:38:50*
%MOMM*%
%LPD*%
G01*
G04 APERTURE LIST*
G04 Aperture macros list*
%AMRoundRect*
0 Rectangle with rounded corners*
0 $1 Rounding radius*
0 $2 $3 $4 $5 $6 $7 $8 $9 X,Y pos of 4 corners*
0 Add a 4 corners polygon primitive as box body*
4,1,4,$2,$3,$4,$5,$6,$7,$8,$9,$2,$3,0*
0 Add four circle primitives for the rounded corners*
1,1,$1+$1,$2,$3*
1,1,$1+$1,$4,$5*
1,1,$1+$1,$6,$7*
1,1,$1+$1,$8,$9*
0 Add four rect primitives between the rounded corners*
20,1,$1+$1,$2,$3,$4,$5,0*
20,1,$1+$1,$4,$5,$6,$7,0*
20,1,$1+$1,$6,$7,$8,$9,0*
20,1,$1+$1,$8,$9,$2,$3,0*%
G04 Aperture macros list end*
%TA.AperFunction,ComponentPad*%
%ADD10RoundRect,0.250000X-0.550000X-0.550000X0.550000X-0.550000X0.550000X0.550000X-0.550000X0.550000X0*%
%TD*%
%TA.AperFunction,ComponentPad*%
%ADD11C,7.000000*%
%TD*%
%TA.AperFunction,ComponentPad*%
%ADD12O,1.100000X1.700000*%
%TD*%
%TA.AperFunction,ComponentPad*%
%ADD13R,1.000000X1.000000*%
%TD*%
%TA.AperFunction,ComponentPad*%
%ADD14O,1.000000X1.000000*%
%TD*%
%TA.AperFunction,ViaPad*%
%ADD15C,0.700000*%
%TD*%
%TA.AperFunction,ViaPad*%
%ADD16C,0.500000*%
%TD*%
%TA.AperFunction,ViaPad*%
%ADD17C,0.350000*%
%TD*%
%TA.AperFunction,Conductor*%
%ADD18C,0.200000*%
%TD*%
%TA.AperFunction,Conductor*%
%ADD19C,0.300000*%
%TD*%
G04 APERTURE END LIST*
D10*
%TO.N,GND*%
%TO.C,J2*%
X112000000Y-201680000D03*
%TD*%
D11*
%TO.N,unconnected-(H1-Pad1)*%
%TO.C,H1*%
X75000000Y-127680000D03*
%TD*%
D10*
%TO.N,+BATT*%
%TO.C,J1*%
X106000000Y-201680000D03*
%TD*%
D12*
%TO.N,GND*%
%TO.C,J3*%
X90135024Y-197109206D03*
X90135024Y-200909206D03*
X98775024Y-197109206D03*
X98775024Y-200909206D03*
%TD*%
D11*
%TO.N,unconnected-(H3-Pad1)*%
%TO.C,H3*%
X114700000Y-127670000D03*
%TD*%
D13*
%TO.N,+1V8*%
%TO.C,J4*%
X107170000Y-125080000D03*
D14*
%TO.N,/SWD-SWDIO*%
X108440000Y-125080000D03*
%TO.N,GND*%
X107170000Y-126350000D03*
%TO.N,/SWD-SWCLK*%
X108440000Y-126350000D03*
%TO.N,GND*%
X107170000Y-127620000D03*
%TO.N,/SWD-SWO*%
X108440000Y-127620000D03*
%TO.N,unconnected-(J4-KEY-Pad7)*%
X107170000Y-128890000D03*
%TO.N,unconnected-(J4-NC{slash}TDI-Pad8)*%
X108440000Y-128890000D03*
%TO.N,GND*%
X107170000Y-130160000D03*
%TO.N,/~{RESET}*%
X108440000Y-130160000D03*
%TD*%
D10*
%TO.N,/SWD-BHI_JTAG_DIO*%
%TO.C,J5*%
X117000000Y-165180000D03*
%TD*%
%TO.N,/SWD-BHI_JTAG_CLK*%
%TO.C,J6*%
X117000000Y-160100000D03*
%TD*%
D11*
%TO.N,unconnected-(H2-Pad1)*%
%TO.C,H2*%
X75000000Y-198680000D03*
%TD*%
D15*
%TO.N,+BATT*%
X74200000Y-165960000D03*
X72400000Y-159300000D03*
X113800000Y-192200000D03*
%TO.N,GND*%
X100260000Y-123660000D03*
X77880000Y-153570000D03*
X111930000Y-195680000D03*
X74420000Y-181170000D03*
X110000000Y-199200000D03*
X80140000Y-155640000D03*
X98550000Y-172650000D03*
X105800000Y-166180000D03*
X106530000Y-141500000D03*
X81090000Y-126940000D03*
D16*
X90790000Y-124290000D03*
D15*
X82950000Y-132500000D03*
X98642500Y-127980000D03*
D16*
X92390000Y-124190000D03*
D15*
X91705024Y-198264976D03*
X99555000Y-127980000D03*
D16*
X93630000Y-125480000D03*
D15*
X80080000Y-168730000D03*
X106700000Y-154700000D03*
X84560000Y-190270000D03*
X87000000Y-182060000D03*
X98260000Y-152200000D03*
X95905000Y-127980000D03*
X100820000Y-181800000D03*
X97205024Y-198195024D03*
X72560000Y-153370000D03*
X82900000Y-130450000D03*
X103590000Y-190930000D03*
X86970000Y-176990000D03*
X100260000Y-125520000D03*
X82510000Y-141480000D03*
X93340000Y-191370000D03*
X74250000Y-172750000D03*
X100260000Y-124590000D03*
D16*
X93890000Y-124290000D03*
D15*
X77700000Y-141390000D03*
X95860000Y-191400000D03*
X111530000Y-141510000D03*
X80460000Y-154010000D03*
D16*
X92990000Y-126170000D03*
D15*
X79710000Y-150460000D03*
D16*
X92030000Y-126720000D03*
D15*
X111430000Y-154440000D03*
X79500000Y-188970000D03*
D16*
X92060000Y-127780000D03*
D15*
X98610000Y-169410000D03*
D16*
X92340000Y-126140000D03*
D15*
X73920000Y-191080000D03*
X74580000Y-183150000D03*
D16*
X93190000Y-124190000D03*
D15*
X96817500Y-127980000D03*
D16*
X92020000Y-128890000D03*
D15*
X100260000Y-127380000D03*
X83480000Y-156620000D03*
D16*
X92980000Y-127770000D03*
D15*
X97730000Y-127980000D03*
D16*
X91300000Y-127770000D03*
D15*
X73650000Y-158590000D03*
X94910000Y-178460000D03*
X90060000Y-152220000D03*
D16*
X93600000Y-126110000D03*
X92990000Y-126850000D03*
X91390000Y-124290000D03*
D15*
X100260000Y-126450000D03*
%TO.N,VBUS*%
X85750000Y-151300000D03*
X88850000Y-169750000D03*
%TO.N,VS*%
X71800000Y-150100000D03*
X74600000Y-193900000D03*
D16*
%TO.N,+1V8*%
X86950000Y-124850000D03*
D15*
X107510000Y-165720000D03*
D16*
X89430000Y-124900000D03*
D15*
X107530000Y-163040000D03*
X86600000Y-136100000D03*
X104000000Y-158900000D03*
X85800000Y-158900000D03*
X103700000Y-170700000D03*
%TO.N,+3.3V*%
X85600000Y-191900000D03*
X74200000Y-188200000D03*
D16*
%TO.N,/BAT_MON_EN*%
X92038000Y-130600000D03*
X91190000Y-132540000D03*
D15*
X81910000Y-163250000D03*
%TO.N,/LED_R*%
X103240000Y-137830000D03*
X84950000Y-172150000D03*
X104050000Y-130770000D03*
D16*
X92363000Y-129950000D03*
D15*
X105855000Y-134495000D03*
D16*
%TO.N,/LED_G*%
X93013000Y-129950000D03*
D15*
X100520000Y-139390000D03*
X83400000Y-177350000D03*
X102900000Y-134770000D03*
%TO.N,/LED_B*%
X84150000Y-182950000D03*
X104810000Y-134310000D03*
X101790000Y-138480000D03*
D16*
X94175000Y-129710000D03*
D15*
%TO.N,/~{BUTTON1}*%
X83910000Y-136950000D03*
X92000000Y-134200000D03*
D16*
X92688000Y-130600000D03*
%TO.N,/~{BUTTON2}*%
X93338000Y-130600000D03*
D15*
X106700000Y-136930000D03*
X94500000Y-134200000D03*
D16*
%TO.N,/~{BUTTON3}*%
X93990000Y-131030000D03*
D15*
X97050000Y-134200000D03*
X96380000Y-148930000D03*
D16*
%TO.N,/BAT_MON*%
X91388000Y-130600000D03*
D15*
X70820000Y-166400000D03*
D16*
X90440000Y-132540000D03*
D15*
%TO.N,/~{RESET BHI360}*%
X91150000Y-140750000D03*
D16*
X93530000Y-128720000D03*
D17*
X98840000Y-167600000D03*
D15*
X98550000Y-137070000D03*
X91120000Y-142730000D03*
X100960000Y-168700000D03*
D16*
X97880000Y-132640000D03*
%TO.N,/~{BMA456_CS}*%
X91063000Y-129950000D03*
D15*
X102960000Y-143240000D03*
D16*
%TO.N,/BHI360_INT*%
X86300000Y-131100000D03*
X89900000Y-129710000D03*
D15*
X89640000Y-146140000D03*
X93630000Y-155900000D03*
%TO.N,/BHI360_MISO*%
X95400000Y-156710000D03*
D16*
X86300000Y-129500000D03*
X90550000Y-128085000D03*
D15*
X88510000Y-147630000D03*
D16*
%TO.N,/BHI360_MOSI*%
X86300000Y-131900000D03*
X90550000Y-128735000D03*
D15*
X95410000Y-155610000D03*
X89090000Y-144050000D03*
D16*
%TO.N,/BHI360_CLK*%
X86300000Y-130300000D03*
D15*
X88690000Y-146550000D03*
D16*
X89900000Y-129060000D03*
D15*
X97110000Y-158070000D03*
%TO.N,/BMA456_MISO*%
X101600000Y-144970000D03*
D17*
X86200000Y-125510000D03*
D15*
%TO.N,/BMA456_MOSI*%
X100700000Y-143160000D03*
D17*
X86200000Y-126500000D03*
%TO.N,/BMA456_CLK*%
X86880000Y-126060000D03*
D15*
X102020000Y-143680000D03*
D16*
X91063000Y-125570000D03*
%TO.N,/BMA456_INT1*%
X102600000Y-157100000D03*
D15*
X98100000Y-143350000D03*
D16*
X91713000Y-129950000D03*
X86600000Y-133630000D03*
X104460000Y-156240000D03*
X88940000Y-132640000D03*
%TO.N,/BHI360_CS*%
X86300000Y-132700000D03*
X89720000Y-130960000D03*
D15*
X91150000Y-144720000D03*
X98060000Y-157970000D03*
D16*
%TO.N,Net-(U6-ASDX)*%
X93060000Y-171870000D03*
X95610000Y-167120000D03*
%TO.N,Net-(U6-ASCX)*%
X95000000Y-171920000D03*
X96100000Y-168100000D03*
%TO.N,/SWD-SWDIO*%
X94175000Y-128410000D03*
%TO.N,/SWD-SWCLK*%
X94175000Y-129060000D03*
D15*
X108250000Y-133230000D03*
X108270000Y-131610000D03*
D16*
%TO.N,/SWD-SWO*%
X81010000Y-128280000D03*
X83160000Y-127780000D03*
D15*
X110510000Y-129280000D03*
D16*
X89900000Y-127110000D03*
D17*
%TO.N,/SWD-BHI_JTAG_DIO*%
X98340000Y-167600000D03*
D15*
X115340000Y-165170000D03*
%TO.N,/SWD-BHI_JTAG_CLK*%
X115400000Y-160100000D03*
D17*
X97837500Y-167600000D03*
D15*
%TO.N,Net-(U1-S)*%
X73000000Y-186100000D03*
X73000000Y-178100000D03*
%TO.N,/~{RESET}*%
X89500000Y-134200000D03*
D16*
X91713000Y-125570000D03*
D15*
X103840000Y-133680000D03*
X101450000Y-132840000D03*
%TD*%
D18*
%TO.N,/BAT_MON*%
X70820000Y-166400000D02*
X70820000Y-164030000D01*
X92550000Y-133400000D02*
X91300000Y-133400000D01*
X70820000Y-164030000D02*
X72500000Y-162350000D01*
X72500000Y-162350000D02*
X78960000Y-162350000D01*
X78960000Y-162350000D02*
X86660000Y-154650000D01*
X91300000Y-133400000D02*
X90450000Y-132550000D01*
X86660000Y-154650000D02*
X86660000Y-153290000D01*
X86660000Y-153290000D02*
X93100000Y-146850000D01*
X93100000Y-146850000D02*
X93100000Y-133950000D01*
X93100000Y-133950000D02*
X92550000Y-133400000D01*
%TO.N,/BAT_MON_EN*%
X91200000Y-132550000D02*
X91700000Y-133050000D01*
X91700000Y-133050000D02*
X92900000Y-133050000D01*
X87200000Y-153750000D02*
X87200000Y-154960000D01*
X92900000Y-133050000D02*
X93700000Y-133850000D01*
X93700000Y-133850000D02*
X93700000Y-147250000D01*
X93700000Y-147250000D02*
X87200000Y-153750000D01*
X87200000Y-154960000D02*
X81900000Y-160260000D01*
X81900000Y-160260000D02*
X81900000Y-163240000D01*
X81900000Y-163240000D02*
X81910000Y-163250000D01*
%TO.N,/BHI360_CS*%
X91150000Y-144720000D02*
X89500000Y-143070000D01*
X89500000Y-143070000D02*
X89500000Y-139650000D01*
X89500000Y-139650000D02*
X87660000Y-137810000D01*
X87660000Y-137810000D02*
X83860000Y-137810000D01*
X82500000Y-134350000D02*
X84150000Y-132700000D01*
X83860000Y-137810000D02*
X82500000Y-136450000D01*
X82500000Y-136450000D02*
X82500000Y-134350000D01*
X84150000Y-132700000D02*
X86300000Y-132700000D01*
%TO.N,/BHI360_INT*%
X89640000Y-146140000D02*
X88500000Y-145000000D01*
X88500000Y-145000000D02*
X88500000Y-140250000D01*
X88500000Y-140250000D02*
X87250000Y-139000000D01*
X87250000Y-139000000D02*
X83300000Y-139000000D01*
X83300000Y-139000000D02*
X81300000Y-137000000D01*
X81300000Y-137000000D02*
X81300000Y-132110000D01*
X81300000Y-132110000D02*
X82310000Y-131100000D01*
X82310000Y-131100000D02*
X86300000Y-131100000D01*
%TO.N,/BHI360_MISO*%
X88510000Y-147630000D02*
X87500000Y-146620000D01*
X81790000Y-129160000D02*
X85960000Y-129160000D01*
X87500000Y-146620000D02*
X87500000Y-140850000D01*
X87500000Y-140850000D02*
X86800000Y-140150000D01*
X86800000Y-140150000D02*
X82500000Y-140150000D01*
X82500000Y-140150000D02*
X80200000Y-137850000D01*
X80200000Y-137850000D02*
X80200000Y-130750000D01*
X80200000Y-130750000D02*
X81790000Y-129160000D01*
X85960000Y-129160000D02*
X86300000Y-129500000D01*
D19*
%TO.N,/~{BUTTON2}*%
X106700000Y-136930000D02*
X106030000Y-136260000D01*
X106030000Y-136260000D02*
X101450000Y-136260000D01*
X100100000Y-134900000D02*
X98550000Y-133350000D01*
X101450000Y-136260000D02*
X100100000Y-134910000D01*
X100100000Y-134910000D02*
X100100000Y-134900000D01*
X95350000Y-133350000D02*
X94500000Y-134200000D01*
X98550000Y-133350000D02*
X95350000Y-133350000D01*
D18*
%TO.N,/LED_R*%
X84950000Y-171850000D02*
X84950000Y-172150000D01*
X95240000Y-150960000D02*
X90250000Y-155950000D01*
X105020000Y-139610000D02*
X105020000Y-147000000D01*
X90250000Y-155950000D02*
X90250000Y-166550000D01*
X101060000Y-150960000D02*
X95240000Y-150960000D01*
X105020000Y-147000000D02*
X101060000Y-150960000D01*
X90250000Y-166550000D02*
X84950000Y-171850000D01*
X103240000Y-137830000D02*
X105020000Y-139610000D01*
%TO.N,/LED_G*%
X94458529Y-149840000D02*
X88900000Y-155398529D01*
X103770000Y-146280000D02*
X100210000Y-149840000D01*
X100520000Y-139390000D02*
X101470000Y-139390000D01*
X88900000Y-155398529D02*
X88900000Y-165950000D01*
X100210000Y-149840000D02*
X94458529Y-149840000D01*
X88900000Y-165950000D02*
X83400000Y-171450000D01*
X83400000Y-171450000D02*
X83400000Y-177350000D01*
X101470000Y-139390000D02*
X103770000Y-141690000D01*
X103770000Y-141690000D02*
X103770000Y-146280000D01*
%TO.N,/LED_B*%
X104400000Y-140740000D02*
X104400000Y-146640000D01*
X100610000Y-150430000D02*
X94870000Y-150430000D01*
X94870000Y-150430000D02*
X89550000Y-155750000D01*
X101790000Y-138480000D02*
X102140000Y-138480000D01*
X89550000Y-166250000D02*
X84150000Y-171650000D01*
X89550000Y-155750000D02*
X89550000Y-166250000D01*
X102140000Y-138480000D02*
X104400000Y-140740000D01*
X84150000Y-171650000D02*
X84150000Y-182950000D01*
X104400000Y-146640000D02*
X100610000Y-150430000D01*
D19*
%TO.N,/~{BUTTON1}*%
X89230000Y-136970000D02*
X92000000Y-134200000D01*
X83910000Y-136950000D02*
X83930000Y-136970000D01*
X83930000Y-136970000D02*
X89230000Y-136970000D01*
%TO.N,/~{BUTTON3}*%
X98000000Y-145700000D02*
X97050000Y-144750000D01*
X98000000Y-147310000D02*
X98000000Y-145700000D01*
X96380000Y-148930000D02*
X98000000Y-147310000D01*
X97050000Y-144750000D02*
X97050000Y-134200000D01*
D18*
%TO.N,/~{RESET BHI360}*%
X91120000Y-140780000D02*
X91150000Y-140750000D01*
X91120000Y-142730000D02*
X91120000Y-140780000D01*
%TO.N,/BHI360_MOSI*%
X81900000Y-132300000D02*
X82300000Y-131900000D01*
X89000000Y-139950000D02*
X87450000Y-138400000D01*
X89090000Y-144050000D02*
X89000000Y-143960000D01*
X87450000Y-138400000D02*
X83600000Y-138400000D01*
X82300000Y-131900000D02*
X86300000Y-131900000D01*
X81900000Y-136700000D02*
X81900000Y-132300000D01*
X89000000Y-143960000D02*
X89000000Y-139950000D01*
X83600000Y-138400000D02*
X81900000Y-136700000D01*
%TO.N,/BHI360_CLK*%
X88000000Y-140550000D02*
X87050000Y-139600000D01*
X85850000Y-129850000D02*
X86300000Y-130300000D01*
X82900000Y-139600000D02*
X80750000Y-137450000D01*
X82651471Y-129850000D02*
X85850000Y-129850000D01*
X88000000Y-145860000D02*
X88000000Y-140550000D01*
X80750000Y-131751471D02*
X82651471Y-129850000D01*
X87050000Y-139600000D02*
X82900000Y-139600000D01*
X88690000Y-146550000D02*
X88000000Y-145860000D01*
X80750000Y-137450000D02*
X80750000Y-131751471D01*
%TD*%
%TA.AperFunction,Conductor*%
%TO.N,GND*%
G36*
X83852022Y-132317813D02*
G01*
X83877332Y-132361650D01*
X83868542Y-132411500D01*
X83856782Y-132426826D01*
X82426826Y-133856781D01*
X82380949Y-133878173D01*
X82332055Y-133865072D01*
X82303021Y-133823608D01*
X82300500Y-133804455D01*
X82300500Y-132496544D01*
X82317813Y-132448978D01*
X82322174Y-132444218D01*
X82444218Y-132322174D01*
X82490094Y-132300782D01*
X82496544Y-132300500D01*
X83804456Y-132300500D01*
X83852022Y-132317813D01*
G37*
%TD.AperFunction*%
%TA.AperFunction,Conductor*%
G36*
X85654131Y-130267813D02*
G01*
X85672468Y-130290844D01*
X85734750Y-130412805D01*
X85792056Y-130525023D01*
X85792060Y-130525030D01*
X85798033Y-130532925D01*
X85807384Y-130549250D01*
X85819135Y-130577618D01*
X85819634Y-130578482D01*
X85819738Y-130579073D01*
X85820994Y-130582105D01*
X85820322Y-130582383D01*
X85828425Y-130628332D01*
X85803117Y-130672170D01*
X85778354Y-130685882D01*
X85747435Y-130695898D01*
X85724630Y-130699500D01*
X82547016Y-130699500D01*
X82499450Y-130682187D01*
X82474140Y-130638350D01*
X82482930Y-130588500D01*
X82494690Y-130573174D01*
X82795690Y-130272174D01*
X82841566Y-130250782D01*
X82848016Y-130250500D01*
X85606565Y-130250500D01*
X85654131Y-130267813D01*
G37*
%TD.AperFunction*%
%TA.AperFunction,Conductor*%
G36*
X107295000Y-127316890D02*
G01*
X107282871Y-127309888D01*
X107198436Y-127295000D01*
X107141564Y-127295000D01*
X107057129Y-127309888D01*
X107045000Y-127316890D01*
X107045000Y-126653109D01*
X107057129Y-126660112D01*
X107141564Y-126675000D01*
X107198436Y-126675000D01*
X107282871Y-126660112D01*
X107295000Y-126653109D01*
X107295000Y-127316890D01*
G37*
%TD.AperFunction*%
%TA.AperFunction,Conductor*%
G36*
X118003222Y-123000782D02*
G01*
X118042266Y-123004197D01*
X118167110Y-123015120D01*
X118179803Y-123017357D01*
X118335597Y-123059102D01*
X118347717Y-123063513D01*
X118493889Y-123131675D01*
X118505050Y-123138119D01*
X118637162Y-123230625D01*
X118647043Y-123238916D01*
X118761083Y-123352956D01*
X118769374Y-123362837D01*
X118861877Y-123494944D01*
X118868327Y-123506115D01*
X118936486Y-123652283D01*
X118940898Y-123664404D01*
X118982640Y-123820188D01*
X118984879Y-123832891D01*
X118999218Y-123996776D01*
X118999500Y-124003226D01*
X118999500Y-202495840D01*
X118999035Y-202504126D01*
X118987909Y-202602868D01*
X118984221Y-202619023D01*
X118952788Y-202708852D01*
X118945599Y-202723781D01*
X118894961Y-202804372D01*
X118884629Y-202817328D01*
X118817328Y-202884629D01*
X118804372Y-202894961D01*
X118723781Y-202945599D01*
X118708852Y-202952788D01*
X118635258Y-202978539D01*
X118619021Y-202984221D01*
X118602868Y-202987909D01*
X118504127Y-202999035D01*
X118495841Y-202999500D01*
X112751139Y-202999500D01*
X112703573Y-202982187D01*
X112678263Y-202938350D01*
X112687053Y-202888500D01*
X112725830Y-202855963D01*
X112730494Y-202854438D01*
X112810199Y-202831281D01*
X112951556Y-202747682D01*
X113067682Y-202631556D01*
X113151281Y-202490199D01*
X113197099Y-202332493D01*
X113200000Y-202295641D01*
X113200000Y-201805000D01*
X112276342Y-201805000D01*
X112303895Y-201708160D01*
X112293546Y-201596479D01*
X112272892Y-201555000D01*
X113200000Y-201555000D01*
X113200000Y-201064358D01*
X113197099Y-201027506D01*
X113151281Y-200869800D01*
X113067682Y-200728443D01*
X112951556Y-200612317D01*
X112810199Y-200528718D01*
X112652491Y-200482900D01*
X112652494Y-200482900D01*
X112615641Y-200480000D01*
X112125000Y-200480000D01*
X112125000Y-201406699D01*
X112056080Y-201380000D01*
X111972198Y-201380000D01*
X111889750Y-201395412D01*
X111875000Y-201404544D01*
X111875000Y-200480000D01*
X111384359Y-200480000D01*
X111347506Y-200482900D01*
X111189800Y-200528718D01*
X111048443Y-200612317D01*
X110932317Y-200728443D01*
X110848718Y-200869800D01*
X110802900Y-201027506D01*
X110800000Y-201064358D01*
X110800000Y-201555000D01*
X111723658Y-201555000D01*
X111696105Y-201651840D01*
X111706454Y-201763521D01*
X111727108Y-201805000D01*
X110800000Y-201805000D01*
X110800000Y-202295641D01*
X110802900Y-202332493D01*
X110848718Y-202490199D01*
X110932317Y-202631556D01*
X111048443Y-202747682D01*
X111189800Y-202831281D01*
X111269506Y-202854438D01*
X111310354Y-202884334D01*
X111322428Y-202933492D01*
X111300080Y-202978910D01*
X111253765Y-202999337D01*
X111248861Y-202999500D01*
X71003227Y-202999500D01*
X70996777Y-202999218D01*
X70832891Y-202984879D01*
X70820188Y-202982640D01*
X70664404Y-202940898D01*
X70652283Y-202936486D01*
X70506115Y-202868327D01*
X70494944Y-202861877D01*
X70362837Y-202769374D01*
X70352956Y-202761083D01*
X70238916Y-202647043D01*
X70230625Y-202637162D01*
X70217924Y-202619023D01*
X70138119Y-202505050D01*
X70131675Y-202493889D01*
X70063513Y-202347716D01*
X70059101Y-202335595D01*
X70058270Y-202332493D01*
X70017357Y-202179803D01*
X70015120Y-202167107D01*
X70012190Y-202133621D01*
X70000782Y-202003222D01*
X70000500Y-201996773D01*
X70000500Y-198680000D01*
X71194616Y-198680000D01*
X71214140Y-199064983D01*
X71272512Y-199446019D01*
X71363863Y-199798837D01*
X71369134Y-199819192D01*
X71503013Y-200180675D01*
X71649838Y-200480000D01*
X71672776Y-200526762D01*
X71876678Y-200853893D01*
X72112625Y-201158711D01*
X72112635Y-201158723D01*
X72378209Y-201438109D01*
X72378211Y-201438110D01*
X72378216Y-201438115D01*
X72670702Y-201689205D01*
X72764818Y-201754712D01*
X72987085Y-201909415D01*
X73270127Y-202066516D01*
X73324131Y-202096491D01*
X73678370Y-202248507D01*
X73678380Y-202248510D01*
X74046170Y-202363905D01*
X74046168Y-202363905D01*
X74423761Y-202441503D01*
X74734507Y-202473101D01*
X74807260Y-202480500D01*
X74807261Y-202480500D01*
X75192739Y-202480500D01*
X75192740Y-202480500D01*
X75305158Y-202469068D01*
X75576238Y-202441503D01*
X75953830Y-202363905D01*
X76104669Y-202316578D01*
X76243233Y-202273104D01*
X104899499Y-202273104D01*
X104908460Y-202347716D01*
X104910123Y-202361564D01*
X104921777Y-202391116D01*
X104965638Y-202502341D01*
X105041871Y-202602868D01*
X105057078Y-202622922D01*
X105177658Y-202714361D01*
X105318436Y-202769877D01*
X105389764Y-202778442D01*
X105406896Y-202780500D01*
X105406898Y-202780500D01*
X106593104Y-202780500D01*
X106608722Y-202778624D01*
X106681564Y-202769877D01*
X106822342Y-202714361D01*
X106942922Y-202622922D01*
X107034361Y-202502342D01*
X107089877Y-202361564D01*
X107100500Y-202273102D01*
X107100500Y-201086898D01*
X107089877Y-200998436D01*
X107034361Y-200857658D01*
X106942922Y-200737078D01*
X106822342Y-200645639D01*
X106822341Y-200645638D01*
X106737079Y-200612015D01*
X106681564Y-200590123D01*
X106652076Y-200586582D01*
X106593104Y-200579500D01*
X106593102Y-200579500D01*
X105406898Y-200579500D01*
X105406896Y-200579500D01*
X105318436Y-200590123D01*
X105177658Y-200645638D01*
X105057078Y-200737077D01*
X105057077Y-200737078D01*
X104965638Y-200857658D01*
X104910123Y-200998436D01*
X104902207Y-201064358D01*
X104899500Y-201086898D01*
X104899500Y-202273102D01*
X104899500Y-202273104D01*
X104899499Y-202273104D01*
X76243233Y-202273104D01*
X76321630Y-202248507D01*
X76675869Y-202096491D01*
X77012911Y-201909417D01*
X77329298Y-201689205D01*
X77621784Y-201438115D01*
X77656659Y-201401427D01*
X77747549Y-201305810D01*
X77793577Y-201257388D01*
X89185024Y-201257388D01*
X89199670Y-201401422D01*
X89199672Y-201401427D01*
X89257509Y-201585770D01*
X89257510Y-201585771D01*
X89351280Y-201754712D01*
X89351284Y-201754717D01*
X89477127Y-201901307D01*
X89477129Y-201901310D01*
X89629912Y-202019572D01*
X89629914Y-202019574D01*
X89803382Y-202104663D01*
X89803385Y-202104665D01*
X89990425Y-202153092D01*
X90010024Y-202154085D01*
X90010024Y-201485547D01*
X90106864Y-201513101D01*
X90218545Y-201502752D01*
X90260024Y-201482097D01*
X90260024Y-202151138D01*
X90374371Y-202133621D01*
X90555561Y-202066516D01*
X90719522Y-201964316D01*
X90859561Y-201831200D01*
X90969937Y-201672618D01*
X91046130Y-201495068D01*
X91046132Y-201495062D01*
X91085023Y-201305818D01*
X91085024Y-201305810D01*
X91085024Y-201257388D01*
X97825024Y-201257388D01*
X97839670Y-201401422D01*
X97839672Y-201401427D01*
X97897509Y-201585770D01*
X97897510Y-201585771D01*
X97991280Y-201754712D01*
X97991284Y-201754717D01*
X98117127Y-201901307D01*
X98117129Y-201901310D01*
X98269912Y-202019572D01*
X98269914Y-202019574D01*
X98443382Y-202104663D01*
X98443385Y-202104665D01*
X98630425Y-202153092D01*
X98650024Y-202154085D01*
X98650024Y-201485547D01*
X98746864Y-201513101D01*
X98858545Y-201502752D01*
X98900024Y-201482097D01*
X98900024Y-202151138D01*
X99014371Y-202133621D01*
X99195561Y-202066516D01*
X99359522Y-201964316D01*
X99499561Y-201831200D01*
X99609937Y-201672618D01*
X99686130Y-201495068D01*
X99686132Y-201495062D01*
X99725023Y-201305818D01*
X99725024Y-201305810D01*
X99725024Y-201034206D01*
X99075024Y-201034206D01*
X99075024Y-200784206D01*
X99725024Y-200784206D01*
X99725024Y-200561032D01*
X99725023Y-200561023D01*
X99710377Y-200416989D01*
X99710375Y-200416984D01*
X99652538Y-200232641D01*
X99652537Y-200232640D01*
X99558767Y-200063699D01*
X99558763Y-200063694D01*
X99432920Y-199917104D01*
X99432918Y-199917101D01*
X99280135Y-199798839D01*
X99280133Y-199798837D01*
X99106665Y-199713748D01*
X99106662Y-199713746D01*
X98919617Y-199665318D01*
X98919619Y-199665318D01*
X98900024Y-199664324D01*
X98900024Y-200332864D01*
X98803184Y-200305311D01*
X98691503Y-200315660D01*
X98650024Y-200336314D01*
X98650024Y-199667272D01*
X98535675Y-199684790D01*
X98354486Y-199751895D01*
X98190525Y-199854095D01*
X98050486Y-199987211D01*
X97940110Y-200145793D01*
X97863917Y-200323343D01*
X97863915Y-200323349D01*
X97825024Y-200512593D01*
X97825024Y-200784206D01*
X98475024Y-200784206D01*
X98475024Y-201034206D01*
X97825024Y-201034206D01*
X97825024Y-201257388D01*
X91085024Y-201257388D01*
X91085024Y-201034206D01*
X90435024Y-201034206D01*
X90435024Y-200784206D01*
X91085024Y-200784206D01*
X91085024Y-200561032D01*
X91085023Y-200561023D01*
X91070377Y-200416989D01*
X91070375Y-200416984D01*
X91012538Y-200232641D01*
X91012537Y-200232640D01*
X90918767Y-200063699D01*
X90918763Y-200063694D01*
X90792920Y-199917104D01*
X90792918Y-199917101D01*
X90640135Y-199798839D01*
X90640133Y-199798837D01*
X90466665Y-199713748D01*
X90466662Y-199713746D01*
X90279617Y-199665318D01*
X90279619Y-199665318D01*
X90260024Y-199664324D01*
X90260024Y-200332864D01*
X90163184Y-200305311D01*
X90051503Y-200315660D01*
X90010024Y-200336314D01*
X90010024Y-199667272D01*
X89895675Y-199684790D01*
X89714486Y-199751895D01*
X89550525Y-199854095D01*
X89410486Y-199987211D01*
X89300110Y-200145793D01*
X89223917Y-200323343D01*
X89223915Y-200323349D01*
X89185024Y-200512593D01*
X89185024Y-200784206D01*
X89835024Y-200784206D01*
X89835024Y-201034206D01*
X89185024Y-201034206D01*
X89185024Y-201257388D01*
X77793577Y-201257388D01*
X77887366Y-201158722D01*
X78123320Y-200853895D01*
X78327225Y-200526760D01*
X78496987Y-200180675D01*
X78630866Y-199819192D01*
X78727488Y-199446018D01*
X78785860Y-199064984D01*
X78805384Y-198680000D01*
X78785860Y-198295016D01*
X78727488Y-197913982D01*
X78630866Y-197540808D01*
X78599971Y-197457388D01*
X89185024Y-197457388D01*
X89199670Y-197601422D01*
X89199672Y-197601427D01*
X89257509Y-197785770D01*
X89257510Y-197785771D01*
X89351280Y-197954712D01*
X89351284Y-197954717D01*
X89477127Y-198101307D01*
X89477129Y-198101310D01*
X89629912Y-198219572D01*
X89629914Y-198219574D01*
X89803382Y-198304663D01*
X89803385Y-198304665D01*
X89990425Y-198353092D01*
X90010024Y-198354085D01*
X90010024Y-197685547D01*
X90106864Y-197713101D01*
X90218545Y-197702752D01*
X90260024Y-197682097D01*
X90260024Y-198351138D01*
X90374371Y-198333621D01*
X90555561Y-198266516D01*
X90719522Y-198164316D01*
X90859561Y-198031200D01*
X90969937Y-197872618D01*
X91046130Y-197695068D01*
X91046132Y-197695062D01*
X91085023Y-197505818D01*
X91085024Y-197505810D01*
X91085024Y-197457388D01*
X97825024Y-197457388D01*
X97839670Y-197601422D01*
X97839672Y-197601427D01*
X97897509Y-197785770D01*
X97897510Y-197785771D01*
X97991280Y-197954712D01*
X97991284Y-197954717D01*
X98117127Y-198101307D01*
X98117129Y-198101310D01*
X98269912Y-198219572D01*
X98269914Y-198219574D01*
X98443382Y-198304663D01*
X98443385Y-198304665D01*
X98630425Y-198353092D01*
X98650024Y-198354085D01*
X98650024Y-197685547D01*
X98746864Y-197713101D01*
X98858545Y-197702752D01*
X98900024Y-197682097D01*
X98900024Y-198351138D01*
X99014371Y-198333621D01*
X99195561Y-198266516D01*
X99359522Y-198164316D01*
X99499561Y-198031200D01*
X99609937Y-197872618D01*
X99686130Y-197695068D01*
X99686132Y-197695062D01*
X99725023Y-197505818D01*
X99725024Y-197505810D01*
X99725024Y-197234206D01*
X99075024Y-197234206D01*
X99075024Y-196984206D01*
X99725024Y-196984206D01*
X99725024Y-196761032D01*
X99725023Y-196761023D01*
X99710377Y-196616989D01*
X99710375Y-196616984D01*
X99652538Y-196432641D01*
X99652537Y-196432640D01*
X99558767Y-196263699D01*
X99558763Y-196263694D01*
X99432920Y-196117104D01*
X99432918Y-196117101D01*
X99280135Y-195998839D01*
X99280133Y-195998837D01*
X99106665Y-195913748D01*
X99106662Y-195913746D01*
X98919617Y-195865318D01*
X98919619Y-195865318D01*
X98900024Y-195864324D01*
X98900024Y-196532864D01*
X98803184Y-196505311D01*
X98691503Y-196515660D01*
X98650024Y-196536314D01*
X98650024Y-195867272D01*
X98535675Y-195884790D01*
X98354486Y-195951895D01*
X98190525Y-196054095D01*
X98050486Y-196187211D01*
X97940110Y-196345793D01*
X97863917Y-196523343D01*
X97863915Y-196523349D01*
X97825024Y-196712593D01*
X97825024Y-196984206D01*
X98475024Y-196984206D01*
X98475024Y-197234206D01*
X97825024Y-197234206D01*
X97825024Y-197457388D01*
X91085024Y-197457388D01*
X91085024Y-197234206D01*
X90435024Y-197234206D01*
X90435024Y-196984206D01*
X91085024Y-196984206D01*
X91085024Y-196761032D01*
X91085023Y-196761023D01*
X91070377Y-196616989D01*
X91070375Y-196616984D01*
X91012538Y-196432641D01*
X91012537Y-196432640D01*
X90918767Y-196263699D01*
X90918763Y-196263694D01*
X90792920Y-196117104D01*
X90792918Y-196117101D01*
X90640135Y-195998839D01*
X90640133Y-195998837D01*
X90466665Y-195913748D01*
X90466662Y-195913746D01*
X90279617Y-195865318D01*
X90279619Y-195865318D01*
X90260024Y-195864324D01*
X90260024Y-196532864D01*
X90163184Y-196505311D01*
X90051503Y-196515660D01*
X90010024Y-196536314D01*
X90010024Y-195867272D01*
X89895675Y-195884790D01*
X89714486Y-195951895D01*
X89550525Y-196054095D01*
X89410486Y-196187211D01*
X89300110Y-196345793D01*
X89223917Y-196523343D01*
X89223915Y-196523349D01*
X89185024Y-196712593D01*
X89185024Y-196984206D01*
X89835024Y-196984206D01*
X89835024Y-197234206D01*
X89185024Y-197234206D01*
X89185024Y-197457388D01*
X78599971Y-197457388D01*
X78496987Y-197179325D01*
X78327225Y-196833240D01*
X78243525Y-196698956D01*
X78123321Y-196506106D01*
X77887374Y-196201288D01*
X77887364Y-196201276D01*
X77621790Y-195921890D01*
X77621788Y-195921889D01*
X77621786Y-195921888D01*
X77621784Y-195921885D01*
X77456204Y-195779739D01*
X77329302Y-195670798D01*
X77329295Y-195670793D01*
X77321055Y-195665058D01*
X114299500Y-195665058D01*
X114300915Y-195670798D01*
X114340210Y-195830225D01*
X114419266Y-195980852D01*
X114419267Y-195980853D01*
X114419269Y-195980856D01*
X114435199Y-195998837D01*
X114532071Y-196108183D01*
X114672070Y-196204818D01*
X114831128Y-196265140D01*
X114957628Y-196280500D01*
X115042372Y-196280500D01*
X115168872Y-196265140D01*
X115327930Y-196204818D01*
X115467929Y-196108183D01*
X115580734Y-195980852D01*
X115659790Y-195830225D01*
X115700500Y-195665056D01*
X115700500Y-195494944D01*
X115659790Y-195329775D01*
X115580734Y-195179148D01*
X115467929Y-195051817D01*
X115387203Y-194996095D01*
X115327929Y-194955181D01*
X115168871Y-194894859D01*
X115042379Y-194879500D01*
X115042372Y-194879500D01*
X114957628Y-194879500D01*
X114957620Y-194879500D01*
X114831128Y-194894859D01*
X114672070Y-194955181D01*
X114532071Y-195051816D01*
X114419269Y-195179143D01*
X114419267Y-195179146D01*
X114340209Y-195329777D01*
X114299500Y-195494941D01*
X114299500Y-195665058D01*
X77321055Y-195665058D01*
X77321052Y-195665056D01*
X77305605Y-195654304D01*
X77012914Y-195450584D01*
X76675872Y-195263510D01*
X76479273Y-195179143D01*
X76321630Y-195111493D01*
X76321627Y-195111492D01*
X76321619Y-195111489D01*
X75953829Y-194996094D01*
X75953831Y-194996094D01*
X75576238Y-194918496D01*
X75192747Y-194879500D01*
X75192740Y-194879500D01*
X74807260Y-194879500D01*
X74807252Y-194879500D01*
X74423761Y-194918496D01*
X74046169Y-194996094D01*
X73678380Y-195111489D01*
X73678372Y-195111492D01*
X73324127Y-195263510D01*
X72987085Y-195450584D01*
X72670704Y-195670793D01*
X72670697Y-195670798D01*
X72378211Y-195921889D01*
X72378209Y-195921890D01*
X72112635Y-196201276D01*
X72112625Y-196201288D01*
X71876678Y-196506106D01*
X71672776Y-196833237D01*
X71672775Y-196833240D01*
X71503013Y-197179325D01*
X71397104Y-197465286D01*
X71369132Y-197540813D01*
X71272512Y-197913980D01*
X71214140Y-198295016D01*
X71194616Y-198679999D01*
X71194616Y-198680000D01*
X70000500Y-198680000D01*
X70000500Y-193900003D01*
X73944722Y-193900003D01*
X73963761Y-194056808D01*
X73963764Y-194056822D01*
X74019778Y-194204521D01*
X74109516Y-194334529D01*
X74109517Y-194334530D01*
X74227760Y-194439283D01*
X74367635Y-194512696D01*
X74521015Y-194550500D01*
X74521019Y-194550500D01*
X74678981Y-194550500D01*
X74678985Y-194550500D01*
X74832365Y-194512696D01*
X74972240Y-194439283D01*
X75090483Y-194334530D01*
X75180220Y-194204523D01*
X75236237Y-194056818D01*
X75255278Y-193900000D01*
X75236237Y-193743182D01*
X75228213Y-193722025D01*
X75180221Y-193595478D01*
X75090483Y-193465470D01*
X74972240Y-193360717D01*
X74960139Y-193354366D01*
X74832366Y-193287304D01*
X74678987Y-193249500D01*
X74678985Y-193249500D01*
X74521015Y-193249500D01*
X74521012Y-193249500D01*
X74367633Y-193287304D01*
X74227761Y-193360716D01*
X74109516Y-193465470D01*
X74019779Y-193595478D01*
X74019778Y-193595478D01*
X73963764Y-193743177D01*
X73963761Y-193743191D01*
X73944722Y-193899996D01*
X73944722Y-193900003D01*
X70000500Y-193900003D01*
X70000500Y-191900003D01*
X84944722Y-191900003D01*
X84963761Y-192056808D01*
X84963764Y-192056822D01*
X85019778Y-192204521D01*
X85109516Y-192334529D01*
X85109517Y-192334530D01*
X85227760Y-192439283D01*
X85367635Y-192512696D01*
X85521015Y-192550500D01*
X85521019Y-192550500D01*
X85678981Y-192550500D01*
X85678985Y-192550500D01*
X85832365Y-192512696D01*
X85972240Y-192439283D01*
X86090483Y-192334530D01*
X86180220Y-192204523D01*
X86181935Y-192200003D01*
X113144722Y-192200003D01*
X113163761Y-192356808D01*
X113163764Y-192356822D01*
X113219778Y-192504521D01*
X113309516Y-192634529D01*
X113309517Y-192634530D01*
X113427760Y-192739283D01*
X113567635Y-192812696D01*
X113721015Y-192850500D01*
X113721019Y-192850500D01*
X113878981Y-192850500D01*
X113878985Y-192850500D01*
X114032365Y-192812696D01*
X114172240Y-192739283D01*
X114290483Y-192634530D01*
X114380220Y-192504523D01*
X114436237Y-192356818D01*
X114455278Y-192200000D01*
X114436237Y-192043182D01*
X114428213Y-192022025D01*
X114380221Y-191895478D01*
X114290483Y-191765470D01*
X114265319Y-191743177D01*
X114172240Y-191660717D01*
X114160139Y-191654366D01*
X114032366Y-191587304D01*
X113878987Y-191549500D01*
X113878985Y-191549500D01*
X113721015Y-191549500D01*
X113721012Y-191549500D01*
X113567633Y-191587304D01*
X113427761Y-191660716D01*
X113309516Y-191765470D01*
X113219779Y-191895478D01*
X113219778Y-191895478D01*
X113163764Y-192043177D01*
X113163761Y-192043191D01*
X113144722Y-192199996D01*
X113144722Y-192200003D01*
X86181935Y-192200003D01*
X86181936Y-192200000D01*
X86236235Y-192056822D01*
X86236237Y-192056818D01*
X86255278Y-191900000D01*
X86236237Y-191743182D01*
X86228213Y-191722025D01*
X86180221Y-191595478D01*
X86090483Y-191465470D01*
X85972240Y-191360717D01*
X85960139Y-191354366D01*
X85832366Y-191287304D01*
X85678987Y-191249500D01*
X85678985Y-191249500D01*
X85521015Y-191249500D01*
X85521012Y-191249500D01*
X85367633Y-191287304D01*
X85227761Y-191360716D01*
X85109516Y-191465470D01*
X85019779Y-191595478D01*
X85019778Y-191595478D01*
X84963764Y-191743177D01*
X84963761Y-191743191D01*
X84944722Y-191899996D01*
X84944722Y-191900003D01*
X70000500Y-191900003D01*
X70000500Y-188865056D01*
X114299500Y-188865056D01*
X114340210Y-189030225D01*
X114419266Y-189180852D01*
X114419267Y-189180853D01*
X114419269Y-189180856D01*
X114532071Y-189308183D01*
X114672070Y-189404818D01*
X114831128Y-189465140D01*
X114957628Y-189480500D01*
X115042372Y-189480500D01*
X115168872Y-189465140D01*
X115327930Y-189404818D01*
X115467929Y-189308183D01*
X115580734Y-189180852D01*
X115659790Y-189030225D01*
X115700500Y-188865056D01*
X115700500Y-188694944D01*
X115659790Y-188529775D01*
X115580734Y-188379148D01*
X115560951Y-188356818D01*
X115467928Y-188251816D01*
X115327929Y-188155181D01*
X115168871Y-188094859D01*
X115042379Y-188079500D01*
X115042372Y-188079500D01*
X114957628Y-188079500D01*
X114957620Y-188079500D01*
X114831128Y-188094859D01*
X114672070Y-188155181D01*
X114532071Y-188251816D01*
X114419269Y-188379143D01*
X114419267Y-188379146D01*
X114340209Y-188529777D01*
X114299500Y-188694941D01*
X114299500Y-188694944D01*
X114299500Y-188865056D01*
X70000500Y-188865056D01*
X70000500Y-188200003D01*
X73544722Y-188200003D01*
X73563761Y-188356808D01*
X73563764Y-188356822D01*
X73619778Y-188504521D01*
X73709516Y-188634529D01*
X73709517Y-188634530D01*
X73827760Y-188739283D01*
X73967635Y-188812696D01*
X74121015Y-188850500D01*
X74121019Y-188850500D01*
X74278981Y-188850500D01*
X74278985Y-188850500D01*
X74432365Y-188812696D01*
X74572240Y-188739283D01*
X74690483Y-188634530D01*
X74780220Y-188504523D01*
X74836237Y-188356818D01*
X74843288Y-188298742D01*
X74855278Y-188200003D01*
X74855278Y-188199996D01*
X74836238Y-188043191D01*
X74836237Y-188043182D01*
X74828213Y-188022025D01*
X74780221Y-187895478D01*
X74690483Y-187765470D01*
X74572240Y-187660717D01*
X74560139Y-187654366D01*
X74432366Y-187587304D01*
X74278987Y-187549500D01*
X74278985Y-187549500D01*
X74121015Y-187549500D01*
X74121012Y-187549500D01*
X73967633Y-187587304D01*
X73827761Y-187660716D01*
X73709516Y-187765470D01*
X73619779Y-187895478D01*
X73619778Y-187895478D01*
X73563764Y-188043177D01*
X73563761Y-188043191D01*
X73544722Y-188199996D01*
X73544722Y-188200003D01*
X70000500Y-188200003D01*
X70000500Y-186100003D01*
X72344722Y-186100003D01*
X72363761Y-186256808D01*
X72363764Y-186256822D01*
X72419778Y-186404521D01*
X72509516Y-186534529D01*
X72509517Y-186534530D01*
X72627760Y-186639283D01*
X72767635Y-186712696D01*
X72921015Y-186750500D01*
X72921019Y-186750500D01*
X73078981Y-186750500D01*
X73078985Y-186750500D01*
X73232365Y-186712696D01*
X73372240Y-186639283D01*
X73490483Y-186534530D01*
X73580220Y-186404523D01*
X73636237Y-186256818D01*
X73655278Y-186100000D01*
X73636237Y-185943182D01*
X73628213Y-185922025D01*
X73580221Y-185795478D01*
X73490483Y-185665470D01*
X73372240Y-185560717D01*
X73360139Y-185554366D01*
X73232366Y-185487304D01*
X73078987Y-185449500D01*
X73078985Y-185449500D01*
X72921015Y-185449500D01*
X72921012Y-185449500D01*
X72767633Y-185487304D01*
X72627761Y-185560716D01*
X72509516Y-185665470D01*
X72419779Y-185795478D01*
X72419778Y-185795478D01*
X72363764Y-185943177D01*
X72363761Y-185943191D01*
X72344722Y-186099996D01*
X72344722Y-186100003D01*
X70000500Y-186100003D01*
X70000500Y-178100003D01*
X72344722Y-178100003D01*
X72363761Y-178256808D01*
X72363764Y-178256822D01*
X72419778Y-178404521D01*
X72509516Y-178534529D01*
X72509517Y-178534530D01*
X72627760Y-178639283D01*
X72767635Y-178712696D01*
X72921015Y-178750500D01*
X72921019Y-178750500D01*
X73078981Y-178750500D01*
X73078985Y-178750500D01*
X73232365Y-178712696D01*
X73372240Y-178639283D01*
X73490483Y-178534530D01*
X73580220Y-178404523D01*
X73636237Y-178256818D01*
X73655278Y-178100000D01*
X73643196Y-178000499D01*
X73636238Y-177943191D01*
X73636237Y-177943182D01*
X73615796Y-177889283D01*
X73580221Y-177795478D01*
X73490483Y-177665470D01*
X73478124Y-177654521D01*
X73372240Y-177560717D01*
X73360139Y-177554366D01*
X73232366Y-177487304D01*
X73078987Y-177449500D01*
X73078985Y-177449500D01*
X72921015Y-177449500D01*
X72921012Y-177449500D01*
X72767633Y-177487304D01*
X72627761Y-177560716D01*
X72509516Y-177665470D01*
X72419779Y-177795478D01*
X72419778Y-177795478D01*
X72363764Y-177943177D01*
X72363761Y-177943191D01*
X72344722Y-178099996D01*
X72344722Y-178100003D01*
X70000500Y-178100003D01*
X70000500Y-166400003D01*
X70164722Y-166400003D01*
X70183761Y-166556808D01*
X70183764Y-166556822D01*
X70239778Y-166704521D01*
X70329516Y-166834529D01*
X70329517Y-166834530D01*
X70447760Y-166939283D01*
X70587635Y-167012696D01*
X70741015Y-167050500D01*
X70741019Y-167050500D01*
X70898981Y-167050500D01*
X70898985Y-167050500D01*
X71052365Y-167012696D01*
X71192240Y-166939283D01*
X71310483Y-166834530D01*
X71400220Y-166704523D01*
X71456237Y-166556818D01*
X71475278Y-166400000D01*
X71456237Y-166243182D01*
X71430761Y-166176009D01*
X71427300Y-166163822D01*
X71424058Y-166147058D01*
X71423323Y-166143255D01*
X71351015Y-165960003D01*
X73544722Y-165960003D01*
X73563761Y-166116808D01*
X73563764Y-166116822D01*
X73619778Y-166264521D01*
X73692930Y-166370500D01*
X73709517Y-166394530D01*
X73827760Y-166499283D01*
X73967635Y-166572696D01*
X74121015Y-166610500D01*
X74121019Y-166610500D01*
X74278981Y-166610500D01*
X74278985Y-166610500D01*
X74432365Y-166572696D01*
X74572240Y-166499283D01*
X74690483Y-166394530D01*
X74780220Y-166264523D01*
X74836237Y-166116818D01*
X74855278Y-165960000D01*
X74845178Y-165876822D01*
X74838340Y-165820499D01*
X74836237Y-165803182D01*
X74817378Y-165753455D01*
X74780221Y-165655478D01*
X74690483Y-165525470D01*
X74632975Y-165474523D01*
X74572240Y-165420717D01*
X74560139Y-165414366D01*
X74432366Y-165347304D01*
X74278987Y-165309500D01*
X74278985Y-165309500D01*
X74121015Y-165309500D01*
X74121012Y-165309500D01*
X73967633Y-165347304D01*
X73827761Y-165420716D01*
X73709516Y-165525470D01*
X73619779Y-165655478D01*
X73619778Y-165655478D01*
X73563764Y-165803177D01*
X73563761Y-165803191D01*
X73544722Y-165959996D01*
X73544722Y-165960003D01*
X71351015Y-165960003D01*
X71312172Y-165861563D01*
X71225665Y-165642325D01*
X71220500Y-165615164D01*
X71220500Y-164226545D01*
X71237813Y-164178979D01*
X71242174Y-164174219D01*
X72644219Y-162772174D01*
X72690095Y-162750782D01*
X72696545Y-162750500D01*
X79023433Y-162750500D01*
X79048253Y-162742434D01*
X79059532Y-162739727D01*
X79085304Y-162735646D01*
X79108553Y-162723798D01*
X79119272Y-162719359D01*
X79144090Y-162711296D01*
X79165198Y-162695959D01*
X79175100Y-162689892D01*
X79198340Y-162678051D01*
X79198342Y-162678050D01*
X79216689Y-162659702D01*
X79216694Y-162659698D01*
X79220907Y-162655485D01*
X79220909Y-162655484D01*
X81373174Y-160503217D01*
X81419050Y-160481826D01*
X81467945Y-160494927D01*
X81496979Y-160536391D01*
X81499500Y-160555544D01*
X81499500Y-162469397D01*
X81494714Y-162495577D01*
X81304940Y-162997296D01*
X81304902Y-162997399D01*
X81304409Y-162998712D01*
X81304234Y-162999180D01*
X81304234Y-162999181D01*
X81301132Y-163017184D01*
X81297399Y-163030856D01*
X81273762Y-163093184D01*
X81254722Y-163249996D01*
X81254722Y-163250003D01*
X81273761Y-163406808D01*
X81273764Y-163406822D01*
X81329778Y-163554521D01*
X81419516Y-163684529D01*
X81419517Y-163684530D01*
X81537760Y-163789283D01*
X81677635Y-163862696D01*
X81831015Y-163900500D01*
X81831019Y-163900500D01*
X81988981Y-163900500D01*
X81988985Y-163900500D01*
X82142365Y-163862696D01*
X82282240Y-163789283D01*
X82400483Y-163684530D01*
X82490220Y-163554523D01*
X82546237Y-163406818D01*
X82565278Y-163250000D01*
X82558819Y-163196808D01*
X82546238Y-163093191D01*
X82546237Y-163093182D01*
X82522600Y-163030856D01*
X82519044Y-163021479D01*
X82515822Y-163010482D01*
X82513443Y-162999180D01*
X82511194Y-162988495D01*
X82306121Y-162492792D01*
X82300500Y-162464503D01*
X82300500Y-160456545D01*
X82317813Y-160408979D01*
X82322174Y-160404219D01*
X83826390Y-158900003D01*
X85144722Y-158900003D01*
X85163761Y-159056808D01*
X85163764Y-159056822D01*
X85219778Y-159204521D01*
X85309516Y-159334529D01*
X85309517Y-159334530D01*
X85427760Y-159439283D01*
X85567635Y-159512696D01*
X85721015Y-159550500D01*
X85721019Y-159550500D01*
X85878981Y-159550500D01*
X85878985Y-159550500D01*
X86032365Y-159512696D01*
X86172240Y-159439283D01*
X86290483Y-159334530D01*
X86380220Y-159204523D01*
X86436237Y-159056818D01*
X86455278Y-158900000D01*
X86451085Y-158865470D01*
X86436238Y-158743191D01*
X86436237Y-158743182D01*
X86413298Y-158682696D01*
X86380221Y-158595478D01*
X86290483Y-158465470D01*
X86221694Y-158404529D01*
X86172240Y-158360717D01*
X86160139Y-158354366D01*
X86032366Y-158287304D01*
X85878987Y-158249500D01*
X85878985Y-158249500D01*
X85721015Y-158249500D01*
X85721012Y-158249500D01*
X85567633Y-158287304D01*
X85427761Y-158360716D01*
X85309516Y-158465470D01*
X85219779Y-158595478D01*
X85219778Y-158595478D01*
X85163764Y-158743177D01*
X85163761Y-158743191D01*
X85144722Y-158899996D01*
X85144722Y-158900003D01*
X83826390Y-158900003D01*
X84913216Y-157813177D01*
X87505484Y-155220909D01*
X87505484Y-155220907D01*
X87509698Y-155216694D01*
X87509702Y-155216689D01*
X87528050Y-155198342D01*
X87539892Y-155175098D01*
X87545961Y-155165196D01*
X87549600Y-155160188D01*
X87561296Y-155144090D01*
X87569359Y-155119272D01*
X87573798Y-155108553D01*
X87585646Y-155085304D01*
X87589727Y-155059532D01*
X87592434Y-155048253D01*
X87600500Y-155023433D01*
X87600500Y-154896567D01*
X87600500Y-153946544D01*
X87617813Y-153898978D01*
X87622174Y-153894218D01*
X90803697Y-150712695D01*
X94005483Y-147510909D01*
X94028050Y-147488342D01*
X94039893Y-147465097D01*
X94045964Y-147455190D01*
X94049138Y-147450822D01*
X94061296Y-147434090D01*
X94069361Y-147409265D01*
X94073798Y-147398553D01*
X94085646Y-147375304D01*
X94089727Y-147349532D01*
X94092434Y-147338253D01*
X94100500Y-147313433D01*
X94100500Y-147186567D01*
X94100500Y-134847387D01*
X94117813Y-134799821D01*
X94161650Y-134774511D01*
X94208890Y-134781864D01*
X94267635Y-134812696D01*
X94421015Y-134850500D01*
X94421019Y-134850500D01*
X94578981Y-134850500D01*
X94578985Y-134850500D01*
X94732365Y-134812696D01*
X94872240Y-134739283D01*
X94990483Y-134634530D01*
X95080220Y-134504523D01*
X95086366Y-134488313D01*
X95096349Y-134470792D01*
X95096260Y-134470734D01*
X95097189Y-134469317D01*
X95097702Y-134468416D01*
X95098140Y-134467868D01*
X95352212Y-133989474D01*
X95365236Y-133971866D01*
X95514929Y-133822174D01*
X95560806Y-133800782D01*
X95567255Y-133800500D01*
X96398593Y-133800500D01*
X96446159Y-133817813D01*
X96471469Y-133861650D01*
X96467784Y-133900739D01*
X96434438Y-133988666D01*
X96413764Y-134043180D01*
X96413761Y-134043191D01*
X96394722Y-134199996D01*
X96394722Y-134200003D01*
X96413762Y-134356817D01*
X96432128Y-134405243D01*
X96436470Y-134423181D01*
X96437639Y-134433541D01*
X96564963Y-134849285D01*
X96589538Y-134929530D01*
X96596256Y-134951464D01*
X96599500Y-134973133D01*
X96599500Y-144720540D01*
X96599035Y-144728825D01*
X96594729Y-144767034D01*
X96605533Y-144824132D01*
X96605989Y-144826816D01*
X96613527Y-144876822D01*
X96614653Y-144884291D01*
X96616287Y-144889589D01*
X96616242Y-144889602D01*
X96618102Y-144895254D01*
X96618146Y-144895239D01*
X96619976Y-144900470D01*
X96647124Y-144951836D01*
X96648370Y-144954306D01*
X96673574Y-145006642D01*
X96676698Y-145011224D01*
X96676660Y-145011249D01*
X96680104Y-145016102D01*
X96680140Y-145016076D01*
X96683432Y-145020536D01*
X96724513Y-145061617D01*
X96726433Y-145063610D01*
X96765945Y-145106194D01*
X96770278Y-145109649D01*
X96770248Y-145109685D01*
X96780273Y-145117377D01*
X97161037Y-145498141D01*
X97527826Y-145864929D01*
X97549218Y-145910805D01*
X97549500Y-145917255D01*
X97549500Y-147092743D01*
X97532187Y-147140309D01*
X97527826Y-147145069D01*
X96608139Y-148064755D01*
X96590523Y-148077784D01*
X96280016Y-148242695D01*
X96112130Y-148331859D01*
X96112128Y-148331859D01*
X96112123Y-148331863D01*
X96101070Y-148340441D01*
X96090093Y-148347503D01*
X96007759Y-148390717D01*
X95889516Y-148495470D01*
X95799779Y-148625478D01*
X95799778Y-148625478D01*
X95743764Y-148773177D01*
X95743761Y-148773191D01*
X95724722Y-148929996D01*
X95724722Y-148930003D01*
X95743761Y-149086808D01*
X95743764Y-149086822D01*
X95799778Y-149234521D01*
X95861171Y-149323463D01*
X95873943Y-149372444D01*
X95852244Y-149418176D01*
X95806225Y-149439260D01*
X95800270Y-149439500D01*
X94521962Y-149439500D01*
X94395096Y-149439500D01*
X94384274Y-149443015D01*
X94370280Y-149447562D01*
X94358996Y-149450270D01*
X94333231Y-149454351D01*
X94333227Y-149454353D01*
X94309973Y-149466200D01*
X94299253Y-149470640D01*
X94274439Y-149478703D01*
X94274437Y-149478704D01*
X94253333Y-149494038D01*
X94243433Y-149500105D01*
X94220187Y-149511949D01*
X94197620Y-149534517D01*
X88594520Y-155137615D01*
X88594516Y-155137619D01*
X88594516Y-155137620D01*
X88594513Y-155137623D01*
X88571950Y-155160187D01*
X88571949Y-155160188D01*
X88560107Y-155183429D01*
X88554043Y-155193325D01*
X88538703Y-155214440D01*
X88538702Y-155214441D01*
X88530641Y-155239251D01*
X88526200Y-155249975D01*
X88514352Y-155273228D01*
X88514351Y-155273231D01*
X88510270Y-155298996D01*
X88507562Y-155310280D01*
X88499500Y-155335097D01*
X88499500Y-165753455D01*
X88482187Y-165801021D01*
X88477826Y-165805781D01*
X83094520Y-171189086D01*
X83094517Y-171189090D01*
X83094516Y-171189091D01*
X83094513Y-171189094D01*
X83071950Y-171211658D01*
X83071949Y-171211659D01*
X83060107Y-171234900D01*
X83054043Y-171244796D01*
X83038703Y-171265911D01*
X83038702Y-171265912D01*
X83030641Y-171290722D01*
X83026200Y-171301446D01*
X83014352Y-171324699D01*
X83014351Y-171324702D01*
X83010270Y-171350467D01*
X83007562Y-171361751D01*
X82999500Y-171386568D01*
X82999500Y-176565164D01*
X82994335Y-176592325D01*
X82796709Y-177093169D01*
X82795205Y-177097057D01*
X82795205Y-177097058D01*
X82791908Y-177115414D01*
X82788265Y-177128571D01*
X82763762Y-177193180D01*
X82744722Y-177349996D01*
X82744722Y-177350003D01*
X82763761Y-177506808D01*
X82763764Y-177506822D01*
X82819778Y-177654521D01*
X82827336Y-177665470D01*
X82909517Y-177784530D01*
X83027760Y-177889283D01*
X83130445Y-177943177D01*
X83158891Y-177958107D01*
X83167635Y-177962696D01*
X83321015Y-178000500D01*
X83321019Y-178000500D01*
X83478981Y-178000500D01*
X83478985Y-178000500D01*
X83632365Y-177962696D01*
X83641109Y-177958106D01*
X83691270Y-177951329D01*
X83734054Y-177978381D01*
X83749500Y-178023629D01*
X83749500Y-182165164D01*
X83744335Y-182192325D01*
X83546709Y-182693169D01*
X83545205Y-182697057D01*
X83545205Y-182697058D01*
X83541908Y-182715414D01*
X83538265Y-182728571D01*
X83513762Y-182793180D01*
X83494722Y-182949996D01*
X83494722Y-182950003D01*
X83513761Y-183106808D01*
X83513764Y-183106822D01*
X83569778Y-183254521D01*
X83659516Y-183384529D01*
X83659517Y-183384530D01*
X83777760Y-183489283D01*
X83917635Y-183562696D01*
X84071015Y-183600500D01*
X84071019Y-183600500D01*
X84228981Y-183600500D01*
X84228985Y-183600500D01*
X84382365Y-183562696D01*
X84522240Y-183489283D01*
X84640483Y-183384530D01*
X84730220Y-183254523D01*
X84786237Y-183106818D01*
X84805278Y-182950000D01*
X84786237Y-182793182D01*
X84760761Y-182726009D01*
X84757300Y-182713822D01*
X84754058Y-182697058D01*
X84753323Y-182693255D01*
X84555665Y-182192325D01*
X84550500Y-182165164D01*
X84550500Y-172797387D01*
X84567813Y-172749821D01*
X84611650Y-172724511D01*
X84658890Y-172731864D01*
X84717635Y-172762696D01*
X84871015Y-172800500D01*
X84871019Y-172800500D01*
X85028981Y-172800500D01*
X85028985Y-172800500D01*
X85182365Y-172762696D01*
X85322240Y-172689283D01*
X85440483Y-172584530D01*
X85530220Y-172454523D01*
X85586237Y-172306818D01*
X85605278Y-172150000D01*
X85605277Y-172149998D01*
X85605477Y-172148358D01*
X85605641Y-172145427D01*
X85605660Y-172144384D01*
X85605662Y-172144379D01*
X85610901Y-171870000D01*
X92504750Y-171870000D01*
X92523669Y-172013708D01*
X92579138Y-172147623D01*
X92579139Y-172147625D01*
X92667379Y-172262621D01*
X92782375Y-172350861D01*
X92916291Y-172406330D01*
X93060000Y-172425250D01*
X93203709Y-172406330D01*
X93337625Y-172350861D01*
X93452621Y-172262621D01*
X93540861Y-172147625D01*
X93596330Y-172013709D01*
X93608667Y-171920000D01*
X94444750Y-171920000D01*
X94463669Y-172063708D01*
X94498430Y-172147628D01*
X94519139Y-172197625D01*
X94607379Y-172312621D01*
X94722375Y-172400861D01*
X94856291Y-172456330D01*
X95000000Y-172475250D01*
X95143709Y-172456330D01*
X95277625Y-172400861D01*
X95392621Y-172312621D01*
X95480861Y-172197625D01*
X95536330Y-172063709D01*
X95555250Y-171920000D01*
X95536330Y-171776291D01*
X95480861Y-171642375D01*
X95392621Y-171527379D01*
X95277625Y-171439139D01*
X95277623Y-171439138D01*
X95143708Y-171383669D01*
X95000000Y-171364750D01*
X94856291Y-171383669D01*
X94722376Y-171439138D01*
X94607379Y-171527379D01*
X94519138Y-171642376D01*
X94463669Y-171776291D01*
X94444750Y-171920000D01*
X93608667Y-171920000D01*
X93615250Y-171870000D01*
X93596330Y-171726291D01*
X93540861Y-171592375D01*
X93452621Y-171477379D01*
X93337625Y-171389139D01*
X93331416Y-171386567D01*
X93203708Y-171333669D01*
X93060000Y-171314750D01*
X92916291Y-171333669D01*
X92782376Y-171389138D01*
X92667379Y-171477379D01*
X92579138Y-171592376D01*
X92523669Y-171726291D01*
X92504750Y-171870000D01*
X85610901Y-171870000D01*
X85612561Y-171783080D01*
X85630779Y-171735855D01*
X85634207Y-171732184D01*
X86666389Y-170700003D01*
X103044722Y-170700003D01*
X103063761Y-170856808D01*
X103063764Y-170856822D01*
X103119778Y-171004521D01*
X103209516Y-171134529D01*
X103209517Y-171134530D01*
X103327760Y-171239283D01*
X103467635Y-171312696D01*
X103621015Y-171350500D01*
X103621019Y-171350500D01*
X103778981Y-171350500D01*
X103778985Y-171350500D01*
X103932365Y-171312696D01*
X104072240Y-171239283D01*
X104190483Y-171134530D01*
X104280220Y-171004523D01*
X104336237Y-170856818D01*
X104355278Y-170700000D01*
X104336237Y-170543182D01*
X104328213Y-170522025D01*
X104280221Y-170395478D01*
X104190483Y-170265470D01*
X104072240Y-170160717D01*
X104060139Y-170154366D01*
X103932366Y-170087304D01*
X103778987Y-170049500D01*
X103778985Y-170049500D01*
X103621015Y-170049500D01*
X103621012Y-170049500D01*
X103467633Y-170087304D01*
X103327761Y-170160716D01*
X103209516Y-170265470D01*
X103119779Y-170395478D01*
X103119778Y-170395478D01*
X103063764Y-170543177D01*
X103063761Y-170543191D01*
X103044722Y-170699996D01*
X103044722Y-170700003D01*
X86666389Y-170700003D01*
X87616389Y-169750003D01*
X88194722Y-169750003D01*
X88213761Y-169906808D01*
X88213764Y-169906822D01*
X88269778Y-170054521D01*
X88343079Y-170160716D01*
X88359517Y-170184530D01*
X88477760Y-170289283D01*
X88617635Y-170362696D01*
X88771015Y-170400500D01*
X88771019Y-170400500D01*
X88928981Y-170400500D01*
X88928985Y-170400500D01*
X89082365Y-170362696D01*
X89222240Y-170289283D01*
X89340483Y-170184530D01*
X89430220Y-170054523D01*
X89486237Y-169906818D01*
X89505278Y-169750000D01*
X89486237Y-169593182D01*
X89478213Y-169572025D01*
X89430221Y-169445478D01*
X89340483Y-169315470D01*
X89337351Y-169312695D01*
X89222240Y-169210717D01*
X89210139Y-169204366D01*
X89082366Y-169137304D01*
X88928987Y-169099500D01*
X88928985Y-169099500D01*
X88771015Y-169099500D01*
X88771012Y-169099500D01*
X88617633Y-169137304D01*
X88477761Y-169210716D01*
X88359516Y-169315470D01*
X88269779Y-169445478D01*
X88269778Y-169445478D01*
X88213764Y-169593177D01*
X88213761Y-169593191D01*
X88194722Y-169749996D01*
X88194722Y-169750003D01*
X87616389Y-169750003D01*
X88666389Y-168700003D01*
X100304722Y-168700003D01*
X100323761Y-168856808D01*
X100323764Y-168856822D01*
X100379778Y-169004521D01*
X100469516Y-169134529D01*
X100469517Y-169134530D01*
X100587760Y-169239283D01*
X100727635Y-169312696D01*
X100881015Y-169350500D01*
X100881019Y-169350500D01*
X101038981Y-169350500D01*
X101038985Y-169350500D01*
X101192365Y-169312696D01*
X101332240Y-169239283D01*
X101450483Y-169134530D01*
X101540220Y-169004523D01*
X101596237Y-168856818D01*
X101615278Y-168700000D01*
X101609844Y-168655250D01*
X101596238Y-168543191D01*
X101596237Y-168543182D01*
X101577062Y-168492621D01*
X101540221Y-168395478D01*
X101450483Y-168265470D01*
X101332240Y-168160717D01*
X101320139Y-168154366D01*
X101192366Y-168087304D01*
X101038987Y-168049500D01*
X101038985Y-168049500D01*
X100881015Y-168049500D01*
X100881012Y-168049500D01*
X100727633Y-168087304D01*
X100587761Y-168160716D01*
X100469516Y-168265470D01*
X100379779Y-168395478D01*
X100379778Y-168395478D01*
X100323764Y-168543177D01*
X100323761Y-168543191D01*
X100304722Y-168699996D01*
X100304722Y-168700003D01*
X88666389Y-168700003D01*
X90246393Y-167120000D01*
X95054750Y-167120000D01*
X95073669Y-167263708D01*
X95105386Y-167340280D01*
X95129139Y-167397625D01*
X95217379Y-167512621D01*
X95332375Y-167600861D01*
X95466291Y-167656330D01*
X95593762Y-167673112D01*
X95638659Y-167696484D01*
X95658031Y-167743250D01*
X95642810Y-167791525D01*
X95619140Y-167822373D01*
X95619138Y-167822376D01*
X95563669Y-167956291D01*
X95544750Y-168100000D01*
X95563669Y-168243708D01*
X95619138Y-168377623D01*
X95619139Y-168377625D01*
X95707379Y-168492621D01*
X95822375Y-168580861D01*
X95956291Y-168636330D01*
X96100000Y-168655250D01*
X96243709Y-168636330D01*
X96377625Y-168580861D01*
X96492621Y-168492621D01*
X96580861Y-168377625D01*
X96636330Y-168243709D01*
X96655250Y-168100000D01*
X96636330Y-167956291D01*
X96580861Y-167822375D01*
X96492621Y-167707379D01*
X96377625Y-167619139D01*
X96377623Y-167619138D01*
X96331419Y-167600000D01*
X97357110Y-167600000D01*
X97376568Y-167735339D01*
X97376568Y-167735340D01*
X97376569Y-167735342D01*
X97433370Y-167859718D01*
X97522911Y-167963055D01*
X97637939Y-168036978D01*
X97769131Y-168075500D01*
X97769133Y-168075500D01*
X97905869Y-168075500D01*
X97905870Y-168075499D01*
X98037061Y-168036978D01*
X98048742Y-168029471D01*
X98098117Y-168018318D01*
X98128758Y-168029471D01*
X98140439Y-168036978D01*
X98236006Y-168065039D01*
X98271629Y-168075499D01*
X98271631Y-168075500D01*
X98271633Y-168075500D01*
X98408368Y-168075500D01*
X98452098Y-168062659D01*
X98539561Y-168036978D01*
X98549993Y-168030273D01*
X98599366Y-168019121D01*
X98630005Y-168030272D01*
X98640439Y-168036978D01*
X98771631Y-168075500D01*
X98771633Y-168075500D01*
X98908368Y-168075500D01*
X98996915Y-168049500D01*
X99039561Y-168036978D01*
X99154589Y-167963055D01*
X99244130Y-167859718D01*
X99300931Y-167735342D01*
X99320390Y-167600000D01*
X99300931Y-167464658D01*
X99244130Y-167340282D01*
X99154589Y-167236945D01*
X99154585Y-167236942D01*
X99068594Y-167181680D01*
X99039561Y-167163022D01*
X99039560Y-167163021D01*
X98908369Y-167124500D01*
X98908367Y-167124500D01*
X98771633Y-167124500D01*
X98771631Y-167124500D01*
X98640437Y-167163022D01*
X98630004Y-167169727D01*
X98580629Y-167180876D01*
X98549996Y-167169727D01*
X98539562Y-167163022D01*
X98408369Y-167124500D01*
X98408367Y-167124500D01*
X98271633Y-167124500D01*
X98271631Y-167124500D01*
X98140439Y-167163021D01*
X98140438Y-167163022D01*
X98128756Y-167170530D01*
X98079380Y-167181680D01*
X98048744Y-167170530D01*
X98037061Y-167163022D01*
X98037060Y-167163021D01*
X97905869Y-167124500D01*
X97905867Y-167124500D01*
X97769133Y-167124500D01*
X97769131Y-167124500D01*
X97637939Y-167163021D01*
X97637937Y-167163023D01*
X97522914Y-167236942D01*
X97433371Y-167340280D01*
X97376568Y-167464660D01*
X97357110Y-167600000D01*
X96331419Y-167600000D01*
X96243708Y-167563669D01*
X96116239Y-167546888D01*
X96071339Y-167523515D01*
X96051968Y-167476749D01*
X96067190Y-167428473D01*
X96067191Y-167428472D01*
X96090859Y-167397628D01*
X96090859Y-167397627D01*
X96090861Y-167397625D01*
X96146330Y-167263709D01*
X96165250Y-167120000D01*
X96146330Y-166976291D01*
X96090861Y-166842375D01*
X96002621Y-166727379D01*
X95887625Y-166639139D01*
X95885457Y-166638241D01*
X95753708Y-166583669D01*
X95610000Y-166564750D01*
X95466291Y-166583669D01*
X95332376Y-166639138D01*
X95217379Y-166727379D01*
X95129138Y-166842376D01*
X95073669Y-166976291D01*
X95054750Y-167120000D01*
X90246393Y-167120000D01*
X90555484Y-166810909D01*
X90555485Y-166810906D01*
X90559698Y-166806694D01*
X90559702Y-166806689D01*
X90578050Y-166788342D01*
X90589892Y-166765098D01*
X90595961Y-166755196D01*
X90611296Y-166734090D01*
X90619359Y-166709272D01*
X90623798Y-166698553D01*
X90635646Y-166675304D01*
X90639727Y-166649532D01*
X90642434Y-166638253D01*
X90650500Y-166613433D01*
X90650500Y-166486567D01*
X90650500Y-165720003D01*
X106854722Y-165720003D01*
X106873761Y-165876808D01*
X106873764Y-165876822D01*
X106929778Y-166024521D01*
X107014359Y-166147058D01*
X107019517Y-166154530D01*
X107137760Y-166259283D01*
X107277635Y-166332696D01*
X107431015Y-166370500D01*
X107431019Y-166370500D01*
X107588981Y-166370500D01*
X107588985Y-166370500D01*
X107742365Y-166332696D01*
X107882240Y-166259283D01*
X108000483Y-166154530D01*
X108090220Y-166024523D01*
X108146237Y-165876818D01*
X108157494Y-165784107D01*
X108165278Y-165720003D01*
X108165278Y-165719996D01*
X108146238Y-165563191D01*
X108146237Y-165563182D01*
X108131935Y-165525470D01*
X108090221Y-165415478D01*
X108000483Y-165285470D01*
X107882240Y-165180717D01*
X107870139Y-165174366D01*
X107861826Y-165170003D01*
X114684722Y-165170003D01*
X114703761Y-165326808D01*
X114703764Y-165326822D01*
X114759778Y-165474521D01*
X114849516Y-165604529D01*
X114849517Y-165604530D01*
X114967760Y-165709283D01*
X115107635Y-165782696D01*
X115261015Y-165820500D01*
X115261019Y-165820500D01*
X115418981Y-165820500D01*
X115418985Y-165820500D01*
X115572365Y-165782696D01*
X115712240Y-165709283D01*
X115776431Y-165652415D01*
X115823513Y-165633833D01*
X115871527Y-165649862D01*
X115898005Y-165693004D01*
X115899500Y-165707806D01*
X115899500Y-165773102D01*
X115899500Y-165773104D01*
X115899499Y-165773104D01*
X115909185Y-165853753D01*
X115910123Y-165861564D01*
X115916140Y-165876822D01*
X115965638Y-166002341D01*
X116052442Y-166116808D01*
X116057078Y-166122922D01*
X116177658Y-166214361D01*
X116318436Y-166269877D01*
X116389764Y-166278442D01*
X116406896Y-166280500D01*
X116406898Y-166280500D01*
X117593104Y-166280500D01*
X117608722Y-166278624D01*
X117681564Y-166269877D01*
X117822342Y-166214361D01*
X117942922Y-166122922D01*
X118034361Y-166002342D01*
X118089877Y-165861564D01*
X118098624Y-165788722D01*
X118100500Y-165773104D01*
X118100500Y-164586895D01*
X118092406Y-164519500D01*
X118089877Y-164498436D01*
X118034361Y-164357658D01*
X117942922Y-164237078D01*
X117929033Y-164226545D01*
X117822341Y-164145638D01*
X117737079Y-164112015D01*
X117681564Y-164090123D01*
X117652076Y-164086582D01*
X117593104Y-164079500D01*
X117593102Y-164079500D01*
X116406898Y-164079500D01*
X116406896Y-164079500D01*
X116318436Y-164090123D01*
X116177658Y-164145638D01*
X116057078Y-164237077D01*
X116057077Y-164237078D01*
X115965638Y-164357658D01*
X115910123Y-164498436D01*
X115899500Y-164586895D01*
X115899500Y-164632193D01*
X115882187Y-164679759D01*
X115838350Y-164705069D01*
X115788500Y-164696279D01*
X115776429Y-164687583D01*
X115712240Y-164630717D01*
X115628751Y-164586898D01*
X115572366Y-164557304D01*
X115418987Y-164519500D01*
X115418985Y-164519500D01*
X115261015Y-164519500D01*
X115261012Y-164519500D01*
X115107633Y-164557304D01*
X114967761Y-164630716D01*
X114849516Y-164735470D01*
X114759779Y-164865478D01*
X114759778Y-164865478D01*
X114703764Y-165013177D01*
X114703761Y-165013191D01*
X114684722Y-165169996D01*
X114684722Y-165170003D01*
X107861826Y-165170003D01*
X107742366Y-165107304D01*
X107588987Y-165069500D01*
X107588985Y-165069500D01*
X107431015Y-165069500D01*
X107431012Y-165069500D01*
X107277633Y-165107304D01*
X107137761Y-165180716D01*
X107019516Y-165285470D01*
X106929779Y-165415478D01*
X106929778Y-165415478D01*
X106873764Y-165563177D01*
X106873761Y-165563191D01*
X106854722Y-165719996D01*
X106854722Y-165720003D01*
X90650500Y-165720003D01*
X90650500Y-163040003D01*
X106874722Y-163040003D01*
X106893761Y-163196808D01*
X106893764Y-163196822D01*
X106949778Y-163344521D01*
X107039516Y-163474529D01*
X107039517Y-163474530D01*
X107157760Y-163579283D01*
X107297635Y-163652696D01*
X107451015Y-163690500D01*
X107451019Y-163690500D01*
X107608981Y-163690500D01*
X107608985Y-163690500D01*
X107762365Y-163652696D01*
X107902240Y-163579283D01*
X108020483Y-163474530D01*
X108110220Y-163344523D01*
X108166237Y-163196818D01*
X108173288Y-163138742D01*
X108185278Y-163040003D01*
X108185278Y-163039996D01*
X108166238Y-162883191D01*
X108166237Y-162883182D01*
X108158213Y-162862025D01*
X108110221Y-162735478D01*
X108020483Y-162605470D01*
X107902240Y-162500717D01*
X107861253Y-162479205D01*
X107762366Y-162427304D01*
X107608987Y-162389500D01*
X107608985Y-162389500D01*
X107451015Y-162389500D01*
X107451012Y-162389500D01*
X107297633Y-162427304D01*
X107157761Y-162500716D01*
X107039516Y-162605470D01*
X106949779Y-162735478D01*
X106949778Y-162735478D01*
X106893764Y-162883177D01*
X106893761Y-162883191D01*
X106874722Y-163039996D01*
X106874722Y-163040003D01*
X90650500Y-163040003D01*
X90650500Y-160100003D01*
X114744722Y-160100003D01*
X114763761Y-160256808D01*
X114763764Y-160256822D01*
X114819778Y-160404521D01*
X114909516Y-160534529D01*
X114909517Y-160534530D01*
X115027760Y-160639283D01*
X115167635Y-160712696D01*
X115321015Y-160750500D01*
X115321019Y-160750500D01*
X115478981Y-160750500D01*
X115478985Y-160750500D01*
X115632365Y-160712696D01*
X115772240Y-160639283D01*
X115776429Y-160635571D01*
X115823512Y-160616988D01*
X115871527Y-160633017D01*
X115898004Y-160676158D01*
X115899500Y-160690961D01*
X115899500Y-160693102D01*
X115899500Y-160693104D01*
X115899499Y-160693104D01*
X115910123Y-160781563D01*
X115965638Y-160922341D01*
X115965639Y-160922342D01*
X116057078Y-161042922D01*
X116177658Y-161134361D01*
X116318436Y-161189877D01*
X116389764Y-161198442D01*
X116406896Y-161200500D01*
X116406898Y-161200500D01*
X117593104Y-161200500D01*
X117608722Y-161198624D01*
X117681564Y-161189877D01*
X117822342Y-161134361D01*
X117942922Y-161042922D01*
X118034361Y-160922342D01*
X118089877Y-160781564D01*
X118100500Y-160693102D01*
X118100500Y-159506898D01*
X118089877Y-159418436D01*
X118034361Y-159277658D01*
X117942922Y-159157078D01*
X117924610Y-159143191D01*
X117822341Y-159065638D01*
X117737079Y-159032015D01*
X117681564Y-159010123D01*
X117652076Y-159006582D01*
X117593104Y-158999500D01*
X117593102Y-158999500D01*
X116406898Y-158999500D01*
X116406896Y-158999500D01*
X116318436Y-159010123D01*
X116177658Y-159065638D01*
X116057078Y-159157077D01*
X116057077Y-159157078D01*
X115965638Y-159277658D01*
X115910123Y-159418436D01*
X115899500Y-159506895D01*
X115899500Y-159509038D01*
X115882187Y-159556604D01*
X115838350Y-159581914D01*
X115788500Y-159573124D01*
X115776432Y-159564431D01*
X115772240Y-159560717D01*
X115752773Y-159550500D01*
X115632366Y-159487304D01*
X115478987Y-159449500D01*
X115478985Y-159449500D01*
X115321015Y-159449500D01*
X115321012Y-159449500D01*
X115167633Y-159487304D01*
X115027761Y-159560716D01*
X114909516Y-159665470D01*
X114819779Y-159795478D01*
X114819778Y-159795478D01*
X114763764Y-159943177D01*
X114763761Y-159943191D01*
X114744722Y-160099996D01*
X114744722Y-160100003D01*
X90650500Y-160100003D01*
X90650500Y-158900003D01*
X103344722Y-158900003D01*
X103363761Y-159056808D01*
X103363764Y-159056822D01*
X103419778Y-159204521D01*
X103509516Y-159334529D01*
X103509517Y-159334530D01*
X103627760Y-159439283D01*
X103767635Y-159512696D01*
X103921015Y-159550500D01*
X103921019Y-159550500D01*
X104078981Y-159550500D01*
X104078985Y-159550500D01*
X104232365Y-159512696D01*
X104372240Y-159439283D01*
X104490483Y-159334530D01*
X104580220Y-159204523D01*
X104636237Y-159056818D01*
X104655278Y-158900000D01*
X104651085Y-158865470D01*
X104636238Y-158743191D01*
X104636237Y-158743182D01*
X104613298Y-158682696D01*
X104580221Y-158595478D01*
X104490483Y-158465470D01*
X104421694Y-158404529D01*
X104372240Y-158360717D01*
X104360139Y-158354366D01*
X104232366Y-158287304D01*
X104078987Y-158249500D01*
X104078985Y-158249500D01*
X103921015Y-158249500D01*
X103921012Y-158249500D01*
X103767633Y-158287304D01*
X103627761Y-158360716D01*
X103509516Y-158465470D01*
X103419779Y-158595478D01*
X103419778Y-158595478D01*
X103363764Y-158743177D01*
X103363761Y-158743191D01*
X103344722Y-158899996D01*
X103344722Y-158900003D01*
X90650500Y-158900003D01*
X90650500Y-158070003D01*
X96454722Y-158070003D01*
X96473761Y-158226808D01*
X96473764Y-158226822D01*
X96529778Y-158374521D01*
X96619516Y-158504529D01*
X96619517Y-158504530D01*
X96737760Y-158609283D01*
X96877635Y-158682696D01*
X97031015Y-158720500D01*
X97031019Y-158720500D01*
X97188981Y-158720500D01*
X97188985Y-158720500D01*
X97342365Y-158682696D01*
X97482240Y-158609283D01*
X97592370Y-158511717D01*
X97639452Y-158493135D01*
X97683351Y-158507790D01*
X97684076Y-158506740D01*
X97687760Y-158509283D01*
X97827635Y-158582696D01*
X97981015Y-158620500D01*
X97981019Y-158620500D01*
X98138981Y-158620500D01*
X98138985Y-158620500D01*
X98292365Y-158582696D01*
X98432240Y-158509283D01*
X98550483Y-158404530D01*
X98640220Y-158274523D01*
X98696237Y-158126818D01*
X98715278Y-157970000D01*
X98708378Y-157913177D01*
X98696238Y-157813191D01*
X98696237Y-157813182D01*
X98678145Y-157765477D01*
X98640221Y-157665478D01*
X98550483Y-157535470D01*
X98502116Y-157492621D01*
X98432240Y-157430717D01*
X98410868Y-157419500D01*
X98292366Y-157357304D01*
X98138987Y-157319500D01*
X98138985Y-157319500D01*
X97981015Y-157319500D01*
X97981012Y-157319500D01*
X97827633Y-157357304D01*
X97687760Y-157430716D01*
X97687758Y-157430718D01*
X97577630Y-157528281D01*
X97530546Y-157546864D01*
X97486649Y-157532208D01*
X97485924Y-157533260D01*
X97482239Y-157530716D01*
X97342366Y-157457304D01*
X97188987Y-157419500D01*
X97188985Y-157419500D01*
X97031015Y-157419500D01*
X97031012Y-157419500D01*
X96877633Y-157457304D01*
X96737761Y-157530716D01*
X96619516Y-157635470D01*
X96529779Y-157765478D01*
X96529778Y-157765478D01*
X96473764Y-157913177D01*
X96473761Y-157913191D01*
X96454722Y-158069996D01*
X96454722Y-158070003D01*
X90650500Y-158070003D01*
X90650500Y-156710003D01*
X94744722Y-156710003D01*
X94763761Y-156866808D01*
X94763764Y-156866822D01*
X94819778Y-157014521D01*
X94878780Y-157100000D01*
X94909517Y-157144530D01*
X95027760Y-157249283D01*
X95167635Y-157322696D01*
X95321015Y-157360500D01*
X95321019Y-157360500D01*
X95478981Y-157360500D01*
X95478985Y-157360500D01*
X95632365Y-157322696D01*
X95772240Y-157249283D01*
X95890483Y-157144530D01*
X95921220Y-157100000D01*
X102044750Y-157100000D01*
X102063669Y-157243708D01*
X102119138Y-157377623D01*
X102119139Y-157377625D01*
X102207379Y-157492621D01*
X102322375Y-157580861D01*
X102456291Y-157636330D01*
X102600000Y-157655250D01*
X102743709Y-157636330D01*
X102877625Y-157580861D01*
X102992621Y-157492621D01*
X103080861Y-157377625D01*
X103136330Y-157243709D01*
X103155250Y-157100000D01*
X103136330Y-156956291D01*
X103080861Y-156822375D01*
X102992621Y-156707379D01*
X102877625Y-156619139D01*
X102877623Y-156619138D01*
X102743708Y-156563669D01*
X102600000Y-156544750D01*
X102456291Y-156563669D01*
X102322376Y-156619138D01*
X102207379Y-156707379D01*
X102119138Y-156822376D01*
X102063669Y-156956291D01*
X102044750Y-157100000D01*
X95921220Y-157100000D01*
X95980220Y-157014523D01*
X96036237Y-156866818D01*
X96047224Y-156776330D01*
X96055278Y-156710003D01*
X96055278Y-156709996D01*
X96036238Y-156553191D01*
X96036237Y-156553182D01*
X95993041Y-156439283D01*
X95980221Y-156405478D01*
X95890483Y-156275470D01*
X95850445Y-156240000D01*
X103904750Y-156240000D01*
X103923669Y-156383708D01*
X103946689Y-156439283D01*
X103979139Y-156517625D01*
X104067379Y-156632621D01*
X104182375Y-156720861D01*
X104316291Y-156776330D01*
X104460000Y-156795250D01*
X104603709Y-156776330D01*
X104737625Y-156720861D01*
X104852621Y-156632621D01*
X104940861Y-156517625D01*
X104996330Y-156383709D01*
X105015250Y-156240000D01*
X104996330Y-156096291D01*
X104940861Y-155962375D01*
X104852621Y-155847379D01*
X104737625Y-155759139D01*
X104699123Y-155743191D01*
X104603708Y-155703669D01*
X104460000Y-155684750D01*
X104316291Y-155703669D01*
X104182376Y-155759138D01*
X104067379Y-155847379D01*
X103979138Y-155962376D01*
X103923669Y-156096291D01*
X103904750Y-156240000D01*
X95850445Y-156240000D01*
X95827665Y-156219819D01*
X95803542Y-156175318D01*
X95813666Y-156125722D01*
X95827661Y-156109043D01*
X95900483Y-156044530D01*
X95990220Y-155914523D01*
X95995730Y-155899996D01*
X96046235Y-155766822D01*
X96046237Y-155766818D01*
X96053288Y-155708742D01*
X96065278Y-155610003D01*
X96065278Y-155609996D01*
X96046238Y-155453191D01*
X96046237Y-155453182D01*
X96038213Y-155432025D01*
X95990221Y-155305478D01*
X95900483Y-155175470D01*
X95857762Y-155137623D01*
X95782240Y-155070717D01*
X95739416Y-155048241D01*
X95642366Y-154997304D01*
X95488987Y-154959500D01*
X95488985Y-154959500D01*
X95331015Y-154959500D01*
X95331012Y-154959500D01*
X95177633Y-154997304D01*
X95037761Y-155070716D01*
X94919516Y-155175470D01*
X94829779Y-155305478D01*
X94829778Y-155305478D01*
X94773764Y-155453177D01*
X94773761Y-155453191D01*
X94754722Y-155609996D01*
X94754722Y-155610003D01*
X94773761Y-155766808D01*
X94773764Y-155766822D01*
X94829778Y-155914521D01*
X94862810Y-155962375D01*
X94919517Y-156044530D01*
X94961541Y-156081759D01*
X94982333Y-156100180D01*
X95006457Y-156144681D01*
X94996331Y-156194277D01*
X94982333Y-156210960D01*
X94909517Y-156275470D01*
X94819779Y-156405478D01*
X94819778Y-156405478D01*
X94763764Y-156553177D01*
X94763761Y-156553191D01*
X94744722Y-156709996D01*
X94744722Y-156710003D01*
X90650500Y-156710003D01*
X90650500Y-156146545D01*
X90667813Y-156098979D01*
X90672174Y-156094219D01*
X90866390Y-155900003D01*
X92974722Y-155900003D01*
X92993761Y-156056808D01*
X92993764Y-156056822D01*
X93049778Y-156204521D01*
X93098751Y-156275470D01*
X93139517Y-156334530D01*
X93257760Y-156439283D01*
X93397635Y-156512696D01*
X93551015Y-156550500D01*
X93551019Y-156550500D01*
X93708981Y-156550500D01*
X93708985Y-156550500D01*
X93862365Y-156512696D01*
X94002240Y-156439283D01*
X94120483Y-156334530D01*
X94210220Y-156204523D01*
X94266237Y-156056818D01*
X94285278Y-155900000D01*
X94266237Y-155743182D01*
X94244077Y-155684750D01*
X94210221Y-155595478D01*
X94120483Y-155465470D01*
X94106623Y-155453191D01*
X94002240Y-155360717D01*
X93906142Y-155310280D01*
X93862366Y-155287304D01*
X93708987Y-155249500D01*
X93708985Y-155249500D01*
X93551015Y-155249500D01*
X93551012Y-155249500D01*
X93397633Y-155287304D01*
X93257761Y-155360716D01*
X93139516Y-155465470D01*
X93049779Y-155595478D01*
X93049778Y-155595478D01*
X92993764Y-155743177D01*
X92993761Y-155743191D01*
X92974722Y-155899996D01*
X92974722Y-155900003D01*
X90866390Y-155900003D01*
X95384219Y-151382174D01*
X95430095Y-151360782D01*
X95436545Y-151360500D01*
X101123433Y-151360500D01*
X101148253Y-151352434D01*
X101159532Y-151349727D01*
X101185304Y-151345646D01*
X101208553Y-151333798D01*
X101219272Y-151329359D01*
X101244090Y-151321296D01*
X101265198Y-151305959D01*
X101275100Y-151299892D01*
X101298340Y-151288051D01*
X101298342Y-151288050D01*
X101316689Y-151269702D01*
X101316694Y-151269698D01*
X101320907Y-151265485D01*
X101320909Y-151265484D01*
X105325484Y-147260909D01*
X105325485Y-147260907D01*
X105329698Y-147256694D01*
X105329702Y-147256689D01*
X105348050Y-147238342D01*
X105359900Y-147215082D01*
X105365954Y-147205205D01*
X105381296Y-147184089D01*
X105389359Y-147159272D01*
X105393802Y-147148548D01*
X105398000Y-147140309D01*
X105405646Y-147125304D01*
X105409726Y-147099536D01*
X105412438Y-147088245D01*
X105420499Y-147063436D01*
X105420500Y-147063434D01*
X105420500Y-139546567D01*
X105412436Y-139521751D01*
X105409727Y-139510463D01*
X105405646Y-139484695D01*
X105393803Y-139461454D01*
X105389357Y-139450722D01*
X105387432Y-139444798D01*
X105381296Y-139425910D01*
X105381296Y-139425909D01*
X105365960Y-139404803D01*
X105359891Y-139394899D01*
X105358251Y-139391680D01*
X105348050Y-139371658D01*
X105258342Y-139281950D01*
X104078158Y-138101765D01*
X104062604Y-138078907D01*
X104048088Y-138045470D01*
X103848160Y-137584931D01*
X103846521Y-137581224D01*
X103846520Y-137581223D01*
X103846519Y-137581220D01*
X103840376Y-137572386D01*
X103831940Y-137556380D01*
X103820220Y-137525477D01*
X103730483Y-137395470D01*
X103703556Y-137371615D01*
X103612240Y-137290717D01*
X103600139Y-137284366D01*
X103472366Y-137217304D01*
X103318987Y-137179500D01*
X103318985Y-137179500D01*
X103161015Y-137179500D01*
X103161012Y-137179500D01*
X103007633Y-137217304D01*
X102867761Y-137290716D01*
X102749516Y-137395470D01*
X102659779Y-137525478D01*
X102659778Y-137525478D01*
X102603764Y-137673177D01*
X102603761Y-137673191D01*
X102584722Y-137829996D01*
X102584722Y-137830003D01*
X102603761Y-137986808D01*
X102603764Y-137986822D01*
X102659778Y-138134521D01*
X102688048Y-138175477D01*
X102749517Y-138264530D01*
X102867760Y-138369283D01*
X102977176Y-138426709D01*
X102984226Y-138430925D01*
X102994925Y-138438157D01*
X102994927Y-138438158D01*
X102994929Y-138438159D01*
X103488909Y-138652605D01*
X103511766Y-138668158D01*
X104597826Y-139754218D01*
X104619218Y-139800094D01*
X104619500Y-139806544D01*
X104619500Y-140214455D01*
X104602187Y-140262021D01*
X104558350Y-140287331D01*
X104508500Y-140278541D01*
X104493174Y-140266781D01*
X102686964Y-138460571D01*
X102678065Y-138449808D01*
X102666925Y-138433398D01*
X102666921Y-138433392D01*
X102262652Y-138025710D01*
X102257335Y-138020477D01*
X102257334Y-138020476D01*
X102257329Y-138020472D01*
X102242327Y-138010635D01*
X102233835Y-138004143D01*
X102162241Y-137940718D01*
X102162239Y-137940716D01*
X102022366Y-137867304D01*
X101868987Y-137829500D01*
X101868985Y-137829500D01*
X101711015Y-137829500D01*
X101711012Y-137829500D01*
X101557633Y-137867304D01*
X101417761Y-137940716D01*
X101299516Y-138045470D01*
X101209779Y-138175478D01*
X101209778Y-138175478D01*
X101153764Y-138323177D01*
X101153761Y-138323191D01*
X101134722Y-138479996D01*
X101134722Y-138480003D01*
X101153761Y-138636808D01*
X101153764Y-138636822D01*
X101209778Y-138784521D01*
X101235774Y-138822182D01*
X101248546Y-138871163D01*
X101226846Y-138916895D01*
X101180828Y-138937979D01*
X101147712Y-138933054D01*
X101036774Y-138889280D01*
X100776742Y-138786676D01*
X100772947Y-138785207D01*
X100772944Y-138785206D01*
X100772943Y-138785206D01*
X100769534Y-138784250D01*
X100769703Y-138783644D01*
X100754469Y-138778407D01*
X100752368Y-138777304D01*
X100598987Y-138739500D01*
X100598985Y-138739500D01*
X100441015Y-138739500D01*
X100441012Y-138739500D01*
X100287633Y-138777304D01*
X100147761Y-138850716D01*
X100029516Y-138955470D01*
X99939779Y-139085478D01*
X99939778Y-139085478D01*
X99883764Y-139233177D01*
X99883761Y-139233191D01*
X99864722Y-139389996D01*
X99864722Y-139390003D01*
X99883761Y-139546808D01*
X99883764Y-139546822D01*
X99939778Y-139694521D01*
X100015721Y-139804543D01*
X100029517Y-139824530D01*
X100147760Y-139929283D01*
X100287635Y-140002696D01*
X100441015Y-140040500D01*
X100441019Y-140040500D01*
X100598981Y-140040500D01*
X100598985Y-140040500D01*
X100752365Y-140002696D01*
X100756768Y-140000385D01*
X100773522Y-139994511D01*
X100773455Y-139994281D01*
X100776734Y-139993324D01*
X100776743Y-139993323D01*
X101255173Y-139804542D01*
X101305773Y-139803188D01*
X101334659Y-139821052D01*
X103347826Y-141834218D01*
X103369218Y-141880094D01*
X103369500Y-141886544D01*
X103369500Y-142597861D01*
X103352187Y-142645427D01*
X103308350Y-142670737D01*
X103261111Y-142663385D01*
X103192365Y-142627304D01*
X103192362Y-142627303D01*
X103038987Y-142589500D01*
X103038985Y-142589500D01*
X102881015Y-142589500D01*
X102881012Y-142589500D01*
X102727633Y-142627304D01*
X102587761Y-142700716D01*
X102469516Y-142805470D01*
X102379779Y-142935477D01*
X102346290Y-143023782D01*
X102313235Y-143062118D01*
X102263272Y-143070238D01*
X102256432Y-143068306D01*
X102098987Y-143029500D01*
X102098985Y-143029500D01*
X101941015Y-143029500D01*
X101941012Y-143029500D01*
X101787633Y-143067304D01*
X101647761Y-143140716D01*
X101529516Y-143245470D01*
X101476042Y-143322942D01*
X101434773Y-143352253D01*
X101384318Y-143348180D01*
X101348286Y-143312628D01*
X101341681Y-143271985D01*
X101355278Y-143160003D01*
X101355278Y-143159996D01*
X101336238Y-143003191D01*
X101336237Y-143003182D01*
X101305298Y-142921602D01*
X101280221Y-142855478D01*
X101190483Y-142725470D01*
X101162541Y-142700716D01*
X101072240Y-142620717D01*
X100981671Y-142573182D01*
X100932366Y-142547304D01*
X100778987Y-142509500D01*
X100778985Y-142509500D01*
X100621015Y-142509500D01*
X100621012Y-142509500D01*
X100467633Y-142547304D01*
X100327761Y-142620716D01*
X100209516Y-142725470D01*
X100119779Y-142855478D01*
X100119778Y-142855478D01*
X100063764Y-143003177D01*
X100063761Y-143003191D01*
X100044722Y-143159996D01*
X100044722Y-143160003D01*
X100063761Y-143316808D01*
X100063764Y-143316822D01*
X100119778Y-143464521D01*
X100209516Y-143594529D01*
X100209517Y-143594530D01*
X100327760Y-143699283D01*
X100467635Y-143772696D01*
X100621015Y-143810500D01*
X100621019Y-143810500D01*
X100778981Y-143810500D01*
X100778985Y-143810500D01*
X100932365Y-143772696D01*
X101072240Y-143699283D01*
X101190483Y-143594530D01*
X101243958Y-143517056D01*
X101285225Y-143487746D01*
X101335680Y-143491818D01*
X101371713Y-143527370D01*
X101378319Y-143568013D01*
X101375100Y-143594528D01*
X101367816Y-143654523D01*
X101364722Y-143680003D01*
X101383761Y-143836808D01*
X101383764Y-143836822D01*
X101439778Y-143984521D01*
X101529516Y-144114529D01*
X101529517Y-144114530D01*
X101614831Y-144190111D01*
X101638954Y-144234611D01*
X101628830Y-144284207D01*
X101589194Y-144315691D01*
X101565760Y-144319500D01*
X101521012Y-144319500D01*
X101367633Y-144357304D01*
X101227761Y-144430716D01*
X101109516Y-144535470D01*
X101019779Y-144665478D01*
X101019778Y-144665478D01*
X100963764Y-144813177D01*
X100963761Y-144813191D01*
X100944722Y-144969996D01*
X100944722Y-144970003D01*
X100963761Y-145126808D01*
X100963764Y-145126822D01*
X101019778Y-145274521D01*
X101097693Y-145387400D01*
X101109517Y-145404530D01*
X101227760Y-145509283D01*
X101367635Y-145582696D01*
X101521015Y-145620500D01*
X101521019Y-145620500D01*
X101678981Y-145620500D01*
X101678985Y-145620500D01*
X101832365Y-145582696D01*
X101972240Y-145509283D01*
X102090483Y-145404530D01*
X102180220Y-145274523D01*
X102236237Y-145126818D01*
X102249680Y-145016102D01*
X102255278Y-144970003D01*
X102255278Y-144969996D01*
X102236238Y-144813191D01*
X102236237Y-144813182D01*
X102218736Y-144767035D01*
X102180221Y-144665478D01*
X102090483Y-144535470D01*
X102087406Y-144532744D01*
X102005168Y-144459888D01*
X101981046Y-144415389D01*
X101991170Y-144365793D01*
X102030806Y-144334309D01*
X102054240Y-144330500D01*
X102098981Y-144330500D01*
X102098985Y-144330500D01*
X102252365Y-144292696D01*
X102392240Y-144219283D01*
X102510483Y-144114530D01*
X102600220Y-143984523D01*
X102633710Y-143896214D01*
X102666763Y-143857882D01*
X102716726Y-143849761D01*
X102723568Y-143851693D01*
X102727632Y-143852694D01*
X102727635Y-143852696D01*
X102881015Y-143890500D01*
X102881019Y-143890500D01*
X103038981Y-143890500D01*
X103038985Y-143890500D01*
X103192365Y-143852696D01*
X103261110Y-143816614D01*
X103311273Y-143809839D01*
X103354056Y-143836892D01*
X103369500Y-143882138D01*
X103369500Y-146083455D01*
X103352187Y-146131021D01*
X103347826Y-146135781D01*
X100065781Y-149417826D01*
X100019905Y-149439218D01*
X100013455Y-149439500D01*
X96959730Y-149439500D01*
X96912164Y-149422187D01*
X96886854Y-149378350D01*
X96895644Y-149328500D01*
X96898829Y-149323463D01*
X96960220Y-149234523D01*
X96966366Y-149218313D01*
X96976349Y-149200792D01*
X96976260Y-149200734D01*
X96977189Y-149199317D01*
X96977702Y-149198416D01*
X96978140Y-149197868D01*
X97232212Y-148719475D01*
X97245236Y-148701866D01*
X98297733Y-147649368D01*
X98303893Y-147643863D01*
X98333970Y-147619879D01*
X98366717Y-147571846D01*
X98368269Y-147569657D01*
X98402793Y-147522882D01*
X98402795Y-147522877D01*
X98405386Y-147517976D01*
X98405429Y-147517999D01*
X98408110Y-147512688D01*
X98408066Y-147512667D01*
X98410467Y-147507680D01*
X98410472Y-147507673D01*
X98427603Y-147452132D01*
X98428459Y-147449528D01*
X98447646Y-147394699D01*
X98447646Y-147394695D01*
X98448677Y-147389250D01*
X98448723Y-147389258D01*
X98449719Y-147383394D01*
X98449673Y-147383388D01*
X98450500Y-147377900D01*
X98450500Y-147319803D01*
X98450552Y-147317035D01*
X98452724Y-147258990D01*
X98452104Y-147253484D01*
X98452149Y-147253478D01*
X98450500Y-147240948D01*
X98450500Y-145729458D01*
X98450965Y-145721172D01*
X98452734Y-145705470D01*
X98455270Y-145682965D01*
X98444454Y-145625801D01*
X98444014Y-145623214D01*
X98435348Y-145565713D01*
X98435346Y-145565709D01*
X98435346Y-145565707D01*
X98433714Y-145560414D01*
X98433759Y-145560399D01*
X98431900Y-145554749D01*
X98431857Y-145554765D01*
X98430026Y-145549533D01*
X98430024Y-145549529D01*
X98430024Y-145549528D01*
X98402842Y-145498099D01*
X98401615Y-145495668D01*
X98387758Y-145466892D01*
X98376425Y-145443358D01*
X98376423Y-145443356D01*
X98376422Y-145443353D01*
X98373300Y-145438773D01*
X98373337Y-145438747D01*
X98369893Y-145433893D01*
X98369856Y-145433921D01*
X98366567Y-145429465D01*
X98366566Y-145429462D01*
X98325485Y-145388381D01*
X98323565Y-145386388D01*
X98284054Y-145343805D01*
X98279720Y-145340349D01*
X98279748Y-145340313D01*
X98269725Y-145332621D01*
X97522174Y-144585070D01*
X97500782Y-144539194D01*
X97500500Y-144532744D01*
X97500500Y-143852370D01*
X97517813Y-143804804D01*
X97561650Y-143779494D01*
X97611500Y-143788284D01*
X97623567Y-143796977D01*
X97727760Y-143889283D01*
X97867635Y-143962696D01*
X98021015Y-144000500D01*
X98021019Y-144000500D01*
X98178981Y-144000500D01*
X98178985Y-144000500D01*
X98332365Y-143962696D01*
X98472240Y-143889283D01*
X98590483Y-143784530D01*
X98680220Y-143654523D01*
X98736237Y-143506818D01*
X98752185Y-143375477D01*
X98755278Y-143350003D01*
X98755278Y-143349996D01*
X98736238Y-143193191D01*
X98736237Y-143193182D01*
X98688498Y-143067304D01*
X98680221Y-143045478D01*
X98590483Y-142915470D01*
X98577657Y-142904107D01*
X98472240Y-142810717D01*
X98460139Y-142804366D01*
X98332366Y-142737304D01*
X98178987Y-142699500D01*
X98178985Y-142699500D01*
X98021015Y-142699500D01*
X98021012Y-142699500D01*
X97867633Y-142737304D01*
X97727760Y-142810716D01*
X97727758Y-142810718D01*
X97623570Y-142903019D01*
X97576486Y-142921602D01*
X97528472Y-142905572D01*
X97501995Y-142862430D01*
X97500500Y-142847629D01*
X97500500Y-137070003D01*
X97894722Y-137070003D01*
X97913761Y-137226808D01*
X97913764Y-137226822D01*
X97969778Y-137374521D01*
X98043931Y-137481950D01*
X98059517Y-137504530D01*
X98177760Y-137609283D01*
X98317635Y-137682696D01*
X98471015Y-137720500D01*
X98471019Y-137720500D01*
X98628981Y-137720500D01*
X98628985Y-137720500D01*
X98782365Y-137682696D01*
X98922240Y-137609283D01*
X99040483Y-137504530D01*
X99130220Y-137374523D01*
X99186237Y-137226818D01*
X99193288Y-137168742D01*
X99205278Y-137070003D01*
X99205278Y-137069996D01*
X99186238Y-136913191D01*
X99186237Y-136913182D01*
X99133146Y-136773191D01*
X99130221Y-136765478D01*
X99040483Y-136635470D01*
X99031464Y-136627480D01*
X98922240Y-136530717D01*
X98893190Y-136515470D01*
X98782366Y-136457304D01*
X98628987Y-136419500D01*
X98628985Y-136419500D01*
X98471015Y-136419500D01*
X98471012Y-136419500D01*
X98317633Y-136457304D01*
X98177761Y-136530716D01*
X98059516Y-136635470D01*
X97969779Y-136765478D01*
X97969778Y-136765478D01*
X97913764Y-136913177D01*
X97913761Y-136913191D01*
X97894722Y-137069996D01*
X97894722Y-137070003D01*
X97500500Y-137070003D01*
X97500500Y-134973132D01*
X97503744Y-134951463D01*
X97511291Y-134926822D01*
X97662360Y-134433538D01*
X97663855Y-134421671D01*
X97668080Y-134404689D01*
X97686237Y-134356818D01*
X97694619Y-134287786D01*
X97705278Y-134200003D01*
X97705278Y-134199996D01*
X97688336Y-134060470D01*
X97686237Y-134043182D01*
X97632215Y-133900739D01*
X97631536Y-133850126D01*
X97663550Y-133810917D01*
X97701407Y-133800500D01*
X98332744Y-133800500D01*
X98380310Y-133817813D01*
X98385070Y-133822174D01*
X99709145Y-135146249D01*
X99720395Y-135162102D01*
X99720453Y-135162063D01*
X99722546Y-135165133D01*
X99723487Y-135166459D01*
X99723575Y-135166643D01*
X99726698Y-135171223D01*
X99726660Y-135171248D01*
X99730104Y-135176102D01*
X99730140Y-135176076D01*
X99733432Y-135180536D01*
X99774513Y-135221617D01*
X99776433Y-135223610D01*
X99815945Y-135266194D01*
X99820278Y-135269649D01*
X99820248Y-135269685D01*
X99830273Y-135277377D01*
X101110622Y-136557725D01*
X101116144Y-136563904D01*
X101140121Y-136593970D01*
X101188137Y-136626707D01*
X101190394Y-136628309D01*
X101237118Y-136662793D01*
X101242022Y-136665385D01*
X101241999Y-136665427D01*
X101247310Y-136668107D01*
X101247330Y-136668066D01*
X101252327Y-136670472D01*
X101307863Y-136687603D01*
X101310492Y-136688468D01*
X101365300Y-136707646D01*
X101365305Y-136707646D01*
X101370749Y-136708677D01*
X101370740Y-136708723D01*
X101376605Y-136709719D01*
X101376612Y-136709673D01*
X101382097Y-136710499D01*
X101382098Y-136710500D01*
X101440195Y-136710500D01*
X101442963Y-136710552D01*
X101501005Y-136712724D01*
X101501006Y-136712723D01*
X101501010Y-136712724D01*
X101501013Y-136712723D01*
X101506519Y-136712103D01*
X101506524Y-136712149D01*
X101519052Y-136710500D01*
X105798531Y-136710500D01*
X105846097Y-136727813D01*
X105863885Y-136749789D01*
X106101859Y-137197868D01*
X106102923Y-137199239D01*
X106113650Y-137218361D01*
X106119780Y-137234523D01*
X106209515Y-137364528D01*
X106209516Y-137364529D01*
X106209517Y-137364530D01*
X106327760Y-137469283D01*
X106467635Y-137542696D01*
X106621015Y-137580500D01*
X106621019Y-137580500D01*
X106778981Y-137580500D01*
X106778985Y-137580500D01*
X106932365Y-137542696D01*
X107072240Y-137469283D01*
X107190483Y-137364530D01*
X107280220Y-137234523D01*
X107286350Y-137218361D01*
X107336235Y-137086822D01*
X107336237Y-137086818D01*
X107355278Y-136930000D01*
X107353235Y-136913177D01*
X107336238Y-136773191D01*
X107336237Y-136773182D01*
X107319031Y-136727813D01*
X107280221Y-136625478D01*
X107190483Y-136495470D01*
X107072240Y-136390717D01*
X107060625Y-136384621D01*
X106989075Y-136347068D01*
X106977337Y-136339408D01*
X106976688Y-136338891D01*
X106967868Y-136331859D01*
X106967865Y-136331857D01*
X106967863Y-136331856D01*
X106489477Y-136077787D01*
X106471861Y-136064758D01*
X106369380Y-135962277D01*
X106363850Y-135956089D01*
X106339877Y-135926028D01*
X106291879Y-135893304D01*
X106289621Y-135891702D01*
X106242882Y-135857207D01*
X106237981Y-135854617D01*
X106238002Y-135854575D01*
X106232687Y-135851892D01*
X106232668Y-135851933D01*
X106227672Y-135849527D01*
X106172138Y-135832397D01*
X106169510Y-135831533D01*
X106114699Y-135812354D01*
X106114697Y-135812353D01*
X106114695Y-135812353D01*
X106109251Y-135811323D01*
X106109259Y-135811278D01*
X106103391Y-135810281D01*
X106103385Y-135810326D01*
X106097903Y-135809500D01*
X106097902Y-135809500D01*
X106039804Y-135809500D01*
X106037036Y-135809448D01*
X105978994Y-135807275D01*
X105973481Y-135807897D01*
X105973475Y-135807850D01*
X105960948Y-135809500D01*
X101667255Y-135809500D01*
X101619689Y-135792187D01*
X101614929Y-135787826D01*
X100597106Y-134770003D01*
X102244722Y-134770003D01*
X102263761Y-134926808D01*
X102263764Y-134926822D01*
X102319778Y-135074521D01*
X102409516Y-135204529D01*
X102409517Y-135204530D01*
X102527760Y-135309283D01*
X102667635Y-135382696D01*
X102821015Y-135420500D01*
X102821019Y-135420500D01*
X102978981Y-135420500D01*
X102978985Y-135420500D01*
X103132365Y-135382696D01*
X103272240Y-135309283D01*
X103390483Y-135204530D01*
X103480220Y-135074523D01*
X103536237Y-134926818D01*
X103551657Y-134799821D01*
X103555278Y-134770003D01*
X103555278Y-134769996D01*
X103536400Y-134614523D01*
X103536237Y-134613182D01*
X103526075Y-134586388D01*
X103480221Y-134465478D01*
X103405212Y-134356809D01*
X103391377Y-134336766D01*
X103378606Y-134287786D01*
X103400306Y-134242054D01*
X103446324Y-134220970D01*
X103486667Y-134229206D01*
X103607635Y-134292696D01*
X103761015Y-134330500D01*
X103761019Y-134330500D01*
X103918981Y-134330500D01*
X103918985Y-134330500D01*
X104069187Y-134293479D01*
X104119514Y-134298906D01*
X104154579Y-134335412D01*
X104160356Y-134356409D01*
X104173761Y-134466808D01*
X104173764Y-134466822D01*
X104229778Y-134614521D01*
X104315895Y-134739283D01*
X104319517Y-134744530D01*
X104437760Y-134849283D01*
X104577635Y-134922696D01*
X104731015Y-134960500D01*
X104731019Y-134960500D01*
X104888981Y-134960500D01*
X104888985Y-134960500D01*
X105042365Y-134922696D01*
X105182240Y-134849283D01*
X105198455Y-134834917D01*
X105245538Y-134816333D01*
X105293552Y-134832361D01*
X105308426Y-134848267D01*
X105309967Y-134850500D01*
X105364515Y-134929528D01*
X105364516Y-134929529D01*
X105364517Y-134929530D01*
X105482760Y-135034283D01*
X105622635Y-135107696D01*
X105776015Y-135145500D01*
X105776019Y-135145500D01*
X105933981Y-135145500D01*
X105933985Y-135145500D01*
X106087365Y-135107696D01*
X106227240Y-135034283D01*
X106345483Y-134929530D01*
X106435220Y-134799523D01*
X106446416Y-134770003D01*
X106486711Y-134663752D01*
X106491237Y-134651818D01*
X106501270Y-134569191D01*
X106510278Y-134495003D01*
X106510278Y-134494996D01*
X106491238Y-134338191D01*
X106491237Y-134338182D01*
X106476342Y-134298906D01*
X106435221Y-134190478D01*
X106345483Y-134060470D01*
X106302760Y-134022621D01*
X106227240Y-133955717D01*
X106215139Y-133949366D01*
X106087366Y-133882304D01*
X105933987Y-133844500D01*
X105933985Y-133844500D01*
X105776015Y-133844500D01*
X105776012Y-133844500D01*
X105622637Y-133882303D01*
X105482761Y-133955716D01*
X105466543Y-133970084D01*
X105419458Y-133988666D01*
X105371444Y-133972636D01*
X105356572Y-133956729D01*
X105300484Y-133875471D01*
X105271875Y-133850126D01*
X105182240Y-133770717D01*
X105135072Y-133745961D01*
X105042366Y-133697304D01*
X104888987Y-133659500D01*
X104888985Y-133659500D01*
X104731015Y-133659500D01*
X104731012Y-133659500D01*
X104580812Y-133696520D01*
X104530484Y-133691093D01*
X104495420Y-133654586D01*
X104489643Y-133633589D01*
X104482161Y-133571979D01*
X104476237Y-133523182D01*
X104424523Y-133386822D01*
X104420221Y-133375478D01*
X104330483Y-133245470D01*
X104313024Y-133230003D01*
X107594722Y-133230003D01*
X107613761Y-133386808D01*
X107613764Y-133386822D01*
X107669778Y-133534521D01*
X107756045Y-133659500D01*
X107759517Y-133664530D01*
X107877760Y-133769283D01*
X108017635Y-133842696D01*
X108171015Y-133880500D01*
X108171019Y-133880500D01*
X108328981Y-133880500D01*
X108328985Y-133880500D01*
X108482365Y-133842696D01*
X108622240Y-133769283D01*
X108740483Y-133664530D01*
X108830220Y-133534523D01*
X108886237Y-133386818D01*
X108904382Y-133237379D01*
X108905278Y-133230003D01*
X108905278Y-133229996D01*
X108886238Y-133073191D01*
X108886237Y-133073182D01*
X108868147Y-133025483D01*
X108830221Y-132925478D01*
X108740483Y-132795470D01*
X108682967Y-132744516D01*
X108622240Y-132690717D01*
X108572010Y-132664354D01*
X108482366Y-132617304D01*
X108328987Y-132579500D01*
X108328985Y-132579500D01*
X108171015Y-132579500D01*
X108171012Y-132579500D01*
X108017633Y-132617304D01*
X107877761Y-132690716D01*
X107759516Y-132795470D01*
X107669779Y-132925478D01*
X107669778Y-132925478D01*
X107613764Y-133073177D01*
X107613761Y-133073191D01*
X107594722Y-133229996D01*
X107594722Y-133230003D01*
X104313024Y-133230003D01*
X104303739Y-133221777D01*
X104212240Y-133140717D01*
X104142475Y-133104101D01*
X104072366Y-133067304D01*
X103918987Y-133029500D01*
X103918985Y-133029500D01*
X103761015Y-133029500D01*
X103761012Y-133029500D01*
X103607633Y-133067304D01*
X103467761Y-133140716D01*
X103349516Y-133245470D01*
X103259779Y-133375478D01*
X103259778Y-133375478D01*
X103203764Y-133523177D01*
X103203761Y-133523191D01*
X103184722Y-133679996D01*
X103184722Y-133680003D01*
X103203761Y-133836808D01*
X103203764Y-133836822D01*
X103239907Y-133932123D01*
X103259780Y-133984523D01*
X103307691Y-134053934D01*
X103348621Y-134113232D01*
X103361393Y-134162213D01*
X103339693Y-134207945D01*
X103293674Y-134229029D01*
X103253330Y-134220792D01*
X103132366Y-134157304D01*
X102978987Y-134119500D01*
X102978985Y-134119500D01*
X102821015Y-134119500D01*
X102821012Y-134119500D01*
X102667633Y-134157304D01*
X102527761Y-134230716D01*
X102409516Y-134335470D01*
X102319779Y-134465478D01*
X102319778Y-134465478D01*
X102263764Y-134613177D01*
X102263761Y-134613191D01*
X102244722Y-134769996D01*
X102244722Y-134770003D01*
X100597106Y-134770003D01*
X100490855Y-134663752D01*
X100479606Y-134647898D01*
X100479548Y-134647938D01*
X100477417Y-134644813D01*
X100476508Y-134643531D01*
X100476425Y-134643358D01*
X100476423Y-134643356D01*
X100476422Y-134643353D01*
X100473302Y-134638776D01*
X100473339Y-134638750D01*
X100469893Y-134633893D01*
X100469856Y-134633921D01*
X100466567Y-134629465D01*
X100466566Y-134629462D01*
X100425485Y-134588381D01*
X100423565Y-134586388D01*
X100384054Y-134543805D01*
X100379720Y-134540349D01*
X100379748Y-134540313D01*
X100369725Y-134532621D01*
X98889380Y-133052277D01*
X98883850Y-133046089D01*
X98868176Y-133026434D01*
X98859879Y-133016030D01*
X98859878Y-133016029D01*
X98859877Y-133016028D01*
X98825484Y-132992579D01*
X98811869Y-132983297D01*
X98809621Y-132981702D01*
X98762882Y-132947207D01*
X98757981Y-132944617D01*
X98758002Y-132944575D01*
X98752687Y-132941892D01*
X98752668Y-132941933D01*
X98747672Y-132939527D01*
X98692138Y-132922397D01*
X98689510Y-132921533D01*
X98634699Y-132902354D01*
X98634697Y-132902353D01*
X98634695Y-132902353D01*
X98629251Y-132901323D01*
X98629259Y-132901278D01*
X98623391Y-132900281D01*
X98623385Y-132900326D01*
X98617903Y-132899500D01*
X98617902Y-132899500D01*
X98559804Y-132899500D01*
X98557036Y-132899448D01*
X98498994Y-132897275D01*
X98493481Y-132897897D01*
X98493475Y-132897850D01*
X98480948Y-132899500D01*
X98479116Y-132899500D01*
X98431550Y-132882187D01*
X98407194Y-132840003D01*
X100794722Y-132840003D01*
X100813761Y-132996808D01*
X100813764Y-132996822D01*
X100869778Y-133144521D01*
X100959516Y-133274529D01*
X100959517Y-133274530D01*
X101077760Y-133379283D01*
X101217635Y-133452696D01*
X101371015Y-133490500D01*
X101371019Y-133490500D01*
X101528981Y-133490500D01*
X101528985Y-133490500D01*
X101682365Y-133452696D01*
X101822240Y-133379283D01*
X101940483Y-133274530D01*
X102030220Y-133144523D01*
X102031664Y-133140717D01*
X102057198Y-133073388D01*
X102086237Y-132996818D01*
X102095273Y-132922397D01*
X102105278Y-132840003D01*
X102105278Y-132839996D01*
X102086238Y-132683191D01*
X102086237Y-132683182D01*
X102061253Y-132617304D01*
X102030221Y-132535478D01*
X101940483Y-132405470D01*
X101891020Y-132361650D01*
X101822240Y-132300717D01*
X101803242Y-132290746D01*
X101682366Y-132227304D01*
X101528987Y-132189500D01*
X101528985Y-132189500D01*
X101371015Y-132189500D01*
X101371012Y-132189500D01*
X101217633Y-132227304D01*
X101077761Y-132300716D01*
X100959516Y-132405470D01*
X100869779Y-132535478D01*
X100869778Y-132535478D01*
X100813764Y-132683177D01*
X100813761Y-132683191D01*
X100794722Y-132839996D01*
X100794722Y-132840003D01*
X98407194Y-132840003D01*
X98406240Y-132838350D01*
X98410748Y-132797183D01*
X98416330Y-132783709D01*
X98435250Y-132640000D01*
X98416330Y-132496291D01*
X98360861Y-132362375D01*
X98272621Y-132247379D01*
X98157625Y-132159139D01*
X98157623Y-132159138D01*
X98023708Y-132103669D01*
X97880000Y-132084750D01*
X97736291Y-132103669D01*
X97602376Y-132159138D01*
X97487379Y-132247379D01*
X97399138Y-132362376D01*
X97343669Y-132496291D01*
X97324750Y-132640000D01*
X97343669Y-132783706D01*
X97343669Y-132783708D01*
X97343670Y-132783709D01*
X97349251Y-132797183D01*
X97351459Y-132847752D01*
X97320645Y-132887911D01*
X97280884Y-132899500D01*
X95379459Y-132899500D01*
X95371174Y-132899035D01*
X95332964Y-132894729D01*
X95275865Y-132905532D01*
X95273140Y-132905995D01*
X95215716Y-132914651D01*
X95210412Y-132916287D01*
X95210398Y-132916243D01*
X95204750Y-132918101D01*
X95204765Y-132918143D01*
X95199528Y-132919976D01*
X95148138Y-132947135D01*
X95145671Y-132948381D01*
X95093354Y-132973577D01*
X95088776Y-132976698D01*
X95088751Y-132976662D01*
X95083895Y-132980108D01*
X95083921Y-132980144D01*
X95079460Y-132983435D01*
X95038379Y-133024516D01*
X95036387Y-133026434D01*
X94993806Y-133065943D01*
X94990348Y-133070280D01*
X94990312Y-133070251D01*
X94982621Y-133080274D01*
X94728140Y-133334755D01*
X94710524Y-133347784D01*
X94441807Y-133490500D01*
X94232130Y-133601859D01*
X94232128Y-133601860D01*
X94232125Y-133601862D01*
X94221073Y-133610440D01*
X94210097Y-133617501D01*
X94156442Y-133645662D01*
X94135131Y-133656848D01*
X94084967Y-133663623D01*
X94042185Y-133636569D01*
X94034810Y-133624926D01*
X94028050Y-133611658D01*
X94008072Y-133591680D01*
X94008068Y-133591675D01*
X93159059Y-132742666D01*
X93159044Y-132742652D01*
X93138341Y-132721949D01*
X93115094Y-132710103D01*
X93105197Y-132704038D01*
X93084089Y-132688703D01*
X93084088Y-132688702D01*
X93059277Y-132680641D01*
X93048549Y-132676198D01*
X93025302Y-132664353D01*
X93025296Y-132664351D01*
X92999533Y-132660270D01*
X92988249Y-132657562D01*
X92971409Y-132652091D01*
X92963433Y-132649500D01*
X92963432Y-132649500D01*
X91914073Y-132649500D01*
X91866507Y-132632187D01*
X91848169Y-132609155D01*
X91697943Y-132314976D01*
X91697942Y-132314974D01*
X91697941Y-132314972D01*
X91691968Y-132307078D01*
X91682612Y-132290746D01*
X91670862Y-132262378D01*
X91670861Y-132262375D01*
X91582621Y-132147379D01*
X91467625Y-132059139D01*
X91467623Y-132059138D01*
X91333708Y-132003669D01*
X91190000Y-131984750D01*
X91046291Y-132003669D01*
X90912376Y-132059138D01*
X90912372Y-132059140D01*
X90860048Y-132099290D01*
X90811772Y-132114512D01*
X90769952Y-132099290D01*
X90717627Y-132059140D01*
X90717623Y-132059138D01*
X90583708Y-132003669D01*
X90440000Y-131984750D01*
X90296291Y-132003669D01*
X90162376Y-132059138D01*
X90047379Y-132147379D01*
X89959138Y-132262376D01*
X89903669Y-132396291D01*
X89884750Y-132540000D01*
X89903669Y-132683708D01*
X89949962Y-132795470D01*
X89959139Y-132817625D01*
X90047379Y-132932621D01*
X90162375Y-133020861D01*
X90173534Y-133025483D01*
X90191061Y-133032743D01*
X90207934Y-133042512D01*
X90214975Y-133047942D01*
X90544977Y-133216462D01*
X90563646Y-133230039D01*
X91041670Y-133708063D01*
X91041680Y-133708072D01*
X91061658Y-133728050D01*
X91084902Y-133739893D01*
X91094797Y-133745957D01*
X91115911Y-133761297D01*
X91140730Y-133769361D01*
X91151449Y-133773800D01*
X91174696Y-133785646D01*
X91200464Y-133789727D01*
X91211753Y-133792437D01*
X91236567Y-133800500D01*
X91268481Y-133800500D01*
X91348593Y-133800500D01*
X91396159Y-133817813D01*
X91421469Y-133861650D01*
X91417781Y-133900746D01*
X91415173Y-133907623D01*
X91413630Y-133911691D01*
X91403651Y-133929210D01*
X91403737Y-133929267D01*
X91402843Y-133930629D01*
X91402315Y-133931557D01*
X91401863Y-133932123D01*
X91401859Y-133932128D01*
X91401859Y-133932130D01*
X91342875Y-134043191D01*
X91147784Y-134410524D01*
X91134755Y-134428140D01*
X89065071Y-136497826D01*
X89019195Y-136519218D01*
X89012745Y-136519500D01*
X87241853Y-136519500D01*
X87194287Y-136502187D01*
X87168977Y-136458350D01*
X87177767Y-136408500D01*
X87179918Y-136405097D01*
X87180221Y-136404521D01*
X87220050Y-136299500D01*
X87236237Y-136256818D01*
X87255278Y-136100000D01*
X87236237Y-135943182D01*
X87201631Y-135851933D01*
X87180221Y-135795478D01*
X87090483Y-135665470D01*
X86972240Y-135560717D01*
X86960139Y-135554366D01*
X86832366Y-135487304D01*
X86678987Y-135449500D01*
X86678985Y-135449500D01*
X86521015Y-135449500D01*
X86521012Y-135449500D01*
X86367633Y-135487304D01*
X86227761Y-135560716D01*
X86109516Y-135665470D01*
X86019779Y-135795478D01*
X86019778Y-135795478D01*
X85963764Y-135943177D01*
X85963761Y-135943191D01*
X85944722Y-136099996D01*
X85944722Y-136100003D01*
X85963761Y-136256808D01*
X85963764Y-136256822D01*
X86019778Y-136404521D01*
X86021861Y-136408489D01*
X86020540Y-136409182D01*
X86031820Y-136452448D01*
X86010118Y-136498179D01*
X85964097Y-136519260D01*
X85958147Y-136519500D01*
X84684008Y-136519500D01*
X84659936Y-136515475D01*
X84150535Y-136340240D01*
X84150643Y-136339925D01*
X84146722Y-136338440D01*
X84146552Y-136338891D01*
X84142369Y-136337304D01*
X83988987Y-136299500D01*
X83988985Y-136299500D01*
X83831015Y-136299500D01*
X83831012Y-136299500D01*
X83677633Y-136337304D01*
X83537761Y-136410716D01*
X83419516Y-136515470D01*
X83352487Y-136612579D01*
X83311218Y-136641890D01*
X83260763Y-136637817D01*
X83239260Y-136622868D01*
X82922174Y-136305781D01*
X82900782Y-136259904D01*
X82900500Y-136253455D01*
X82900500Y-134546544D01*
X82917813Y-134498978D01*
X82922174Y-134494218D01*
X83216389Y-134200003D01*
X88844722Y-134200003D01*
X88863761Y-134356808D01*
X88863764Y-134356822D01*
X88919778Y-134504521D01*
X89009516Y-134634529D01*
X89009517Y-134634530D01*
X89127760Y-134739283D01*
X89267635Y-134812696D01*
X89421015Y-134850500D01*
X89421019Y-134850500D01*
X89578981Y-134850500D01*
X89578985Y-134850500D01*
X89732365Y-134812696D01*
X89872240Y-134739283D01*
X89990483Y-134634530D01*
X90080220Y-134504523D01*
X90082754Y-134497843D01*
X90111069Y-134423181D01*
X90136237Y-134356818D01*
X90144619Y-134287786D01*
X90155278Y-134200003D01*
X90155278Y-134199996D01*
X90138336Y-134060470D01*
X90136237Y-134043182D01*
X90112160Y-133979696D01*
X90080221Y-133895478D01*
X89990483Y-133765470D01*
X89985773Y-133761297D01*
X89872240Y-133660717D01*
X89832943Y-133640092D01*
X89732366Y-133587304D01*
X89578987Y-133549500D01*
X89578985Y-133549500D01*
X89421015Y-133549500D01*
X89421012Y-133549500D01*
X89267633Y-133587304D01*
X89127761Y-133660716D01*
X89009516Y-133765470D01*
X88919779Y-133895478D01*
X88919778Y-133895478D01*
X88863764Y-134043177D01*
X88863761Y-134043191D01*
X88844722Y-134199996D01*
X88844722Y-134200003D01*
X83216389Y-134200003D01*
X84294218Y-133122174D01*
X84340094Y-133100782D01*
X84346544Y-133100500D01*
X85724634Y-133100500D01*
X85747437Y-133104101D01*
X85872222Y-133144521D01*
X86028829Y-133195249D01*
X86098017Y-133217660D01*
X86137934Y-133248788D01*
X86148503Y-133298291D01*
X86133924Y-133333105D01*
X86119139Y-133352373D01*
X86119138Y-133352376D01*
X86063669Y-133486291D01*
X86044750Y-133630000D01*
X86063669Y-133773708D01*
X86116291Y-133900750D01*
X86119139Y-133907625D01*
X86207379Y-134022621D01*
X86322375Y-134110861D01*
X86456291Y-134166330D01*
X86600000Y-134185250D01*
X86743709Y-134166330D01*
X86877625Y-134110861D01*
X86992621Y-134022621D01*
X87080861Y-133907625D01*
X87136330Y-133773709D01*
X87155250Y-133630000D01*
X87136330Y-133486291D01*
X87080861Y-133352375D01*
X86992621Y-133237379D01*
X86877625Y-133149139D01*
X86809355Y-133120861D01*
X86793429Y-133114264D01*
X86756109Y-133080066D01*
X86749502Y-133029880D01*
X86763041Y-133000847D01*
X86780861Y-132977625D01*
X86836330Y-132843709D01*
X86855250Y-132700000D01*
X86847351Y-132640000D01*
X88384750Y-132640000D01*
X88403669Y-132783708D01*
X88458585Y-132916287D01*
X88459139Y-132917625D01*
X88547379Y-133032621D01*
X88662375Y-133120861D01*
X88796291Y-133176330D01*
X88940000Y-133195250D01*
X89083709Y-133176330D01*
X89217625Y-133120861D01*
X89332621Y-133032621D01*
X89420861Y-132917625D01*
X89476330Y-132783709D01*
X89495250Y-132640000D01*
X89476330Y-132496291D01*
X89420861Y-132362375D01*
X89332621Y-132247379D01*
X89217625Y-132159139D01*
X89217623Y-132159138D01*
X89083708Y-132103669D01*
X88940000Y-132084750D01*
X88796291Y-132103669D01*
X88662376Y-132159138D01*
X88547379Y-132247379D01*
X88459138Y-132362376D01*
X88403669Y-132496291D01*
X88384750Y-132640000D01*
X86847351Y-132640000D01*
X86836330Y-132556291D01*
X86780861Y-132422375D01*
X86780859Y-132422372D01*
X86721526Y-132345048D01*
X86706304Y-132296772D01*
X86721526Y-132254952D01*
X86780859Y-132177627D01*
X86780861Y-132177625D01*
X86836330Y-132043709D01*
X86855250Y-131900000D01*
X86836330Y-131756291D01*
X86780861Y-131622375D01*
X86771368Y-131610003D01*
X86721526Y-131545048D01*
X86706304Y-131496772D01*
X86721526Y-131454952D01*
X86749213Y-131418868D01*
X86780861Y-131377625D01*
X86836330Y-131243709D01*
X86855250Y-131100000D01*
X86836818Y-130960000D01*
X89164750Y-130960000D01*
X89183669Y-131103708D01*
X89235833Y-131229644D01*
X89239139Y-131237625D01*
X89327379Y-131352621D01*
X89442375Y-131440861D01*
X89576291Y-131496330D01*
X89720000Y-131515250D01*
X89863709Y-131496330D01*
X89997625Y-131440861D01*
X90112621Y-131352621D01*
X90200861Y-131237625D01*
X90256330Y-131103709D01*
X90275250Y-130960000D01*
X90256330Y-130816291D01*
X90200861Y-130682375D01*
X90112621Y-130567379D01*
X89997625Y-130479139D01*
X89987029Y-130474750D01*
X89863708Y-130423669D01*
X89720000Y-130404750D01*
X89576291Y-130423669D01*
X89442376Y-130479138D01*
X89327379Y-130567379D01*
X89239138Y-130682376D01*
X89183669Y-130816291D01*
X89164750Y-130960000D01*
X86836818Y-130960000D01*
X86836330Y-130956291D01*
X86780861Y-130822375D01*
X86755879Y-130789818D01*
X86721526Y-130745048D01*
X86706304Y-130696772D01*
X86721526Y-130654952D01*
X86777423Y-130582105D01*
X86780861Y-130577625D01*
X86836330Y-130443709D01*
X86855250Y-130300000D01*
X86836330Y-130156291D01*
X86780861Y-130022375D01*
X86780859Y-130022372D01*
X86721526Y-129945048D01*
X86706304Y-129896772D01*
X86721526Y-129854952D01*
X86758865Y-129806291D01*
X86780861Y-129777625D01*
X86808872Y-129710000D01*
X89344750Y-129710000D01*
X89363669Y-129853708D01*
X89416289Y-129980745D01*
X89419139Y-129987625D01*
X89507379Y-130102621D01*
X89622375Y-130190861D01*
X89756291Y-130246330D01*
X89900000Y-130265250D01*
X90043709Y-130246330D01*
X90177625Y-130190861D01*
X90292621Y-130102621D01*
X90380861Y-129987625D01*
X90380861Y-129987623D01*
X90383814Y-129983776D01*
X90385584Y-129985134D01*
X90417958Y-129957938D01*
X90468577Y-129957908D01*
X90507373Y-129990422D01*
X90516676Y-130017801D01*
X90526669Y-130093708D01*
X90566911Y-130190861D01*
X90582139Y-130227625D01*
X90670379Y-130342621D01*
X90785375Y-130430861D01*
X90794511Y-130434645D01*
X90798955Y-130436486D01*
X90836276Y-130470683D01*
X90844004Y-130514511D01*
X90835695Y-130577627D01*
X90832750Y-130600000D01*
X90834487Y-130613191D01*
X90851669Y-130743708D01*
X90901393Y-130863753D01*
X90907139Y-130877625D01*
X90995379Y-130992621D01*
X91110375Y-131080861D01*
X91244291Y-131136330D01*
X91388000Y-131155250D01*
X91531709Y-131136330D01*
X91665625Y-131080861D01*
X91667950Y-131079076D01*
X91669633Y-131078545D01*
X91669822Y-131078437D01*
X91669846Y-131078478D01*
X91716224Y-131063853D01*
X91758049Y-131079076D01*
X91760375Y-131080861D01*
X91894291Y-131136330D01*
X92038000Y-131155250D01*
X92181709Y-131136330D01*
X92315625Y-131080861D01*
X92317950Y-131079076D01*
X92319633Y-131078545D01*
X92319822Y-131078437D01*
X92319846Y-131078478D01*
X92366224Y-131063853D01*
X92408049Y-131079076D01*
X92410375Y-131080861D01*
X92544291Y-131136330D01*
X92688000Y-131155250D01*
X92831709Y-131136330D01*
X92965625Y-131080861D01*
X92967950Y-131079076D01*
X92969633Y-131078545D01*
X92969822Y-131078437D01*
X92969846Y-131078478D01*
X93016224Y-131063853D01*
X93058049Y-131079076D01*
X93060375Y-131080861D01*
X93194291Y-131136330D01*
X93338000Y-131155250D01*
X93384140Y-131149175D01*
X93433560Y-131160131D01*
X93462167Y-131194224D01*
X93484652Y-131248507D01*
X93509139Y-131307625D01*
X93597379Y-131422621D01*
X93712375Y-131510861D01*
X93846291Y-131566330D01*
X93990000Y-131585250D01*
X94133709Y-131566330D01*
X94267625Y-131510861D01*
X94382621Y-131422621D01*
X94470861Y-131307625D01*
X94526330Y-131173709D01*
X94545250Y-131030000D01*
X94526330Y-130886291D01*
X94478163Y-130770003D01*
X103394722Y-130770003D01*
X103413761Y-130926808D01*
X103413764Y-130926822D01*
X103469778Y-131074521D01*
X103539458Y-131175470D01*
X103559517Y-131204530D01*
X103677760Y-131309283D01*
X103817635Y-131382696D01*
X103971015Y-131420500D01*
X103971019Y-131420500D01*
X104128981Y-131420500D01*
X104128985Y-131420500D01*
X104282365Y-131382696D01*
X104422240Y-131309283D01*
X104540483Y-131204530D01*
X104630220Y-131074523D01*
X104631664Y-131070717D01*
X104659505Y-130997304D01*
X104686237Y-130926818D01*
X104697687Y-130832516D01*
X104705278Y-130770003D01*
X104705278Y-130769996D01*
X104689175Y-130637379D01*
X104686237Y-130613182D01*
X104661949Y-130549139D01*
X104630221Y-130465478D01*
X104540483Y-130335470D01*
X104483514Y-130285000D01*
X106278182Y-130285000D01*
X106284819Y-130348155D01*
X106343279Y-130528076D01*
X106437874Y-130691920D01*
X106564468Y-130832516D01*
X106717514Y-130943712D01*
X106717525Y-130943718D01*
X106890349Y-131020664D01*
X106890354Y-131020665D01*
X107044999Y-131053535D01*
X107045000Y-131053535D01*
X107045000Y-130463109D01*
X107057129Y-130470112D01*
X107141564Y-130485000D01*
X107198436Y-130485000D01*
X107282871Y-130470112D01*
X107295000Y-130463109D01*
X107295000Y-131053535D01*
X107449645Y-131020665D01*
X107449650Y-131020664D01*
X107622474Y-130943718D01*
X107622485Y-130943712D01*
X107775533Y-130832514D01*
X107820437Y-130782644D01*
X107865130Y-130758879D01*
X107914643Y-130769403D01*
X107927751Y-130779829D01*
X107937738Y-130789816D01*
X107937740Y-130789817D01*
X107937741Y-130789818D01*
X108055408Y-130863753D01*
X108086473Y-130903719D01*
X108084580Y-130954303D01*
X108050616Y-130991836D01*
X108041651Y-130995262D01*
X108041823Y-130995715D01*
X108037635Y-130997303D01*
X107897761Y-131070716D01*
X107779516Y-131175470D01*
X107689779Y-131305478D01*
X107689778Y-131305478D01*
X107633764Y-131453177D01*
X107633761Y-131453191D01*
X107614722Y-131609996D01*
X107614722Y-131610003D01*
X107633761Y-131766808D01*
X107633764Y-131766822D01*
X107689778Y-131914521D01*
X107778950Y-132043709D01*
X107779517Y-132044530D01*
X107897760Y-132149283D01*
X108037635Y-132222696D01*
X108191015Y-132260500D01*
X108191019Y-132260500D01*
X108348981Y-132260500D01*
X108348985Y-132260500D01*
X108502365Y-132222696D01*
X108642240Y-132149283D01*
X108760483Y-132044530D01*
X108850220Y-131914523D01*
X108906237Y-131766818D01*
X108913288Y-131708742D01*
X108925278Y-131610003D01*
X108925278Y-131609996D01*
X108906238Y-131453191D01*
X108906237Y-131453182D01*
X108877582Y-131377625D01*
X108850221Y-131305478D01*
X108760483Y-131175470D01*
X108642239Y-131070716D01*
X108640519Y-131069814D01*
X108639822Y-131069048D01*
X108638557Y-131068175D01*
X108638759Y-131067881D01*
X108606449Y-131032377D01*
X108604413Y-130981799D01*
X108635365Y-130941746D01*
X108650472Y-130934445D01*
X108765430Y-130894219D01*
X108789522Y-130885789D01*
X108942262Y-130789816D01*
X109069816Y-130662262D01*
X109165789Y-130509522D01*
X109176421Y-130479139D01*
X109224190Y-130342621D01*
X109225368Y-130339255D01*
X109245565Y-130160000D01*
X109225368Y-129980745D01*
X109225365Y-129980736D01*
X109165790Y-129810479D01*
X109093584Y-129695565D01*
X109069816Y-129657738D01*
X108989402Y-129577324D01*
X108968011Y-129531450D01*
X108981112Y-129482555D01*
X108989397Y-129472680D01*
X109069816Y-129392262D01*
X109140353Y-129280003D01*
X109854722Y-129280003D01*
X109873761Y-129436808D01*
X109873764Y-129436822D01*
X109929778Y-129584521D01*
X110010925Y-129702083D01*
X110019517Y-129714530D01*
X110137760Y-129819283D01*
X110277635Y-129892696D01*
X110431015Y-129930500D01*
X110431019Y-129930500D01*
X110588981Y-129930500D01*
X110588985Y-129930500D01*
X110742365Y-129892696D01*
X110882240Y-129819283D01*
X111000483Y-129714530D01*
X111090220Y-129584523D01*
X111092950Y-129577326D01*
X111128891Y-129482555D01*
X111146237Y-129436818D01*
X111152649Y-129384011D01*
X111153344Y-129378289D01*
X111176263Y-129333156D01*
X111222832Y-129313315D01*
X111271259Y-129328049D01*
X111293240Y-129354617D01*
X111350585Y-129471523D01*
X111372776Y-129516762D01*
X111576678Y-129843893D01*
X111812625Y-130148711D01*
X111812635Y-130148723D01*
X112078209Y-130428109D01*
X112078211Y-130428110D01*
X112078216Y-130428115D01*
X112265043Y-130588500D01*
X112350965Y-130662262D01*
X112370702Y-130679205D01*
X112463376Y-130743708D01*
X112687085Y-130899415D01*
X113013988Y-131080861D01*
X113024131Y-131086491D01*
X113378370Y-131238507D01*
X113410252Y-131248510D01*
X113746170Y-131353905D01*
X113746168Y-131353905D01*
X114123761Y-131431503D01*
X114434507Y-131463101D01*
X114507260Y-131470500D01*
X114507261Y-131470500D01*
X114892739Y-131470500D01*
X114892740Y-131470500D01*
X115005158Y-131459068D01*
X115276238Y-131431503D01*
X115653830Y-131353905D01*
X115808181Y-131305477D01*
X116021630Y-131238507D01*
X116375869Y-131086491D01*
X116712911Y-130899417D01*
X117029298Y-130679205D01*
X117321784Y-130428115D01*
X117326010Y-130423670D01*
X117452268Y-130290845D01*
X117587366Y-130148722D01*
X117823320Y-129843895D01*
X118027225Y-129516760D01*
X118196987Y-129170675D01*
X118330866Y-128809192D01*
X118427488Y-128436018D01*
X118485860Y-128054984D01*
X118505384Y-127670000D01*
X118485860Y-127285016D01*
X118427488Y-126903982D01*
X118330866Y-126530808D01*
X118196987Y-126169325D01*
X118027225Y-125823240D01*
X117902428Y-125623022D01*
X117823321Y-125496106D01*
X117587374Y-125191288D01*
X117587364Y-125191276D01*
X117321790Y-124911890D01*
X117321788Y-124911889D01*
X117321786Y-124911888D01*
X117321784Y-124911885D01*
X117140538Y-124756291D01*
X117029302Y-124660798D01*
X117029295Y-124660793D01*
X116712914Y-124440584D01*
X116375872Y-124253510D01*
X116198749Y-124177501D01*
X116021630Y-124101493D01*
X116021627Y-124101492D01*
X116021619Y-124101489D01*
X115653829Y-123986094D01*
X115653831Y-123986094D01*
X115276238Y-123908496D01*
X114892747Y-123869500D01*
X114892740Y-123869500D01*
X114507260Y-123869500D01*
X114507252Y-123869500D01*
X114123761Y-123908496D01*
X113746169Y-123986094D01*
X113378380Y-124101489D01*
X113378372Y-124101492D01*
X113024127Y-124253510D01*
X112687085Y-124440584D01*
X112370704Y-124660793D01*
X112370697Y-124660798D01*
X112078211Y-124911889D01*
X112078209Y-124911890D01*
X111812635Y-125191276D01*
X111812625Y-125191288D01*
X111576678Y-125496106D01*
X111372776Y-125823237D01*
X111323027Y-125924658D01*
X111203013Y-126169325D01*
X111109041Y-126423057D01*
X111069132Y-126530813D01*
X110972512Y-126903980D01*
X110914140Y-127285016D01*
X110896326Y-127636291D01*
X110894616Y-127670000D01*
X110914140Y-128054984D01*
X110931520Y-128168434D01*
X110972512Y-128436019D01*
X111040985Y-128700476D01*
X111036147Y-128750863D01*
X111000053Y-128786352D01*
X110949591Y-128790338D01*
X110920276Y-128774414D01*
X110882240Y-128740717D01*
X110825117Y-128710736D01*
X110742366Y-128667304D01*
X110588987Y-128629500D01*
X110588985Y-128629500D01*
X110431015Y-128629500D01*
X110431012Y-128629500D01*
X110277633Y-128667304D01*
X110137761Y-128740716D01*
X110019516Y-128845470D01*
X109929779Y-128975478D01*
X109929778Y-128975478D01*
X109873764Y-129123177D01*
X109873761Y-129123191D01*
X109854722Y-129279996D01*
X109854722Y-129280003D01*
X109140353Y-129280003D01*
X109165789Y-129239522D01*
X109174069Y-129215861D01*
X109225365Y-129069263D01*
X109225368Y-129069255D01*
X109245565Y-128890000D01*
X109225368Y-128710745D01*
X109212028Y-128672621D01*
X109165790Y-128540479D01*
X109122106Y-128470957D01*
X109069816Y-128387738D01*
X108989402Y-128307324D01*
X108968011Y-128261450D01*
X108981112Y-128212555D01*
X108989397Y-128202680D01*
X109069816Y-128122262D01*
X109165789Y-127969522D01*
X109175668Y-127941291D01*
X109225365Y-127799263D01*
X109225368Y-127799255D01*
X109245565Y-127620000D01*
X109225368Y-127440745D01*
X109225365Y-127440736D01*
X109165790Y-127270479D01*
X109130120Y-127213712D01*
X109069816Y-127117738D01*
X108989402Y-127037324D01*
X108968011Y-126991450D01*
X108981112Y-126942555D01*
X108989397Y-126932680D01*
X109069816Y-126852262D01*
X109165789Y-126699522D01*
X109190418Y-126629138D01*
X109207045Y-126581618D01*
X109225368Y-126529255D01*
X109245565Y-126350000D01*
X109225368Y-126170745D01*
X109224870Y-126169322D01*
X109165790Y-126000479D01*
X109118148Y-125924658D01*
X109069816Y-125847738D01*
X108989402Y-125767324D01*
X108968011Y-125721450D01*
X108981112Y-125672555D01*
X108989397Y-125662680D01*
X109069816Y-125582262D01*
X109165789Y-125429522D01*
X109174283Y-125405249D01*
X109225365Y-125259263D01*
X109225368Y-125259255D01*
X109245565Y-125080000D01*
X109225368Y-124900745D01*
X109207612Y-124850000D01*
X109165790Y-124730479D01*
X109097863Y-124622375D01*
X109069816Y-124577738D01*
X108942262Y-124450184D01*
X108859013Y-124397875D01*
X108789520Y-124354209D01*
X108619263Y-124294634D01*
X108619256Y-124294632D01*
X108619255Y-124294632D01*
X108440000Y-124274435D01*
X108260745Y-124294632D01*
X108260736Y-124294634D01*
X108090480Y-124354209D01*
X108090478Y-124354210D01*
X108004542Y-124408207D01*
X107955055Y-124418854D01*
X107912846Y-124397875D01*
X107842765Y-124327794D01*
X107767664Y-124294634D01*
X107739991Y-124282415D01*
X107739990Y-124282414D01*
X107739988Y-124282414D01*
X107718659Y-124279940D01*
X107714865Y-124279500D01*
X107714864Y-124279500D01*
X106625136Y-124279500D01*
X106600013Y-124282414D01*
X106600007Y-124282415D01*
X106497234Y-124327794D01*
X106417794Y-124407234D01*
X106372414Y-124510011D01*
X106369500Y-124535135D01*
X106369500Y-125624863D01*
X106372414Y-125649986D01*
X106372415Y-125649992D01*
X106417795Y-125752768D01*
X106421669Y-125758423D01*
X106419310Y-125760038D01*
X106435672Y-125795127D01*
X106426040Y-125838577D01*
X106343279Y-125981923D01*
X106284819Y-126161844D01*
X106278182Y-126225000D01*
X106869638Y-126225000D01*
X106845000Y-126292694D01*
X106845000Y-126407306D01*
X106869638Y-126475000D01*
X106278182Y-126475000D01*
X106284819Y-126538155D01*
X106343279Y-126718076D01*
X106437874Y-126881920D01*
X106486103Y-126935484D01*
X106505065Y-126982418D01*
X106489423Y-127030559D01*
X106486103Y-127034516D01*
X106437874Y-127088079D01*
X106343279Y-127251923D01*
X106284819Y-127431844D01*
X106278182Y-127495000D01*
X106869638Y-127495000D01*
X106845000Y-127562694D01*
X106845000Y-127677306D01*
X106869638Y-127745000D01*
X106278182Y-127745000D01*
X106284819Y-127808155D01*
X106343279Y-127988076D01*
X106437874Y-128151920D01*
X106551089Y-128277657D01*
X106570051Y-128324590D01*
X106554409Y-128372732D01*
X106548424Y-128379497D01*
X106540185Y-128387735D01*
X106444209Y-128540479D01*
X106384634Y-128710736D01*
X106384632Y-128710745D01*
X106364435Y-128890000D01*
X106384632Y-129069254D01*
X106384634Y-129069263D01*
X106444209Y-129239520D01*
X106508506Y-129341847D01*
X106540184Y-129392262D01*
X106548422Y-129400500D01*
X106569814Y-129446375D01*
X106556713Y-129495270D01*
X106551089Y-129502340D01*
X106437877Y-129628075D01*
X106437875Y-129628077D01*
X106343279Y-129791923D01*
X106284819Y-129971844D01*
X106278182Y-130035000D01*
X106869638Y-130035000D01*
X106845000Y-130102694D01*
X106845000Y-130217306D01*
X106869638Y-130285000D01*
X106278182Y-130285000D01*
X104483514Y-130285000D01*
X104422240Y-130230717D01*
X104377774Y-130207379D01*
X104282366Y-130157304D01*
X104128987Y-130119500D01*
X104128985Y-130119500D01*
X103971015Y-130119500D01*
X103971012Y-130119500D01*
X103817633Y-130157304D01*
X103677761Y-130230716D01*
X103559516Y-130335470D01*
X103469779Y-130465478D01*
X103469778Y-130465478D01*
X103413764Y-130613177D01*
X103413761Y-130613191D01*
X103394722Y-130769996D01*
X103394722Y-130770003D01*
X94478163Y-130770003D01*
X94470861Y-130752375D01*
X94382621Y-130637379D01*
X94267625Y-130549139D01*
X94257140Y-130544796D01*
X94133708Y-130493669D01*
X94008919Y-130477240D01*
X93990000Y-130474750D01*
X93989999Y-130474750D01*
X93943857Y-130480824D01*
X93894438Y-130469867D01*
X93865832Y-130435775D01*
X93827247Y-130342621D01*
X93818861Y-130322375D01*
X93818860Y-130322373D01*
X93818859Y-130322371D01*
X93801705Y-130300017D01*
X93786482Y-130251741D01*
X93805853Y-130204975D01*
X93850752Y-130181601D01*
X93892519Y-130189909D01*
X93892894Y-130189005D01*
X93961220Y-130217306D01*
X94031291Y-130246330D01*
X94175000Y-130265250D01*
X94318709Y-130246330D01*
X94452625Y-130190861D01*
X94567621Y-130102621D01*
X94655861Y-129987625D01*
X94711330Y-129853709D01*
X94730250Y-129710000D01*
X94711330Y-129566291D01*
X94655861Y-129432375D01*
X94654076Y-129430049D01*
X94653545Y-129428366D01*
X94653437Y-129428178D01*
X94653478Y-129428153D01*
X94638853Y-129381776D01*
X94654076Y-129339950D01*
X94655861Y-129337625D01*
X94711330Y-129203709D01*
X94730250Y-129060000D01*
X94711330Y-128916291D01*
X94655861Y-128782375D01*
X94654076Y-128780049D01*
X94653545Y-128778366D01*
X94653437Y-128778178D01*
X94653478Y-128778153D01*
X94638853Y-128731776D01*
X94654076Y-128689950D01*
X94655861Y-128687625D01*
X94711330Y-128553709D01*
X94730250Y-128410000D01*
X94711330Y-128266291D01*
X94655861Y-128132375D01*
X94567621Y-128017379D01*
X94452625Y-127929139D01*
X94439516Y-127923709D01*
X94318708Y-127873669D01*
X94175000Y-127854750D01*
X94031291Y-127873669D01*
X93897376Y-127929138D01*
X93782379Y-128017379D01*
X93694138Y-128132375D01*
X93691715Y-128136573D01*
X93690371Y-128135797D01*
X93660453Y-128168434D01*
X93616637Y-128176156D01*
X93530000Y-128164750D01*
X93386291Y-128183669D01*
X93252376Y-128239138D01*
X93137379Y-128327379D01*
X93049138Y-128442376D01*
X92993669Y-128576291D01*
X92974750Y-128720000D01*
X92993669Y-128863708D01*
X93049138Y-128997623D01*
X93049139Y-128997625D01*
X93137379Y-129112621D01*
X93252375Y-129200861D01*
X93386291Y-129256330D01*
X93530000Y-129275250D01*
X93604855Y-129265394D01*
X93654271Y-129276349D01*
X93682879Y-129310442D01*
X93694138Y-129337625D01*
X93695925Y-129339953D01*
X93696456Y-129341640D01*
X93696563Y-129341824D01*
X93696522Y-129341847D01*
X93711145Y-129388230D01*
X93695925Y-129430047D01*
X93694140Y-129432373D01*
X93694138Y-129432376D01*
X93638669Y-129566291D01*
X93628860Y-129640798D01*
X93605486Y-129685697D01*
X93558720Y-129705068D01*
X93510444Y-129689846D01*
X93496785Y-129676186D01*
X93493861Y-129672375D01*
X93405621Y-129557379D01*
X93290625Y-129469139D01*
X93290623Y-129469138D01*
X93156708Y-129413669D01*
X93013000Y-129394750D01*
X92869291Y-129413669D01*
X92735376Y-129469138D01*
X92735373Y-129469140D01*
X92733047Y-129470925D01*
X92731360Y-129471456D01*
X92731173Y-129471565D01*
X92731148Y-129471523D01*
X92684770Y-129486145D01*
X92642953Y-129470925D01*
X92640626Y-129469140D01*
X92640625Y-129469139D01*
X92640623Y-129469138D01*
X92506708Y-129413669D01*
X92363000Y-129394750D01*
X92219291Y-129413669D01*
X92085376Y-129469138D01*
X92085373Y-129469140D01*
X92083047Y-129470925D01*
X92081360Y-129471456D01*
X92081173Y-129471565D01*
X92081148Y-129471523D01*
X92034770Y-129486145D01*
X91992953Y-129470925D01*
X91990626Y-129469140D01*
X91990625Y-129469139D01*
X91990623Y-129469138D01*
X91856708Y-129413669D01*
X91713000Y-129394750D01*
X91569291Y-129413669D01*
X91435376Y-129469138D01*
X91435373Y-129469140D01*
X91433047Y-129470925D01*
X91431360Y-129471456D01*
X91431173Y-129471565D01*
X91431148Y-129471523D01*
X91384770Y-129486145D01*
X91342953Y-129470925D01*
X91340626Y-129469140D01*
X91340625Y-129469139D01*
X91340623Y-129469138D01*
X91206708Y-129413669D01*
X91063000Y-129394750D01*
X90919291Y-129413669D01*
X90785376Y-129469138D01*
X90745156Y-129500000D01*
X90670379Y-129557379D01*
X90582811Y-129671500D01*
X90579186Y-129676224D01*
X90577425Y-129674873D01*
X90544981Y-129702083D01*
X90494362Y-129702069D01*
X90455594Y-129669522D01*
X90446323Y-129642200D01*
X90436330Y-129566291D01*
X90380861Y-129432375D01*
X90379076Y-129430049D01*
X90378545Y-129428366D01*
X90378437Y-129428178D01*
X90378478Y-129428153D01*
X90363853Y-129381776D01*
X90379082Y-129339943D01*
X90380861Y-129337625D01*
X90386486Y-129324043D01*
X90420681Y-129286724D01*
X90464509Y-129278994D01*
X90550000Y-129290250D01*
X90693709Y-129271330D01*
X90827625Y-129215861D01*
X90942621Y-129127621D01*
X91030861Y-129012625D01*
X91086330Y-128878709D01*
X91105250Y-128735000D01*
X91086330Y-128591291D01*
X91030861Y-128457375D01*
X91029076Y-128455049D01*
X91028545Y-128453366D01*
X91028437Y-128453178D01*
X91028478Y-128453153D01*
X91013853Y-128406776D01*
X91029076Y-128364950D01*
X91030861Y-128362625D01*
X91086330Y-128228709D01*
X91105250Y-128085000D01*
X91086330Y-127941291D01*
X91030861Y-127807375D01*
X90942621Y-127692379D01*
X90827625Y-127604139D01*
X90795569Y-127590861D01*
X90693708Y-127548669D01*
X90568919Y-127532240D01*
X90550000Y-127529750D01*
X90549999Y-127529750D01*
X90417665Y-127547172D01*
X90368246Y-127536216D01*
X90337431Y-127496057D01*
X90339639Y-127445486D01*
X90349293Y-127428763D01*
X90380861Y-127387625D01*
X90436330Y-127253709D01*
X90455250Y-127110000D01*
X90436330Y-126966291D01*
X90380861Y-126832375D01*
X90292621Y-126717379D01*
X90177625Y-126629139D01*
X90177623Y-126629138D01*
X90043708Y-126573669D01*
X89900000Y-126554750D01*
X89756291Y-126573669D01*
X89622376Y-126629138D01*
X89507379Y-126717379D01*
X89419138Y-126832376D01*
X89363669Y-126966291D01*
X89344750Y-127110000D01*
X89363669Y-127253708D01*
X89410677Y-127367195D01*
X89419139Y-127387625D01*
X89507379Y-127502621D01*
X89622375Y-127590861D01*
X89756291Y-127646330D01*
X89900000Y-127665250D01*
X90032335Y-127647827D01*
X90081753Y-127658783D01*
X90112568Y-127698941D01*
X90110360Y-127749512D01*
X90100701Y-127766242D01*
X90069140Y-127807372D01*
X90069138Y-127807376D01*
X90013669Y-127941291D01*
X89994750Y-128085000D01*
X90013669Y-128228708D01*
X90069138Y-128362623D01*
X90069140Y-128362626D01*
X90070925Y-128364953D01*
X90071456Y-128366639D01*
X90071565Y-128366827D01*
X90071523Y-128366851D01*
X90086145Y-128413230D01*
X90070925Y-128455047D01*
X90069138Y-128457375D01*
X90069137Y-128457377D01*
X90063512Y-128470957D01*
X90029314Y-128508277D01*
X89985488Y-128516004D01*
X89900000Y-128504750D01*
X89756291Y-128523669D01*
X89622376Y-128579138D01*
X89507379Y-128667379D01*
X89419138Y-128782376D01*
X89363669Y-128916291D01*
X89344750Y-129060000D01*
X89363669Y-129203708D01*
X89419138Y-129337623D01*
X89419140Y-129337626D01*
X89420925Y-129339953D01*
X89421456Y-129341639D01*
X89421565Y-129341827D01*
X89421523Y-129341851D01*
X89436145Y-129388230D01*
X89420925Y-129430047D01*
X89419140Y-129432373D01*
X89419138Y-129432376D01*
X89363669Y-129566291D01*
X89344750Y-129710000D01*
X86808872Y-129710000D01*
X86836330Y-129643709D01*
X86855250Y-129500000D01*
X86836330Y-129356291D01*
X86780861Y-129222375D01*
X86692621Y-129107379D01*
X86577625Y-129019139D01*
X86539927Y-129003524D01*
X86525514Y-128995572D01*
X86513052Y-128986758D01*
X86513040Y-128986751D01*
X86229220Y-128856316D01*
X86207795Y-128841403D01*
X86198341Y-128831949D01*
X86175094Y-128820103D01*
X86165197Y-128814038D01*
X86144089Y-128798703D01*
X86144088Y-128798702D01*
X86119277Y-128790641D01*
X86108549Y-128786198D01*
X86085302Y-128774353D01*
X86085296Y-128774351D01*
X86059533Y-128770270D01*
X86048249Y-128767562D01*
X86027622Y-128760861D01*
X86023433Y-128759500D01*
X85991519Y-128759500D01*
X81853433Y-128759500D01*
X81726567Y-128759500D01*
X81726566Y-128759500D01*
X81701750Y-128767562D01*
X81690470Y-128770270D01*
X81664696Y-128774354D01*
X81641453Y-128786196D01*
X81630731Y-128790637D01*
X81605910Y-128798703D01*
X81584801Y-128814039D01*
X81574904Y-128820104D01*
X81551659Y-128831949D01*
X81551657Y-128831950D01*
X81540376Y-128843231D01*
X81529094Y-128854513D01*
X81529091Y-128854516D01*
X81529087Y-128854519D01*
X79894520Y-130489086D01*
X79894517Y-130489090D01*
X79894516Y-130489091D01*
X79894513Y-130489094D01*
X79874088Y-130509520D01*
X79871949Y-130511659D01*
X79860107Y-130534900D01*
X79854043Y-130544796D01*
X79838703Y-130565911D01*
X79838702Y-130565912D01*
X79830641Y-130590722D01*
X79826200Y-130601446D01*
X79814352Y-130624699D01*
X79814351Y-130624702D01*
X79810270Y-130650467D01*
X79807562Y-130661751D01*
X79799500Y-130686568D01*
X79799500Y-137913432D01*
X79807562Y-137938249D01*
X79810270Y-137949533D01*
X79814351Y-137975296D01*
X79814353Y-137975302D01*
X79826198Y-137998549D01*
X79830641Y-138009277D01*
X79838702Y-138034088D01*
X79838703Y-138034089D01*
X79854038Y-138055197D01*
X79860103Y-138065094D01*
X79871949Y-138088341D01*
X79892652Y-138109044D01*
X79892659Y-138109052D01*
X79894515Y-138110908D01*
X79894516Y-138110909D01*
X82171950Y-140388342D01*
X82261658Y-140478050D01*
X82284899Y-140489891D01*
X82294803Y-140495960D01*
X82315909Y-140511296D01*
X82327814Y-140515163D01*
X82340721Y-140519357D01*
X82351449Y-140523801D01*
X82374691Y-140535644D01*
X82374693Y-140535644D01*
X82374696Y-140535646D01*
X82400464Y-140539726D01*
X82411754Y-140542436D01*
X82436567Y-140550499D01*
X82465412Y-140550499D01*
X82465436Y-140550500D01*
X82468481Y-140550500D01*
X86603455Y-140550500D01*
X86651021Y-140567813D01*
X86655781Y-140572174D01*
X87077826Y-140994218D01*
X87099218Y-141040094D01*
X87099500Y-141046544D01*
X87099500Y-146683432D01*
X87107562Y-146708249D01*
X87110270Y-146719533D01*
X87114351Y-146745296D01*
X87114353Y-146745302D01*
X87126198Y-146768549D01*
X87130641Y-146779277D01*
X87138702Y-146804088D01*
X87138703Y-146804089D01*
X87154038Y-146825197D01*
X87160103Y-146835094D01*
X87171949Y-146858341D01*
X87192652Y-146879044D01*
X87192659Y-146879052D01*
X87671839Y-147358232D01*
X87687393Y-147381090D01*
X87901852Y-147875098D01*
X87903479Y-147878777D01*
X87909621Y-147887609D01*
X87918057Y-147903614D01*
X87929778Y-147934520D01*
X87929780Y-147934523D01*
X88019515Y-148064528D01*
X88019516Y-148064529D01*
X88019517Y-148064530D01*
X88137760Y-148169283D01*
X88277635Y-148242696D01*
X88431015Y-148280500D01*
X88431019Y-148280500D01*
X88588981Y-148280500D01*
X88588985Y-148280500D01*
X88742365Y-148242696D01*
X88882240Y-148169283D01*
X89000483Y-148064530D01*
X89090220Y-147934523D01*
X89146237Y-147786818D01*
X89153288Y-147728742D01*
X89165278Y-147630003D01*
X89165278Y-147629996D01*
X89146238Y-147473191D01*
X89146237Y-147473182D01*
X89090220Y-147325477D01*
X89030075Y-147238341D01*
X89010552Y-147210057D01*
X88997780Y-147161076D01*
X89019480Y-147115344D01*
X89037060Y-147102498D01*
X89062240Y-147089283D01*
X89180483Y-146984530D01*
X89270220Y-146854523D01*
X89295619Y-146787549D01*
X89328672Y-146749216D01*
X89378635Y-146741095D01*
X89399198Y-146748268D01*
X89407633Y-146752695D01*
X89407635Y-146752696D01*
X89561015Y-146790500D01*
X89561019Y-146790500D01*
X89718981Y-146790500D01*
X89718985Y-146790500D01*
X89872365Y-146752696D01*
X90012240Y-146679283D01*
X90130483Y-146574530D01*
X90220220Y-146444523D01*
X90276237Y-146296818D01*
X90295278Y-146140000D01*
X90288412Y-146083455D01*
X90276238Y-145983191D01*
X90276237Y-145983182D01*
X90248788Y-145910805D01*
X90220221Y-145835478D01*
X90130483Y-145705470D01*
X90012238Y-145600715D01*
X89902826Y-145543290D01*
X89895778Y-145539077D01*
X89885074Y-145531842D01*
X89885071Y-145531840D01*
X89885070Y-145531840D01*
X89552351Y-145387400D01*
X89391089Y-145317393D01*
X89368231Y-145301839D01*
X88922174Y-144855781D01*
X88900782Y-144809904D01*
X88900500Y-144803455D01*
X88900500Y-144767714D01*
X88917813Y-144720148D01*
X88961650Y-144694838D01*
X88992209Y-144695864D01*
X89011015Y-144700500D01*
X89011019Y-144700500D01*
X89168981Y-144700500D01*
X89168985Y-144700500D01*
X89322365Y-144662696D01*
X89462240Y-144589283D01*
X89580483Y-144484530D01*
X89670220Y-144354523D01*
X89683503Y-144319500D01*
X89696887Y-144284207D01*
X89726237Y-144206818D01*
X89745184Y-144050766D01*
X89768103Y-144005637D01*
X89814671Y-143985796D01*
X89863098Y-144000530D01*
X89870970Y-144007363D01*
X90311838Y-144448231D01*
X90327392Y-144471089D01*
X90541852Y-144965098D01*
X90543479Y-144968777D01*
X90549621Y-144977609D01*
X90558057Y-144993614D01*
X90569778Y-145024520D01*
X90569780Y-145024523D01*
X90659515Y-145154528D01*
X90659516Y-145154529D01*
X90659517Y-145154530D01*
X90777760Y-145259283D01*
X90917635Y-145332696D01*
X91071015Y-145370500D01*
X91071019Y-145370500D01*
X91228981Y-145370500D01*
X91228985Y-145370500D01*
X91382365Y-145332696D01*
X91522240Y-145259283D01*
X91640483Y-145154530D01*
X91730220Y-145024523D01*
X91731732Y-145020538D01*
X91752757Y-144965098D01*
X91786237Y-144876818D01*
X91799567Y-144767034D01*
X91805278Y-144720003D01*
X91805278Y-144719996D01*
X91786238Y-144563191D01*
X91786237Y-144563182D01*
X91774693Y-144532744D01*
X91730221Y-144415478D01*
X91640483Y-144285470D01*
X91522238Y-144180715D01*
X91412826Y-144123290D01*
X91405778Y-144119077D01*
X91395074Y-144111842D01*
X91395071Y-144111840D01*
X91395070Y-144111840D01*
X91101790Y-143984521D01*
X90901089Y-143897392D01*
X90878231Y-143881838D01*
X89922174Y-142925781D01*
X89900782Y-142879905D01*
X89900500Y-142873455D01*
X89900500Y-142730003D01*
X90464722Y-142730003D01*
X90483761Y-142886808D01*
X90483764Y-142886822D01*
X90539778Y-143034521D01*
X90582431Y-143096314D01*
X90629517Y-143164530D01*
X90747760Y-143269283D01*
X90887635Y-143342696D01*
X91041015Y-143380500D01*
X91041019Y-143380500D01*
X91198981Y-143380500D01*
X91198985Y-143380500D01*
X91352365Y-143342696D01*
X91492240Y-143269283D01*
X91610483Y-143164530D01*
X91700220Y-143034523D01*
X91756237Y-142886818D01*
X91775278Y-142730000D01*
X91771722Y-142700717D01*
X91756237Y-142573182D01*
X91746423Y-142547304D01*
X91730761Y-142506009D01*
X91727300Y-142493822D01*
X91724058Y-142477058D01*
X91723323Y-142473255D01*
X91525665Y-141972325D01*
X91520500Y-141945164D01*
X91520500Y-141536928D01*
X91527077Y-141506429D01*
X91596432Y-141353107D01*
X91746738Y-141020828D01*
X91748358Y-141017182D01*
X91748496Y-141016866D01*
X91753115Y-141005693D01*
X91756279Y-140988998D01*
X91759790Y-140976548D01*
X91786237Y-140906818D01*
X91786239Y-140906808D01*
X91805278Y-140750003D01*
X91805278Y-140749996D01*
X91786238Y-140593191D01*
X91786237Y-140593182D01*
X91764416Y-140535644D01*
X91730221Y-140445478D01*
X91640483Y-140315470D01*
X91598798Y-140278541D01*
X91522240Y-140210717D01*
X91510139Y-140204366D01*
X91382366Y-140137304D01*
X91228987Y-140099500D01*
X91228985Y-140099500D01*
X91071015Y-140099500D01*
X91071012Y-140099500D01*
X90917633Y-140137304D01*
X90777761Y-140210716D01*
X90659516Y-140315470D01*
X90569779Y-140445478D01*
X90569778Y-140445478D01*
X90513764Y-140593177D01*
X90513761Y-140593191D01*
X90494722Y-140749996D01*
X90494722Y-140750003D01*
X90513761Y-140906808D01*
X90513762Y-140906812D01*
X90513763Y-140906818D01*
X90522591Y-140930095D01*
X90535150Y-140963211D01*
X90539153Y-140978564D01*
X90541450Y-140994013D01*
X90715449Y-141498029D01*
X90719500Y-141522177D01*
X90719500Y-141945164D01*
X90714335Y-141972325D01*
X90516709Y-142473169D01*
X90515205Y-142477057D01*
X90515205Y-142477058D01*
X90511908Y-142495414D01*
X90508265Y-142508571D01*
X90483762Y-142573180D01*
X90464722Y-142729996D01*
X90464722Y-142730003D01*
X89900500Y-142730003D01*
X89900500Y-139586567D01*
X89892438Y-139561756D01*
X89889727Y-139550463D01*
X89885646Y-139524695D01*
X89873803Y-139501454D01*
X89869357Y-139490722D01*
X89867399Y-139484696D01*
X89861296Y-139465910D01*
X89845954Y-139444793D01*
X89839895Y-139434906D01*
X89828050Y-139411658D01*
X89808072Y-139391680D01*
X89808068Y-139391675D01*
X87963219Y-137546826D01*
X87941827Y-137500950D01*
X87954928Y-137452055D01*
X87996392Y-137423021D01*
X88015545Y-137420500D01*
X89200541Y-137420500D01*
X89208826Y-137420965D01*
X89247035Y-137425270D01*
X89304137Y-137414464D01*
X89306829Y-137414007D01*
X89364287Y-137405348D01*
X89364290Y-137405346D01*
X89369590Y-137403712D01*
X89369604Y-137403759D01*
X89375252Y-137401900D01*
X89375237Y-137401855D01*
X89380473Y-137400023D01*
X89431855Y-137372865D01*
X89434278Y-137371640D01*
X89486642Y-137346425D01*
X89486646Y-137346421D01*
X89491222Y-137343302D01*
X89491248Y-137343341D01*
X89496102Y-137339897D01*
X89496075Y-137339860D01*
X89500530Y-137336569D01*
X89500538Y-137336566D01*
X89521320Y-137315782D01*
X89541617Y-137295487D01*
X89543611Y-137293566D01*
X89586194Y-137254055D01*
X89589653Y-137249718D01*
X89589689Y-137249746D01*
X89597376Y-137239726D01*
X91771865Y-135065236D01*
X91789474Y-135052212D01*
X92267868Y-134798140D01*
X92278920Y-134789560D01*
X92289898Y-134782498D01*
X92372240Y-134739283D01*
X92490483Y-134634530D01*
X92564599Y-134527153D01*
X92605868Y-134497843D01*
X92656323Y-134501916D01*
X92692355Y-134537468D01*
X92699500Y-134569191D01*
X92699500Y-146653455D01*
X92682187Y-146701021D01*
X92677826Y-146705781D01*
X86354520Y-153029086D01*
X86354517Y-153029090D01*
X86354516Y-153029091D01*
X86354513Y-153029094D01*
X86331950Y-153051658D01*
X86331949Y-153051659D01*
X86320107Y-153074900D01*
X86314043Y-153084796D01*
X86298703Y-153105911D01*
X86298702Y-153105912D01*
X86290641Y-153130722D01*
X86286200Y-153141446D01*
X86274352Y-153164699D01*
X86274351Y-153164702D01*
X86270270Y-153190467D01*
X86267562Y-153201751D01*
X86259500Y-153226568D01*
X86259500Y-154453455D01*
X86242187Y-154501021D01*
X86237826Y-154505781D01*
X78815781Y-161927826D01*
X78769905Y-161949218D01*
X78763455Y-161949500D01*
X72436565Y-161949500D01*
X72411749Y-161957562D01*
X72400467Y-161960270D01*
X72374700Y-161964352D01*
X72374695Y-161964353D01*
X72351445Y-161976200D01*
X72340728Y-161980639D01*
X72327344Y-161984988D01*
X72315909Y-161988704D01*
X72294797Y-162004042D01*
X72284905Y-162010103D01*
X72275183Y-162015057D01*
X72261659Y-162021949D01*
X72261658Y-162021950D01*
X72239094Y-162044513D01*
X72239091Y-162044516D01*
X72239086Y-162044520D01*
X70514520Y-163769086D01*
X70514517Y-163769090D01*
X70514516Y-163769091D01*
X70514513Y-163769094D01*
X70494325Y-163789283D01*
X70491949Y-163791659D01*
X70480107Y-163814900D01*
X70474043Y-163824796D01*
X70458703Y-163845911D01*
X70458702Y-163845912D01*
X70450641Y-163870722D01*
X70446200Y-163881446D01*
X70434352Y-163904699D01*
X70434351Y-163904702D01*
X70430270Y-163930467D01*
X70427562Y-163941751D01*
X70419500Y-163966568D01*
X70419500Y-165615164D01*
X70414335Y-165642325D01*
X70216709Y-166143169D01*
X70215205Y-166147057D01*
X70215205Y-166147058D01*
X70211908Y-166165414D01*
X70208265Y-166178571D01*
X70183762Y-166243180D01*
X70164722Y-166399996D01*
X70164722Y-166400003D01*
X70000500Y-166400003D01*
X70000500Y-159300003D01*
X71744722Y-159300003D01*
X71763761Y-159456808D01*
X71763764Y-159456822D01*
X71819778Y-159604521D01*
X71870865Y-159678533D01*
X71909517Y-159734530D01*
X72027760Y-159839283D01*
X72167635Y-159912696D01*
X72321015Y-159950500D01*
X72321019Y-159950500D01*
X72478981Y-159950500D01*
X72478985Y-159950500D01*
X72632365Y-159912696D01*
X72772240Y-159839283D01*
X72890483Y-159734530D01*
X72980220Y-159604523D01*
X72988795Y-159581914D01*
X73015045Y-159512696D01*
X73036237Y-159456818D01*
X73043288Y-159398742D01*
X73055278Y-159300003D01*
X73055278Y-159299996D01*
X73036238Y-159143191D01*
X73036237Y-159143182D01*
X73003480Y-159056808D01*
X72980221Y-158995478D01*
X72890483Y-158865470D01*
X72772240Y-158760717D01*
X72760139Y-158754366D01*
X72632366Y-158687304D01*
X72478987Y-158649500D01*
X72478985Y-158649500D01*
X72321015Y-158649500D01*
X72321012Y-158649500D01*
X72167633Y-158687304D01*
X72027761Y-158760716D01*
X71909516Y-158865470D01*
X71819779Y-158995478D01*
X71819778Y-158995478D01*
X71763764Y-159143177D01*
X71763761Y-159143191D01*
X71744722Y-159299996D01*
X71744722Y-159300003D01*
X70000500Y-159300003D01*
X70000500Y-151300003D01*
X85094722Y-151300003D01*
X85113761Y-151456808D01*
X85113764Y-151456822D01*
X85169778Y-151604521D01*
X85259516Y-151734529D01*
X85259517Y-151734530D01*
X85377760Y-151839283D01*
X85517635Y-151912696D01*
X85671015Y-151950500D01*
X85671019Y-151950500D01*
X85828981Y-151950500D01*
X85828985Y-151950500D01*
X85982365Y-151912696D01*
X86122240Y-151839283D01*
X86240483Y-151734530D01*
X86330220Y-151604523D01*
X86386237Y-151456818D01*
X86398911Y-151352438D01*
X86405278Y-151300003D01*
X86405278Y-151299996D01*
X86386238Y-151143191D01*
X86386237Y-151143182D01*
X86378213Y-151122025D01*
X86330221Y-150995478D01*
X86240483Y-150865470D01*
X86122240Y-150760717D01*
X86102773Y-150750500D01*
X85982366Y-150687304D01*
X85828987Y-150649500D01*
X85828985Y-150649500D01*
X85671015Y-150649500D01*
X85671012Y-150649500D01*
X85517633Y-150687304D01*
X85377761Y-150760716D01*
X85259516Y-150865470D01*
X85169779Y-150995478D01*
X85169778Y-150995478D01*
X85113764Y-151143177D01*
X85113761Y-151143191D01*
X85094722Y-151299996D01*
X85094722Y-151300003D01*
X70000500Y-151300003D01*
X70000500Y-150100003D01*
X71144722Y-150100003D01*
X71163761Y-150256808D01*
X71163764Y-150256822D01*
X71219778Y-150404521D01*
X71309516Y-150534529D01*
X71309517Y-150534530D01*
X71427760Y-150639283D01*
X71567635Y-150712696D01*
X71721015Y-150750500D01*
X71721019Y-150750500D01*
X71878981Y-150750500D01*
X71878985Y-150750500D01*
X72032365Y-150712696D01*
X72172240Y-150639283D01*
X72290483Y-150534530D01*
X72380220Y-150404523D01*
X72436237Y-150256818D01*
X72455278Y-150100000D01*
X72436237Y-149943182D01*
X72428213Y-149922025D01*
X72380221Y-149795478D01*
X72290483Y-149665470D01*
X72172240Y-149560717D01*
X72122321Y-149534517D01*
X72032366Y-149487304D01*
X71878987Y-149449500D01*
X71878985Y-149449500D01*
X71721015Y-149449500D01*
X71721012Y-149449500D01*
X71567633Y-149487304D01*
X71427761Y-149560716D01*
X71309516Y-149665470D01*
X71219779Y-149795478D01*
X71219778Y-149795478D01*
X71163764Y-149943177D01*
X71163761Y-149943191D01*
X71144722Y-150099996D01*
X71144722Y-150100003D01*
X70000500Y-150100003D01*
X70000500Y-127680000D01*
X71194616Y-127680000D01*
X71214140Y-128064984D01*
X71239222Y-128228709D01*
X71272512Y-128446019D01*
X71367799Y-128814039D01*
X71369134Y-128819192D01*
X71503013Y-129180675D01*
X71662342Y-129505491D01*
X71672776Y-129526762D01*
X71876678Y-129853893D01*
X72112625Y-130158711D01*
X72112635Y-130158723D01*
X72378209Y-130438109D01*
X72378211Y-130438110D01*
X72378216Y-130438115D01*
X72540729Y-130577627D01*
X72659054Y-130679206D01*
X72670702Y-130689205D01*
X72712764Y-130718481D01*
X72987085Y-130909415D01*
X73306111Y-131086489D01*
X73324131Y-131096491D01*
X73678370Y-131248507D01*
X73678380Y-131248510D01*
X74046170Y-131363905D01*
X74046168Y-131363905D01*
X74423761Y-131441503D01*
X74708921Y-131470500D01*
X74807260Y-131480500D01*
X74807261Y-131480500D01*
X75192739Y-131480500D01*
X75192740Y-131480500D01*
X75305158Y-131469068D01*
X75576238Y-131441503D01*
X75953830Y-131363905D01*
X76140053Y-131305477D01*
X76321630Y-131248507D01*
X76675869Y-131096491D01*
X77012911Y-130909417D01*
X77329298Y-130689205D01*
X77621784Y-130438115D01*
X77623333Y-130436486D01*
X77707297Y-130348155D01*
X77887366Y-130158722D01*
X78123320Y-129853895D01*
X78327225Y-129526760D01*
X78496987Y-129180675D01*
X78630866Y-128819192D01*
X78727488Y-128446018D01*
X78752921Y-128280000D01*
X80454750Y-128280000D01*
X80473669Y-128423708D01*
X80527517Y-128553709D01*
X80529139Y-128557625D01*
X80617379Y-128672621D01*
X80732375Y-128760861D01*
X80866291Y-128816330D01*
X81010000Y-128835250D01*
X81153709Y-128816330D01*
X81287625Y-128760861D01*
X81402621Y-128672621D01*
X81490861Y-128557625D01*
X81546330Y-128423709D01*
X81565250Y-128280000D01*
X81546330Y-128136291D01*
X81490861Y-128002375D01*
X81402621Y-127887379D01*
X81287625Y-127799139D01*
X81241419Y-127780000D01*
X82604750Y-127780000D01*
X82623669Y-127923708D01*
X82678045Y-128054984D01*
X82679139Y-128057625D01*
X82767379Y-128172621D01*
X82882375Y-128260861D01*
X83016291Y-128316330D01*
X83160000Y-128335250D01*
X83303709Y-128316330D01*
X83437625Y-128260861D01*
X83552621Y-128172621D01*
X83640861Y-128057625D01*
X83696330Y-127923709D01*
X83715250Y-127780000D01*
X83696330Y-127636291D01*
X83640861Y-127502375D01*
X83552621Y-127387379D01*
X83437625Y-127299139D01*
X83437623Y-127299138D01*
X83303708Y-127243669D01*
X83160000Y-127224750D01*
X83016291Y-127243669D01*
X82882376Y-127299138D01*
X82767379Y-127387379D01*
X82679138Y-127502376D01*
X82623669Y-127636291D01*
X82604750Y-127780000D01*
X81241419Y-127780000D01*
X81153708Y-127743669D01*
X81010000Y-127724750D01*
X80866291Y-127743669D01*
X80732376Y-127799138D01*
X80617379Y-127887379D01*
X80529138Y-128002376D01*
X80473669Y-128136291D01*
X80454750Y-128280000D01*
X78752921Y-128280000D01*
X78785860Y-128064984D01*
X78805384Y-127680000D01*
X78785860Y-127295016D01*
X78727488Y-126913982D01*
X78630866Y-126540808D01*
X78615752Y-126500000D01*
X85719610Y-126500000D01*
X85739068Y-126635339D01*
X85739068Y-126635340D01*
X85739069Y-126635342D01*
X85795870Y-126759718D01*
X85885411Y-126863055D01*
X86000439Y-126936978D01*
X86131631Y-126975500D01*
X86131633Y-126975500D01*
X86268368Y-126975500D01*
X86380567Y-126942555D01*
X86399561Y-126936978D01*
X86514589Y-126863055D01*
X86604130Y-126759718D01*
X86660931Y-126635342D01*
X86668655Y-126581617D01*
X86692561Y-126537000D01*
X86739553Y-126518186D01*
X86762751Y-126521147D01*
X86811631Y-126535500D01*
X86811633Y-126535500D01*
X86948368Y-126535500D01*
X87018160Y-126515007D01*
X87079561Y-126496978D01*
X87194589Y-126423055D01*
X87284130Y-126319718D01*
X87340931Y-126195342D01*
X87360390Y-126060000D01*
X87340931Y-125924658D01*
X87284130Y-125800282D01*
X87194589Y-125696945D01*
X87194585Y-125696942D01*
X87114287Y-125645339D01*
X87079561Y-125623022D01*
X87079560Y-125623021D01*
X86948369Y-125584500D01*
X86948367Y-125584500D01*
X86811633Y-125584500D01*
X86811632Y-125584500D01*
X86773902Y-125595578D01*
X86723385Y-125592367D01*
X86699928Y-125570000D01*
X90507750Y-125570000D01*
X90526669Y-125713708D01*
X90578391Y-125838577D01*
X90582139Y-125847625D01*
X90670379Y-125962621D01*
X90785375Y-126050861D01*
X90919291Y-126106330D01*
X91063000Y-126125250D01*
X91206709Y-126106330D01*
X91340625Y-126050861D01*
X91342950Y-126049076D01*
X91344633Y-126048545D01*
X91344822Y-126048437D01*
X91344846Y-126048478D01*
X91391224Y-126033853D01*
X91433049Y-126049076D01*
X91435375Y-126050861D01*
X91569291Y-126106330D01*
X91713000Y-126125250D01*
X91856709Y-126106330D01*
X91990625Y-126050861D01*
X92105621Y-125962621D01*
X92193861Y-125847625D01*
X92249330Y-125713709D01*
X92268250Y-125570000D01*
X92249330Y-125426291D01*
X92193861Y-125292375D01*
X92105621Y-125177379D01*
X91990625Y-125089139D01*
X91990623Y-125089138D01*
X91856708Y-125033669D01*
X91713000Y-125014750D01*
X91569291Y-125033669D01*
X91435376Y-125089138D01*
X91435373Y-125089140D01*
X91433047Y-125090925D01*
X91431360Y-125091456D01*
X91431173Y-125091565D01*
X91431148Y-125091523D01*
X91384770Y-125106145D01*
X91342953Y-125090925D01*
X91340626Y-125089140D01*
X91340625Y-125089139D01*
X91340623Y-125089138D01*
X91206708Y-125033669D01*
X91063000Y-125014750D01*
X90919291Y-125033669D01*
X90785376Y-125089138D01*
X90670379Y-125177379D01*
X90582138Y-125292376D01*
X90526669Y-125426291D01*
X90507750Y-125570000D01*
X86699928Y-125570000D01*
X86686751Y-125557435D01*
X86679809Y-125514040D01*
X86680390Y-125510000D01*
X86672004Y-125451673D01*
X86682371Y-125402128D01*
X86722161Y-125370838D01*
X86772754Y-125372444D01*
X86773472Y-125372736D01*
X86806291Y-125386330D01*
X86950000Y-125405250D01*
X87093709Y-125386330D01*
X87227625Y-125330861D01*
X87342621Y-125242621D01*
X87430861Y-125127625D01*
X87486330Y-124993709D01*
X87498667Y-124900000D01*
X88874750Y-124900000D01*
X88893669Y-125043708D01*
X88936430Y-125146942D01*
X88949139Y-125177625D01*
X89037379Y-125292621D01*
X89152375Y-125380861D01*
X89286291Y-125436330D01*
X89430000Y-125455250D01*
X89573709Y-125436330D01*
X89707625Y-125380861D01*
X89822621Y-125292621D01*
X89910861Y-125177625D01*
X89966330Y-125043709D01*
X89985250Y-124900000D01*
X89966330Y-124756291D01*
X89910861Y-124622375D01*
X89822621Y-124507379D01*
X89707625Y-124419139D01*
X89706937Y-124418854D01*
X89573708Y-124363669D01*
X89430000Y-124344750D01*
X89286291Y-124363669D01*
X89152376Y-124419138D01*
X89037379Y-124507379D01*
X88949138Y-124622376D01*
X88893669Y-124756291D01*
X88874750Y-124900000D01*
X87498667Y-124900000D01*
X87505250Y-124850000D01*
X87486330Y-124706291D01*
X87430861Y-124572375D01*
X87342621Y-124457379D01*
X87227625Y-124369139D01*
X87227623Y-124369138D01*
X87093708Y-124313669D01*
X86950000Y-124294750D01*
X86806291Y-124313669D01*
X86672376Y-124369138D01*
X86557379Y-124457379D01*
X86469138Y-124572376D01*
X86413669Y-124706291D01*
X86394750Y-124850000D01*
X86410264Y-124967839D01*
X86399308Y-125017258D01*
X86359149Y-125048073D01*
X86316048Y-125048500D01*
X86268369Y-125034500D01*
X86268367Y-125034500D01*
X86131633Y-125034500D01*
X86131631Y-125034500D01*
X86000439Y-125073021D01*
X86000437Y-125073023D01*
X85885414Y-125146942D01*
X85795871Y-125250280D01*
X85795870Y-125250281D01*
X85795870Y-125250282D01*
X85776647Y-125292375D01*
X85739068Y-125374660D01*
X85719610Y-125510000D01*
X85739068Y-125645339D01*
X85739068Y-125645340D01*
X85739069Y-125645342D01*
X85795870Y-125769718D01*
X85885411Y-125873055D01*
X85885413Y-125873056D01*
X85885414Y-125873057D01*
X85993855Y-125942747D01*
X86024511Y-125983027D01*
X86022102Y-126033589D01*
X85993855Y-126067253D01*
X85885414Y-126136942D01*
X85885411Y-126136944D01*
X85885411Y-126136945D01*
X85857354Y-126169325D01*
X85795871Y-126240280D01*
X85795870Y-126240281D01*
X85795870Y-126240282D01*
X85774923Y-126286150D01*
X85739068Y-126364660D01*
X85719610Y-126500000D01*
X78615752Y-126500000D01*
X78496987Y-126179325D01*
X78327225Y-125833240D01*
X78197343Y-125624864D01*
X78123321Y-125506106D01*
X77887374Y-125201288D01*
X77887364Y-125201276D01*
X77621790Y-124921890D01*
X77621788Y-124921889D01*
X77621786Y-124921888D01*
X77621784Y-124921885D01*
X77370646Y-124706291D01*
X77329302Y-124670798D01*
X77329295Y-124670793D01*
X77012914Y-124450584D01*
X76675872Y-124263510D01*
X76498749Y-124187501D01*
X76321630Y-124111493D01*
X76321627Y-124111492D01*
X76321619Y-124111489D01*
X75953829Y-123996094D01*
X75953831Y-123996094D01*
X75576238Y-123918496D01*
X75192747Y-123879500D01*
X75192740Y-123879500D01*
X74807260Y-123879500D01*
X74807252Y-123879500D01*
X74423761Y-123918496D01*
X74046169Y-123996094D01*
X73678380Y-124111489D01*
X73678372Y-124111492D01*
X73324127Y-124263510D01*
X72987085Y-124450584D01*
X72670704Y-124670793D01*
X72670697Y-124670798D01*
X72378211Y-124921889D01*
X72378209Y-124921890D01*
X72112635Y-125201276D01*
X72112625Y-125201288D01*
X71876678Y-125506106D01*
X71672776Y-125833237D01*
X71616984Y-125946978D01*
X71503013Y-126179325D01*
X71393507Y-126475000D01*
X71369132Y-126540813D01*
X71272512Y-126913980D01*
X71214140Y-127295016D01*
X71196324Y-127646330D01*
X71194616Y-127680000D01*
X70000500Y-127680000D01*
X70000500Y-124003226D01*
X70000782Y-123996777D01*
X70003632Y-123964201D01*
X70015120Y-123832887D01*
X70017357Y-123820198D01*
X70059103Y-123664398D01*
X70063513Y-123652283D01*
X70131677Y-123506105D01*
X70138115Y-123494954D01*
X70230629Y-123362831D01*
X70238910Y-123352962D01*
X70321872Y-123270000D01*
X94740000Y-123270000D01*
X94740000Y-127520000D01*
X99840000Y-127520000D01*
X99840000Y-123270000D01*
X94740000Y-123270000D01*
X70321872Y-123270000D01*
X70352962Y-123238910D01*
X70362831Y-123230629D01*
X70494954Y-123138115D01*
X70506105Y-123131677D01*
X70652286Y-123063511D01*
X70664398Y-123059103D01*
X70820198Y-123017357D01*
X70832887Y-123015120D01*
X70964227Y-123003629D01*
X70996778Y-123000782D01*
X71003227Y-123000500D01*
X71065892Y-123000500D01*
X117934108Y-123000500D01*
X117996773Y-123000500D01*
X118003222Y-123000782D01*
G37*
%TD.AperFunction*%
%TD*%
%TA.AperFunction,NonConductor*%
G36*
X82243492Y-129577813D02*
G01*
X82268802Y-129621650D01*
X82260012Y-129671500D01*
X82248252Y-129686826D01*
X80726826Y-131208252D01*
X80680950Y-131229644D01*
X80632055Y-131216543D01*
X80603021Y-131175079D01*
X80600500Y-131155926D01*
X80600500Y-130946545D01*
X80617813Y-130898979D01*
X80622174Y-130894219D01*
X81934219Y-129582174D01*
X81980095Y-129560782D01*
X81986545Y-129560500D01*
X82195926Y-129560500D01*
X82243492Y-129577813D01*
G37*
%TD.AperFunction*%
%TA.AperFunction,NonConductor*%
G36*
X102219915Y-139127445D02*
G01*
X102228177Y-139134570D01*
X103977826Y-140884219D01*
X103999218Y-140930095D01*
X103999500Y-140936545D01*
X103999500Y-141174455D01*
X103982187Y-141222021D01*
X103938350Y-141247331D01*
X103888500Y-141238541D01*
X103873174Y-141226781D01*
X101899160Y-139252767D01*
X101877768Y-139206891D01*
X101890869Y-139157996D01*
X101932333Y-139128962D01*
X101947018Y-139126576D01*
X102171393Y-139113030D01*
X102219915Y-139127445D01*
G37*
%TD.AperFunction*%
%TA.AperFunction,Conductor*%
%TO.N,/BAT_MON*%
G36*
X70920312Y-165703427D02*
G01*
X70922922Y-165707406D01*
X71139146Y-166255387D01*
X71138995Y-166264340D01*
X71132769Y-166270479D01*
X70824506Y-166399119D01*
X70815551Y-166399142D01*
X70815494Y-166399119D01*
X70507230Y-166270479D01*
X70500915Y-166264130D01*
X70500853Y-166255388D01*
X70717078Y-165707406D01*
X70723302Y-165700968D01*
X70727961Y-165700000D01*
X70912039Y-165700000D01*
X70920312Y-165703427D01*
G37*
%TD.AperFunction*%
%TD*%
%TA.AperFunction,Conductor*%
%TO.N,/BAT_MON*%
G36*
X90669963Y-132448444D02*
G01*
X90675866Y-132453916D01*
X90860394Y-132815265D01*
X90861105Y-132824191D01*
X90858247Y-132828859D01*
X90728859Y-132958247D01*
X90720586Y-132961674D01*
X90715265Y-132960394D01*
X90445908Y-132822843D01*
X90353915Y-132775865D01*
X90348106Y-132769051D01*
X90348410Y-132761011D01*
X90437436Y-132543821D01*
X90443743Y-132537468D01*
X90661011Y-132448411D01*
X90669963Y-132448444D01*
G37*
%TD.AperFunction*%
%TD*%
%TA.AperFunction,Conductor*%
%TO.N,/BAT_MON_EN*%
G36*
X91419963Y-132448444D02*
G01*
X91425866Y-132453916D01*
X91610394Y-132815265D01*
X91611105Y-132824191D01*
X91608247Y-132828859D01*
X91478859Y-132958247D01*
X91470586Y-132961674D01*
X91465265Y-132960394D01*
X91195908Y-132822843D01*
X91103915Y-132775865D01*
X91098106Y-132769051D01*
X91098410Y-132761011D01*
X91187436Y-132543821D01*
X91193743Y-132537468D01*
X91411011Y-132448411D01*
X91419963Y-132448444D01*
G37*
%TD.AperFunction*%
%TD*%
%TA.AperFunction,Conductor*%
%TO.N,/BAT_MON_EN*%
G36*
X82000452Y-162555416D02*
G01*
X82002990Y-162559216D01*
X82228898Y-163105281D01*
X82228894Y-163114236D01*
X82222593Y-163120552D01*
X81914506Y-163249119D01*
X81905551Y-163249142D01*
X81905494Y-163249119D01*
X81597081Y-163120417D01*
X81590766Y-163114068D01*
X81590644Y-163105480D01*
X81797140Y-162559550D01*
X81803272Y-162553024D01*
X81808083Y-162551989D01*
X81992179Y-162551989D01*
X82000452Y-162555416D01*
G37*
%TD.AperFunction*%
%TD*%
%TA.AperFunction,Conductor*%
%TO.N,/BHI360_CS*%
G36*
X90733039Y-144157485D02*
G01*
X91273415Y-144392073D01*
X91279638Y-144398510D01*
X91279576Y-144407253D01*
X91152563Y-144716191D01*
X91146248Y-144722540D01*
X91146191Y-144722563D01*
X90837253Y-144849576D01*
X90828298Y-144849553D01*
X90822073Y-144843415D01*
X90587485Y-144303039D01*
X90587334Y-144294086D01*
X90589942Y-144290109D01*
X90720108Y-144159943D01*
X90728380Y-144156517D01*
X90733039Y-144157485D01*
G37*
%TD.AperFunction*%
%TD*%
%TA.AperFunction,Conductor*%
%TO.N,/BHI360_CS*%
G36*
X86203013Y-132473058D02*
G01*
X86208485Y-132478961D01*
X86299109Y-132695483D01*
X86299142Y-132704437D01*
X86299109Y-132704517D01*
X86208485Y-132921038D01*
X86202129Y-132927347D01*
X86194087Y-132927652D01*
X85808095Y-132802622D01*
X85801280Y-132796812D01*
X85800000Y-132791491D01*
X85800000Y-132608508D01*
X85803427Y-132600235D01*
X85808091Y-132597378D01*
X86194088Y-132472347D01*
X86203013Y-132473058D01*
G37*
%TD.AperFunction*%
%TD*%
%TA.AperFunction,Conductor*%
%TO.N,/BHI360_INT*%
G36*
X89223039Y-145577485D02*
G01*
X89763415Y-145812073D01*
X89769638Y-145818510D01*
X89769576Y-145827253D01*
X89642563Y-146136191D01*
X89636248Y-146142540D01*
X89636191Y-146142563D01*
X89327253Y-146269576D01*
X89318298Y-146269553D01*
X89312073Y-146263415D01*
X89077485Y-145723039D01*
X89077334Y-145714086D01*
X89079942Y-145710109D01*
X89210108Y-145579943D01*
X89218380Y-145576517D01*
X89223039Y-145577485D01*
G37*
%TD.AperFunction*%
%TD*%
%TA.AperFunction,Conductor*%
%TO.N,/BHI360_INT*%
G36*
X86203013Y-130873058D02*
G01*
X86208485Y-130878961D01*
X86299109Y-131095483D01*
X86299142Y-131104437D01*
X86299109Y-131104517D01*
X86208485Y-131321038D01*
X86202129Y-131327347D01*
X86194087Y-131327652D01*
X85808095Y-131202622D01*
X85801280Y-131196812D01*
X85800000Y-131191491D01*
X85800000Y-131008508D01*
X85803427Y-131000235D01*
X85808091Y-130997378D01*
X86194088Y-130872347D01*
X86203013Y-130873058D01*
G37*
%TD.AperFunction*%
%TD*%
%TA.AperFunction,Conductor*%
%TO.N,/BHI360_MISO*%
G36*
X88093039Y-147067485D02*
G01*
X88633415Y-147302073D01*
X88639638Y-147308510D01*
X88639576Y-147317253D01*
X88512563Y-147626191D01*
X88506248Y-147632540D01*
X88506191Y-147632563D01*
X88197253Y-147759576D01*
X88188298Y-147759553D01*
X88182073Y-147753415D01*
X87947485Y-147213039D01*
X87947334Y-147204086D01*
X87949942Y-147200109D01*
X88080108Y-147069943D01*
X88088380Y-147066517D01*
X88093039Y-147067485D01*
G37*
%TD.AperFunction*%
%TD*%
%TA.AperFunction,Conductor*%
%TO.N,/BHI360_MISO*%
G36*
X85957416Y-129067621D02*
G01*
X86385475Y-129264344D01*
X86391561Y-129270912D01*
X86391415Y-129279412D01*
X86302851Y-129495482D01*
X86296542Y-129501838D01*
X86296486Y-129501861D01*
X86080135Y-129591090D01*
X86071180Y-129591077D01*
X86064858Y-129584735D01*
X86064744Y-129584448D01*
X85941602Y-129262016D01*
X85940832Y-129257842D01*
X85940832Y-129078253D01*
X85944259Y-129069980D01*
X85952532Y-129066553D01*
X85957416Y-129067621D01*
G37*
%TD.AperFunction*%
%TD*%
%TA.AperFunction,Conductor*%
%TO.N,/~{BUTTON2}*%
G36*
X106318731Y-136333017D02*
G01*
X106683535Y-136526763D01*
X106824573Y-136601668D01*
X106830272Y-136608575D01*
X106829906Y-136616450D01*
X106702563Y-136926191D01*
X106696248Y-136932540D01*
X106696191Y-136932563D01*
X106386450Y-137059906D01*
X106377495Y-137059883D01*
X106371668Y-137054573D01*
X106138982Y-136616450D01*
X106103017Y-136548732D01*
X106102164Y-136539820D01*
X106105076Y-136534975D01*
X106304974Y-136335077D01*
X106313246Y-136331651D01*
X106318731Y-136333017D01*
G37*
%TD.AperFunction*%
%TD*%
%TA.AperFunction,Conductor*%
%TO.N,/~{BUTTON2}*%
G36*
X94895026Y-133605078D02*
G01*
X95094921Y-133804973D01*
X95098348Y-133813246D01*
X95096981Y-133818734D01*
X94828331Y-134324573D01*
X94821424Y-134330272D01*
X94813549Y-134329906D01*
X94503808Y-134202563D01*
X94497460Y-134196249D01*
X94370093Y-133886449D01*
X94370116Y-133877495D01*
X94375425Y-133871668D01*
X94881267Y-133603017D01*
X94890179Y-133602164D01*
X94895026Y-133605078D01*
G37*
%TD.AperFunction*%
%TD*%
%TA.AperFunction,Conductor*%
%TO.N,/LED_R*%
G36*
X85176263Y-171497881D02*
G01*
X85306381Y-171627999D01*
X85309808Y-171636272D01*
X85309806Y-171636495D01*
X85300218Y-172138546D01*
X85296634Y-172146753D01*
X85288544Y-172150023D01*
X84954172Y-172150697D01*
X84945892Y-172147287D01*
X84711255Y-171911305D01*
X84707852Y-171903023D01*
X84711303Y-171894759D01*
X84711798Y-171894295D01*
X85160238Y-171497392D01*
X85168702Y-171494476D01*
X85176263Y-171497881D01*
G37*
%TD.AperFunction*%
%TD*%
%TA.AperFunction,Conductor*%
%TO.N,/LED_R*%
G36*
X103561701Y-137700446D02*
G01*
X103567927Y-137706585D01*
X103802514Y-138246960D01*
X103802665Y-138255913D01*
X103800055Y-138259892D01*
X103669892Y-138390055D01*
X103661619Y-138393482D01*
X103656960Y-138392514D01*
X103299037Y-138237132D01*
X103116584Y-138157926D01*
X103110361Y-138151489D01*
X103110422Y-138142748D01*
X103237437Y-137833806D01*
X103243748Y-137827461D01*
X103552748Y-137700423D01*
X103561701Y-137700446D01*
G37*
%TD.AperFunction*%
%TD*%
%TA.AperFunction,Conductor*%
%TO.N,/LED_G*%
G36*
X101212595Y-139287078D02*
G01*
X101219032Y-139293301D01*
X101220000Y-139297960D01*
X101220000Y-139482039D01*
X101216573Y-139490312D01*
X101212594Y-139492922D01*
X100664612Y-139709146D01*
X100655659Y-139708995D01*
X100649520Y-139702769D01*
X100561950Y-139492922D01*
X100520879Y-139394505D01*
X100520857Y-139385551D01*
X100520880Y-139385494D01*
X100649520Y-139077229D01*
X100655869Y-139070915D01*
X100664611Y-139070853D01*
X101212595Y-139287078D01*
G37*
%TD.AperFunction*%
%TD*%
%TA.AperFunction,Conductor*%
%TO.N,/LED_G*%
G36*
X83500312Y-176653427D02*
G01*
X83502922Y-176657406D01*
X83719146Y-177205387D01*
X83718995Y-177214340D01*
X83712769Y-177220479D01*
X83404506Y-177349119D01*
X83395551Y-177349142D01*
X83395494Y-177349119D01*
X83087230Y-177220479D01*
X83080915Y-177214130D01*
X83080853Y-177205388D01*
X83297078Y-176657406D01*
X83303302Y-176650968D01*
X83307961Y-176650000D01*
X83492039Y-176650000D01*
X83500312Y-176653427D01*
G37*
%TD.AperFunction*%
%TD*%
%TA.AperFunction,Conductor*%
%TO.N,/LED_B*%
G36*
X102045725Y-138240821D02*
G01*
X102045736Y-138240832D01*
X102449994Y-138648503D01*
X102453386Y-138656790D01*
X102449959Y-138665014D01*
X102319914Y-138795059D01*
X102312346Y-138798465D01*
X101802379Y-138829252D01*
X101793914Y-138826330D01*
X101789995Y-138818278D01*
X101789975Y-138817631D01*
X101789302Y-138484169D01*
X101792710Y-138475894D01*
X102029180Y-138240772D01*
X102037461Y-138237370D01*
X102045725Y-138240821D01*
G37*
%TD.AperFunction*%
%TD*%
%TA.AperFunction,Conductor*%
%TO.N,/LED_B*%
G36*
X84250312Y-182253427D02*
G01*
X84252922Y-182257406D01*
X84469146Y-182805387D01*
X84468995Y-182814340D01*
X84462769Y-182820479D01*
X84154506Y-182949119D01*
X84145551Y-182949142D01*
X84145494Y-182949119D01*
X83837230Y-182820479D01*
X83830915Y-182814130D01*
X83830853Y-182805388D01*
X84047078Y-182257406D01*
X84053302Y-182250968D01*
X84057961Y-182250000D01*
X84242039Y-182250000D01*
X84250312Y-182253427D01*
G37*
%TD.AperFunction*%
%TD*%
%TA.AperFunction,Conductor*%
%TO.N,/~{BUTTON1}*%
G36*
X91686449Y-134070092D02*
G01*
X91996191Y-134197436D01*
X92002540Y-134203751D01*
X92002563Y-134203808D01*
X92129906Y-134513549D01*
X92129883Y-134522504D01*
X92124573Y-134528331D01*
X91618734Y-134796981D01*
X91609820Y-134797835D01*
X91604973Y-134794921D01*
X91405078Y-134595026D01*
X91401651Y-134586753D01*
X91403016Y-134581269D01*
X91671668Y-134075425D01*
X91678575Y-134069727D01*
X91686449Y-134070092D01*
G37*
%TD.AperFunction*%
%TD*%
%TA.AperFunction,Conductor*%
%TO.N,/~{BUTTON1}*%
G36*
X84598128Y-136817284D02*
G01*
X84604836Y-136823216D01*
X84606022Y-136828348D01*
X84606022Y-137111064D01*
X84602595Y-137119337D01*
X84597402Y-137122351D01*
X84053857Y-137270651D01*
X84044973Y-137269523D01*
X84039980Y-137263871D01*
X83910879Y-136954505D01*
X83910857Y-136945551D01*
X83910880Y-136945494D01*
X84039713Y-136636767D01*
X84046061Y-136630454D01*
X84054314Y-136630211D01*
X84598128Y-136817284D01*
G37*
%TD.AperFunction*%
%TD*%
%TA.AperFunction,Conductor*%
%TO.N,/~{BUTTON3}*%
G36*
X96775026Y-148335078D02*
G01*
X96974921Y-148534973D01*
X96978348Y-148543246D01*
X96976981Y-148548734D01*
X96708331Y-149054573D01*
X96701424Y-149060272D01*
X96693549Y-149059906D01*
X96383808Y-148932563D01*
X96377460Y-148926249D01*
X96250093Y-148616449D01*
X96250116Y-148607495D01*
X96255425Y-148601668D01*
X96761267Y-148333017D01*
X96770179Y-148332164D01*
X96775026Y-148335078D01*
G37*
%TD.AperFunction*%
%TD*%
%TA.AperFunction,Conductor*%
%TO.N,/~{BUTTON3}*%
G36*
X97054478Y-134200868D02*
G01*
X97268891Y-134290344D01*
X97363571Y-134329855D01*
X97369886Y-134336204D01*
X97370252Y-134344079D01*
X97202534Y-134891726D01*
X97196835Y-134898633D01*
X97191347Y-134900000D01*
X96908653Y-134900000D01*
X96900380Y-134896573D01*
X96897466Y-134891726D01*
X96729747Y-134344079D01*
X96730601Y-134335165D01*
X96736427Y-134329855D01*
X97045494Y-134200879D01*
X97054449Y-134200857D01*
X97054478Y-134200868D01*
G37*
%TD.AperFunction*%
%TD*%
%TA.AperFunction,Conductor*%
%TO.N,/~{RESET BHI360}*%
G36*
X91154478Y-140750868D02*
G01*
X91462237Y-140879298D01*
X91468552Y-140885647D01*
X91468529Y-140894602D01*
X91468391Y-140894918D01*
X91223111Y-141437155D01*
X91216579Y-141443281D01*
X91212451Y-141444033D01*
X91028339Y-141444033D01*
X91020066Y-141440606D01*
X91017279Y-141436151D01*
X90830227Y-140894323D01*
X90830767Y-140885384D01*
X90836779Y-140879708D01*
X91145494Y-140750879D01*
X91154449Y-140750857D01*
X91154478Y-140750868D01*
G37*
%TD.AperFunction*%
%TD*%
%TA.AperFunction,Conductor*%
%TO.N,/~{RESET BHI360}*%
G36*
X91220312Y-142033427D02*
G01*
X91222922Y-142037406D01*
X91439146Y-142585387D01*
X91438995Y-142594340D01*
X91432769Y-142600479D01*
X91124506Y-142729119D01*
X91115551Y-142729142D01*
X91115494Y-142729119D01*
X90807230Y-142600479D01*
X90800915Y-142594130D01*
X90800853Y-142585388D01*
X91017078Y-142037406D01*
X91023302Y-142030968D01*
X91027961Y-142030000D01*
X91212039Y-142030000D01*
X91220312Y-142033427D01*
G37*
%TD.AperFunction*%
%TD*%
%TA.AperFunction,Conductor*%
%TO.N,/BHI360_MOSI*%
G36*
X86203013Y-131673058D02*
G01*
X86208485Y-131678961D01*
X86299109Y-131895483D01*
X86299142Y-131904437D01*
X86299109Y-131904517D01*
X86208485Y-132121038D01*
X86202129Y-132127347D01*
X86194087Y-132127652D01*
X85808095Y-132002622D01*
X85801280Y-131996812D01*
X85800000Y-131991491D01*
X85800000Y-131808508D01*
X85803427Y-131800235D01*
X85808091Y-131797378D01*
X86194088Y-131672347D01*
X86203013Y-131673058D01*
G37*
%TD.AperFunction*%
%TD*%
%TA.AperFunction,Conductor*%
%TO.N,/BHI360_MOSI*%
G36*
X89101485Y-143371329D02*
G01*
X89103369Y-143373795D01*
X89406782Y-143904558D01*
X89407913Y-143913442D01*
X89402432Y-143920522D01*
X89401131Y-143921163D01*
X89094506Y-144049119D01*
X89085551Y-144049142D01*
X89085494Y-144049119D01*
X88775867Y-143919910D01*
X88769552Y-143913561D01*
X88769005Y-143906346D01*
X88897827Y-143376836D01*
X88903112Y-143369608D01*
X88909195Y-143367902D01*
X89093212Y-143367902D01*
X89101485Y-143371329D01*
G37*
%TD.AperFunction*%
%TD*%
%TA.AperFunction,Conductor*%
%TO.N,/BHI360_CLK*%
G36*
X86024732Y-129879604D02*
G01*
X86386084Y-130064134D01*
X86391893Y-130070948D01*
X86391588Y-130078991D01*
X86302564Y-130296176D01*
X86296255Y-130302531D01*
X86296176Y-130302564D01*
X86078991Y-130391588D01*
X86070036Y-130391555D01*
X86064134Y-130386084D01*
X85879604Y-130024733D01*
X85878894Y-130015808D01*
X85881750Y-130011142D01*
X86011141Y-129881751D01*
X86019413Y-129878325D01*
X86024732Y-129879604D01*
G37*
%TD.AperFunction*%
%TD*%
%TA.AperFunction,Conductor*%
%TO.N,/BHI360_CLK*%
G36*
X88273039Y-145987485D02*
G01*
X88813415Y-146222073D01*
X88819638Y-146228510D01*
X88819576Y-146237253D01*
X88692563Y-146546191D01*
X88686248Y-146552540D01*
X88686191Y-146552563D01*
X88377253Y-146679576D01*
X88368298Y-146679553D01*
X88362073Y-146673415D01*
X88127485Y-146133039D01*
X88127334Y-146124086D01*
X88129942Y-146120109D01*
X88260108Y-145989943D01*
X88268380Y-145986517D01*
X88273039Y-145987485D01*
G37*
%TD.AperFunction*%
%TD*%
M02*
